{"asset":{"version":"2.0","generator":"babylon.js glTF exporter for maya 2018 v1.3.0"},"scene":0,"scenes":[{"nodes":[0],"extensions":{}}],"nodes":[{"children":[1],"translation":[0.0,0.0,0.0],"rotation":[0.0,0.0,0.0,1.0],"scale":[1.0,1.0,1.0],"name":"Rutherford"},{"children":[2,3,4],"translation":[83.04812,0.0,-184.9286],"rotation":[0.0,0.0,0.0,1.0],"scale":[1.0,1.0,1.0],"name":"He_jj_Model_Grp"},{"mesh":0,"translation":[0.0,0.0,0.0],"rotation":[0.0,0.0,0.0,1.0],"scale":[1.0,1.0,1.0],"name":"Orbital_1S"},{"mesh":1,"translation":[0.0,0.0,0.0],"rotation":[0.0,0.0,0.0,1.0],"scale":[1.0,1.0,1.0],"name":"Electron_6_Geo1"},{"mesh":2,"translation":[0.0,0.0,0.0],"rotation":[0.0,0.0,0.0,1.0],"scale":[1.0,1.0,1.0],"name":"Electron_6_Geo3"}],"meshes":[{"primitives":[{"attributes":{"POSITION":1,"NORMAL":2,"TANGENT":3,"TEXCOORD_0":4},"indices":0,"mode":4,"material":0}],"name":"Orbital_1S"},{"primitives":[{"attributes":{"POSITION":6,"NORMAL":7,"TANGENT":8,"TEXCOORD_0":9},"indices":5,"mode":4,"material":1}],"name":"Electron_6_Geo1"},{"primitives":[{"attributes":{"POSITION":11,"NORMAL":12,"TANGENT":13,"TEXCOORD_0":14},"indices":10,"mode":4,"material":1}],"name":"Electron_6_Geo3"}],"accessors":[{"bufferView":0,"componentType":5123,"count":2280,"type":"SCALAR","name":"accessorIndices"},{"bufferView":1,"componentType":5126,"count":443,"max":[12.1969109,13.2599688,-107.032509],"min":[-14.1921663,-13.1165724,-133.408676],"type":"VEC3","name":"accessorPositions"},{"bufferView":1,"byteOffset":5316,"componentType":5126,"count":443,"type":"VEC3","name":"accessorNormals"},{"bufferView":2,"componentType":5126,"count":443,"type":"VEC4","name":"accessorTangents"},{"bufferView":3,"componentType":5126,"count":443,"type":"VEC2","name":"accessorUVs"},{"bufferView":0,"byteOffset":4560,"componentType":5123,"count":336,"type":"SCALAR","name":"accessorIndices"},{"bufferView":1,"byteOffset":10632,"componentType":5126,"count":83,"max":[-0.5207636,0.6934936,-112.499924],"min":[-1.47438788,-0.260192752,-113.45356],"type":"VEC3","name":"accessorPositions"},{"bufferView":1,"byteOffset":11628,"componentType":5126,"count":83,"type":"VEC3","name":"accessorNormals"},{"bufferView":2,"byteOffset":7088,"componentType":5126,"count":83,"type":"VEC4","name":"accessorTangents"},{"bufferView":3,"byteOffset":3544,"componentType":5126,"count":83,"type":"VEC2","name":"accessorUVs"},{"bufferView":0,"byteOffset":5232,"componentType":5123,"count":336,"type":"SCALAR","name":"accessorIndices"},{"bufferView":1,"byteOffset":12624,"componentType":5126,"count":83,"max":[-0.5207636,0.6934936,-126.885674],"min":[-1.47438788,-0.260192752,-127.839355],"type":"VEC3","name":"accessorPositions"},{"bufferView":1,"byteOffset":13620,"componentType":5126,"count":83,"type":"VEC3","name":"accessorNormals"},{"bufferView":2,"byteOffset":8416,"componentType":5126,"count":83,"type":"VEC4","name":"accessorTangents"},{"bufferView":3,"byteOffset":4208,"componentType":5126,"count":83,"type":"VEC2","name":"accessorUVs"},{"bufferView":4,"componentType":5126,"count":2,"max":[8.291667],"min":[0.0],"type":"SCALAR","name":"accessorAnimationInput"},{"bufferView":5,"componentType":5126,"count":2,"type":"VEC3","name":"accessorAnimationPositions"}],"bufferViews":[{"buffer":0,"byteLength":5904,"name":"bufferViewScalar"},{"buffer":0,"byteOffset":5904,"byteLength":14616,"byteStride":12,"name":"bufferViewFloatVec3"},{"buffer":0,"byteOffset":20520,"byteLength":9744,"byteStride":16,"name":"bufferViewFloatVec4"},{"buffer":0,"byteOffset":30264,"byteLength":4872,"byteStride":8,"name":"bufferViewFloatVec2"},{"buffer":0,"byteOffset":35136,"byteLength":8,"name":"bufferViewAnimationFloatScalar"},{"buffer":0,"byteOffset":35144,"byteLength":24,"name":"bufferViewAnimationFloatVec3"}],"buffers":[{"uri":"He_jj_Model.bin","byteLength":35168}],"materials":[{"pbrMetallicRoughness":{"baseColorFactor":[1.0,1.0,1.0,1.0],"baseColorTexture":{"index":0,"texCoord":0},"metallicFactor":0.0,"roughnessFactor":0.3207082},"emissiveFactor":[0.0,0.0,0.0],"alphaMode":"BLEND","name":"C_jj_Model_proton_diffuse"},{"pbrMetallicRoughness":{"baseColorFactor":[1.0,1.0,1.0,1.0],"baseColorTexture":{"index":1,"texCoord":0},"metallicFactor":0.0,"roughnessFactor":0.3207082},"emissiveFactor":[0.0,0.0,0.0],"alphaMode":"OPAQUE","name":"Electron_Diffuse"}],"textures":[{"sampler":0,"source":0,"name":"C_jj_Model_proton_diffuse_baseColor.jpg"},{"sampler":1,"source":1,"name":"Electron_Diffuse_baseColor.jpg"}],"images":[{"uri":"C_jj_Model_proton_diffuse_baseColor.jpg"},{"uri":"Electron_Diffuse_baseColor.jpg"}],"samplers":[{"magFilter":9729,"minFilter":9987,"wrapS":10497,"wrapT":10497},{"magFilter":9729,"minFilter":9987,"wrapS":10497,"wrapT":10497}],"animations":[{"channels":[{"sampler":0,"target":{"node":1,"path":"translation"}}],"samplers":[{"input":15,"interpolation":"LINEAR","output":16}],"name":"All Animations"}]}