{"asset":{"version":"2.0","generator":"babylon.js glTF exporter for maya 2018 v1.3.0"},"scene":0,"scenes":[{"nodes":[0],"extensions":{}}],"nodes":[{"children":[1],"translation":[0.0,0.0,0.0],"rotation":[0.0,0.0,0.0,1.0],"scale":[1.0,1.0,1.0],"name":"Rutherford"},{"children":[2,3,4,5],"translation":[0.0,0.0,234.576782],"rotation":[0.0,0.0,0.0,1.0],"scale":[1.0,1.0,1.0],"name":"He_Nucleus"},{"mesh":0,"translation":[0.0,0.0,0.0],"rotation":[0.0,0.0,0.0,1.0],"scale":[1.0,1.0,1.0],"name":"Nutron__07"},{"mesh":1,"translation":[0.0,0.0,0.0],"rotation":[0.0,0.0,0.0,1.0],"scale":[1.0,1.0,1.0],"name":"Nutron__08"},{"mesh":2,"translation":[0.0,0.0,0.0],"rotation":[0.0,0.0,0.0,1.0],"scale":[1.0,1.0,1.0],"name":"Proton__07"},{"mesh":3,"translation":[0.0,0.0,0.0],"rotation":[0.0,0.0,0.0,1.0],"scale":[1.0,1.0,1.0],"name":"Proton__08"}],"meshes":[{"primitives":[{"attributes":{"POSITION":1,"NORMAL":2,"TANGENT":3,"TEXCOORD_0":4},"indices":0,"mode":4,"material":0}],"name":"Nutron__07"},{"primitives":[{"attributes":{"POSITION":6,"NORMAL":7,"TANGENT":8,"TEXCOORD_0":9},"indices":5,"mode":4,"material":0}],"name":"Nutron__08"},{"primitives":[{"attributes":{"POSITION":11,"NORMAL":12,"TANGENT":13,"TEXCOORD_0":14},"indices":10,"mode":4,"material":1}],"name":"Proton__07"},{"primitives":[{"attributes":{"POSITION":16,"NORMAL":17,"TANGENT":18,"TEXCOORD_0":19},"indices":15,"mode":4,"material":1}],"name":"Proton__08"}],"accessors":[{"bufferView":0,"componentType":5123,"count":336,"type":"SCALAR","name":"accessorIndices"},{"bufferView":1,"componentType":5126,"count":79,"max":[1.581693,2.38348079,26.5422573],"min":[-2.99667954,-2.194902,21.9638939],"type":"VEC3","name":"accessorPositions"},{"bufferView":1,"byteOffset":948,"componentType":5126,"count":79,"type":"VEC3","name":"accessorNormals"},{"bufferView":2,"componentType":5126,"count":79,"type":"VEC4","name":"accessorTangents"},{"bufferView":3,"componentType":5126,"count":79,"type":"VEC2","name":"accessorUVs"},{"bufferView":0,"byteOffset":672,"componentType":5123,"count":336,"type":"SCALAR","name":"accessorIndices"},{"bufferView":1,"byteOffset":1896,"componentType":5126,"count":79,"max":[0.9591549,2.39086056,24.069212],"min":[-3.61922383,-2.18752265,19.4908428],"type":"VEC3","name":"accessorPositions"},{"bufferView":1,"byteOffset":2844,"componentType":5126,"count":79,"type":"VEC3","name":"accessorNormals"},{"bufferView":2,"byteOffset":1264,"componentType":5126,"count":79,"type":"VEC4","name":"accessorTangents"},{"bufferView":3,"byteOffset":632,"componentType":5126,"count":79,"type":"VEC2","name":"accessorUVs"},{"bufferView":0,"byteOffset":1344,"componentType":5123,"count":336,"type":"SCALAR","name":"accessorIndices"},{"bufferView":1,"byteOffset":3792,"componentType":5126,"count":79,"max":[2.514823,2.29610157,24.8818913],"min":[-2.02438474,-2.28228045,20.3426838],"type":"VEC3","name":"accessorPositions"},{"bufferView":1,"byteOffset":4740,"componentType":5126,"count":79,"type":"VEC3","name":"accessorNormals"},{"bufferView":2,"byteOffset":2528,"componentType":5126,"count":79,"type":"VEC4","name":"accessorTangents"},{"bufferView":3,"byteOffset":1264,"componentType":5126,"count":79,"type":"VEC2","name":"accessorUVs"},{"bufferView":0,"byteOffset":2016,"componentType":5123,"count":336,"type":"SCALAR","name":"accessorIndices"},{"bufferView":1,"byteOffset":5688,"componentType":5126,"count":79,"max":[0.06829067,2.42567778,25.5534878],"min":[-4.51008129,-2.152705,20.9751186],"type":"VEC3","name":"accessorPositions"},{"bufferView":1,"byteOffset":6636,"componentType":5126,"count":79,"type":"VEC3","name":"accessorNormals"},{"bufferView":2,"byteOffset":3792,"componentType":5126,"count":79,"type":"VEC4","name":"accessorTangents"},{"bufferView":3,"byteOffset":1896,"componentType":5126,"count":79,"type":"VEC2","name":"accessorUVs"},{"bufferView":4,"componentType":5126,"count":2,"max":[8.291667],"min":[0.0],"type":"SCALAR","name":"accessorAnimationInput"},{"bufferView":5,"componentType":5126,"count":2,"type":"VEC3","name":"accessorAnimationPositions"}],"bufferViews":[{"buffer":0,"byteLength":2688,"name":"bufferViewScalar"},{"buffer":0,"byteOffset":2688,"byteLength":7584,"byteStride":12,"name":"bufferViewFloatVec3"},{"buffer":0,"byteOffset":10272,"byteLength":5056,"byteStride":16,"name":"bufferViewFloatVec4"},{"buffer":0,"byteOffset":15328,"byteLength":2528,"byteStride":8,"name":"bufferViewFloatVec2"},{"buffer":0,"byteOffset":17856,"byteLength":8,"name":"bufferViewAnimationFloatScalar"},{"buffer":0,"byteOffset":17864,"byteLength":24,"name":"bufferViewAnimationFloatVec3"}],"buffers":[{"uri":"He_Nucleus.bin","byteLength":17888}],"materials":[{"pbrMetallicRoughness":{"baseColorFactor":[1.0,1.0,1.0,1.0],"baseColorTexture":{"index":0,"texCoord":0},"metallicFactor":0.0,"roughnessFactor":0.3207082},"emissiveFactor":[0.0,0.0,0.0],"alphaMode":"OPAQUE","name":"proton_diffuse"},{"pbrMetallicRoughness":{"baseColorFactor":[1.0,1.0,1.0,1.0],"baseColorTexture":{"index":1,"texCoord":0},"metallicFactor":0.0,"roughnessFactor":0.3207082},"emissiveFactor":[0.0,0.0,0.0],"alphaMode":"OPAQUE","name":"Nutron_Diffuse"}],"textures":[{"sampler":0,"source":0,"name":"proton_diffuse_baseColor.jpg"},{"sampler":1,"source":1,"name":"Nutron_Diffuse_baseColor.jpg"}],"images":[{"uri":"proton_diffuse_baseColor.jpg"},{"uri":"Nutron_Diffuse_baseColor.jpg"}],"samplers":[{"magFilter":9729,"minFilter":9987,"wrapS":10497,"wrapT":10497},{"magFilter":9729,"minFilter":9987,"wrapS":10497,"wrapT":10497}],"animations":[{"channels":[{"sampler":0,"target":{"node":1,"path":"translation"}}],"samplers":[{"input":20,"interpolation":"LINEAR","output":21}],"name":"All Animations"}]}