{"asset":{"version":"2.0","generator":"babylon.js glTF exporter for maya 2018 v1.3.0"},"scene":0,"scenes":[{"nodes":[0],"extensions":{}}],"nodes":[{"mesh":0,"translation":[0.4218972,-4.47709942,-1.24957061],"rotation":[0.0,0.0,0.0,1.0],"scale":[1.0,1.0,1.0],"name":"typeMesh1"}],"meshes":[{"primitives":[{"attributes":{"POSITION":1,"NORMAL":2,"TANGENT":3,"COLOR_0":4,"TEXCOORD_0":5},"indices":0,"mode":4,"material":0}],"name":"typeMesh1"}],"accessors":[{"bufferView":0,"componentType":5123,"count":540,"type":"SCALAR","name":"accessorIndices"},{"bufferView":1,"componentType":5126,"count":200,"max":[3.15340281,9.052821,2.49915957],"min":[-3.99719715,-0.09862199,0.0003663943],"type":"VEC3","name":"accessorPositions"},{"bufferView":1,"byteOffset":2400,"componentType":5126,"count":200,"type":"VEC3","name":"accessorNormals"},{"bufferView":2,"componentType":5126,"count":200,"type":"VEC4","name":"accessorTangents"},{"bufferView":2,"byteOffset":3200,"componentType":5126,"count":200,"type":"VEC4","name":"accessorColors"},{"bufferView":3,"componentType":5126,"count":200,"type":"VEC2","name":"accessorUVs"}],"bufferViews":[{"buffer":0,"byteLength":1080,"name":"bufferViewScalar"},{"buffer":0,"byteOffset":1080,"byteLength":4800,"byteStride":12,"name":"bufferViewFloatVec3"},{"buffer":0,"byteOffset":5880,"byteLength":6400,"byteStride":16,"name":"bufferViewFloatVec4"},{"buffer":0,"byteOffset":12280,"byteLength":1600,"byteStride":8,"name":"bufferViewFloatVec2"}],"buffers":[{"uri":"C.bin","byteLength":13880}],"materials":[{"pbrMetallicRoughness":{"baseColorFactor":[0.5,0.5,0.5,1.0],"metallicFactor":0.0,"roughnessFactor":0.450053632},"emissiveFactor":[0.0,0.0,0.0],"alphaMode":"OPAQUE","name":"lambert2"}]}