{"asset":{"version":"2.0","generator":"babylon.js glTF exporter for maya 2018 v1.3.0"},"scene":0,"scenes":[{"nodes":[0],"extensions":{}}],"nodes":[{"children":[1],"translation":[0.0,-172.453949,0.0],"rotation":[0.0,0.0,0.0,1.0],"scale":[1.0,1.0,1.0],"name":"Brain_Full1"},{"children":[2,3,4,5],"translation":[0.0,0.0,0.0],"rotation":[0.0,0.0,0.0,1.0],"scale":[1.0,1.0,1.0],"name":"Nervous_Full_Cerebellum_Grp"},{"mesh":0,"translation":[0.0,0.0,0.0],"rotation":[0.0,0.0,0.0,1.0],"scale":[1.0,1.0,1.0],"name":"Nervous_Full_Cerebellum_1"},{"mesh":1,"translation":[0.0,0.0,0.0],"rotation":[0.0,0.0,0.0,1.0],"scale":[1.0,1.0,1.0],"name":"Nervous_Full_Cerebellum_2"},{"mesh":2,"translation":[0.0,0.0,0.0],"rotation":[0.0,0.0,0.0,1.0],"scale":[1.0,1.0,1.0],"name":"Nervous_Brain_Stem_1"},{"mesh":3,"translation":[0.0,0.0,0.0],"rotation":[0.0,0.0,0.0,1.0],"scale":[1.0,1.0,1.0],"name":"Nervous_Brain_Stem"}],"meshes":[{"primitives":[{"attributes":{"POSITION":1,"NORMAL":2,"TEXCOORD_0":3},"indices":0,"mode":4,"material":0}],"name":"Nervous_Full_Cerebellum_1"},{"primitives":[{"attributes":{"POSITION":5,"NORMAL":6,"TEXCOORD_0":7},"indices":4,"mode":4,"material":0}],"name":"Nervous_Full_Cerebellum_2"},{"primitives":[{"attributes":{"POSITION":9,"NORMAL":10,"TEXCOORD_0":11},"indices":8,"mode":4,"material":0}],"name":"Nervous_Brain_Stem_1"},{"primitives":[{"attributes":{"POSITION":13,"NORMAL":14,"TEXCOORD_0":15},"indices":12,"mode":4,"material":0}],"name":"Nervous_Brain_Stem"}],"accessors":[{"bufferView":0,"componentType":5123,"count":11856,"type":"SCALAR","name":"accessorIndices"},{"bufferView":1,"componentType":5126,"count":2132,"max":[-0.0151476562,169.742355,1.82084358],"min":[-4.46887159,165.4834,-4.08559561],"type":"VEC3","name":"accessorPositions"},{"bufferView":1,"byteOffset":25584,"componentType":5126,"count":2132,"type":"VEC3","name":"accessorNormals"},{"bufferView":2,"componentType":5126,"count":2132,"type":"VEC2","name":"accessorUVs"},{"bufferView":0,"byteOffset":23712,"componentType":5123,"count":12330,"type":"SCALAR","name":"accessorIndices"},{"bufferView":1,"byteOffset":51168,"componentType":5126,"count":2217,"max":[4.419051,169.744659,1.81246066],"min":[-0.0351849571,165.485413,-4.07478857],"type":"VEC3","name":"accessorPositions"},{"bufferView":1,"byteOffset":77772,"componentType":5126,"count":2217,"type":"VEC3","name":"accessorNormals"},{"bufferView":2,"byteOffset":17056,"componentType":5126,"count":2217,"type":"VEC2","name":"accessorUVs"},{"bufferView":0,"byteOffset":48372,"componentType":5123,"count":6282,"type":"SCALAR","name":"accessorIndices"},{"bufferView":1,"byteOffset":104376,"componentType":5126,"count":1157,"max":[4.25804424,175.26326,6.545714],"min":[-0.005676627,163.059525,-0.9242762],"type":"VEC3","name":"accessorPositions"},{"bufferView":1,"byteOffset":118260,"componentType":5126,"count":1157,"type":"VEC3","name":"accessorNormals"},{"bufferView":2,"byteOffset":34792,"componentType":5126,"count":1157,"type":"VEC2","name":"accessorUVs"},{"bufferView":0,"byteOffset":60936,"componentType":5123,"count":6282,"type":"SCALAR","name":"accessorIndices"},{"bufferView":1,"byteOffset":132144,"componentType":5126,"count":1157,"max":[0.15383327,175.26326,6.545714],"min":[-4.109887,163.059525,-0.9242762],"type":"VEC3","name":"accessorPositions"},{"bufferView":1,"byteOffset":146028,"componentType":5126,"count":1157,"type":"VEC3","name":"accessorNormals"},{"bufferView":2,"byteOffset":44048,"componentType":5126,"count":1157,"type":"VEC2","name":"accessorUVs"}],"bufferViews":[{"buffer":0,"byteLength":73500,"name":"bufferViewScalar"},{"buffer":0,"byteOffset":73500,"byteLength":159912,"byteStride":12,"name":"bufferViewFloatVec3"},{"buffer":0,"byteOffset":233412,"byteLength":53304,"byteStride":8,"name":"bufferViewFloatVec2"}],"buffers":[{"uri":"Nervous_Full_Cerebellum.bin","byteLength":286716}],"materials":[{"pbrMetallicRoughness":{"baseColorFactor":[1.0,1.0,1.0,1.0],"baseColorTexture":{"index":0,"texCoord":0},"metallicFactor":1.0,"roughnessFactor":1.0,"metallicRoughnessTexture":{"index":1,"texCoord":0}},"emissiveFactor":[0.0,0.0,0.0],"alphaMode":"OPAQUE","name":"Full_Brain_Mat"}],"textures":[{"sampler":0,"source":0,"name":"Full_Brain_Mat_baseColor.jpg"},{"sampler":1,"source":1,"name":"Full_Brain_Mat_metallicRoughness.jpg"}],"images":[{"uri":"Full_Brain_Mat_baseColor.jpg"},{"uri":"Full_Brain_Mat_metallicRoughness.jpg"}],"samplers":[{"magFilter":9729,"minFilter":9987,"wrapS":10497,"wrapT":10497},{"magFilter":9729,"minFilter":9987,"wrapS":10497,"wrapT":10497}]}