{"asset":{"version":"2.0","generator":"babylon.js glTF exporter for maya 2018 v1.3.0"},"scene":0,"scenes":[{"nodes":[0],"extensions":{}}],"nodes":[{"children":[1],"translation":[0.0,-172.453949,0.0],"rotation":[0.0,0.0,0.0,1.0],"scale":[1.0,1.0,1.0],"name":"Brain_Full"},{"children":[2,3,4,5],"translation":[0.0,0.0,0.0],"rotation":[0.0,0.0,0.0,1.0],"scale":[1.0,1.0,1.0],"name":"Nervous_Full_Cerebellum_Grp"},{"mesh":0,"translation":[0.0,0.0,0.0],"rotation":[0.0,0.0,0.0,1.0],"scale":[1.0,1.0,1.0],"name":"Nervous_Brain_Stem"},{"mesh":1,"translation":[0.0,0.0,0.0],"rotation":[0.0,0.0,0.0,1.0],"scale":[1.0,1.0,1.0],"name":"Nervous_Brain_Stem_1"},{"mesh":2,"translation":[0.0,0.0,0.0],"rotation":[0.0,0.0,0.0,1.0],"scale":[1.0,1.0,1.0],"name":"Nervous_Full_Cerebellum_1"},{"mesh":3,"translation":[0.0,0.0,0.0],"rotation":[0.0,0.0,0.0,1.0],"scale":[1.0,1.0,1.0],"name":"Nervous_Full_Cerebellum_2"}],"meshes":[{"primitives":[{"attributes":{"POSITION":1,"NORMAL":2,"TEXCOORD_0":3},"indices":0,"mode":4,"material":0}],"name":"Nervous_Brain_Stem"},{"primitives":[{"attributes":{"POSITION":5,"NORMAL":6,"TEXCOORD_0":7},"indices":4,"mode":4,"material":0}],"name":"Nervous_Brain_Stem_1"},{"primitives":[{"attributes":{"POSITION":9,"NORMAL":10,"TEXCOORD_0":11},"indices":8,"mode":4,"material":0}],"name":"Nervous_Full_Cerebellum_1"},{"primitives":[{"attributes":{"POSITION":13,"NORMAL":14,"TEXCOORD_0":15},"indices":12,"mode":4,"material":0}],"name":"Nervous_Full_Cerebellum_2"}],"accessors":[{"bufferView":0,"componentType":5123,"count":6282,"type":"SCALAR","name":"accessorIndices"},{"bufferView":1,"componentType":5126,"count":1157,"max":[0.15383327,175.26326,6.545714],"min":[-4.109887,163.059525,-0.9242762],"type":"VEC3","name":"accessorPositions"},{"bufferView":1,"byteOffset":13884,"componentType":5126,"count":1157,"type":"VEC3","name":"accessorNormals"},{"bufferView":2,"componentType":5126,"count":1157,"type":"VEC2","name":"accessorUVs"},{"bufferView":0,"byteOffset":12564,"componentType":5123,"count":6282,"type":"SCALAR","name":"accessorIndices"},{"bufferView":1,"byteOffset":27768,"componentType":5126,"count":1157,"max":[4.25804424,175.26326,6.545714],"min":[-0.005676627,163.059525,-0.9242762],"type":"VEC3","name":"accessorPositions"},{"bufferView":1,"byteOffset":41652,"componentType":5126,"count":1157,"type":"VEC3","name":"accessorNormals"},{"bufferView":2,"byteOffset":9256,"componentType":5126,"count":1157,"type":"VEC2","name":"accessorUVs"},{"bufferView":0,"byteOffset":25128,"componentType":5123,"count":11856,"type":"SCALAR","name":"accessorIndices"},{"bufferView":1,"byteOffset":55536,"componentType":5126,"count":2132,"max":[-0.0151476562,169.742355,1.82084358],"min":[-4.46887159,165.4834,-4.08559561],"type":"VEC3","name":"accessorPositions"},{"bufferView":1,"byteOffset":81120,"componentType":5126,"count":2132,"type":"VEC3","name":"accessorNormals"},{"bufferView":2,"byteOffset":18512,"componentType":5126,"count":2132,"type":"VEC2","name":"accessorUVs"},{"bufferView":0,"byteOffset":48840,"componentType":5123,"count":12330,"type":"SCALAR","name":"accessorIndices"},{"bufferView":1,"byteOffset":106704,"componentType":5126,"count":2217,"max":[4.419051,169.744659,1.81246066],"min":[-0.0351849571,165.485413,-4.07478857],"type":"VEC3","name":"accessorPositions"},{"bufferView":1,"byteOffset":133308,"componentType":5126,"count":2217,"type":"VEC3","name":"accessorNormals"},{"bufferView":2,"byteOffset":35568,"componentType":5126,"count":2217,"type":"VEC2","name":"accessorUVs"}],"bufferViews":[{"buffer":0,"byteLength":73500,"name":"bufferViewScalar"},{"buffer":0,"byteOffset":73500,"byteLength":159912,"byteStride":12,"name":"bufferViewFloatVec3"},{"buffer":0,"byteOffset":233412,"byteLength":53304,"byteStride":8,"name":"bufferViewFloatVec2"}],"buffers":[{"uri":"Nervous_Full_Cerebellum_Trans.bin","byteLength":286716}],"materials":[{"pbrMetallicRoughness":{"baseColorFactor":[0.1995,0.1995,0.5,0.266233742],"metallicFactor":0.0,"roughnessFactor":0.2581639},"emissiveFactor":[0.0,0.0,0.0],"alphaMode":"BLEND","name":"phong1"}]}