{"asset":{"version":"2.0","generator":"babylon.js glTF exporter for maya 2018 v1.3.0"},"scene":0,"scenes":[{"nodes":[0],"extensions":{}}],"nodes":[{"children":[1,4,7,10,11,14,16],"translation":[0.0,0.0,0.0],"rotation":[0.0,0.0,0.0,1.0],"scale":[1.0,1.0,1.0],"name":"Brain_Full"},{"children":[2,3],"translation":[0.0,0.0,0.0],"rotation":[0.0,0.0,0.0,1.0],"scale":[1.0,1.0,1.0],"name":"Frontal_Lobe_Grp"},{"mesh":0,"translation":[0.0,0.0,0.0],"rotation":[0.0,0.0,0.0,1.0],"scale":[1.0,1.0,1.0],"name":"Frontal_Lobe_Left"},{"mesh":1,"translation":[0.0,0.0,0.0],"rotation":[0.0,0.0,0.0,1.0],"scale":[1.0,1.0,1.0],"name":"Frontal_Lobe_Right"},{"children":[5,6],"translation":[0.0,0.0,0.0],"rotation":[0.0,0.0,0.0,1.0],"scale":[1.0,1.0,1.0],"name":"Parietal_Lobe"},{"mesh":2,"translation":[0.0,0.0,0.0],"rotation":[0.0,0.0,0.0,1.0],"scale":[1.0,1.0,1.0],"name":"Parietal_Lobe_Right"},{"mesh":3,"translation":[0.0,0.0,0.0],"rotation":[0.0,0.0,0.0,1.0],"scale":[1.0,1.0,1.0],"name":"Parietal_Lobe_Left"},{"children":[8,9],"translation":[0.0,0.0,0.0],"rotation":[0.0,0.0,0.0,1.0],"scale":[1.0,1.0,1.0],"name":"Occipital_Lob_Grp"},{"mesh":4,"translation":[0.0,0.0,0.0],"rotation":[0.0,0.0,0.0,1.0],"scale":[1.0,1.0,1.0],"name":"Occipital_Lob_Left"},{"mesh":5,"translation":[0.0,0.0,0.0],"rotation":[0.0,0.0,0.0,1.0],"scale":[1.0,1.0,1.0],"name":"Occipital_Lob_Right"},{"mesh":6,"translation":[0.0,0.0,0.0],"rotation":[0.0,0.0,0.0,1.0],"scale":[1.0,1.0,1.0],"name":"Pituitary_Gland1"},{"children":[12,13],"translation":[0.0,0.0,0.0],"rotation":[0.0,0.0,0.0,1.0],"scale":[1.0,1.0,1.0],"name":"Temporal_Lobe"},{"mesh":7,"translation":[0.0,0.0,0.0],"rotation":[0.0,0.0,0.0,1.0],"scale":[1.0,1.0,1.0],"name":"Temporal_Lobe_Left"},{"mesh":8,"translation":[0.0,0.0,0.0],"rotation":[0.0,0.0,0.0,1.0],"scale":[1.0,1.0,1.0],"name":"Temporal_Lobe_Right"},{"children":[15],"mesh":9,"translation":[0.0,0.0,0.0],"rotation":[0.0,0.0,0.0,1.0],"scale":[1.0,1.0,1.0],"name":"Nervous_Brain_Stem"},{"mesh":10,"translation":[0.0,0.0,0.0],"rotation":[0.0,0.0,0.0,1.0],"scale":[1.0,1.0,1.0],"name":"Nervous_Brain_Stem_1"},{"children":[17,18],"translation":[0.0,0.0,0.0],"rotation":[0.0,0.0,0.0,1.0],"scale":[1.0,1.0,1.0],"name":"Nervous_Full_Cerebellum_Grp"},{"mesh":11,"translation":[0.0,0.0,0.0],"rotation":[0.0,0.0,0.0,1.0],"scale":[1.0,1.0,1.0],"name":"Nervous_Full_Cerebellum_1"},{"mesh":12,"translation":[0.0,0.0,0.0],"rotation":[0.0,0.0,0.0,1.0],"scale":[1.0,1.0,1.0],"name":"Nervous_Full_Cerebellum_2"}],"meshes":[{"primitives":[{"attributes":{"POSITION":1,"NORMAL":2,"TANGENT":3,"TEXCOORD_0":4},"indices":0,"mode":4,"material":0}],"name":"Frontal_Lobe_Left"},{"primitives":[{"attributes":{"POSITION":6,"NORMAL":7,"TANGENT":8,"TEXCOORD_0":9},"indices":5,"mode":4,"material":0}],"name":"Frontal_Lobe_Right"},{"primitives":[{"attributes":{"POSITION":11,"NORMAL":12,"TANGENT":13,"TEXCOORD_0":14},"indices":10,"mode":4,"material":0}],"name":"Parietal_Lobe_Right"},{"primitives":[{"attributes":{"POSITION":16,"NORMAL":17,"TANGENT":18,"TEXCOORD_0":19},"indices":15,"mode":4,"material":0}],"name":"Parietal_Lobe_Left"},{"primitives":[{"attributes":{"POSITION":21,"NORMAL":22,"TANGENT":23,"TEXCOORD_0":24},"indices":20,"mode":4,"material":0}],"name":"Occipital_Lob_Left"},{"primitives":[{"attributes":{"POSITION":26,"NORMAL":27,"TANGENT":28,"TEXCOORD_0":29},"indices":25,"mode":4,"material":0}],"name":"Occipital_Lob_Right"},{"primitives":[{"attributes":{"POSITION":31,"NORMAL":32,"TANGENT":33,"TEXCOORD_0":34,"TEXCOORD_1":35},"indices":30,"mode":4,"material":0}],"name":"Pituitary_Gland1"},{"primitives":[{"attributes":{"POSITION":37,"NORMAL":38,"TANGENT":39,"TEXCOORD_0":40},"indices":36,"mode":4,"material":0}],"name":"Temporal_Lobe_Left"},{"primitives":[{"attributes":{"POSITION":42,"NORMAL":43,"TANGENT":44,"TEXCOORD_0":45},"indices":41,"mode":4,"material":0}],"name":"Temporal_Lobe_Right"},{"primitives":[{"attributes":{"POSITION":47,"NORMAL":48,"TANGENT":49,"TEXCOORD_0":50},"indices":46,"mode":4,"material":0}],"name":"Nervous_Brain_Stem"},{"primitives":[{"attributes":{"POSITION":52,"NORMAL":53,"TANGENT":54,"TEXCOORD_0":55},"indices":51,"mode":4,"material":0}],"name":"Nervous_Brain_Stem_1"},{"primitives":[{"attributes":{"POSITION":57,"NORMAL":58,"TANGENT":59,"TEXCOORD_0":60},"indices":56,"mode":4,"material":0}],"name":"Nervous_Full_Cerebellum_1"},{"primitives":[{"attributes":{"POSITION":62,"NORMAL":63,"TANGENT":64,"TEXCOORD_0":65},"indices":61,"mode":4,"material":0}],"name":"Nervous_Full_Cerebellum_2"}],"accessors":[{"bufferView":0,"componentType":5123,"count":17286,"type":"SCALAR","name":"accessorIndices"},{"bufferView":1,"componentType":5126,"count":3049,"max":[6.040696,7.854721,8.233521],"min":[-0.294942379,-1.91377258,-1.56568468],"type":"VEC3","name":"accessorPositions"},{"bufferView":1,"byteOffset":36588,"componentType":5126,"count":3049,"type":"VEC3","name":"accessorNormals"},{"bufferView":2,"componentType":5126,"count":3049,"type":"VEC4","name":"accessorTangents"},{"bufferView":3,"componentType":5126,"count":3049,"type":"VEC2","name":"accessorUVs"},{"bufferView":0,"byteOffset":34572,"componentType":5123,"count":17244,"type":"SCALAR","name":"accessorIndices"},{"bufferView":1,"byteOffset":73176,"componentType":5126,"count":3047,"max":[0.377246648,7.79978943,8.284496],"min":[-6.001022,-1.96870422,-1.48955762],"type":"VEC3","name":"accessorPositions"},{"bufferView":1,"byteOffset":109740,"componentType":5126,"count":3047,"type":"VEC3","name":"accessorNormals"},{"bufferView":2,"byteOffset":48784,"componentType":5126,"count":3047,"type":"VEC4","name":"accessorTangents"},{"bufferView":3,"byteOffset":24392,"componentType":5126,"count":3047,"type":"VEC2","name":"accessorUVs"},{"bufferView":0,"byteOffset":69060,"componentType":5123,"count":11712,"type":"SCALAR","name":"accessorIndices"},{"bufferView":1,"byteOffset":146304,"componentType":5126,"count":2101,"max":[0.488530338,7.67922974,0.585958958],"min":[-6.251378,0.961212158,-6.799577],"type":"VEC3","name":"accessorPositions"},{"bufferView":1,"byteOffset":171516,"componentType":5126,"count":2101,"type":"VEC3","name":"accessorNormals"},{"bufferView":2,"byteOffset":97536,"componentType":5126,"count":2101,"type":"VEC4","name":"accessorTangents"},{"bufferView":3,"byteOffset":48768,"componentType":5126,"count":2101,"type":"VEC2","name":"accessorUVs"},{"bufferView":0,"byteOffset":92484,"componentType":5123,"count":11847,"type":"SCALAR","name":"accessorIndices"},{"bufferView":1,"byteOffset":196728,"componentType":5126,"count":2134,"max":[6.281939,7.67909241,0.590082169],"min":[-0.457965463,0.9610901,-6.79977369],"type":"VEC3","name":"accessorPositions"},{"bufferView":1,"byteOffset":222336,"componentType":5126,"count":2134,"type":"VEC3","name":"accessorNormals"},{"bufferView":2,"byteOffset":131152,"componentType":5126,"count":2134,"type":"VEC4","name":"accessorTangents"},{"bufferView":3,"byteOffset":65576,"componentType":5126,"count":2134,"type":"VEC2","name":"accessorUVs"},{"bufferView":0,"byteOffset":116180,"componentType":5123,"count":2916,"type":"SCALAR","name":"accessorIndices"},{"bufferView":1,"byteOffset":247944,"componentType":5126,"count":527,"max":[4.24025774,4.790283,-5.41062641],"min":[0.00336262584,-2.66146851,-8.284496],"type":"VEC3","name":"accessorPositions"},{"bufferView":1,"byteOffset":254268,"componentType":5126,"count":527,"type":"VEC3","name":"accessorNormals"},{"bufferView":2,"byteOffset":165296,"componentType":5126,"count":527,"type":"VEC4","name":"accessorTangents"},{"bufferView":3,"byteOffset":82648,"componentType":5126,"count":527,"type":"VEC2","name":"accessorUVs"},{"bufferView":0,"byteOffset":122012,"componentType":5123,"count":2916,"type":"SCALAR","name":"accessorIndices"},{"bufferView":1,"byteOffset":260592,"componentType":5126,"count":503,"max":[-0.04725752,4.79029846,-5.41062832],"min":[-4.28415155,-2.66146851,-8.284496],"type":"VEC3","name":"accessorPositions"},{"bufferView":1,"byteOffset":266628,"componentType":5126,"count":503,"type":"VEC3","name":"accessorNormals"},{"bufferView":2,"byteOffset":173728,"componentType":5126,"count":503,"type":"VEC4","name":"accessorTangents"},{"bufferView":3,"byteOffset":86864,"componentType":5126,"count":503,"type":"VEC2","name":"accessorUVs"},{"bufferView":0,"byteOffset":127844,"componentType":5123,"count":504,"type":"SCALAR","name":"accessorIndices"},{"bufferView":1,"byteOffset":272664,"componentType":5126,"count":100,"max":[0.603717864,-0.776794434,3.0860076],"min":[-0.064244926,-2.13664246,2.36589479],"type":"VEC3","name":"accessorPositions"},{"bufferView":1,"byteOffset":273864,"componentType":5126,"count":100,"type":"VEC3","name":"accessorNormals"},{"bufferView":2,"byteOffset":181776,"componentType":5126,"count":100,"type":"VEC4","name":"accessorTangents"},{"bufferView":3,"byteOffset":90888,"componentType":5126,"count":100,"type":"VEC2","name":"accessorUVs"},{"bufferView":3,"byteOffset":91688,"componentType":5126,"count":100,"type":"VEC2","name":"accessorUV2s"},{"bufferView":0,"byteOffset":128852,"componentType":5123,"count":14298,"type":"SCALAR","name":"accessorIndices"},{"bufferView":1,"byteOffset":275064,"componentType":5126,"count":2498,"max":[6.370789,3.25428772,3.70793533],"min":[-0.127470419,-3.43640137,-6.812471],"type":"VEC3","name":"accessorPositions"},{"bufferView":1,"byteOffset":305040,"componentType":5126,"count":2498,"type":"VEC3","name":"accessorNormals"},{"bufferView":2,"byteOffset":183376,"componentType":5126,"count":2498,"type":"VEC4","name":"accessorTangents"},{"bufferView":3,"byteOffset":92488,"componentType":5126,"count":2498,"type":"VEC2","name":"accessorUVs"},{"bufferView":0,"byteOffset":157448,"componentType":5123,"count":14340,"type":"SCALAR","name":"accessorIndices"},{"bufferView":1,"byteOffset":335016,"componentType":5126,"count":2568,"max":[0.127469689,3.253601,3.70793533],"min":[-6.370789,-3.43640137,-6.812471],"type":"VEC3","name":"accessorPositions"},{"bufferView":1,"byteOffset":365832,"componentType":5126,"count":2568,"type":"VEC3","name":"accessorNormals"},{"bufferView":2,"byteOffset":223344,"componentType":5126,"count":2568,"type":"VEC4","name":"accessorTangents"},{"bufferView":3,"byteOffset":112472,"componentType":5126,"count":2568,"type":"VEC2","name":"accessorUVs"},{"bufferView":0,"byteOffset":186128,"componentType":5123,"count":6282,"type":"SCALAR","name":"accessorIndices"},{"bufferView":1,"byteOffset":396648,"componentType":5126,"count":1157,"max":[0.138813853,4.34901428,4.325688],"min":[-4.12490654,-7.854721,-3.14430213],"type":"VEC3","name":"accessorPositions"},{"bufferView":1,"byteOffset":410532,"componentType":5126,"count":1157,"type":"VEC3","name":"accessorNormals"},{"bufferView":2,"byteOffset":264432,"componentType":5126,"count":1157,"type":"VEC4","name":"accessorTangents"},{"bufferView":3,"byteOffset":133016,"componentType":5126,"count":1157,"type":"VEC2","name":"accessorUVs"},{"bufferView":0,"byteOffset":198692,"componentType":5123,"count":6282,"type":"SCALAR","name":"accessorIndices"},{"bufferView":1,"byteOffset":424416,"componentType":5126,"count":1157,"max":[4.243025,4.34901428,4.325688],"min":[-0.020696044,-7.854721,-3.14430213],"type":"VEC3","name":"accessorPositions"},{"bufferView":1,"byteOffset":438300,"componentType":5126,"count":1157,"type":"VEC3","name":"accessorNormals"},{"bufferView":2,"byteOffset":282944,"componentType":5126,"count":1157,"type":"VEC4","name":"accessorTangents"},{"bufferView":3,"byteOffset":142272,"componentType":5126,"count":1157,"type":"VEC2","name":"accessorUVs"},{"bufferView":0,"byteOffset":211256,"componentType":5123,"count":11856,"type":"SCALAR","name":"accessorIndices"},{"bufferView":1,"byteOffset":452184,"componentType":5126,"count":2132,"max":[-0.030167073,-1.17189026,-0.399182439],"min":[-4.483891,-5.430847,-6.30562162],"type":"VEC3","name":"accessorPositions"},{"bufferView":1,"byteOffset":477768,"componentType":5126,"count":2132,"type":"VEC3","name":"accessorNormals"},{"bufferView":2,"byteOffset":301456,"componentType":5126,"count":2132,"type":"VEC4","name":"accessorTangents"},{"bufferView":3,"byteOffset":151528,"componentType":5126,"count":2132,"type":"VEC2","name":"accessorUVs"},{"bufferView":0,"byteOffset":234968,"componentType":5123,"count":12330,"type":"SCALAR","name":"accessorIndices"},{"bufferView":1,"byteOffset":503352,"componentType":5126,"count":2217,"max":[4.40403175,-1.16958618,-0.407565355],"min":[-0.0502043739,-5.428833,-6.29481459],"type":"VEC3","name":"accessorPositions"},{"bufferView":1,"byteOffset":529956,"componentType":5126,"count":2217,"type":"VEC3","name":"accessorNormals"},{"bufferView":2,"byteOffset":335568,"componentType":5126,"count":2217,"type":"VEC4","name":"accessorTangents"},{"bufferView":3,"byteOffset":168584,"componentType":5126,"count":2217,"type":"VEC2","name":"accessorUVs"}],"bufferViews":[{"buffer":0,"byteLength":259628,"name":"bufferViewScalar"},{"buffer":0,"byteOffset":259628,"byteLength":556560,"byteStride":12,"name":"bufferViewFloatVec3"},{"buffer":0,"byteOffset":816188,"byteLength":371040,"byteStride":16,"name":"bufferViewFloatVec4"},{"buffer":0,"byteOffset":1187228,"byteLength":186320,"byteStride":8,"name":"bufferViewFloatVec2"}],"buffers":[{"uri":"Transperent Full Brain.bin","byteLength":1373548}],"materials":[{"pbrMetallicRoughness":{"baseColorFactor":[0.0,0.0551948063,0.0551948063,0.357142866],"metallicFactor":0.0,"roughnessFactor":0.450053632},"emissiveFactor":[0.0,0.0,0.0],"alphaMode":"BLEND","name":"lambert2"}]}