{"asset":{"version":"2.0","generator":"babylon.js glTF exporter for maya 2018 v1.3.0"},"scene":0,"scenes":[{"nodes":[0],"extensions":{}}],"nodes":[{"mesh":0,"translation":[0.0,0.0,0.0],"rotation":[0.0,0.0,0.0,1.0],"scale":[1.0,1.0,1.0],"name":"Dot_Egg_Shape_Grp"}],"meshes":[{"primitives":[{"attributes":{"POSITION":1,"NORMAL":2,"TANGENT":3,"TEXCOORD_0":4},"indices":0,"mode":4,"material":0},{"attributes":{"POSITION":6,"NORMAL":7,"TANGENT":8,"TEXCOORD_0":9},"indices":5,"mode":4,"material":1}],"name":"Dot_Egg_Shape_Grp"}],"accessors":[{"bufferView":0,"componentType":5123,"count":2280,"type":"SCALAR","name":"accessorIndices"},{"bufferView":1,"componentType":5126,"count":439,"max":[1.00000012,0.9987112,1.71540928],"min":[-1.00000012,-0.9987112,-1.71540976],"type":"VEC3","name":"accessorPositions"},{"bufferView":1,"byteOffset":5268,"componentType":5126,"count":439,"type":"VEC3","name":"accessorNormals"},{"bufferView":2,"componentType":5126,"count":439,"type":"VEC4","name":"accessorTangents"},{"bufferView":3,"componentType":5126,"count":439,"type":"VEC2","name":"accessorUVs"},{"bufferView":0,"byteOffset":4560,"componentType":5123,"count":336,"type":"SCALAR","name":"accessorIndices"},{"bufferView":1,"byteOffset":10536,"componentType":5126,"count":79,"max":[0.08854824,0.09470737,0.09540844],"min":[-0.09732002,-0.09116089,-0.09045982],"type":"VEC3","name":"accessorPositions"},{"bufferView":1,"byteOffset":11484,"componentType":5126,"count":79,"type":"VEC3","name":"accessorNormals"},{"bufferView":2,"byteOffset":7024,"componentType":5126,"count":79,"type":"VEC4","name":"accessorTangents"},{"bufferView":3,"byteOffset":3512,"componentType":5126,"count":79,"type":"VEC2","name":"accessorUVs"}],"bufferViews":[{"buffer":0,"byteLength":5232,"name":"bufferViewScalar"},{"buffer":0,"byteOffset":5232,"byteLength":12432,"byteStride":12,"name":"bufferViewFloatVec3"},{"buffer":0,"byteOffset":17664,"byteLength":8288,"byteStride":16,"name":"bufferViewFloatVec4"},{"buffer":0,"byteOffset":25952,"byteLength":4144,"byteStride":8,"name":"bufferViewFloatVec2"}],"buffers":[{"uri":"Dot.bin","byteLength":30096}],"materials":[{"pbrMetallicRoughness":{"baseColorFactor":[0.1753,0.49585,0.5,0.181818187],"metallicFactor":0.0,"roughnessFactor":0.3207082},"emissiveFactor":[0.0,0.0,0.0],"alphaMode":"BLEND","name":"Egg_Shape_Glass"},{"pbrMetallicRoughness":{"baseColorFactor":[0.0,0.0357,0.5,1.0],"metallicFactor":0.0,"roughnessFactor":0.3207082},"emissiveFactor":[0.0,0.0,0.0],"alphaMode":"OPAQUE","name":"Blue_Arrow"}]}