{"asset":{"version":"2.0","generator":"babylon.js glTF exporter for maya 2018 v1.3.0"},"scene":0,"scenes":[{"nodes":[0],"extensions":{}}],"nodes":[{"children":[1],"translation":[0.0,0.0,0.0],"rotation":[0.0,0.0,0.0,1.0],"scale":[1.0,1.0,1.0],"name":"Human_Brain"},{"children":[2,3,4,5,6,7,8,9,10,11,12,13],"translation":[-0.203889191,-171.083786,-2.05236554],"rotation":[0.0,0.0,0.0,1.0],"scale":[1.0,1.0,1.0],"name":"Half_Section_Brain"},{"mesh":0,"translation":[0.0,0.0,0.0],"rotation":[0.0,0.0,0.0,1.0],"scale":[1.0,1.0,1.0],"name":"Carebellum_Part_A"},{"mesh":1,"translation":[0.0,0.0,0.0],"rotation":[0.0,0.0,0.0,1.0],"scale":[1.0,1.0,1.0],"name":"Corpus_Callosum"},{"mesh":2,"translation":[0.0,0.0,0.0],"rotation":[0.0,0.0,0.0,1.0],"scale":[1.0,1.0,1.0],"name":"Hypothalamus"},{"mesh":3,"translation":[0.0,0.0,0.0],"rotation":[0.0,0.0,0.0,1.0],"scale":[1.0,1.0,1.0],"name":"Medulla_Oblongate"},{"mesh":4,"translation":[0.0,0.0,0.0],"rotation":[0.0,0.0,0.0,1.0],"scale":[1.0,1.0,1.0],"name":"Thalamus_Part_A"},{"mesh":5,"translation":[0.0,0.0,0.0],"rotation":[0.0,0.0,0.0,1.0],"scale":[1.0,1.0,1.0],"name":"Carebrum"},{"mesh":6,"translation":[0.0,0.0,0.0],"rotation":[0.0,0.0,0.0,1.0],"scale":[1.0,1.0,1.0],"name":"polySurface"},{"mesh":7,"translation":[0.0,0.0,0.0],"rotation":[0.0,0.0,0.0,1.0],"scale":[1.0,1.0,1.0],"name":"Thalamus_Part_B"},{"mesh":8,"translation":[0.0,0.0,0.0],"rotation":[0.0,0.0,0.0,1.0],"scale":[1.0,1.0,1.0],"name":"Pituitary_Gland_Part_A"},{"mesh":9,"translation":[0.0,0.0,0.0],"rotation":[0.0,0.0,0.0,1.0],"scale":[1.0,1.0,1.0],"name":"Pons"},{"mesh":10,"translation":[0.0,0.0,0.0],"rotation":[0.0,0.0,0.0,1.0],"scale":[1.0,1.0,1.0],"name":"Nervous_Full_Cerebellum_3"},{"mesh":11,"translation":[0.0,0.0,0.0],"rotation":[0.0,0.0,0.0,1.0],"scale":[1.0,1.0,1.0],"name":"Pituitary_Gland"}],"meshes":[{"primitives":[{"attributes":{"POSITION":1,"NORMAL":2,"TANGENT":3,"TEXCOORD_0":4},"indices":0,"mode":4,"material":0}],"name":"Carebellum_Part_A"},{"primitives":[{"attributes":{"POSITION":6,"NORMAL":7,"TANGENT":8,"TEXCOORD_0":9,"TEXCOORD_1":10},"indices":5,"mode":4,"material":0}],"name":"Corpus_Callosum"},{"primitives":[{"attributes":{"POSITION":12,"NORMAL":13,"TANGENT":14,"TEXCOORD_0":15,"TEXCOORD_1":16},"indices":11,"mode":4,"material":0}],"name":"Hypothalamus"},{"primitives":[{"attributes":{"POSITION":18,"NORMAL":19,"TANGENT":20,"TEXCOORD_0":21,"TEXCOORD_1":22},"indices":17,"mode":4,"material":0}],"name":"Medulla_Oblongate"},{"primitives":[{"attributes":{"POSITION":24,"NORMAL":25,"TANGENT":26,"TEXCOORD_0":27,"TEXCOORD_1":28},"indices":23,"mode":4,"material":0}],"name":"Thalamus_Part_A"},{"primitives":[{"attributes":{"POSITION":30,"NORMAL":31,"TANGENT":32,"TEXCOORD_0":33,"TEXCOORD_1":34},"indices":29,"mode":4,"material":0}],"name":"Carebrum"},{"primitives":[{"attributes":{"POSITION":36,"NORMAL":37,"TANGENT":38,"TEXCOORD_0":39,"TEXCOORD_1":40},"indices":35,"mode":4,"material":0}],"name":"polySurface"},{"primitives":[{"attributes":{"POSITION":42,"NORMAL":43,"TANGENT":44,"TEXCOORD_0":45},"indices":41,"mode":4,"material":0}],"name":"Thalamus_Part_B"},{"primitives":[{"attributes":{"POSITION":47,"NORMAL":48,"TANGENT":49,"TEXCOORD_0":50,"TEXCOORD_1":51},"indices":46,"mode":4,"material":0}],"name":"Pituitary_Gland_Part_A"},{"primitives":[{"attributes":{"POSITION":53,"NORMAL":54,"TANGENT":55,"TEXCOORD_0":56},"indices":52,"mode":4,"material":0}],"name":"Pons"},{"primitives":[{"attributes":{"POSITION":58,"NORMAL":59,"TANGENT":60,"TEXCOORD_0":61},"indices":57,"mode":4,"material":0}],"name":"Nervous_Full_Cerebellum_3"},{"primitives":[{"attributes":{"POSITION":63,"NORMAL":64,"TANGENT":65,"TEXCOORD_0":66,"TEXCOORD_1":67},"indices":62,"mode":4,"material":0}],"name":"Pituitary_Gland"}],"accessors":[{"bufferView":0,"componentType":5123,"count":876,"type":"SCALAR","name":"accessorIndices"},{"bufferView":1,"componentType":5126,"count":169,"max":[1.11705446,170.721222,1.72909927],"min":[-0.08289448,168.15239,0.389573365],"type":"VEC3","name":"accessorPositions"},{"bufferView":1,"byteOffset":2028,"componentType":5126,"count":169,"type":"VEC3","name":"accessorNormals"},{"bufferView":2,"componentType":5126,"count":169,"type":"VEC4","name":"accessorTangents"},{"bufferView":3,"componentType":5126,"count":169,"type":"VEC2","name":"accessorUVs"},{"bufferView":0,"byteOffset":1752,"componentType":5123,"count":978,"type":"SCALAR","name":"accessorIndices"},{"bufferView":1,"byteOffset":4056,"componentType":5126,"count":210,"max":[0.5655459,174.442688,7.354778],"min":[-0.0301864482,170.703766,-0.920103431],"type":"VEC3","name":"accessorPositions"},{"bufferView":1,"byteOffset":6576,"componentType":5126,"count":210,"type":"VEC3","name":"accessorNormals"},{"bufferView":2,"byteOffset":2704,"componentType":5126,"count":210,"type":"VEC4","name":"accessorTangents"},{"bufferView":3,"byteOffset":1352,"componentType":5126,"count":210,"type":"VEC2","name":"accessorUVs"},{"bufferView":3,"byteOffset":3032,"componentType":5126,"count":210,"type":"VEC2","name":"accessorUV2s"},{"bufferView":0,"byteOffset":3708,"componentType":5123,"count":546,"type":"SCALAR","name":"accessorIndices"},{"bufferView":1,"byteOffset":9096,"componentType":5126,"count":135,"max":[0.5325972,173.696,4.98470926],"min":[-0.06912298,170.764648,2.3682034],"type":"VEC3","name":"accessorPositions"},{"bufferView":1,"byteOffset":10716,"componentType":5126,"count":135,"type":"VEC3","name":"accessorNormals"},{"bufferView":2,"byteOffset":6064,"componentType":5126,"count":135,"type":"VEC4","name":"accessorTangents"},{"bufferView":3,"byteOffset":4712,"componentType":5126,"count":135,"type":"VEC2","name":"accessorUVs"},{"bufferView":3,"byteOffset":5792,"componentType":5126,"count":135,"type":"VEC2","name":"accessorUV2s"},{"bufferView":0,"byteOffset":4800,"componentType":5123,"count":1266,"type":"SCALAR","name":"accessorIndices"},{"bufferView":1,"byteOffset":12336,"componentType":5126,"count":352,"max":[0.912091732,171.082153,4.69974327],"min":[-0.05990458,163.366638,-0.2671769],"type":"VEC3","name":"accessorPositions"},{"bufferView":1,"byteOffset":16560,"componentType":5126,"count":352,"type":"VEC3","name":"accessorNormals"},{"bufferView":2,"byteOffset":8224,"componentType":5126,"count":352,"type":"VEC4","name":"accessorTangents"},{"bufferView":3,"byteOffset":6872,"componentType":5126,"count":352,"type":"VEC2","name":"accessorUVs"},{"bufferView":3,"byteOffset":9688,"componentType":5126,"count":352,"type":"VEC2","name":"accessorUV2s"},{"bufferView":0,"byteOffset":7332,"componentType":5123,"count":1191,"type":"SCALAR","name":"accessorIndices"},{"bufferView":1,"byteOffset":20784,"componentType":5126,"count":488,"max":[0.447697163,173.571274,6.233558],"min":[-0.123106487,170.906769,3.54139447],"type":"VEC3","name":"accessorPositions"},{"bufferView":1,"byteOffset":26640,"componentType":5126,"count":488,"type":"VEC3","name":"accessorNormals"},{"bufferView":2,"byteOffset":13856,"componentType":5126,"count":488,"type":"VEC4","name":"accessorTangents"},{"bufferView":3,"byteOffset":12504,"componentType":5126,"count":488,"type":"VEC2","name":"accessorUVs"},{"bufferView":3,"byteOffset":16408,"componentType":5126,"count":488,"type":"VEC2","name":"accessorUV2s"},{"bufferView":0,"byteOffset":9716,"componentType":5123,"count":29400,"type":"SCALAR","name":"accessorIndices"},{"bufferView":1,"byteOffset":32496,"componentType":5126,"count":5375,"max":[6.420817,178.800934,10.4312258],"min":[-0.179617226,167.48056,-6.32649469],"type":"VEC3","name":"accessorPositions"},{"bufferView":1,"byteOffset":96996,"componentType":5126,"count":5375,"type":"VEC3","name":"accessorNormals"},{"bufferView":2,"byteOffset":21664,"componentType":5126,"count":5375,"type":"VEC4","name":"accessorTangents"},{"bufferView":3,"byteOffset":20312,"componentType":5126,"count":5375,"type":"VEC2","name":"accessorUVs"},{"bufferView":3,"byteOffset":63312,"componentType":5126,"count":5375,"type":"VEC2","name":"accessorUV2s"},{"bufferView":0,"byteOffset":68516,"componentType":5123,"count":480,"type":"SCALAR","name":"accessorIndices"},{"bufferView":1,"byteOffset":161496,"componentType":5126,"count":244,"max":[0.2339832,171.05687,5.08169746],"min":[-0.0211779959,169.664841,4.4365406],"type":"VEC3","name":"accessorPositions"},{"bufferView":1,"byteOffset":164424,"componentType":5126,"count":244,"type":"VEC3","name":"accessorNormals"},{"bufferView":2,"byteOffset":107664,"componentType":5126,"count":244,"type":"VEC4","name":"accessorTangents"},{"bufferView":3,"byteOffset":106312,"componentType":5126,"count":244,"type":"VEC2","name":"accessorUVs"},{"bufferView":3,"byteOffset":108264,"componentType":5126,"count":244,"type":"VEC2","name":"accessorUV2s"},{"bufferView":0,"byteOffset":69476,"componentType":5123,"count":1302,"type":"SCALAR","name":"accessorIndices"},{"bufferView":1,"byteOffset":167352,"componentType":5126,"count":227,"max":[2.25498962,173.389145,5.329898],"min":[0.1333636,168.70697,0.294349223],"type":"VEC3","name":"accessorPositions"},{"bufferView":1,"byteOffset":170076,"componentType":5126,"count":227,"type":"VEC3","name":"accessorNormals"},{"bufferView":2,"byteOffset":111568,"componentType":5126,"count":227,"type":"VEC4","name":"accessorTangents"},{"bufferView":3,"byteOffset":110216,"componentType":5126,"count":227,"type":"VEC2","name":"accessorUVs"},{"bufferView":0,"byteOffset":72080,"componentType":5123,"count":552,"type":"SCALAR","name":"accessorIndices"},{"bufferView":1,"byteOffset":172800,"componentType":5126,"count":143,"max":[0.09502621,169.912323,4.714141],"min":[-0.267344,169.242264,4.39328671],"type":"VEC3","name":"accessorPositions"},{"bufferView":1,"byteOffset":174516,"componentType":5126,"count":143,"type":"VEC3","name":"accessorNormals"},{"bufferView":2,"byteOffset":115200,"componentType":5126,"count":143,"type":"VEC4","name":"accessorTangents"},{"bufferView":3,"byteOffset":112032,"componentType":5126,"count":143,"type":"VEC2","name":"accessorUVs"},{"bufferView":3,"byteOffset":113176,"componentType":5126,"count":143,"type":"VEC2","name":"accessorUV2s"},{"bufferView":0,"byteOffset":73184,"componentType":5123,"count":732,"type":"SCALAR","name":"accessorIndices"},{"bufferView":1,"byteOffset":176232,"componentType":5126,"count":138,"max":[1.024255,168.396149,2.76228833],"min":[0.05717733,166.286514,1.28955448],"type":"VEC3","name":"accessorPositions"},{"bufferView":1,"byteOffset":177888,"componentType":5126,"count":138,"type":"VEC3","name":"accessorNormals"},{"bufferView":2,"byteOffset":117488,"componentType":5126,"count":138,"type":"VEC4","name":"accessorTangents"},{"bufferView":3,"byteOffset":114320,"componentType":5126,"count":138,"type":"VEC2","name":"accessorUVs"},{"bufferView":0,"byteOffset":74648,"componentType":5123,"count":12330,"type":"SCALAR","name":"accessorIndices"},{"bufferView":1,"byteOffset":179544,"componentType":5126,"count":2237,"max":[4.37057543,169.647064,1.6238848],"min":[-0.08366088,165.387817,-4.26336432],"type":"VEC3","name":"accessorPositions"},{"bufferView":1,"byteOffset":206388,"componentType":5126,"count":2237,"type":"VEC3","name":"accessorNormals"},{"bufferView":2,"byteOffset":119696,"componentType":5126,"count":2237,"type":"VEC4","name":"accessorTangents"},{"bufferView":3,"byteOffset":115424,"componentType":5126,"count":2237,"type":"VEC2","name":"accessorUVs"},{"bufferView":0,"byteOffset":99308,"componentType":5123,"count":504,"type":"SCALAR","name":"accessorIndices"},{"bufferView":1,"byteOffset":233232,"componentType":5126,"count":100,"max":[0.570261359,170.039856,5.117458],"min":[-0.09770144,168.680008,4.397345],"type":"VEC3","name":"accessorPositions"},{"bufferView":1,"byteOffset":234432,"componentType":5126,"count":100,"type":"VEC3","name":"accessorNormals"},{"bufferView":2,"byteOffset":155488,"componentType":5126,"count":100,"type":"VEC4","name":"accessorTangents"},{"bufferView":3,"byteOffset":133320,"componentType":5126,"count":100,"type":"VEC2","name":"accessorUVs"},{"bufferView":3,"byteOffset":134120,"componentType":5126,"count":100,"type":"VEC2","name":"accessorUV2s"},{"bufferView":4,"componentType":5126,"count":2,"max":[8.291667],"min":[0.0],"type":"SCALAR","name":"accessorAnimationInput"},{"bufferView":5,"componentType":5126,"count":2,"type":"VEC3","name":"accessorAnimationPositions"}],"bufferViews":[{"buffer":0,"byteLength":100316,"name":"bufferViewScalar"},{"buffer":0,"byteOffset":100316,"byteLength":235632,"byteStride":12,"name":"bufferViewFloatVec3"},{"buffer":0,"byteOffset":335948,"byteLength":157088,"byteStride":16,"name":"bufferViewFloatVec4"},{"buffer":0,"byteOffset":493036,"byteLength":134920,"byteStride":8,"name":"bufferViewFloatVec2"},{"buffer":0,"byteOffset":627956,"byteLength":8,"name":"bufferViewAnimationFloatScalar"},{"buffer":0,"byteOffset":627964,"byteLength":24,"name":"bufferViewAnimationFloatVec3"}],"buffers":[{"uri":"Half Brain.bin","byteLength":627988}],"materials":[{"pbrMetallicRoughness":{"baseColorFactor":[1.0,1.0,1.0,1.0],"baseColorTexture":{"index":0,"texCoord":0},"metallicFactor":1.0,"roughnessFactor":1.0,"metallicRoughnessTexture":{"index":1,"texCoord":0}},"emissiveFactor":[0.0,0.0,0.0],"alphaMode":"OPAQUE","name":"Half_Brain_Mat"}],"textures":[{"sampler":0,"source":0,"name":"Half_Brain_Mat_baseColor.jpg"},{"sampler":1,"source":1,"name":"Half_Brain_Mat_metallicRoughness.jpg"}],"images":[{"uri":"Half_Brain_Mat_baseColor.jpg"},{"uri":"Half_Brain_Mat_metallicRoughness.jpg"}],"samplers":[{"magFilter":9729,"minFilter":9987,"wrapS":10497,"wrapT":10497},{"magFilter":9729,"minFilter":9987,"wrapS":10497,"wrapT":10497}],"animations":[{"channels":[{"sampler":0,"target":{"node":1,"path":"translation"}}],"samplers":[{"input":68,"interpolation":"LINEAR","output":69}],"name":"All Animations"}]}