{"asset":{"version":"2.0","generator":"babylon.js glTF exporter for maya 2018 v1.3.0"},"scene":0,"scenes":[{"nodes":[0],"extensions":{}}],"nodes":[{"children":[1],"translation":[0.0,-171.27948,0.0],"rotation":[0.0,0.0,0.0,1.0],"scale":[1.0,1.0,1.0],"name":"Half_Section_Brain1"},{"mesh":0,"translation":[0.0,0.0,0.0],"rotation":[0.0,0.0,0.0,1.0],"scale":[1.0,1.0,1.0],"name":"Amygdala"}],"meshes":[{"primitives":[{"attributes":{"POSITION":1,"NORMAL":2,"TEXCOORD_0":3,"TEXCOORD_1":4},"indices":0,"mode":4,"material":0}],"name":"Amygdala"}],"accessors":[{"bufferView":0,"componentType":5123,"count":480,"type":"SCALAR","name":"accessorIndices"},{"bufferView":1,"componentType":5126,"count":244,"max":[0.2339832,171.05687,5.08169746],"min":[-0.0211779959,169.664841,4.4365406],"type":"VEC3","name":"accessorPositions"},{"bufferView":1,"byteOffset":2928,"componentType":5126,"count":244,"type":"VEC3","name":"accessorNormals"},{"bufferView":2,"componentType":5126,"count":244,"type":"VEC2","name":"accessorUVs"},{"bufferView":2,"byteOffset":1952,"componentType":5126,"count":244,"type":"VEC2","name":"accessorUV2s"}],"bufferViews":[{"buffer":0,"byteLength":960,"name":"bufferViewScalar"},{"buffer":0,"byteOffset":960,"byteLength":5856,"byteStride":12,"name":"bufferViewFloatVec3"},{"buffer":0,"byteOffset":6816,"byteLength":3904,"byteStride":8,"name":"bufferViewFloatVec2"}],"buffers":[{"uri":"Amygdala_Trans.bin","byteLength":10720}],"materials":[{"pbrMetallicRoughness":{"baseColorFactor":[0.1995,0.1995,0.5,0.266233742],"metallicFactor":0.0,"roughnessFactor":0.2581639},"emissiveFactor":[0.0,0.0,0.0],"alphaMode":"BLEND","name":"phong1"}]}