{"asset":{"version":"2.0","generator":"babylon.js glTF exporter for maya 2018 v1.3.0"},"scene":0,"scenes":[{"nodes":[0],"extensions":{}}],"nodes":[{"children":[1],"translation":[0.0,-168.866745,0.0],"rotation":[0.0,0.0,0.0,1.0],"scale":[1.0,1.0,1.0],"name":"Half_Section_Brain"},{"mesh":0,"translation":[0.0,0.0,0.0],"rotation":[0.0,0.0,0.0,1.0],"scale":[1.0,1.0,1.0],"name":"Thalamus_Part_B"}],"meshes":[{"primitives":[{"attributes":{"POSITION":1,"NORMAL":2,"TANGENT":3,"TEXCOORD_0":4},"indices":0,"mode":4,"material":0}],"name":"Thalamus_Part_B"}],"accessors":[{"bufferView":0,"componentType":5123,"count":1302,"type":"SCALAR","name":"accessorIndices"},{"bufferView":1,"componentType":5126,"count":227,"max":[2.25498962,173.389145,5.329898],"min":[0.1333636,168.70697,0.294349223],"type":"VEC3","name":"accessorPositions"},{"bufferView":1,"byteOffset":2724,"componentType":5126,"count":227,"type":"VEC3","name":"accessorNormals"},{"bufferView":2,"componentType":5126,"count":227,"type":"VEC4","name":"accessorTangents"},{"bufferView":3,"componentType":5126,"count":227,"type":"VEC2","name":"accessorUVs"}],"bufferViews":[{"buffer":0,"byteLength":2604,"name":"bufferViewScalar"},{"buffer":0,"byteOffset":2604,"byteLength":5448,"byteStride":12,"name":"bufferViewFloatVec3"},{"buffer":0,"byteOffset":8052,"byteLength":3632,"byteStride":16,"name":"bufferViewFloatVec4"},{"buffer":0,"byteOffset":11684,"byteLength":1816,"byteStride":8,"name":"bufferViewFloatVec2"}],"buffers":[{"uri":"Transperent Thalamus_Part_B.bin","byteLength":13500}],"materials":[{"pbrMetallicRoughness":{"baseColorFactor":[0.0,0.0551948063,0.0551948063,0.357142866],"metallicFactor":0.0,"roughnessFactor":0.450053632},"emissiveFactor":[0.0,0.0,0.0],"alphaMode":"BLEND","name":"lambert2"}]}