{"asset":{"version":"2.0","generator":"babylon.js glTF exporter for maya 2018 v1.3.0"},"scene":0,"scenes":[{"nodes":[0],"extensions":{}}],"nodes":[{"children":[1],"translation":[0.0,0.0,0.0],"rotation":[0.0,0.0,0.0,1.0],"scale":[1.0,1.0,1.0],"name":"Colider"},{"mesh":0,"translation":[0.0,0.0,0.0],"rotation":[0.0,0.0,0.0,1.0],"scale":[1.0,1.0,1.0],"name":"Red"}],"meshes":[{"primitives":[{"attributes":{"POSITION":1,"NORMAL":2,"TANGENT":3,"TEXCOORD_0":4},"indices":0,"mode":4,"material":0}],"name":"Red"}],"accessors":[{"bufferView":0,"componentType":5123,"count":171,"type":"SCALAR","name":"accessorIndices"},{"bufferView":1,"componentType":5126,"count":44,"max":[-2.83312726,0.165903181,-0.08221923],"min":[-3.229085,-0.158651739,-0.377971351],"type":"VEC3","name":"accessorPositions"},{"bufferView":1,"byteOffset":528,"componentType":5126,"count":44,"type":"VEC3","name":"accessorNormals"},{"bufferView":2,"componentType":5126,"count":44,"type":"VEC4","name":"accessorTangents"},{"bufferView":3,"componentType":5126,"count":44,"type":"VEC2","name":"accessorUVs"}],"bufferViews":[{"buffer":0,"byteLength":344,"name":"bufferViewScalar"},{"buffer":0,"byteOffset":344,"byteLength":1056,"byteStride":12,"name":"bufferViewFloatVec3"},{"buffer":0,"byteOffset":1400,"byteLength":704,"byteStride":16,"name":"bufferViewFloatVec4"},{"buffer":0,"byteOffset":2104,"byteLength":352,"byteStride":8,"name":"bufferViewFloatVec2"}],"buffers":[{"uri":"Red.bin","byteLength":2456}],"materials":[{"pbrMetallicRoughness":{"baseColorFactor":[0.25,0.25,0.25,1.0],"metallicFactor":0.0,"roughnessFactor":0.3207082},"emissiveFactor":[0.0,0.0,0.0],"alphaMode":"OPAQUE","name":"blinn1"}]}