{"asset":{"version":"2.0","generator":"babylon.js glTF exporter for maya 2018 v1.3.0"},"scene":0,"scenes":[{"nodes":[0],"extensions":{}}],"nodes":[{"children":[1],"translation":[0.0,-171.27948,0.0],"rotation":[0.0,0.0,0.0,1.0],"scale":[1.0,1.0,1.0],"name":"Half_Section_Brain1"},{"mesh":0,"translation":[0.0,0.0,0.0],"rotation":[0.0,0.0,0.0,1.0],"scale":[1.0,1.0,1.0],"name":"Carebellum_Part_A"}],"meshes":[{"primitives":[{"attributes":{"POSITION":1,"NORMAL":2,"TEXCOORD_0":3},"indices":0,"mode":4,"material":0}],"name":"Carebellum_Part_A"}],"accessors":[{"bufferView":0,"componentType":5123,"count":876,"type":"SCALAR","name":"accessorIndices"},{"bufferView":1,"componentType":5126,"count":169,"max":[1.11705446,170.721222,1.72909927],"min":[-0.08289448,168.15239,0.389573365],"type":"VEC3","name":"accessorPositions"},{"bufferView":1,"byteOffset":2028,"componentType":5126,"count":169,"type":"VEC3","name":"accessorNormals"},{"bufferView":2,"componentType":5126,"count":169,"type":"VEC2","name":"accessorUVs"}],"bufferViews":[{"buffer":0,"byteLength":1752,"name":"bufferViewScalar"},{"buffer":0,"byteOffset":1752,"byteLength":4056,"byteStride":12,"name":"bufferViewFloatVec3"},{"buffer":0,"byteOffset":5808,"byteLength":1352,"byteStride":8,"name":"bufferViewFloatVec2"}],"buffers":[{"uri":"Carebellum_Part_A_Trans.bin","byteLength":7160}],"materials":[{"pbrMetallicRoughness":{"baseColorFactor":[0.1995,0.1995,0.5,0.266233742],"metallicFactor":0.0,"roughnessFactor":0.2581639},"emissiveFactor":[0.0,0.0,0.0],"alphaMode":"BLEND","name":"phong1"}]}