{"asset":{"version":"2.0","generator":"babylon.js glTF exporter for maya 2018 v1.3.0"},"scene":0,"scenes":[{"nodes":[0],"extensions":{}}],"nodes":[{"children":[1],"translation":[0.0,0.0,0.0],"rotation":[0.0,0.0,0.0,1.0],"scale":[1.0,1.0,1.0],"name":"Level_1_Grp"},{"children":[2],"translation":[0.0,0.0,0.0],"rotation":[0.0,0.0,0.0,1.0],"scale":[1.0,1.0,1.0],"name":"Step_2_Grp"},{"mesh":0,"translation":[-2.77860475,1.423741,-0.07305622],"rotation":[0.0,0.0,0.9696125,0.244646],"scale":[1.0,1.0,1.0],"name":"Water"}],"meshes":[{"primitives":[{"attributes":{"POSITION":1,"NORMAL":2,"TANGENT":3,"TEXCOORD_0":4},"indices":0,"mode":4,"material":0},{"attributes":{"POSITION":6,"NORMAL":7,"TANGENT":8,"TEXCOORD_0":9},"indices":5,"mode":4,"material":1}],"name":"Water"}],"accessors":[{"bufferView":0,"componentType":5123,"count":1680,"type":"SCALAR","name":"accessorIndices"},{"bufferView":1,"componentType":5126,"count":344,"max":[-2.25149512,0.5814848,0.5709369],"min":[-3.99141049,-0.845081151,-0.4249733],"type":"VEC3","name":"accessorPositions"},{"bufferView":1,"byteOffset":4128,"componentType":5126,"count":344,"type":"VEC3","name":"accessorNormals"},{"bufferView":2,"componentType":5126,"count":344,"type":"VEC4","name":"accessorTangents"},{"bufferView":3,"componentType":5126,"count":344,"type":"VEC2","name":"accessorUVs"},{"bufferView":0,"byteOffset":3360,"componentType":5123,"count":648,"type":"SCALAR","name":"accessorIndices"},{"bufferView":1,"byteOffset":8256,"componentType":5126,"count":128,"max":[-2.61082458,0.7152386,0.705652237],"min":[-3.87602234,-0.5499706,-0.5595398],"type":"VEC3","name":"accessorPositions"},{"bufferView":1,"byteOffset":9792,"componentType":5126,"count":128,"type":"VEC3","name":"accessorNormals"},{"bufferView":2,"byteOffset":5504,"componentType":5126,"count":128,"type":"VEC4","name":"accessorTangents"},{"bufferView":3,"byteOffset":2752,"componentType":5126,"count":128,"type":"VEC2","name":"accessorUVs"}],"bufferViews":[{"buffer":0,"byteLength":4656,"name":"bufferViewScalar"},{"buffer":0,"byteOffset":4656,"byteLength":11328,"byteStride":12,"name":"bufferViewFloatVec3"},{"buffer":0,"byteOffset":15984,"byteLength":7552,"byteStride":16,"name":"bufferViewFloatVec4"},{"buffer":0,"byteOffset":23536,"byteLength":3776,"byteStride":8,"name":"bufferViewFloatVec2"}],"buffers":[{"uri":"Water.bin","byteLength":27312}],"materials":[{"pbrMetallicRoughness":{"baseColorFactor":[1.0,1.0,1.0,1.0],"baseColorTexture":{"index":1,"texCoord":0},"metallicFactor":0.0,"roughnessFactor":0.3207082},"normalTexture":{"index":0,"texCoord":0},"emissiveFactor":[0.0,0.0,0.0],"alphaMode":"OPAQUE","name":"Animation_Molecules_H_Atom_Diff"},{"pbrMetallicRoughness":{"baseColorFactor":[1.0,1.0,1.0,1.0],"baseColorTexture":{"index":2,"texCoord":0},"metallicFactor":0.0,"roughnessFactor":0.450053632},"emissiveFactor":[0.0,0.0,0.0],"alphaMode":"OPAQUE","name":"Animation_Molecules_O_Atom_Diff4"}],"textures":[{"sampler":0,"source":0,"name":"Hydrogen_Atom_Nm.jpg"},{"sampler":1,"source":1,"name":"Animation_Molecules_H_Atom_Diff_baseColor.jpg"},{"sampler":2,"source":2,"name":"Animation_Molecules_O_Atom_Diff4_baseColor.jpg"}],"images":[{"uri":"Hydrogen_Atom_Nm.jpg"},{"uri":"Animation_Molecules_H_Atom_Diff_baseColor.jpg"},{"uri":"Animation_Molecules_O_Atom_Diff4_baseColor.jpg"}],"samplers":[{"magFilter":9729,"minFilter":9987,"wrapS":10497,"wrapT":10497},{"magFilter":9729,"minFilter":9987,"wrapS":10497,"wrapT":10497},{"magFilter":9729,"minFilter":9987,"wrapS":10497,"wrapT":10497}]}