{"asset":{"version":"2.0","generator":"babylon.js glTF exporter for maya 2018 v1.3.0"},"scene":0,"scenes":[{"nodes":[0],"extensions":{}}],"nodes":[{"children":[1],"translation":[0.0,-168.565414,0.0],"rotation":[0.0,0.0,0.0,1.0],"scale":[1.0,1.0,1.0],"name":"Half_Section_Brain"},{"mesh":0,"translation":[0.0,0.0,0.0],"rotation":[0.0,0.0,0.0,1.0],"scale":[1.0,1.0,1.0],"name":"Nervous_Full_Cerebellum_3"}],"meshes":[{"primitives":[{"attributes":{"POSITION":1,"NORMAL":2,"TANGENT":3,"TEXCOORD_0":4},"indices":0,"mode":4,"material":0}],"name":"Nervous_Full_Cerebellum_3"}],"accessors":[{"bufferView":0,"componentType":5123,"count":12330,"type":"SCALAR","name":"accessorIndices"},{"bufferView":1,"componentType":5126,"count":2237,"max":[4.37057543,169.647064,1.6238848],"min":[-0.08366088,165.387817,-4.26336432],"type":"VEC3","name":"accessorPositions"},{"bufferView":1,"byteOffset":26844,"componentType":5126,"count":2237,"type":"VEC3","name":"accessorNormals"},{"bufferView":2,"componentType":5126,"count":2237,"type":"VEC4","name":"accessorTangents"},{"bufferView":3,"componentType":5126,"count":2237,"type":"VEC2","name":"accessorUVs"}],"bufferViews":[{"buffer":0,"byteLength":24660,"name":"bufferViewScalar"},{"buffer":0,"byteOffset":24660,"byteLength":53688,"byteStride":12,"name":"bufferViewFloatVec3"},{"buffer":0,"byteOffset":78348,"byteLength":35792,"byteStride":16,"name":"bufferViewFloatVec4"},{"buffer":0,"byteOffset":114140,"byteLength":17896,"byteStride":8,"name":"bufferViewFloatVec2"}],"buffers":[{"uri":"Nervous_Full_Cerebellum_3.bin","byteLength":132036}],"materials":[{"pbrMetallicRoughness":{"baseColorFactor":[1.0,1.0,1.0,1.0],"baseColorTexture":{"index":0,"texCoord":0},"metallicFactor":1.0,"roughnessFactor":1.0,"metallicRoughnessTexture":{"index":1,"texCoord":0}},"emissiveFactor":[0.0,0.0,0.0],"alphaMode":"OPAQUE","name":"Half_Brain_Mat"}],"textures":[{"sampler":0,"source":0,"name":"Half_Brain_Mat_baseColor.jpg"},{"sampler":1,"source":1,"name":"Half_Brain_Mat_metallicRoughness.jpg"}],"images":[{"uri":"Half_Brain_Mat_baseColor.jpg"},{"uri":"Half_Brain_Mat_metallicRoughness.jpg"}],"samplers":[{"magFilter":9729,"minFilter":9987,"wrapS":10497,"wrapT":10497},{"magFilter":9729,"minFilter":9987,"wrapS":10497,"wrapT":10497}]}