{"asset":{"version":"2.0","generator":"babylon.js glTF exporter for maya 2018 v1.3.0"},"scene":0,"scenes":[{"nodes":[0],"extensions":{}}],"nodes":[{"children":[1],"translation":[-10.0377369,0.390613943,-3.29541779],"rotation":[0.0,0.0,0.0,1.0],"scale":[0.4,0.4,0.4],"name":"Level_2_Grp"},{"children":[2],"translation":[0.0,0.0,0.0],"rotation":[0.0,0.0,0.0,1.0],"scale":[1.0,1.0,1.0],"name":"Valence_electrons"},{"mesh":0,"translation":[0.0,0.0,0.0],"rotation":[0.0,0.0,0.0,1.0],"scale":[1.0,1.0,1.0],"name":"Valence_electrons1"}],"meshes":[{"primitives":[{"attributes":{"POSITION":1,"NORMAL":2,"TANGENT":3,"TEXCOORD_0":4},"indices":0,"mode":4,"material":0}],"name":"Valence_electrons1"}],"accessors":[{"bufferView":0,"componentType":5123,"count":648,"type":"SCALAR","name":"accessorIndices"},{"bufferView":1,"componentType":5126,"count":141,"max":[25.394352,-0.67653656,8.538544],"min":[24.79435,-1.276535,7.938545],"type":"VEC3","name":"accessorPositions"},{"bufferView":1,"byteOffset":1692,"componentType":5126,"count":141,"type":"VEC3","name":"accessorNormals"},{"bufferView":2,"componentType":5126,"count":141,"type":"VEC4","name":"accessorTangents"},{"bufferView":3,"componentType":5126,"count":141,"type":"VEC2","name":"accessorUVs"}],"bufferViews":[{"buffer":0,"byteLength":1296,"name":"bufferViewScalar"},{"buffer":0,"byteOffset":1296,"byteLength":3384,"byteStride":12,"name":"bufferViewFloatVec3"},{"buffer":0,"byteOffset":4680,"byteLength":2256,"byteStride":16,"name":"bufferViewFloatVec4"},{"buffer":0,"byteOffset":6936,"byteLength":1128,"byteStride":8,"name":"bufferViewFloatVec2"}],"buffers":[{"uri":"Green.bin","byteLength":8064}],"materials":[{"pbrMetallicRoughness":{"baseColorFactor":[1.0,1.0,1.0,1.0],"baseColorTexture":{"index":0,"texCoord":0},"metallicFactor":0.0,"roughnessFactor":0.3207082},"emissiveFactor":[0.0,0.0,0.0],"alphaMode":"BLEND","name":"Valence_electron"}],"textures":[{"sampler":0,"source":0,"name":"Valence_electron_baseColor.png"}],"images":[{"uri":"Valence_electron_baseColor.png"}],"samplers":[{"magFilter":9729,"minFilter":9987,"wrapS":10497,"wrapT":10497}]}