{"asset":{"version":"2.0","generator":"babylon.js glTF exporter for maya 2018 v1.3.0"},"scene":0,"scenes":[{"nodes":[0],"extensions":{}}],"nodes":[{"children":[1,3,5,7],"translation":[-2.16667747,-168.565414,0.0],"rotation":[0.0,0.0,0.0,1.0],"scale":[1.0,1.0,1.0],"name":"Brain_Full"},{"children":[2],"translation":[0.0,0.0,0.0],"rotation":[0.0,0.0,0.0,1.0],"scale":[1.0,1.0,1.0],"name":"Frontal_Lobe_Grp"},{"mesh":0,"translation":[0.0,0.0,0.0],"rotation":[0.0,0.0,0.0,1.0],"scale":[1.0,1.0,1.0],"name":"Frontal_Lobe_Left"},{"children":[4],"translation":[0.0,0.0,0.0],"rotation":[0.0,0.0,0.0,1.0],"scale":[1.0,1.0,1.0],"name":"Parietal_Lobe"},{"mesh":1,"translation":[0.0,0.0,0.0],"rotation":[0.0,0.0,0.0,1.0],"scale":[1.0,1.0,1.0],"name":"Parietal_Lobe_Left"},{"children":[6],"translation":[0.0,0.0,0.0],"rotation":[0.0,0.0,0.0,1.0],"scale":[1.0,1.0,1.0],"name":"Occipital_Lob_Grp"},{"mesh":2,"translation":[0.0,0.0,0.0],"rotation":[0.0,0.0,0.0,1.0],"scale":[1.0,1.0,1.0],"name":"Occipital_Lob_Left"},{"children":[8],"translation":[0.0,0.0,0.0],"rotation":[0.0,0.0,0.0,1.0],"scale":[1.0,1.0,1.0],"name":"Temporal_Lobe"},{"mesh":3,"translation":[0.0,0.0,0.0],"rotation":[0.0,0.0,0.0,1.0],"scale":[1.0,1.0,1.0],"name":"Temporal_Lobe_Left"}],"meshes":[{"primitives":[{"attributes":{"POSITION":1,"NORMAL":2,"TANGENT":3,"TEXCOORD_0":4},"indices":0,"mode":4,"material":0}],"name":"Frontal_Lobe_Left"},{"primitives":[{"attributes":{"POSITION":6,"NORMAL":7,"TANGENT":8,"TEXCOORD_0":9},"indices":5,"mode":4,"material":0}],"name":"Parietal_Lobe_Left"},{"primitives":[{"attributes":{"POSITION":11,"NORMAL":12,"TANGENT":13,"TEXCOORD_0":14},"indices":10,"mode":4,"material":0}],"name":"Occipital_Lob_Left"},{"primitives":[{"attributes":{"POSITION":16,"NORMAL":17,"TANGENT":18,"TEXCOORD_0":19},"indices":15,"mode":4,"material":0}],"name":"Temporal_Lobe_Left"}],"accessors":[{"bufferView":0,"componentType":5123,"count":17286,"type":"SCALAR","name":"accessorIndices"},{"bufferView":1,"componentType":5126,"count":3049,"max":[6.05571556,178.768967,10.4535475],"min":[-0.279922962,169.000473,0.65434134],"type":"VEC3","name":"accessorPositions"},{"bufferView":1,"byteOffset":36588,"componentType":5126,"count":3049,"type":"VEC3","name":"accessorNormals"},{"bufferView":2,"componentType":5126,"count":3049,"type":"VEC4","name":"accessorTangents"},{"bufferView":3,"componentType":5126,"count":3049,"type":"VEC2","name":"accessorUVs"},{"bufferView":0,"byteOffset":34572,"componentType":5123,"count":11847,"type":"SCALAR","name":"accessorIndices"},{"bufferView":1,"byteOffset":73176,"componentType":5126,"count":2134,"max":[6.29695845,178.593338,2.81010818],"min":[-0.442946047,171.875336,-4.57974768],"type":"VEC3","name":"accessorPositions"},{"bufferView":1,"byteOffset":98784,"componentType":5126,"count":2134,"type":"VEC3","name":"accessorNormals"},{"bufferView":2,"byteOffset":48784,"componentType":5126,"count":2134,"type":"VEC4","name":"accessorTangents"},{"bufferView":3,"byteOffset":24392,"componentType":5126,"count":2134,"type":"VEC2","name":"accessorUVs"},{"bufferView":0,"byteOffset":58268,"componentType":5123,"count":2916,"type":"SCALAR","name":"accessorIndices"},{"bufferView":1,"byteOffset":124392,"componentType":5126,"count":527,"max":[4.255277,175.704529,-3.1906004],"min":[0.0183820426,168.252777,-6.06447029],"type":"VEC3","name":"accessorPositions"},{"bufferView":1,"byteOffset":130716,"componentType":5126,"count":527,"type":"VEC3","name":"accessorNormals"},{"bufferView":2,"byteOffset":82928,"componentType":5126,"count":527,"type":"VEC4","name":"accessorTangents"},{"bufferView":3,"byteOffset":41464,"componentType":5126,"count":527,"type":"VEC2","name":"accessorUVs"},{"bufferView":0,"byteOffset":64100,"componentType":5123,"count":14298,"type":"SCALAR","name":"accessorIndices"},{"bufferView":1,"byteOffset":137040,"componentType":5126,"count":2498,"max":[6.38580847,174.168533,5.92796135],"min":[-0.112451,167.477844,-4.592445],"type":"VEC3","name":"accessorPositions"},{"bufferView":1,"byteOffset":167016,"componentType":5126,"count":2498,"type":"VEC3","name":"accessorNormals"},{"bufferView":2,"byteOffset":91360,"componentType":5126,"count":2498,"type":"VEC4","name":"accessorTangents"},{"bufferView":3,"byteOffset":45680,"componentType":5126,"count":2498,"type":"VEC2","name":"accessorUVs"}],"bufferViews":[{"buffer":0,"byteLength":92696,"name":"bufferViewScalar"},{"buffer":0,"byteOffset":92696,"byteLength":196992,"byteStride":12,"name":"bufferViewFloatVec3"},{"buffer":0,"byteOffset":289688,"byteLength":131328,"byteStride":16,"name":"bufferViewFloatVec4"},{"buffer":0,"byteOffset":421016,"byteLength":65664,"byteStride":8,"name":"bufferViewFloatVec2"}],"buffers":[{"uri":"Cerebrum.bin","byteLength":486680}],"materials":[{"pbrMetallicRoughness":{"baseColorFactor":[1.0,1.0,1.0,1.0],"baseColorTexture":{"index":0,"texCoord":0},"metallicFactor":1.0,"roughnessFactor":1.0,"metallicRoughnessTexture":{"index":1,"texCoord":0}},"emissiveFactor":[0.0,0.0,0.0],"alphaMode":"OPAQUE","name":"Full_Brain_Mat"}],"textures":[{"sampler":0,"source":0,"name":"Full_Brain_Mat_baseColor.jpg"},{"sampler":1,"source":1,"name":"Full_Brain_Mat_metallicRoughness.jpg"}],"images":[{"uri":"Full_Brain_Mat_baseColor.jpg"},{"uri":"Full_Brain_Mat_metallicRoughness.jpg"}],"samplers":[{"magFilter":9729,"minFilter":9987,"wrapS":10497,"wrapT":10497},{"magFilter":9729,"minFilter":9987,"wrapS":10497,"wrapT":10497}]}