{"asset":{"version":"2.0","generator":"babylon.js glTF exporter for maya 2018 v1.3.0"},"scene":0,"scenes":[{"nodes":[0],"extensions":{}}],"nodes":[{"children":[1],"translation":[-0.09223032,-1.049655,-0.516854346],"rotation":[-0.707106769,0.0,0.0,0.707106769],"scale":[2.54,2.54,2.54],"name":"Cherry_Flower_Cut_Section"},{"mesh":0,"translation":[0.0,0.0,0.0],"rotation":[0.0,0.0,0.0,1.0],"scale":[1.0,1.0,1.0],"name":"Filament_02"}],"meshes":[{"primitives":[{"attributes":{"POSITION":1,"NORMAL":2,"TANGENT":3,"TEXCOORD_0":4},"indices":0,"mode":4,"material":0},{"attributes":{"POSITION":6,"NORMAL":7,"TANGENT":8,"TEXCOORD_0":9},"indices":5,"mode":4,"material":1}],"name":"Filament_02"}],"accessors":[{"bufferView":0,"componentType":5123,"count":3210,"type":"SCALAR","name":"accessorIndices"},{"bufferView":1,"componentType":5126,"count":768,"max":[2.70896149,2.58991742,5.906622],"min":[-2.332421,-0.70552063,2.194627],"type":"VEC3","name":"accessorPositions"},{"bufferView":1,"byteOffset":9216,"componentType":5126,"count":768,"type":"VEC3","name":"accessorNormals"},{"bufferView":2,"componentType":5126,"count":768,"type":"VEC4","name":"accessorTangents"},{"bufferView":3,"componentType":5126,"count":768,"type":"VEC2","name":"accessorUVs"},{"bufferView":0,"byteOffset":6420,"componentType":5123,"count":10416,"type":"SCALAR","name":"accessorIndices"},{"bufferView":1,"byteOffset":18432,"componentType":5126,"count":2436,"max":[2.84001827,2.830142,6.16514254],"min":[-2.60168028,-0.744102955,4.50531244],"type":"VEC3","name":"accessorPositions"},{"bufferView":1,"byteOffset":47664,"componentType":5126,"count":2436,"type":"VEC3","name":"accessorNormals"},{"bufferView":2,"byteOffset":12288,"componentType":5126,"count":2436,"type":"VEC4","name":"accessorTangents"},{"bufferView":3,"byteOffset":6144,"componentType":5126,"count":2436,"type":"VEC2","name":"accessorUVs"}],"bufferViews":[{"buffer":0,"byteLength":27252,"name":"bufferViewScalar"},{"buffer":0,"byteOffset":27252,"byteLength":76896,"byteStride":12,"name":"bufferViewFloatVec3"},{"buffer":0,"byteOffset":104148,"byteLength":51264,"byteStride":16,"name":"bufferViewFloatVec4"},{"buffer":0,"byteOffset":155412,"byteLength":25632,"byteStride":8,"name":"bufferViewFloatVec2"}],"buffers":[{"uri":"Filament_02.bin","byteLength":181044}],"materials":[{"pbrMetallicRoughness":{"baseColorFactor":[1.0,1.0,1.0,1.0],"baseColorTexture":{"index":0,"texCoord":0},"metallicFactor":0.0,"roughnessFactor":0.3207082},"emissiveFactor":[0.0,0.0,0.0],"alphaMode":"OPAQUE","name":"Middle_flower"},{"pbrMetallicRoughness":{"baseColorFactor":[1.0,1.0,1.0,1.0],"baseColorTexture":{"index":2,"texCoord":0},"metallicFactor":0.0,"roughnessFactor":0.450053632},"emissiveTexture":{"index":1,"texCoord":0},"emissiveFactor":[1.0,1.0,1.0],"alphaMode":"OPAQUE","name":"Anther"}],"textures":[{"sampler":0,"source":0,"name":"Middle_flower_baseColor.jpg"},{"sampler":1,"source":1,"name":"Anther_emissive.jpg"},{"sampler":2,"source":2,"name":"Anther_baseColor.jpg"}],"images":[{"uri":"Middle_flower_baseColor.jpg"},{"uri":"Anther_emissive.jpg"},{"uri":"Anther_baseColor.jpg"}],"samplers":[{"magFilter":9729,"minFilter":9987,"wrapS":10497,"wrapT":10497},{"magFilter":9729,"minFilter":9987,"wrapS":10497,"wrapT":10497},{"magFilter":9729,"minFilter":9987,"wrapS":10497,"wrapT":10497}]}