{"asset":{"version":"2.0","generator":"babylon.js glTF exporter for maya 2018 v1.3.0"},"extensionsUsed":["KHR_texture_transform"],"extensionsRequired":["KHR_texture_transform"],"scene":0,"scenes":[{"nodes":[0],"extensions":{}}],"nodes":[{"children":[1],"translation":[0.0,0.0,0.0],"rotation":[0.0,0.0,0.0,1.0],"scale":[1.0,1.0,1.0],"name":"Set"},{"children":[2],"translation":[0.0,0.0,0.0],"rotation":[0.0,0.0,0.0,1.0],"scale":[1.0,1.0,1.0],"name":"Stage_1"},{"children":[3,4,6,10,11],"translation":[0.0,0.0,0.0],"rotation":[0.0,0.0,0.0,1.0],"scale":[1.0,1.0,1.0],"name":"Pea_Plant_Purple_Flower1"},{"mesh":0,"translation":[0.0,0.0,0.0],"rotation":[0.0,0.0,0.0,1.0],"scale":[1.0,1.0,1.0],"name":"Purple_Flower_Single"},{"children":[5],"translation":[0.0,0.0,0.0],"rotation":[0.0,0.0,0.0,1.0],"scale":[1.0,1.0,1.0],"name":"_Pea_Plant"},{"mesh":1,"translation":[0.0,0.0,0.0],"rotation":[0.0,0.0,0.0,1.0],"scale":[1.0,1.0,1.0],"name":"_polySurface10"},{"children":[7,8,9],"translation":[0.0,0.0,0.0],"rotation":[0.0,0.0,0.0,1.0],"scale":[1.0,1.0,1.0],"name":"_Flowers"},{"mesh":2,"translation":[0.0,0.0,0.0],"rotation":[0.0,0.0,0.0,1.0],"scale":[1.0,1.0,1.0],"name":"_Flower_03"},{"mesh":3,"translation":[0.0,0.0,0.0],"rotation":[0.0,0.0,0.0,1.0],"scale":[1.0,1.0,1.0],"name":"_Flower_01"},{"mesh":4,"translation":[0.0,0.0,0.0],"rotation":[0.0,0.0,0.0,1.0],"scale":[1.0,1.0,1.0],"name":"_Flower_04"},{"mesh":5,"translation":[0.0,0.0,0.0],"rotation":[0.0,0.0,0.0,1.0],"scale":[1.0,1.0,1.0],"name":"_Soil_Root"},{"children":[12,13],"translation":[0.0,0.0,0.0],"rotation":[0.0,0.0,0.0,1.0],"scale":[1.0,1.0,1.0],"name":"_Pea_Pod_yellow"},{"mesh":6,"translation":[0.0,0.0,0.0],"rotation":[0.0,0.0,0.0,1.0],"scale":[1.0,1.0,1.0],"name":"_Pod_Yellow_Main"},{"children":[14,15,16,17,18],"translation":[0.0,0.0,0.0],"rotation":[0.0,0.0,0.0,1.0],"scale":[1.0,1.0,1.0],"name":"_Peas_Green_Fresh"},{"mesh":7,"translation":[0.0,0.0,0.0],"rotation":[0.0,0.0,0.0,1.0],"scale":[1.0,1.0,1.0],"name":"_Peas1"},{"mesh":8,"translation":[0.0,0.0,0.0],"rotation":[0.0,0.0,0.0,1.0],"scale":[1.0,1.0,1.0],"name":"_Peas2"},{"mesh":9,"translation":[0.0,0.0,0.0],"rotation":[0.0,0.0,0.0,1.0],"scale":[1.0,1.0,1.0],"name":"_Peas3"},{"mesh":10,"translation":[0.0,0.0,0.0],"rotation":[0.0,0.0,0.0,1.0],"scale":[1.0,1.0,1.0],"name":"_Peas4"},{"mesh":11,"translation":[0.0,0.0,0.0],"rotation":[0.0,0.0,0.0,1.0],"scale":[1.0,1.0,1.0],"name":"_Peas"}],"meshes":[{"primitives":[{"attributes":{"POSITION":1,"NORMAL":2,"TANGENT":3,"TEXCOORD_0":4},"indices":0,"mode":4,"material":0}],"name":"Purple_Flower_Single"},{"primitives":[{"attributes":{"POSITION":6,"NORMAL":7,"TANGENT":8,"TEXCOORD_0":9},"indices":5,"mode":4,"material":1},{"attributes":{"POSITION":11,"NORMAL":12,"TANGENT":13,"TEXCOORD_0":14},"indices":10,"mode":4,"material":2}],"name":"_polySurface10"},{"primitives":[{"attributes":{"POSITION":16,"NORMAL":17,"TANGENT":18,"TEXCOORD_0":19},"indices":15,"mode":4,"material":0}],"name":"_Flower_03"},{"primitives":[{"attributes":{"POSITION":21,"NORMAL":22,"TANGENT":23,"TEXCOORD_0":24},"indices":20,"mode":4,"material":0}],"name":"_Flower_01"},{"primitives":[{"attributes":{"POSITION":26,"NORMAL":27,"TANGENT":28,"TEXCOORD_0":29},"indices":25,"mode":4,"material":0}],"name":"_Flower_04"},{"primitives":[{"attributes":{"POSITION":31,"NORMAL":32,"TANGENT":33,"TEXCOORD_0":34},"indices":30,"mode":4,"material":3}],"name":"_Soil_Root"},{"primitives":[{"attributes":{"POSITION":36,"NORMAL":37,"TANGENT":38,"TEXCOORD_0":39},"indices":35,"mode":4,"material":2}],"name":"_Pod_Yellow_Main"},{"primitives":[{"attributes":{"POSITION":41,"NORMAL":42,"TANGENT":43,"TEXCOORD_0":44},"indices":40,"mode":4,"material":4}],"name":"_Peas1"},{"primitives":[{"attributes":{"POSITION":46,"NORMAL":47,"TANGENT":48,"TEXCOORD_0":49},"indices":45,"mode":4,"material":4}],"name":"_Peas2"},{"primitives":[{"attributes":{"POSITION":51,"NORMAL":52,"TANGENT":53,"TEXCOORD_0":54},"indices":50,"mode":4,"material":4}],"name":"_Peas3"},{"primitives":[{"attributes":{"POSITION":56,"NORMAL":57,"TANGENT":58,"TEXCOORD_0":59},"indices":55,"mode":4,"material":4}],"name":"_Peas4"},{"primitives":[{"attributes":{"POSITION":61,"NORMAL":62,"TANGENT":63,"TEXCOORD_0":64},"indices":60,"mode":4,"material":4}],"name":"_Peas"}],"accessors":[{"bufferView":0,"componentType":5123,"count":6624,"type":"SCALAR","name":"accessorIndices"},{"bufferView":1,"componentType":5126,"count":1206,"max":[0.213177443,1.72170591,0.0562474728],"min":[0.101580381,1.605361,-0.06629896],"type":"VEC3","name":"accessorPositions"},{"bufferView":1,"byteOffset":14472,"componentType":5126,"count":1206,"type":"VEC3","name":"accessorNormals"},{"bufferView":2,"componentType":5126,"count":1206,"type":"VEC4","name":"accessorTangents"},{"bufferView":3,"componentType":5126,"count":1206,"type":"VEC2","name":"accessorUVs"},{"bufferView":0,"byteOffset":13248,"componentType":5123,"count":18930,"type":"SCALAR","name":"accessorIndices"},{"bufferView":1,"byteOffset":28944,"componentType":5126,"count":3897,"max":[0.142856836,1.72961521,0.235342741],"min":[-0.515062,0.209157944,-0.572358847],"type":"VEC3","name":"accessorPositions"},{"bufferView":1,"byteOffset":75708,"componentType":5126,"count":3897,"type":"VEC3","name":"accessorNormals"},{"bufferView":2,"byteOffset":19296,"componentType":5126,"count":3897,"type":"VEC4","name":"accessorTangents"},{"bufferView":3,"byteOffset":9648,"componentType":5126,"count":3897,"type":"VEC2","name":"accessorUVs"},{"bufferView":0,"byteOffset":51108,"componentType":5123,"count":30303,"type":"SCALAR","name":"accessorIndices"},{"bufferView":1,"byteOffset":122472,"componentType":5126,"count":5993,"max":[0.290895462,1.62410736,0.265644073],"min":[-0.2656951,0.226183891,-0.586565733],"type":"VEC3","name":"accessorPositions"},{"bufferView":1,"byteOffset":194388,"componentType":5126,"count":5993,"type":"VEC3","name":"accessorNormals"},{"bufferView":2,"byteOffset":81648,"componentType":5126,"count":5993,"type":"VEC4","name":"accessorTangents"},{"bufferView":3,"byteOffset":40824,"componentType":5126,"count":5993,"type":"VEC2","name":"accessorUVs"},{"bufferView":0,"byteOffset":111716,"componentType":5123,"count":6780,"type":"SCALAR","name":"accessorIndices"},{"bufferView":1,"byteOffset":266304,"componentType":5126,"count":1245,"max":[0.180634737,1.39351082,0.183750868],"min":[0.0347752571,1.22594929,0.0233128071],"type":"VEC3","name":"accessorPositions"},{"bufferView":1,"byteOffset":281244,"componentType":5126,"count":1245,"type":"VEC3","name":"accessorNormals"},{"bufferView":2,"byteOffset":177536,"componentType":5126,"count":1245,"type":"VEC4","name":"accessorTangents"},{"bufferView":3,"byteOffset":88768,"componentType":5126,"count":1245,"type":"VEC2","name":"accessorUVs"},{"bufferView":0,"byteOffset":125276,"componentType":5123,"count":4590,"type":"SCALAR","name":"accessorIndices"},{"bufferView":1,"byteOffset":296184,"componentType":5126,"count":865,"max":[0.185361028,1.61633968,-0.06654],"min":[0.112174988,1.53149223,-0.158430576],"type":"VEC3","name":"accessorPositions"},{"bufferView":1,"byteOffset":306564,"componentType":5126,"count":865,"type":"VEC3","name":"accessorNormals"},{"bufferView":2,"byteOffset":197456,"componentType":5126,"count":865,"type":"VEC4","name":"accessorTangents"},{"bufferView":3,"byteOffset":98728,"componentType":5126,"count":865,"type":"VEC2","name":"accessorUVs"},{"bufferView":0,"byteOffset":134456,"componentType":5123,"count":4590,"type":"SCALAR","name":"accessorIndices"},{"bufferView":1,"byteOffset":316944,"componentType":5126,"count":865,"max":[-0.119696856,1.14785147,0.118182659],"min":[-0.224862337,1.05506229,0.0276532173],"type":"VEC3","name":"accessorPositions"},{"bufferView":1,"byteOffset":327324,"componentType":5126,"count":865,"type":"VEC3","name":"accessorNormals"},{"bufferView":2,"byteOffset":211296,"componentType":5126,"count":865,"type":"VEC4","name":"accessorTangents"},{"bufferView":3,"byteOffset":105648,"componentType":5126,"count":865,"type":"VEC2","name":"accessorUVs"},{"bufferView":0,"byteOffset":143636,"componentType":5123,"count":504,"type":"SCALAR","name":"accessorIndices"},{"bufferView":1,"byteOffset":337704,"componentType":5126,"count":111,"max":[0.115660429,0.21930027,0.115660906],"min":[-0.115660906,0.0,-0.115660667],"type":"VEC3","name":"accessorPositions"},{"bufferView":1,"byteOffset":339036,"componentType":5126,"count":111,"type":"VEC3","name":"accessorNormals"},{"bufferView":2,"byteOffset":225136,"componentType":5126,"count":111,"type":"VEC4","name":"accessorTangents"},{"bufferView":3,"byteOffset":112568,"componentType":5126,"count":111,"type":"VEC2","name":"accessorUVs"},{"bufferView":0,"byteOffset":144644,"componentType":5123,"count":1260,"type":"SCALAR","name":"accessorIndices"},{"bufferView":1,"byteOffset":340368,"componentType":5126,"count":291,"max":[-0.07615173,1.03972244,0.2542956],"min":[-0.1583612,0.761667252,0.0505635738],"type":"VEC3","name":"accessorPositions"},{"bufferView":1,"byteOffset":343860,"componentType":5126,"count":291,"type":"VEC3","name":"accessorNormals"},{"bufferView":2,"byteOffset":226912,"componentType":5126,"count":291,"type":"VEC4","name":"accessorTangents"},{"bufferView":3,"byteOffset":113456,"componentType":5126,"count":291,"type":"VEC2","name":"accessorUVs"},{"bufferView":0,"byteOffset":147164,"componentType":5123,"count":792,"type":"SCALAR","name":"accessorIndices"},{"bufferView":1,"byteOffset":347352,"componentType":5126,"count":156,"max":[-0.08388746,1.00798082,0.111383677],"min":[-0.131228089,0.9622412,0.06053853],"type":"VEC3","name":"accessorPositions"},{"bufferView":1,"byteOffset":349224,"componentType":5126,"count":156,"type":"VEC3","name":"accessorNormals"},{"bufferView":2,"byteOffset":231568,"componentType":5126,"count":156,"type":"VEC4","name":"accessorTangents"},{"bufferView":3,"byteOffset":115784,"componentType":5126,"count":156,"type":"VEC2","name":"accessorUVs"},{"bufferView":0,"byteOffset":148748,"componentType":5123,"count":792,"type":"SCALAR","name":"accessorIndices"},{"bufferView":1,"byteOffset":351096,"componentType":5126,"count":156,"max":[-0.0805062056,0.962286,0.133077621],"min":[-0.133331776,0.9108081,0.07636857],"type":"VEC3","name":"accessorPositions"},{"bufferView":1,"byteOffset":352968,"componentType":5126,"count":156,"type":"VEC3","name":"accessorNormals"},{"bufferView":2,"byteOffset":234064,"componentType":5126,"count":156,"type":"VEC4","name":"accessorTangents"},{"bufferView":3,"byteOffset":117032,"componentType":5126,"count":156,"type":"VEC2","name":"accessorUVs"},{"bufferView":0,"byteOffset":150332,"componentType":5123,"count":792,"type":"SCALAR","name":"accessorIndices"},{"bufferView":1,"byteOffset":354840,"componentType":5126,"count":156,"max":[-0.08620405,0.9128103,0.156492949],"min":[-0.1396563,0.8607335,0.09889197],"type":"VEC3","name":"accessorPositions"},{"bufferView":1,"byteOffset":356712,"componentType":5126,"count":156,"type":"VEC3","name":"accessorNormals"},{"bufferView":2,"byteOffset":236560,"componentType":5126,"count":156,"type":"VEC4","name":"accessorTangents"},{"bufferView":3,"byteOffset":118280,"componentType":5126,"count":156,"type":"VEC2","name":"accessorUVs"},{"bufferView":0,"byteOffset":151916,"componentType":5123,"count":792,"type":"SCALAR","name":"accessorIndices"},{"bufferView":1,"byteOffset":358584,"componentType":5126,"count":156,"max":[-0.09016752,0.8632293,0.1844418],"min":[-0.1433878,0.8111949,0.127609491],"type":"VEC3","name":"accessorPositions"},{"bufferView":1,"byteOffset":360456,"componentType":5126,"count":156,"type":"VEC3","name":"accessorNormals"},{"bufferView":2,"byteOffset":239056,"componentType":5126,"count":156,"type":"VEC4","name":"accessorTangents"},{"bufferView":3,"byteOffset":119528,"componentType":5126,"count":156,"type":"VEC2","name":"accessorUVs"},{"bufferView":0,"byteOffset":153500,"componentType":5123,"count":792,"type":"SCALAR","name":"accessorIndices"},{"bufferView":1,"byteOffset":362328,"componentType":5126,"count":156,"max":[-0.09812689,0.8229089,0.219810963],"min":[-0.149621487,0.771847248,0.168040991],"type":"VEC3","name":"accessorPositions"},{"bufferView":1,"byteOffset":364200,"componentType":5126,"count":156,"type":"VEC3","name":"accessorNormals"},{"bufferView":2,"byteOffset":241552,"componentType":5126,"count":156,"type":"VEC4","name":"accessorTangents"},{"bufferView":3,"byteOffset":120776,"componentType":5126,"count":156,"type":"VEC2","name":"accessorUVs"}],"bufferViews":[{"buffer":0,"byteLength":155084,"name":"bufferViewScalar"},{"buffer":0,"byteOffset":155084,"byteLength":366072,"byteStride":12,"name":"bufferViewFloatVec3"},{"buffer":0,"byteOffset":521156,"byteLength":244048,"byteStride":16,"name":"bufferViewFloatVec4"},{"buffer":0,"byteOffset":765204,"byteLength":122024,"byteStride":8,"name":"bufferViewFloatVec2"}],"buffers":[{"uri":"Red_Small_Pea_Plant_Green_Pod.bin","byteLength":887228}],"materials":[{"pbrMetallicRoughness":{"baseColorFactor":[1.0,1.0,1.0,1.0],"baseColorTexture":{"index":0,"texCoord":0},"metallicFactor":0.0,"roughnessFactor":0.450053632},"emissiveFactor":[0.0,0.0,0.0],"alphaMode":"OPAQUE","name":"Pea_Plant_Leaves_Flower_Pink"},{"pbrMetallicRoughness":{"baseColorFactor":[1.0,1.0,1.0,1.0],"baseColorTexture":{"index":2,"texCoord":0},"metallicFactor":0.0,"roughnessFactor":0.450053632},"normalTexture":{"index":1,"texCoord":0},"emissiveFactor":[0.0,0.0,0.0],"alphaMode":"OPAQUE","name":"_Stem1"},{"pbrMetallicRoughness":{"baseColorFactor":[1.0,1.0,1.0,1.0],"baseColorTexture":{"index":4,"texCoord":0},"metallicFactor":0.0,"roughnessFactor":0.450053632},"normalTexture":{"index":3,"texCoord":0},"emissiveFactor":[0.0,0.0,0.0],"alphaMode":"OPAQUE","name":"_Pea_Plant_Leaves_Flower_Green_Tex"},{"pbrMetallicRoughness":{"baseColorFactor":[1.0,1.0,1.0,1.0],"baseColorTexture":{"index":5,"texCoord":0,"extensions":{"KHR_texture_transform":{"offset":[0.0,-2.0],"scale":[3.0,3.0],"texCoord":0}}},"metallicFactor":0.0,"roughnessFactor":0.3207082},"emissiveFactor":[0.0,0.0,0.0],"alphaMode":"OPAQUE","name":"_Mud"},{"pbrMetallicRoughness":{"baseColorFactor":[1.0,1.0,1.0,1.0],"baseColorTexture":{"index":6,"texCoord":0},"metallicFactor":0.0,"roughnessFactor":0.184672624},"normalTexture":{"index":1,"texCoord":0},"emissiveFactor":[0.0,0.0,0.0],"alphaMode":"OPAQUE","name":"Pea_Pod_Yellow_Tex"}],"textures":[{"sampler":0,"source":0,"name":"Pea_Plant_Leaves_Flower_Pink_baseColor.jpg"},{"sampler":1,"source":1,"name":"Stem_NM.jpg"},{"sampler":2,"source":2,"name":"_Stem1_baseColor.jpg"},{"sampler":3,"source":3,"name":"Pea_Plant_Leaves_Flower_Nm.jpg"},{"sampler":4,"source":4,"name":"_Pea_Plant_Leaves_Flower_Green_Tex_baseColor.jpg"},{"sampler":5,"source":5,"name":"_Mud_baseColor.jpg"},{"sampler":6,"source":6,"name":"Pea_Pod_Yellow_Tex_baseColor.jpg"}],"images":[{"uri":"Pea_Plant_Leaves_Flower_Pink_baseColor.jpg"},{"uri":"Stem_NM.jpg"},{"uri":"_Stem1_baseColor.jpg"},{"uri":"Pea_Plant_Leaves_Flower_Nm.jpg"},{"uri":"_Pea_Plant_Leaves_Flower_Green_Tex_baseColor.jpg"},{"uri":"_Mud_baseColor.jpg"},{"uri":"Pea_Pod_Yellow_Tex_baseColor.jpg"}],"samplers":[{"magFilter":9729,"minFilter":9987,"wrapS":10497,"wrapT":10497},{"magFilter":9729,"minFilter":9987,"wrapS":10497,"wrapT":10497},{"magFilter":9729,"minFilter":9987,"wrapS":10497,"wrapT":10497},{"magFilter":9729,"minFilter":9987,"wrapS":10497,"wrapT":10497},{"magFilter":9729,"minFilter":9987,"wrapS":10497,"wrapT":10497},{"magFilter":9729,"minFilter":9987,"wrapS":10497,"wrapT":10497},{"magFilter":9729,"minFilter":9987,"wrapS":10497,"wrapT":10497}]}