{"asset":{"version":"2.0","generator":"babylon.js glTF exporter for maya 2018 v1.3.0"},"scene":0,"scenes":[{"nodes":[0],"extensions":{}}],"nodes":[{"children":[1,2],"translation":[0.0,0.0,0.0],"rotation":[0.0,0.0,0.0,1.0],"scale":[1.0,1.0,1.0],"name":"Sixteen_Highlight"},{"mesh":0,"translation":[0.0,0.0,0.0],"rotation":[0.0,0.0,0.0,1.0],"scale":[1.0,1.0,1.0],"name":"Six2"},{"mesh":1,"translation":[0.0,0.0,0.0],"rotation":[0.0,0.0,0.0,1.0],"scale":[1.0,1.0,1.0],"name":"One11"}],"meshes":[{"primitives":[{"attributes":{"POSITION":1,"NORMAL":2,"TANGENT":3,"TEXCOORD_0":4},"indices":0,"mode":4,"material":0}],"name":"Six2"},{"primitives":[{"attributes":{"POSITION":6,"NORMAL":7,"TANGENT":8,"TEXCOORD_0":9},"indices":5,"mode":4,"material":0}],"name":"One11"}],"accessors":[{"bufferView":0,"componentType":5123,"count":552,"type":"SCALAR","name":"accessorIndices"},{"bufferView":1,"componentType":5126,"count":194,"max":[15.9622364,7.696581,0.327713],"min":[15.3894558,6.90432072,-0.059387207],"type":"VEC3","name":"accessorPositions"},{"bufferView":1,"byteOffset":2328,"componentType":5126,"count":194,"type":"VEC3","name":"accessorNormals"},{"bufferView":2,"componentType":5126,"count":194,"type":"VEC4","name":"accessorTangents"},{"bufferView":3,"componentType":5126,"count":194,"type":"VEC2","name":"accessorUVs"},{"bufferView":0,"byteOffset":1104,"componentType":5123,"count":60,"type":"SCALAR","name":"accessorIndices"},{"bufferView":1,"byteOffset":4656,"componentType":5126,"count":36,"max":[15.3667221,7.678879,0.127792358],"min":[15.0675392,6.927294,-0.159698486],"type":"VEC3","name":"accessorPositions"},{"bufferView":1,"byteOffset":5088,"componentType":5126,"count":36,"type":"VEC3","name":"accessorNormals"},{"bufferView":2,"byteOffset":3104,"componentType":5126,"count":36,"type":"VEC4","name":"accessorTangents"},{"bufferView":3,"byteOffset":1552,"componentType":5126,"count":36,"type":"VEC2","name":"accessorUVs"}],"bufferViews":[{"buffer":0,"byteLength":1224,"name":"bufferViewScalar"},{"buffer":0,"byteOffset":1224,"byteLength":5520,"byteStride":12,"name":"bufferViewFloatVec3"},{"buffer":0,"byteOffset":6744,"byteLength":3680,"byteStride":16,"name":"bufferViewFloatVec4"},{"buffer":0,"byteOffset":10424,"byteLength":1840,"byteStride":8,"name":"bufferViewFloatVec2"}],"buffers":[{"uri":"Sixteen_Highlight.bin","byteLength":12264}],"materials":[{"pbrMetallicRoughness":{"baseColorFactor":[0.5,0.0,0.0,0.5447154],"metallicFactor":0.0,"roughnessFactor":0.3207082},"emissiveFactor":[0.0,0.0,0.0],"alphaMode":"BLEND","name":"Glow"}]}