{"asset":{"version":"2.0","generator":"babylon.js glTF exporter for maya 2018 v1.3.0"},"scene":0,"scenes":[{"nodes":[0],"extensions":{}}],"nodes":[{"mesh":0,"translation":[0.0,0.0,0.0],"rotation":[0.0,0.0,0.0,1.0],"scale":[1.0,2.071326,1.0],"name":"pCube1"}],"meshes":[{"primitives":[{"attributes":{"POSITION":1,"NORMAL":2,"TANGENT":3,"TEXCOORD_0":4},"indices":0,"mode":4,"material":0}],"name":"pCube1"}],"accessors":[{"bufferView":0,"componentType":5123,"count":324,"type":"SCALAR","name":"accessorIndices"},{"bufferView":1,"componentType":5126,"count":76,"max":[0.5,0.5,0.5],"min":[-0.5,-0.5,-0.5],"type":"VEC3","name":"accessorPositions"},{"bufferView":1,"byteOffset":912,"componentType":5126,"count":76,"type":"VEC3","name":"accessorNormals"},{"bufferView":2,"componentType":5126,"count":76,"type":"VEC4","name":"accessorTangents"},{"bufferView":3,"componentType":5126,"count":76,"type":"VEC2","name":"accessorUVs"}],"bufferViews":[{"buffer":0,"byteLength":648,"name":"bufferViewScalar"},{"buffer":0,"byteOffset":648,"byteLength":1824,"byteStride":12,"name":"bufferViewFloatVec3"},{"buffer":0,"byteOffset":2472,"byteLength":1216,"byteStride":16,"name":"bufferViewFloatVec4"},{"buffer":0,"byteOffset":3688,"byteLength":608,"byteStride":8,"name":"bufferViewFloatVec2"}],"buffers":[{"uri":"Box.bin","byteLength":4296}],"materials":[{"pbrMetallicRoughness":{"baseColorFactor":[0.1215,0.0046169986,0.0046169986,0.233766258],"metallicFactor":0.0,"roughnessFactor":0.3089351},"emissiveFactor":[0.0,0.0,0.0],"alphaMode":"BLEND","name":"Pillars_Center_Mtl"}]}