{"asset":{"version":"2.0","generator":"babylon.js glTF exporter for maya 2018 v1.3.0"},"scene":0,"scenes":[{"nodes":[0],"extensions":{}}],"nodes":[{"children":[1],"translation":[0.0,-172.453949,0.0],"rotation":[0.0,0.0,0.0,1.0],"scale":[1.0,1.0,1.0],"name":"Brain_Full"},{"children":[2,3],"translation":[0.0,0.0,0.0],"rotation":[0.0,0.0,0.0,1.0],"scale":[1.0,1.0,1.0],"name":"Frontal_Lobe_Grp"},{"mesh":0,"translation":[0.0,0.0,0.0],"rotation":[0.0,0.0,0.0,1.0],"scale":[1.0,1.0,1.0],"name":"Frontal_Lobe_Left"},{"mesh":1,"translation":[0.0,0.0,0.0],"rotation":[0.0,0.0,0.0,1.0],"scale":[1.0,1.0,1.0],"name":"Frontal_Lobe_Right"}],"meshes":[{"primitives":[{"attributes":{"POSITION":1,"NORMAL":2,"TEXCOORD_0":3},"indices":0,"mode":4,"material":0}],"name":"Frontal_Lobe_Left"},{"primitives":[{"attributes":{"POSITION":5,"NORMAL":6,"TEXCOORD_0":7},"indices":4,"mode":4,"material":0}],"name":"Frontal_Lobe_Right"}],"accessors":[{"bufferView":0,"componentType":5123,"count":17286,"type":"SCALAR","name":"accessorIndices"},{"bufferView":1,"componentType":5126,"count":3049,"max":[6.05571556,178.768967,10.4535475],"min":[-0.279922962,169.000473,0.65434134],"type":"VEC3","name":"accessorPositions"},{"bufferView":1,"byteOffset":36588,"componentType":5126,"count":3049,"type":"VEC3","name":"accessorNormals"},{"bufferView":2,"componentType":5126,"count":3049,"type":"VEC2","name":"accessorUVs"},{"bufferView":0,"byteOffset":34572,"componentType":5123,"count":17244,"type":"SCALAR","name":"accessorIndices"},{"bufferView":1,"byteOffset":73176,"componentType":5126,"count":3047,"max":[0.392266065,178.714035,10.5045223],"min":[-5.98600245,168.945541,0.7304684],"type":"VEC3","name":"accessorPositions"},{"bufferView":1,"byteOffset":109740,"componentType":5126,"count":3047,"type":"VEC3","name":"accessorNormals"},{"bufferView":2,"byteOffset":24392,"componentType":5126,"count":3047,"type":"VEC2","name":"accessorUVs"},{"bufferView":3,"componentType":5126,"count":2,"max":[8.291667],"min":[0.0],"type":"SCALAR","name":"accessorAnimationInput"},{"bufferView":4,"componentType":5126,"count":2,"type":"VEC3","name":"accessorAnimationPositions"}],"bufferViews":[{"buffer":0,"byteLength":69060,"name":"bufferViewScalar"},{"buffer":0,"byteOffset":69060,"byteLength":146304,"byteStride":12,"name":"bufferViewFloatVec3"},{"buffer":0,"byteOffset":215364,"byteLength":48768,"byteStride":8,"name":"bufferViewFloatVec2"},{"buffer":0,"byteOffset":264132,"byteLength":8,"name":"bufferViewAnimationFloatScalar"},{"buffer":0,"byteOffset":264140,"byteLength":24,"name":"bufferViewAnimationFloatVec3"}],"buffers":[{"uri":"Frontal Lobe.bin","byteLength":264164}],"materials":[{"pbrMetallicRoughness":{"baseColorFactor":[1.0,1.0,1.0,1.0],"baseColorTexture":{"index":0,"texCoord":0},"metallicFactor":1.0,"roughnessFactor":1.0,"metallicRoughnessTexture":{"index":1,"texCoord":0}},"emissiveFactor":[0.0,0.0,0.0],"alphaMode":"OPAQUE","name":"Full_Brain_Mat"}],"textures":[{"sampler":0,"source":0,"name":"Full_Brain_Mat_baseColor.jpg"},{"sampler":1,"source":1,"name":"Full_Brain_Mat_metallicRoughness.jpg"}],"images":[{"uri":"Full_Brain_Mat_baseColor.jpg"},{"uri":"Full_Brain_Mat_metallicRoughness.jpg"}],"samplers":[{"magFilter":9729,"minFilter":9987,"wrapS":10497,"wrapT":10497},{"magFilter":9729,"minFilter":9987,"wrapS":10497,"wrapT":10497}],"animations":[{"channels":[{"sampler":0,"target":{"node":0,"path":"translation"}}],"samplers":[{"input":8,"interpolation":"LINEAR","output":9}],"name":"All Animations"}]}