{"asset":{"version":"2.0","generator":"babylon.js glTF exporter for maya 2018 v1.3.0"},"scene":0,"scenes":[{"nodes":[0],"extensions":{}}],"nodes":[{"children":[1],"translation":[0.0,0.0,0.0],"rotation":[0.0,0.0,0.0,1.0],"scale":[1.0,1.0,1.0],"name":"O_T_T_Enviorment_Geo"},{"children":[2],"translation":[0.0,0.0,0.0],"rotation":[0.0,0.0,0.0,1.0],"scale":[1.0,1.0,1.0],"name":"Objects_Grp"},{"mesh":0,"translation":[0.0,0.0,0.0],"rotation":[0.0,0.0,0.0,1.0],"scale":[1.0,1.0,1.0],"name":"Wood"}],"meshes":[{"primitives":[{"attributes":{"POSITION":1,"NORMAL":2,"TANGENT":3,"TEXCOORD_0":4},"indices":0,"mode":4,"material":0}],"name":"Wood"}],"accessors":[{"bufferView":0,"componentType":5123,"count":324,"type":"SCALAR","name":"accessorIndices"},{"bufferView":1,"componentType":5126,"count":84,"max":[1.03689718,0.01974754,0.5664139],"min":[-1.03689671,-0.01974754,-0.5664215],"type":"VEC3","name":"accessorPositions"},{"bufferView":1,"byteOffset":1008,"componentType":5126,"count":84,"type":"VEC3","name":"accessorNormals"},{"bufferView":2,"componentType":5126,"count":84,"type":"VEC4","name":"accessorTangents"},{"bufferView":3,"componentType":5126,"count":84,"type":"VEC2","name":"accessorUVs"}],"bufferViews":[{"buffer":0,"byteLength":648,"name":"bufferViewScalar"},{"buffer":0,"byteOffset":648,"byteLength":2016,"byteStride":12,"name":"bufferViewFloatVec3"},{"buffer":0,"byteOffset":2664,"byteLength":1344,"byteStride":16,"name":"bufferViewFloatVec4"},{"buffer":0,"byteOffset":4008,"byteLength":672,"byteStride":8,"name":"bufferViewFloatVec2"}],"buffers":[{"uri":"Wood.bin","byteLength":4680}],"materials":[{"pbrMetallicRoughness":{"baseColorFactor":[1.0,1.0,1.0,1.0],"baseColorTexture":{"index":0,"texCoord":0},"metallicFactor":0.0,"roughnessFactor":0.3207082},"emissiveFactor":[0.0,0.0,0.0],"alphaMode":"OPAQUE","name":"Wood_box"}],"textures":[{"sampler":0,"source":0,"name":"Wood_box_baseColor.jpg"}],"images":[{"uri":"Wood_box_baseColor.jpg"}],"samplers":[{"magFilter":9729,"minFilter":9987,"wrapS":10497,"wrapT":10497}]}