{"asset":{"version":"2.0","generator":"babylon.js glTF exporter for maya 2018 v1.3.0"},"scene":0,"scenes":[{"nodes":[0],"extensions":{}}],"nodes":[{"children":[1],"translation":[0.0,0.0,0.0],"rotation":[0.0,0.0,0.0,1.0],"scale":[1.0,1.0,1.0],"name":"Arrow_Chromosomes_Grp"},{"mesh":0,"translation":[-4.32877731,-0.2889694,-1.09414423],"rotation":[0.0,0.0,0.0,1.0],"scale":[1.0,1.0,1.0],"name":"Arrow"}],"meshes":[{"primitives":[{"attributes":{"POSITION":1,"NORMAL":2,"TANGENT":3,"TEXCOORD_0":4},"indices":0,"mode":4,"material":0}],"name":"Arrow"}],"accessors":[{"bufferView":0,"componentType":5123,"count":168,"type":"SCALAR","name":"accessorIndices"},{"bufferView":1,"componentType":5126,"count":77,"max":[5.068735,0.4010682,2.5511663],"min":[3.60889864,0.1768713,-1.39234209],"type":"VEC3","name":"accessorPositions"},{"bufferView":1,"byteOffset":924,"componentType":5126,"count":77,"type":"VEC3","name":"accessorNormals"},{"bufferView":2,"componentType":5126,"count":77,"type":"VEC4","name":"accessorTangents"},{"bufferView":3,"componentType":5126,"count":77,"type":"VEC2","name":"accessorUVs"},{"bufferView":4,"componentType":5126,"count":2,"max":[8.291667],"min":[0.0],"type":"SCALAR","name":"accessorAnimationInput"},{"bufferView":5,"componentType":5126,"count":2,"type":"VEC3","name":"accessorAnimationPositions"}],"bufferViews":[{"buffer":0,"byteLength":336,"name":"bufferViewScalar"},{"buffer":0,"byteOffset":336,"byteLength":1848,"byteStride":12,"name":"bufferViewFloatVec3"},{"buffer":0,"byteOffset":2184,"byteLength":1232,"byteStride":16,"name":"bufferViewFloatVec4"},{"buffer":0,"byteOffset":3416,"byteLength":616,"byteStride":8,"name":"bufferViewFloatVec2"},{"buffer":0,"byteOffset":4032,"byteLength":8,"name":"bufferViewAnimationFloatScalar"},{"buffer":0,"byteOffset":4040,"byteLength":24,"name":"bufferViewAnimationFloatVec3"}],"buffers":[{"uri":"Arrow.bin","byteLength":4064}],"materials":[{"pbrMetallicRoughness":{"baseColorFactor":[0.29015,0.0452,0.0675,1.0],"metallicFactor":0.0,"roughnessFactor":0.450053632},"emissiveFactor":[0.0,0.0,0.0],"alphaMode":"OPAQUE","name":"Arrow_Diff"}],"animations":[{"channels":[{"sampler":0,"target":{"node":1,"path":"translation"}}],"samplers":[{"input":5,"interpolation":"LINEAR","output":6}],"name":"All Animations"}]}