{"asset":{"version":"2.0","generator":"babylon.js glTF exporter for maya 2018 v1.3.0"},"scene":0,"scenes":[{"nodes":[0],"extensions":{}}],"nodes":[{"mesh":0,"translation":[0.0,0.0,0.0],"rotation":[0.0,0.0,0.0,1.0],"scale":[1.0,1.0,1.0],"name":"Plate_01"}],"meshes":[{"primitives":[{"attributes":{"POSITION":1,"NORMAL":2,"TANGENT":3,"TEXCOORD_0":4},"indices":0,"mode":4,"material":0},{"attributes":{"POSITION":6,"NORMAL":7,"TANGENT":8,"TEXCOORD_0":9},"indices":5,"mode":4,"material":1},{"attributes":{"POSITION":11,"NORMAL":12,"TANGENT":13,"TEXCOORD_0":14},"indices":10,"mode":4,"material":2},{"attributes":{"POSITION":16,"NORMAL":17,"TANGENT":18,"TEXCOORD_0":19},"indices":15,"mode":4,"material":3}],"name":"Plate_01"}],"accessors":[{"bufferView":0,"componentType":5123,"count":3444,"type":"SCALAR","name":"accessorIndices"},{"bufferView":1,"componentType":5126,"count":1568,"max":[14.4014387,1.61332333,17.63024],"min":[-14.3893557,-0.33726722,-5.36105442],"type":"VEC3","name":"accessorPositions"},{"bufferView":1,"byteOffset":18816,"componentType":5126,"count":1568,"type":"VEC3","name":"accessorNormals"},{"bufferView":2,"componentType":5126,"count":1568,"type":"VEC4","name":"accessorTangents"},{"bufferView":3,"componentType":5126,"count":1568,"type":"VEC2","name":"accessorUVs"},{"bufferView":0,"byteOffset":6888,"componentType":5123,"count":36,"type":"SCALAR","name":"accessorIndices"},{"bufferView":1,"byteOffset":37632,"componentType":5126,"count":24,"max":[13.9008188,-0.123304427,17.12962],"min":[-13.8887358,-0.247157291,-4.86043453],"type":"VEC3","name":"accessorPositions"},{"bufferView":1,"byteOffset":37920,"componentType":5126,"count":24,"type":"VEC3","name":"accessorNormals"},{"bufferView":2,"byteOffset":25088,"componentType":5126,"count":24,"type":"VEC4","name":"accessorTangents"},{"bufferView":3,"byteOffset":12544,"componentType":5126,"count":24,"type":"VEC2","name":"accessorUVs"},{"bufferView":0,"byteOffset":6960,"componentType":5123,"count":216,"type":"SCALAR","name":"accessorIndices"},{"bufferView":1,"byteOffset":38208,"componentType":5126,"count":108,"max":[4.23341,0.7555622,4.828377],"min":[-4.20006561,0.6019405,4.390045],"type":"VEC3","name":"accessorPositions"},{"bufferView":1,"byteOffset":39504,"componentType":5126,"count":108,"type":"VEC3","name":"accessorNormals"},{"bufferView":2,"byteOffset":25472,"componentType":5126,"count":108,"type":"VEC4","name":"accessorTangents"},{"bufferView":3,"byteOffset":12736,"componentType":5126,"count":108,"type":"VEC2","name":"accessorUVs"},{"bufferView":0,"byteOffset":7392,"componentType":5123,"count":2622,"type":"SCALAR","name":"accessorIndices"},{"bufferView":1,"byteOffset":40800,"componentType":5126,"count":923,"max":[5.530656,3.31613064,5.81574249],"min":[-5.463318,0.545519233,2.80964661],"type":"VEC3","name":"accessorPositions"},{"bufferView":1,"byteOffset":51876,"componentType":5126,"count":923,"type":"VEC3","name":"accessorNormals"},{"bufferView":2,"byteOffset":27200,"componentType":5126,"count":923,"type":"VEC4","name":"accessorTangents"},{"bufferView":3,"byteOffset":13600,"componentType":5126,"count":923,"type":"VEC2","name":"accessorUVs"}],"bufferViews":[{"buffer":0,"byteLength":12636,"name":"bufferViewScalar"},{"buffer":0,"byteOffset":12636,"byteLength":62952,"byteStride":12,"name":"bufferViewFloatVec3"},{"buffer":0,"byteOffset":75588,"byteLength":41968,"byteStride":16,"name":"bufferViewFloatVec4"},{"buffer":0,"byteOffset":117556,"byteLength":20984,"byteStride":8,"name":"bufferViewFloatVec2"}],"buffers":[{"uri":"Base.bin","byteLength":138540}],"materials":[{"pbrMetallicRoughness":{"baseColorFactor":[0.04878049,0.04878049,0.04878049,1.0],"metallicFactor":0.0,"roughnessFactor":0.201679826},"emissiveFactor":[0.0,0.0,0.0],"alphaMode":"OPAQUE","name":"Metal_blck"},{"pbrMetallicRoughness":{"baseColorFactor":[0.378,0.5,0.5,0.300813019],"metallicFactor":0.0,"roughnessFactor":0.450053632},"emissiveFactor":[0.0,0.0,0.0],"alphaMode":"BLEND","name":"Table_Glass"},{"pbrMetallicRoughness":{"baseColorFactor":[0.216,0.0597956851,0.00129599625,1.0],"metallicFactor":0.0,"roughnessFactor":0.450053632},"emissiveFactor":[0.0,0.0,0.0],"alphaMode":"OPAQUE","name":"Wire_Holder"},{"pbrMetallicRoughness":{"baseColorFactor":[0.25,0.25,0.25,1.0],"metallicFactor":0.0,"roughnessFactor":0.201679826},"emissiveFactor":[0.0,0.0,0.0],"alphaMode":"OPAQUE","name":"Steel"}]}