{"asset":{"version":"2.0","generator":"babylon.js glTF exporter for maya 2018 v1.3.0"},"scene":0,"scenes":[{"nodes":[0],"extensions":{}}],"nodes":[{"mesh":0,"translation":[0.254412174,0.9005857,9.086439],"rotation":[0.0,0.0,0.0,1.0],"scale":[1.0,1.0,1.0],"name":"Wire_03"}],"meshes":[{"primitives":[{"attributes":{"POSITION":1,"NORMAL":2,"TANGENT":3,"TEXCOORD_0":4},"indices":0,"mode":4,"material":0},{"attributes":{"POSITION":6,"NORMAL":7,"TANGENT":8,"TEXCOORD_0":9},"indices":5,"mode":4,"material":1},{"attributes":{"POSITION":11,"NORMAL":12,"TANGENT":13,"TEXCOORD_0":14},"indices":10,"mode":4,"material":2},{"attributes":{"POSITION":16,"NORMAL":17,"TANGENT":18,"TEXCOORD_0":19},"indices":15,"mode":4,"material":3},{"attributes":{"POSITION":21,"NORMAL":22,"TANGENT":23,"TEXCOORD_0":24},"indices":20,"mode":4,"material":4},{"attributes":{"POSITION":26,"NORMAL":27,"TANGENT":28,"TEXCOORD_0":29},"indices":25,"mode":4,"material":5}],"name":"Wire_03"}],"accessors":[{"bufferView":0,"componentType":5123,"count":966,"type":"SCALAR","name":"accessorIndices"},{"bufferView":1,"componentType":5126,"count":297,"max":[-0.540163934,-0.4399946,-11.1380749],"min":[-0.5738869,-0.5289988,-11.170948],"type":"VEC3","name":"accessorPositions"},{"bufferView":1,"byteOffset":3564,"componentType":5126,"count":297,"type":"VEC3","name":"accessorNormals"},{"bufferView":2,"componentType":5126,"count":297,"type":"VEC4","name":"accessorTangents"},{"bufferView":3,"componentType":5126,"count":297,"type":"VEC2","name":"accessorUVs"},{"bufferView":0,"byteOffset":1932,"componentType":5123,"count":336,"type":"SCALAR","name":"accessorIndices"},{"bufferView":1,"byteOffset":7128,"componentType":5126,"count":120,"max":[0.4683218,-0.322098047,-11.1699705],"min":[0.428641647,-0.427986056,-11.2086439],"type":"VEC3","name":"accessorPositions"},{"bufferView":1,"byteOffset":8568,"componentType":5126,"count":120,"type":"VEC3","name":"accessorNormals"},{"bufferView":2,"byteOffset":4752,"componentType":5126,"count":120,"type":"VEC4","name":"accessorTangents"},{"bufferView":3,"byteOffset":2376,"componentType":5126,"count":120,"type":"VEC2","name":"accessorUVs"},{"bufferView":0,"byteOffset":2604,"componentType":5123,"count":1764,"type":"SCALAR","name":"accessorIndices"},{"bufferView":1,"byteOffset":10008,"componentType":5126,"count":330,"max":[0.458475769,0.199173242,-11.14442],"min":[-0.5705911,-0.334107131,-11.2211485],"type":"VEC3","name":"accessorPositions"},{"bufferView":1,"byteOffset":13968,"componentType":5126,"count":330,"type":"VEC3","name":"accessorNormals"},{"bufferView":2,"byteOffset":6672,"componentType":5126,"count":330,"type":"VEC4","name":"accessorTangents"},{"bufferView":3,"byteOffset":3336,"componentType":5126,"count":330,"type":"VEC2","name":"accessorUVs"},{"bufferView":0,"byteOffset":6132,"componentType":5123,"count":168,"type":"SCALAR","name":"accessorIndices"},{"bufferView":1,"byteOffset":17928,"componentType":5126,"count":60,"max":[0.468313515,-0.427985579,-11.1351748],"min":[-0.576862156,-0.439994723,-11.2086439],"type":"VEC3","name":"accessorPositions"},{"bufferView":1,"byteOffset":18648,"componentType":5126,"count":60,"type":"VEC3","name":"accessorNormals"},{"bufferView":2,"byteOffset":11952,"componentType":5126,"count":60,"type":"VEC4","name":"accessorTangents"},{"bufferView":3,"byteOffset":5976,"componentType":5126,"count":60,"type":"VEC2","name":"accessorUVs"},{"bufferView":0,"byteOffset":6468,"componentType":5123,"count":336,"type":"SCALAR","name":"accessorIndices"},{"bufferView":1,"byteOffset":19368,"componentType":5126,"count":120,"max":[-0.5371895,-0.334106833,-11.1351748],"min":[-0.5768736,-0.439994723,-11.1738482],"type":"VEC3","name":"accessorPositions"},{"bufferView":1,"byteOffset":20808,"componentType":5126,"count":120,"type":"VEC3","name":"accessorNormals"},{"bufferView":2,"byteOffset":12912,"componentType":5126,"count":120,"type":"VEC4","name":"accessorTangents"},{"bufferView":3,"byteOffset":6456,"componentType":5126,"count":120,"type":"VEC2","name":"accessorUVs"},{"bufferView":0,"byteOffset":7140,"componentType":5123,"count":966,"type":"SCALAR","name":"accessorIndices"},{"bufferView":1,"byteOffset":22248,"componentType":5126,"count":297,"max":[0.46533823,-0.427985579,-11.1728706],"min":[0.431616366,-0.5169901,-11.2057438],"type":"VEC3","name":"accessorPositions"},{"bufferView":1,"byteOffset":25812,"componentType":5126,"count":297,"type":"VEC3","name":"accessorNormals"},{"bufferView":2,"byteOffset":14832,"componentType":5126,"count":297,"type":"VEC4","name":"accessorTangents"},{"bufferView":3,"byteOffset":7416,"componentType":5126,"count":297,"type":"VEC2","name":"accessorUVs"}],"bufferViews":[{"buffer":0,"byteLength":9072,"name":"bufferViewScalar"},{"buffer":0,"byteOffset":9072,"byteLength":29376,"byteStride":12,"name":"bufferViewFloatVec3"},{"buffer":0,"byteOffset":38448,"byteLength":19584,"byteStride":16,"name":"bufferViewFloatVec4"},{"buffer":0,"byteOffset":58032,"byteLength":9792,"byteStride":8,"name":"bufferViewFloatVec2"}],"buffers":[{"uri":"Blue.bin","byteLength":67824}],"materials":[{"pbrMetallicRoughness":{"baseColorFactor":[0.39,0.39,0.39,1.0],"metallicFactor":0.0,"roughnessFactor":0.450053632},"emissiveFactor":[0.0,0.0,0.0],"alphaMode":"OPAQUE","name":"Blue_Right_Silver"},{"pbrMetallicRoughness":{"baseColorFactor":[0.0,0.35505,0.35505,1.0],"metallicFactor":0.0,"roughnessFactor":0.450053632},"emissiveFactor":[0.0,0.0,0.0],"alphaMode":"OPAQUE","name":"Blue_Left"},{"pbrMetallicRoughness":{"baseColorFactor":[0.0,0.35505,0.35505,1.0],"metallicFactor":0.0,"roughnessFactor":0.450053632},"emissiveFactor":[0.0,0.0,0.0],"alphaMode":"OPAQUE","name":"Blue5"},{"pbrMetallicRoughness":{"baseColorFactor":[1.0,1.0,1.0,1.0],"baseColorTexture":{"index":0,"texCoord":0},"metallicFactor":0.0,"roughnessFactor":0.450053632},"emissiveFactor":[0.0,0.0,0.0],"alphaMode":"OPAQUE","name":"Battary_Resistance_Wire_Diff1"},{"pbrMetallicRoughness":{"baseColorFactor":[0.0,0.35505,0.35505,1.0],"metallicFactor":0.0,"roughnessFactor":0.450053632},"emissiveFactor":[0.0,0.0,0.0],"alphaMode":"OPAQUE","name":"lambert19"},{"pbrMetallicRoughness":{"baseColorFactor":[0.39,0.39,0.39,1.0],"metallicFactor":0.0,"roughnessFactor":0.450053632},"emissiveFactor":[0.0,0.0,0.0],"alphaMode":"OPAQUE","name":"Blue_left_Silver"}],"textures":[{"sampler":0,"source":0,"name":"Battary_Resistance_Wire_Diff1_baseColor.jpg"}],"images":[{"uri":"Battary_Resistance_Wire_Diff1_baseColor.jpg"}],"samplers":[{"magFilter":9729,"minFilter":9987,"wrapS":10497,"wrapT":10497}]}