{"asset":{"version":"2.0","generator":"babylon.js glTF exporter for maya 2018 v1.3.0"},"scene":0,"scenes":[{"nodes":[0],"extensions":{}}],"nodes":[{"mesh":0,"translation":[0.0,0.0,0.0],"rotation":[0.0,0.0,0.0,1.0],"scale":[1.0,1.0,1.0],"name":"Ground"}],"meshes":[{"primitives":[{"attributes":{"POSITION":1,"NORMAL":2,"TANGENT":3,"TEXCOORD_0":4},"indices":0,"mode":4,"material":0}],"name":"Ground"}],"accessors":[{"bufferView":0,"componentType":5123,"count":1026,"type":"SCALAR","name":"accessorIndices"},{"bufferView":1,"componentType":5126,"count":184,"max":[2184.83154,-3.31693E-05,2172.86328],"min":[-2184.83252,-125.558037,-2172.8645],"type":"VEC3","name":"accessorPositions"},{"bufferView":1,"byteOffset":2208,"componentType":5126,"count":184,"type":"VEC3","name":"accessorNormals"},{"bufferView":2,"componentType":5126,"count":184,"type":"VEC4","name":"accessorTangents"},{"bufferView":3,"componentType":5126,"count":184,"type":"VEC2","name":"accessorUVs"}],"bufferViews":[{"buffer":0,"byteLength":2052,"name":"bufferViewScalar"},{"buffer":0,"byteOffset":2052,"byteLength":4416,"byteStride":12,"name":"bufferViewFloatVec3"},{"buffer":0,"byteOffset":6468,"byteLength":2944,"byteStride":16,"name":"bufferViewFloatVec4"},{"buffer":0,"byteOffset":9412,"byteLength":1472,"byteStride":8,"name":"bufferViewFloatVec2"}],"buffers":[{"uri":"Ground.bin","byteLength":10884}],"materials":[{"pbrMetallicRoughness":{"baseColorFactor":[1.0,1.0,1.0,1.0],"baseColorTexture":{"index":0,"texCoord":0},"metallicFactor":0.0,"roughnessFactor":0.201679826},"emissiveFactor":[0.0,0.0,0.0],"alphaMode":"OPAQUE","name":"Grass"}],"textures":[{"sampler":0,"source":0,"name":"Grass_baseColor.jpg"}],"images":[{"uri":"Grass_baseColor.jpg"}],"samplers":[{"magFilter":9729,"minFilter":9987,"wrapS":10497,"wrapT":10497}]}