{"asset":{"version":"2.0","generator":"babylon.js glTF exporter for maya 2018 v1.3.0"},"scene":0,"scenes":[{"nodes":[0],"extensions":{}}],"nodes":[{"children":[1,3,5,7,8,10,11],"translation":[0.0,0.0,0.0],"rotation":[0.0,0.0,0.0,1.0],"scale":[1.0,1.0,1.0],"name":"Brain_Full"},{"children":[2],"translation":[0.0,0.0,0.0],"rotation":[0.0,0.0,0.0,1.0],"scale":[1.0,1.0,1.0],"name":"Frontal_Lobe_Grp"},{"mesh":0,"translation":[0.0,0.0,0.0],"rotation":[0.0,0.0,0.0,1.0],"scale":[1.0,1.0,1.0],"name":"Frontal_Lobe_Left"},{"children":[4],"translation":[0.0,0.0,0.0],"rotation":[0.0,0.0,0.0,1.0],"scale":[1.0,1.0,1.0],"name":"Parietal_Lobe"},{"mesh":1,"translation":[0.0,0.0,0.0],"rotation":[0.0,0.0,0.0,1.0],"scale":[1.0,1.0,1.0],"name":"Parietal_Lobe_Left"},{"children":[6],"translation":[0.0,0.0,0.0],"rotation":[0.0,0.0,0.0,1.0],"scale":[1.0,1.0,1.0],"name":"Occipital_Lob_Grp"},{"mesh":2,"translation":[0.0,0.0,0.0],"rotation":[0.0,0.0,0.0,1.0],"scale":[1.0,1.0,1.0],"name":"Occipital_Lob_Left"},{"mesh":3,"translation":[0.0,0.0,0.0],"rotation":[0.0,0.0,0.0,1.0],"scale":[1.0,1.0,1.0],"name":"Pituitary_Gland1"},{"children":[9],"translation":[0.0,0.0,0.0],"rotation":[0.0,0.0,0.0,1.0],"scale":[1.0,1.0,1.0],"name":"Temporal_Lobe"},{"mesh":4,"translation":[0.0,0.0,0.0],"rotation":[0.0,0.0,0.0,1.0],"scale":[1.0,1.0,1.0],"name":"Temporal_Lobe_Left"},{"mesh":5,"translation":[0.0,0.0,0.0],"rotation":[0.0,0.0,0.0,1.0],"scale":[1.0,1.0,1.0],"name":"Nervous_Brain_Stem_1"},{"children":[12],"translation":[0.0,0.0,0.0],"rotation":[0.0,0.0,0.0,1.0],"scale":[1.0,1.0,1.0],"name":"Nervous_Full_Cerebellum_Grp"},{"mesh":6,"translation":[0.0,0.0,0.0],"rotation":[0.0,0.0,0.0,1.0],"scale":[1.0,1.0,1.0],"name":"Nervous_Full_Cerebellum_2"}],"meshes":[{"primitives":[{"attributes":{"POSITION":1,"NORMAL":2,"TANGENT":3,"TEXCOORD_0":4},"indices":0,"mode":4,"material":0}],"name":"Frontal_Lobe_Left"},{"primitives":[{"attributes":{"POSITION":6,"NORMAL":7,"TANGENT":8,"TEXCOORD_0":9},"indices":5,"mode":4,"material":0}],"name":"Parietal_Lobe_Left"},{"primitives":[{"attributes":{"POSITION":11,"NORMAL":12,"TANGENT":13,"TEXCOORD_0":14},"indices":10,"mode":4,"material":0}],"name":"Occipital_Lob_Left"},{"primitives":[{"attributes":{"POSITION":16,"NORMAL":17,"TANGENT":18,"TEXCOORD_0":19,"TEXCOORD_1":20},"indices":15,"mode":4,"material":0}],"name":"Pituitary_Gland1"},{"primitives":[{"attributes":{"POSITION":22,"NORMAL":23,"TANGENT":24,"TEXCOORD_0":25},"indices":21,"mode":4,"material":0}],"name":"Temporal_Lobe_Left"},{"primitives":[{"attributes":{"POSITION":27,"NORMAL":28,"TANGENT":29,"TEXCOORD_0":30},"indices":26,"mode":4,"material":0}],"name":"Nervous_Brain_Stem_1"},{"primitives":[{"attributes":{"POSITION":32,"NORMAL":33,"TANGENT":34,"TEXCOORD_0":35},"indices":31,"mode":4,"material":0}],"name":"Nervous_Full_Cerebellum_2"}],"accessors":[{"bufferView":0,"componentType":5123,"count":17286,"type":"SCALAR","name":"accessorIndices"},{"bufferView":1,"componentType":5126,"count":3049,"max":[6.040696,7.854721,8.233521],"min":[-0.294942379,-1.91377258,-1.56568468],"type":"VEC3","name":"accessorPositions"},{"bufferView":1,"byteOffset":36588,"componentType":5126,"count":3049,"type":"VEC3","name":"accessorNormals"},{"bufferView":2,"componentType":5126,"count":3049,"type":"VEC4","name":"accessorTangents"},{"bufferView":3,"componentType":5126,"count":3049,"type":"VEC2","name":"accessorUVs"},{"bufferView":0,"byteOffset":34572,"componentType":5123,"count":11847,"type":"SCALAR","name":"accessorIndices"},{"bufferView":1,"byteOffset":73176,"componentType":5126,"count":2134,"max":[6.281939,7.67909241,0.590082169],"min":[-0.457965463,0.9610901,-6.79977369],"type":"VEC3","name":"accessorPositions"},{"bufferView":1,"byteOffset":98784,"componentType":5126,"count":2134,"type":"VEC3","name":"accessorNormals"},{"bufferView":2,"byteOffset":48784,"componentType":5126,"count":2134,"type":"VEC4","name":"accessorTangents"},{"bufferView":3,"byteOffset":24392,"componentType":5126,"count":2134,"type":"VEC2","name":"accessorUVs"},{"bufferView":0,"byteOffset":58268,"componentType":5123,"count":2916,"type":"SCALAR","name":"accessorIndices"},{"bufferView":1,"byteOffset":124392,"componentType":5126,"count":527,"max":[4.24025774,4.790283,-5.41062641],"min":[0.00336262584,-2.66146851,-8.284496],"type":"VEC3","name":"accessorPositions"},{"bufferView":1,"byteOffset":130716,"componentType":5126,"count":527,"type":"VEC3","name":"accessorNormals"},{"bufferView":2,"byteOffset":82928,"componentType":5126,"count":527,"type":"VEC4","name":"accessorTangents"},{"bufferView":3,"byteOffset":41464,"componentType":5126,"count":527,"type":"VEC2","name":"accessorUVs"},{"bufferView":0,"byteOffset":64100,"componentType":5123,"count":504,"type":"SCALAR","name":"accessorIndices"},{"bufferView":1,"byteOffset":137040,"componentType":5126,"count":100,"max":[0.603717864,-0.776794434,3.0860076],"min":[-0.064244926,-2.13664246,2.36589479],"type":"VEC3","name":"accessorPositions"},{"bufferView":1,"byteOffset":138240,"componentType":5126,"count":100,"type":"VEC3","name":"accessorNormals"},{"bufferView":2,"byteOffset":91360,"componentType":5126,"count":100,"type":"VEC4","name":"accessorTangents"},{"bufferView":3,"byteOffset":45680,"componentType":5126,"count":100,"type":"VEC2","name":"accessorUVs"},{"bufferView":3,"byteOffset":46480,"componentType":5126,"count":100,"type":"VEC2","name":"accessorUV2s"},{"bufferView":0,"byteOffset":65108,"componentType":5123,"count":14298,"type":"SCALAR","name":"accessorIndices"},{"bufferView":1,"byteOffset":139440,"componentType":5126,"count":2498,"max":[6.370789,3.25428772,3.70793533],"min":[-0.127470419,-3.43640137,-6.812471],"type":"VEC3","name":"accessorPositions"},{"bufferView":1,"byteOffset":169416,"componentType":5126,"count":2498,"type":"VEC3","name":"accessorNormals"},{"bufferView":2,"byteOffset":92960,"componentType":5126,"count":2498,"type":"VEC4","name":"accessorTangents"},{"bufferView":3,"byteOffset":47280,"componentType":5126,"count":2498,"type":"VEC2","name":"accessorUVs"},{"bufferView":0,"byteOffset":93704,"componentType":5123,"count":6282,"type":"SCALAR","name":"accessorIndices"},{"bufferView":1,"byteOffset":199392,"componentType":5126,"count":1157,"max":[4.243025,4.34901428,4.325688],"min":[-0.020696044,-7.854721,-3.14430213],"type":"VEC3","name":"accessorPositions"},{"bufferView":1,"byteOffset":213276,"componentType":5126,"count":1157,"type":"VEC3","name":"accessorNormals"},{"bufferView":2,"byteOffset":132928,"componentType":5126,"count":1157,"type":"VEC4","name":"accessorTangents"},{"bufferView":3,"byteOffset":67264,"componentType":5126,"count":1157,"type":"VEC2","name":"accessorUVs"},{"bufferView":0,"byteOffset":106268,"componentType":5123,"count":12330,"type":"SCALAR","name":"accessorIndices"},{"bufferView":1,"byteOffset":227160,"componentType":5126,"count":2217,"max":[4.40403175,-1.16958618,-0.407565355],"min":[-0.0502043739,-5.428833,-6.29481459],"type":"VEC3","name":"accessorPositions"},{"bufferView":1,"byteOffset":253764,"componentType":5126,"count":2217,"type":"VEC3","name":"accessorNormals"},{"bufferView":2,"byteOffset":151440,"componentType":5126,"count":2217,"type":"VEC4","name":"accessorTangents"},{"bufferView":3,"byteOffset":76520,"componentType":5126,"count":2217,"type":"VEC2","name":"accessorUVs"}],"bufferViews":[{"buffer":0,"byteLength":130928,"name":"bufferViewScalar"},{"buffer":0,"byteOffset":130928,"byteLength":280368,"byteStride":12,"name":"bufferViewFloatVec3"},{"buffer":0,"byteOffset":411296,"byteLength":186912,"byteStride":16,"name":"bufferViewFloatVec4"},{"buffer":0,"byteOffset":598208,"byteLength":94256,"byteStride":8,"name":"bufferViewFloatVec2"}],"buffers":[{"uri":"Transperent Half Brain.bin","byteLength":692464}],"materials":[{"pbrMetallicRoughness":{"baseColorFactor":[0.0,0.0551948063,0.0551948063,0.357142866],"metallicFactor":0.0,"roughnessFactor":0.450053632},"emissiveFactor":[0.0,0.0,0.0],"alphaMode":"BLEND","name":"lambert2"}]}