{"asset":{"version":"2.0","generator":"babylon.js glTF exporter for maya 2018 v1.3.0"},"scene":0,"scenes":[{"nodes":[0],"extensions":{}}],"nodes":[{"children":[1],"translation":[-0.09223032,-1.049655,-0.516854346],"rotation":[-0.707106769,0.0,0.0,0.707106769],"scale":[2.54,2.54,2.54],"name":"Cherry_Flower_Cut_Section"},{"mesh":0,"translation":[0.0,0.0,0.0],"rotation":[0.0,0.0,0.0,1.0],"scale":[1.0,1.0,1.0],"name":"Petal_01"}],"meshes":[{"primitives":[{"attributes":{"POSITION":1,"NORMAL":2,"TANGENT":3,"TEXCOORD_0":4},"indices":0,"mode":4,"material":0}],"name":"Petal_01"}],"accessors":[{"bufferView":0,"componentType":5123,"count":1788,"type":"SCALAR","name":"accessorIndices"},{"bufferView":1,"componentType":5126,"count":486,"max":[5.40347576,-0.699484348,7.51463],"min":[-4.974214,-5.7574873,2.74379635],"type":"VEC3","name":"accessorPositions"},{"bufferView":1,"byteOffset":5832,"componentType":5126,"count":486,"type":"VEC3","name":"accessorNormals"},{"bufferView":2,"componentType":5126,"count":486,"type":"VEC4","name":"accessorTangents"},{"bufferView":3,"componentType":5126,"count":486,"type":"VEC2","name":"accessorUVs"}],"bufferViews":[{"buffer":0,"byteLength":3576,"name":"bufferViewScalar"},{"buffer":0,"byteOffset":3576,"byteLength":11664,"byteStride":12,"name":"bufferViewFloatVec3"},{"buffer":0,"byteOffset":15240,"byteLength":7776,"byteStride":16,"name":"bufferViewFloatVec4"},{"buffer":0,"byteOffset":23016,"byteLength":3888,"byteStride":8,"name":"bufferViewFloatVec2"}],"buffers":[{"uri":"Petal_01.bin","byteLength":26904}],"materials":[{"pbrMetallicRoughness":{"baseColorFactor":[1.0,1.0,1.0,1.0],"baseColorTexture":{"index":1,"texCoord":0},"metallicFactor":0.0,"roughnessFactor":0.450053632},"emissiveTexture":{"index":0,"texCoord":0},"emissiveFactor":[1.0,1.0,1.0],"alphaMode":"OPAQUE","name":"Patels"}],"textures":[{"sampler":0,"source":0,"name":"Patels_emissive.jpg"},{"sampler":1,"source":1,"name":"Patels_baseColor.jpg"}],"images":[{"uri":"Patels_emissive.jpg"},{"uri":"Patels_baseColor.jpg"}],"samplers":[{"magFilter":9729,"minFilter":9987,"wrapS":10497,"wrapT":10497},{"magFilter":9729,"minFilter":9987,"wrapS":10497,"wrapT":10497}]}