{"asset":{"version":"2.0","generator":"babylon.js glTF exporter for maya 2018 v1.3.0"},"scene":0,"scenes":[{"nodes":[0],"extensions":{}}],"nodes":[{"children":[1],"translation":[0.0,-168.866745,0.0],"rotation":[0.0,0.0,0.0,1.0],"scale":[1.0,1.0,1.0],"name":"Half_Section_Brain"},{"mesh":0,"translation":[0.0,0.0,0.0],"rotation":[0.0,0.0,0.0,1.0],"scale":[1.0,1.0,1.0],"name":"Medulla_Oblongate"}],"meshes":[{"primitives":[{"attributes":{"POSITION":1,"NORMAL":2,"TANGENT":3,"TEXCOORD_0":4,"TEXCOORD_1":5},"indices":0,"mode":4,"material":0}],"name":"Medulla_Oblongate"}],"accessors":[{"bufferView":0,"componentType":5123,"count":1266,"type":"SCALAR","name":"accessorIndices"},{"bufferView":1,"componentType":5126,"count":352,"max":[0.912091732,171.082153,4.69974327],"min":[-0.05990458,163.366638,-0.2671769],"type":"VEC3","name":"accessorPositions"},{"bufferView":1,"byteOffset":4224,"componentType":5126,"count":352,"type":"VEC3","name":"accessorNormals"},{"bufferView":2,"componentType":5126,"count":352,"type":"VEC4","name":"accessorTangents"},{"bufferView":3,"componentType":5126,"count":352,"type":"VEC2","name":"accessorUVs"},{"bufferView":3,"byteOffset":2816,"componentType":5126,"count":352,"type":"VEC2","name":"accessorUV2s"}],"bufferViews":[{"buffer":0,"byteLength":2532,"name":"bufferViewScalar"},{"buffer":0,"byteOffset":2532,"byteLength":8448,"byteStride":12,"name":"bufferViewFloatVec3"},{"buffer":0,"byteOffset":10980,"byteLength":5632,"byteStride":16,"name":"bufferViewFloatVec4"},{"buffer":0,"byteOffset":16612,"byteLength":5632,"byteStride":8,"name":"bufferViewFloatVec2"}],"buffers":[{"uri":"Transperent Medulla_Oblongate.bin","byteLength":22244}],"materials":[{"pbrMetallicRoughness":{"baseColorFactor":[0.0,0.0551948063,0.0551948063,0.357142866],"metallicFactor":0.0,"roughnessFactor":0.450053632},"emissiveFactor":[0.0,0.0,0.0],"alphaMode":"BLEND","name":"lambert2"}]}