{
  "accessors": [
    {
      "bufferView": 0,
      "componentType": 5125,
      "count": 2358,
      "type": "SCALAR"
    },
    {
      "bufferView": 1,
      "componentType": 5126,
      "count": 1532,
      "max": [
        0.0274471361190081,
        0.0999902635812759,
        0.34960949420929
      ],
      "min": [
        -0.486915826797485,
        -0.0999902710318565,
        -0.34960949420929
      ],
      "type": "VEC3"
    },
    {
      "bufferView": 2,
      "componentType": 5126,
      "count": 1532,
      "type": "VEC3"
    },
    {
      "bufferView": 3,
      "componentType": 5126,
      "count": 1532,
      "type": "VEC2"
    },
    {
      "bufferView": 4,
      "componentType": 5125,
      "count": 2358,
      "type": "SCALAR"
    },
    {
      "bufferView": 5,
      "componentType": 5126,
      "count": 1529,
      "max": [
        -0.485383778810501,
        0.0976216271519661,
        0.34960949420929
      ],
      "min": [
        -0.998932957649231,
        -0.0999902710318565,
        -0.34960949420929
      ],
      "type": "VEC3"
    },
    {
      "bufferView": 6,
      "componentType": 5126,
      "count": 1529,
      "type": "VEC3"
    },
    {
      "bufferView": 7,
      "componentType": 5126,
      "count": 1529,
      "type": "VEC2"
    },
    {
      "bufferView": 8,
      "componentType": 5125,
      "count": 4416,
      "type": "SCALAR"
    },
    {
      "bufferView": 9,
      "componentType": 5126,
      "count": 2811,
      "max": [
        0.0263801086694002,
        0.0999902635812759,
        0.34960949420929
      ],
      "min": [
        -1.0,
        -0.0999902710318565,
        -0.34960949420929
      ],
      "type": "VEC3"
    },
    {
      "bufferView": 10,
      "componentType": 5126,
      "count": 2811,
      "type": "VEC3"
    },
    {
      "bufferView": 11,
      "componentType": 5126,
      "count": 2811,
      "type": "VEC2"
    },
    {
      "bufferView": 12,
      "componentType": 5125,
      "count": 2208,
      "type": "SCALAR"
    },
    {
      "bufferView": 13,
      "componentType": 5126,
      "count": 1280,
      "max": [
        0.99999988079071,
        0.000540726410690695,
        0.491651147603989
      ],
      "min": [
        0.204215154051781,
        -0.00634096516296268,
        -0.491651147603989
      ],
      "type": "VEC3"
    },
    {
      "bufferView": 14,
      "componentType": 5126,
      "count": 1280,
      "type": "VEC3"
    },
    {
      "bufferView": 15,
      "componentType": 5126,
      "count": 1280,
      "type": "VEC2"
    },
    {
      "bufferView": 16,
      "componentType": 5125,
      "count": 1176,
      "type": "SCALAR"
    },
    {
      "bufferView": 17,
      "componentType": 5126,
      "count": 696,
      "max": [
        1.0,
        0.000540726410690695,
        0.491651147603989
      ],
      "min": [
        0.602107584476471,
        -0.00634096516296268,
        -0.491651147603989
      ],
      "type": "VEC3"
    },
    {
      "bufferView": 18,
      "componentType": 5126,
      "count": 696,
      "type": "VEC3"
    },
    {
      "bufferView": 19,
      "componentType": 5126,
      "count": 696,
      "type": "VEC2"
    },
    {
      "bufferView": 20,
      "componentType": 5125,
      "count": 1176,
      "type": "SCALAR"
    },
    {
      "bufferView": 21,
      "componentType": 5126,
      "count": 702,
      "max": [
        0.602107465267181,
        0.000540726410690695,
        0.491651147603989
      ],
      "min": [
        0.204214960336685,
        -0.00634096516296268,
        -0.491651147603989
      ],
      "type": "VEC3"
    },
    {
      "bufferView": 22,
      "componentType": 5126,
      "count": 702,
      "type": "VEC3"
    },
    {
      "bufferView": 23,
      "componentType": 5126,
      "count": 702,
      "type": "VEC2"
    }
  ],
  "asset": {
    "generator": "Substance Painter 2018.2.3",
    "version": "2.0"
  },
  "bufferViews": [
    {
      "buffer": 0,
      "byteLength": 9432,
      "target": 34963
    },
    {
      "buffer": 0,
      "byteLength": 18384,
      "byteOffset": 9432,
      "target": 34962
    },
    {
      "buffer": 0,
      "byteLength": 18384,
      "byteOffset": 27816,
      "target": 34962
    },
    {
      "buffer": 0,
      "byteLength": 12256,
      "byteOffset": 46200,
      "target": 34962
    },
    {
      "buffer": 0,
      "byteLength": 9432,
      "byteOffset": 58456,
      "target": 34963
    },
    {
      "buffer": 0,
      "byteLength": 18348,
      "byteOffset": 67888,
      "target": 34962
    },
    {
      "buffer": 0,
      "byteLength": 18348,
      "byteOffset": 86236,
      "target": 34962
    },
    {
      "buffer": 0,
      "byteLength": 12232,
      "byteOffset": 104584,
      "target": 34962
    },
    {
      "buffer": 0,
      "byteLength": 17664,
      "byteOffset": 116816,
      "target": 34963
    },
    {
      "buffer": 0,
      "byteLength": 33732,
      "byteOffset": 134480,
      "target": 34962
    },
    {
      "buffer": 0,
      "byteLength": 33732,
      "byteOffset": 168212,
      "target": 34962
    },
    {
      "buffer": 0,
      "byteLength": 22488,
      "byteOffset": 201944,
      "target": 34962
    },
    {
      "buffer": 0,
      "byteLength": 8832,
      "byteOffset": 224432,
      "target": 34963
    },
    {
      "buffer": 0,
      "byteLength": 15360,
      "byteOffset": 233264,
      "target": 34962
    },
    {
      "buffer": 0,
      "byteLength": 15360,
      "byteOffset": 248624,
      "target": 34962
    },
    {
      "buffer": 0,
      "byteLength": 10240,
      "byteOffset": 263984,
      "target": 34962
    },
    {
      "buffer": 0,
      "byteLength": 4704,
      "byteOffset": 274224,
      "target": 34963
    },
    {
      "buffer": 0,
      "byteLength": 8352,
      "byteOffset": 278928,
      "target": 34962
    },
    {
      "buffer": 0,
      "byteLength": 8352,
      "byteOffset": 287280,
      "target": 34962
    },
    {
      "buffer": 0,
      "byteLength": 5568,
      "byteOffset": 295632,
      "target": 34962
    },
    {
      "buffer": 0,
      "byteLength": 4704,
      "byteOffset": 301200,
      "target": 34963
    },
    {
      "buffer": 0,
      "byteLength": 8424,
      "byteOffset": 305904,
      "target": 34962
    },
    {
      "buffer": 0,
      "byteLength": 8424,
      "byteOffset": 314328,
      "target": 34962
    },
    {
      "buffer": 0,
      "byteLength": 5616,
      "byteOffset": 322752,
      "target": 34962
    }
  ],
  "buffers": [
    {
      "byteLength": 328368,
      "uri": "Untitled.bin"
    }
  ],
  "images": [
    {
      "uri": "Butterfly_baseColor.png"
    },
    {
      "uri": "Butterfly_occlusionRoughnessMetallic.png"
    },
    {
      "uri": "Butterfly_normal.png"
    },
    {
      "uri": "Leaf1_baseColor.png"
    },
    {
      "uri": "Leaf1_occlusionRoughnessMetallic.png"
    },
    {
      "uri": "Leaf1_normal.png"
    }
  ],
  "materials": [
    {
      "alphaMode": "OPAQUE",
      "name": "Butterfly",
      "normalTexture": {
        "index": 2
      },
      "occlusionTexture": {
        "index": 1
      },
      "pbrMetallicRoughness": {
        "baseColorTexture": {
          "index": 0
        },
        "metallicRoughnessTexture": {
          "index": 1
        }
      }
    },
    {
      "alphaMode": "OPAQUE",
      "name": "Leaf1",
      "normalTexture": {
        "index": 5
      },
      "occlusionTexture": {
        "index": 4
      },
      "pbrMetallicRoughness": {
        "baseColorTexture": {
          "index": 3
        },
        "metallicRoughnessTexture": {
          "index": 4
        }
      }
    }
  ],
  "meshes": [
    {
      "name": "Half_Butterfly_Right",
      "primitives": [
        {
          "attributes": {
            "NORMAL": 2,
            "POSITION": 1,
            "TEXCOORD_0": 3
          },
          "indices": 0,
          "material": 0,
          "mode": 4
        }
      ]
    },
    {
      "name": "Half_Butterfly_Left",
      "primitives": [
        {
          "attributes": {
            "NORMAL": 6,
            "POSITION": 5,
            "TEXCOORD_0": 7
          },
          "indices": 4,
          "material": 0,
          "mode": 4
        }
      ]
    },
    {
      "name": "ButterFly",
      "primitives": [
        {
          "attributes": {
            "NORMAL": 10,
            "POSITION": 9,
            "TEXCOORD_0": 11
          },
          "indices": 8,
          "material": 0,
          "mode": 4
        }
      ]
    },
    {
      "name": "Leaf",
      "primitives": [
        {
          "attributes": {
            "NORMAL": 14,
            "POSITION": 13,
            "TEXCOORD_0": 15
          },
          "indices": 12,
          "material": 1,
          "mode": 4
        }
      ]
    },
    {
      "name": "Half_Leaf_Right",
      "primitives": [
        {
          "attributes": {
            "NORMAL": 18,
            "POSITION": 17,
            "TEXCOORD_0": 19
          },
          "indices": 16,
          "material": 1,
          "mode": 4
        }
      ]
    },
    {
      "name": "Half_Leaf_Left",
      "primitives": [
        {
          "attributes": {
            "NORMAL": 22,
            "POSITION": 21,
            "TEXCOORD_0": 23
          },
          "indices": 20,
          "material": 1,
          "mode": 4
        }
      ]
    }
  ],
  "nodes": [
    {
      "children": [
        1,
        3,
        5,
        7,
        9,
        11
      ],
      "name": "root",
      "scale": [
        3.67517375946045,
        3.67517375946045,
        3.67517375946045
      ],
      "translation": [
        1.78715038299561,
        0.24093209207058,
        0.0
      ]
    },
    {
      "children": [
        2
      ],
      "name": "Half_Butterfly_Right"
    },
    {
      "mesh": 0,
      "name": "Half_Butterfly_Right"
    },
    {
      "children": [
        4
      ],
      "name": "Half_Butterfly_Left"
    },
    {
      "mesh": 1,
      "name": "Half_Butterfly_Left"
    },
    {
      "children": [
        6
      ],
      "name": "ButterFly"
    },
    {
      "mesh": 2,
      "name": "ButterFly"
    },
    {
      "children": [
        8
      ],
      "name": "Leaf"
    },
    {
      "mesh": 3,
      "name": "Leaf"
    },
    {
      "children": [
        10
      ],
      "name": "Half_Leaf_Right"
    },
    {
      "mesh": 4,
      "name": "Half_Leaf_Right"
    },
    {
      "children": [
        12
      ],
      "name": "Half_Leaf_Left"
    },
    {
      "mesh": 5,
      "name": "Half_Leaf_Left"
    }
  ],
  "samplers": [
    {
      "magFilter": 9729,
      "minFilter": 9985,
      "wrapS": 10497,
      "wrapT": 10497
    }
  ],
  "scene": 0,
  "scenes": [
    {
      "name": "Scene",
      "nodes": [
        0
      ]
    }
  ],
  "textures": [
    {
      "sampler": 0,
      "source": 0
    },
    {
      "sampler": 0,
      "source": 1
    },
    {
      "sampler": 0,
      "source": 2
    },
    {
      "sampler": 0,
      "source": 3
    },
    {
      "sampler": 0,
      "source": 4
    },
    {
      "sampler": 0,
      "source": 5
    }
  ]
}