{"asset":{"version":"2.0","generator":"babylon.js glTF exporter for maya 2018 v1.3.0"},"scene":0,"scenes":[{"nodes":[0],"extensions":{}}],"nodes":[{"children":[1],"translation":[0.0,0.0,0.0],"rotation":[0.0,0.0,0.0,1.0],"scale":[1.0,1.0,1.0],"name":"Rutherford"},{"children":[2,3],"translation":[0.0,0.0,929.2578],"rotation":[0.0,0.0,0.0,1.0],"scale":[1.0,1.0,1.0],"name":"Gold_Atom_Grp"},{"mesh":0,"translation":[0.0,0.0,0.0],"rotation":[0.0,0.0,0.0,1.0],"scale":[1.0,1.0,1.0],"name":"Gold_Nucleus"},{"mesh":1,"translation":[0.0,0.0,0.0],"rotation":[0.0,0.0,0.0,1.0],"scale":[1.0,1.0,1.0],"name":"Gold_Atom"}],"meshes":[{"primitives":[{"attributes":{"POSITION":1,"NORMAL":2,"TANGENT":3,"TEXCOORD_0":4},"indices":0,"mode":4,"material":0}],"name":"Gold_Nucleus"},{"primitives":[{"attributes":{"POSITION":6,"NORMAL":7,"TANGENT":8,"TEXCOORD_0":9},"indices":5,"mode":4,"material":1}],"name":"Gold_Atom"}],"accessors":[{"bufferView":0,"componentType":5123,"count":648,"type":"SCALAR","name":"accessorIndices"},{"bufferView":1,"componentType":5126,"count":128,"max":[0.919498265,1.98882425,149.1129],"min":[-2.9147532,-1.84542716,145.278488],"type":"VEC3","name":"accessorPositions"},{"bufferView":1,"byteOffset":1536,"componentType":5126,"count":128,"type":"VEC3","name":"accessorNormals"},{"bufferView":2,"componentType":5126,"count":128,"type":"VEC4","name":"accessorTangents"},{"bufferView":3,"componentType":5126,"count":128,"type":"VEC2","name":"accessorUVs"},{"bufferView":0,"byteOffset":1296,"componentType":5123,"count":648,"type":"SCALAR","name":"accessorIndices"},{"bufferView":1,"byteOffset":3072,"componentType":5126,"count":145,"max":[16.7950115,17.8643379,164.988327],"min":[-18.7902679,-17.7209415,129.40303],"type":"VEC3","name":"accessorPositions"},{"bufferView":1,"byteOffset":4812,"componentType":5126,"count":145,"type":"VEC3","name":"accessorNormals"},{"bufferView":2,"byteOffset":2048,"componentType":5126,"count":145,"type":"VEC4","name":"accessorTangents"},{"bufferView":3,"byteOffset":1024,"componentType":5126,"count":145,"type":"VEC2","name":"accessorUVs"},{"bufferView":4,"componentType":5126,"count":2,"max":[8.291667],"min":[0.0],"type":"SCALAR","name":"accessorAnimationInput"},{"bufferView":5,"componentType":5126,"count":2,"type":"VEC3","name":"accessorAnimationPositions"}],"bufferViews":[{"buffer":0,"byteLength":2592,"name":"bufferViewScalar"},{"buffer":0,"byteOffset":2592,"byteLength":6552,"byteStride":12,"name":"bufferViewFloatVec3"},{"buffer":0,"byteOffset":9144,"byteLength":4368,"byteStride":16,"name":"bufferViewFloatVec4"},{"buffer":0,"byteOffset":13512,"byteLength":2184,"byteStride":8,"name":"bufferViewFloatVec2"},{"buffer":0,"byteOffset":15696,"byteLength":8,"name":"bufferViewAnimationFloatScalar"},{"buffer":0,"byteOffset":15704,"byteLength":24,"name":"bufferViewAnimationFloatVec3"}],"buffers":[{"uri":"Gold_Atom.bin","byteLength":15728}],"materials":[{"pbrMetallicRoughness":{"baseColorFactor":[0.25,0.25,0.25,1.0],"metallicFactor":0.0,"roughnessFactor":0.3207082},"emissiveFactor":[0.0,0.0,0.0],"alphaMode":"OPAQUE","name":"Gold_Atom_Center_nucleous"},{"pbrMetallicRoughness":{"baseColorFactor":[0.2355,0.171743274,0.0602879934,0.5121951],"metallicFactor":0.0,"roughnessFactor":0.3207082},"emissiveFactor":[0.0,0.0,0.0],"alphaMode":"BLEND","name":"Gold_Atom_Diff"}],"animations":[{"channels":[{"sampler":0,"target":{"node":1,"path":"translation"}}],"samplers":[{"input":10,"interpolation":"LINEAR","output":11}],"name":"All Animations"}]}