{
  "accessors": [
    {
      "bufferView": 0,
      "componentType": 5125,
      "count": 1338,
      "type": "SCALAR"
    },
    {
      "bufferView": 1,
      "componentType": 5126,
      "count": 878,
      "max": [
        0.21478271484375,
        1.0,
        0.450812190771103
      ],
      "min": [
        -0.21478271484375,
        -1.0,
        -0.450812190771103
      ],
      "type": "VEC3"
    },
    {
      "bufferView": 2,
      "componentType": 5126,
      "count": 878,
      "type": "VEC3"
    },
    {
      "bufferView": 3,
      "componentType": 5126,
      "count": 878,
      "type": "VEC2"
    }
  ],
  "asset": {
    "generator": "Substance Painter 2018.2.3",
    "version": "2.0"
  },
  "bufferViews": [
    {
      "buffer": 0,
      "byteLength": 5352,
      "target": 34963
    },
    {
      "buffer": 0,
      "byteLength": 10536,
      "byteOffset": 5352,
      "target": 34962
    },
    {
      "buffer": 0,
      "byteLength": 10536,
      "byteOffset": 15888,
      "target": 34962
    },
    {
      "buffer": 0,
      "byteLength": 7024,
      "byteOffset": 26424,
      "target": 34962
    }
  ],
  "buffers": [
    {
      "byteLength": 33448,
      "uri": "Untitled.bin"
    }
  ],
  "images": [
    {
      "uri": "First_Half_baseColor.png"
    },
    {
      "uri": "First_Half_occlusionRoughnessMetallic.png"
    },
    {
      "uri": "First_Half_normal.png"
    }
  ],
  "materials": [
    {
      "alphaMode": "OPAQUE",
      "name": "First_Half",
      "normalTexture": {
        "index": 2
      },
      "occlusionTexture": {
        "index": 1
      },
      "pbrMetallicRoughness": {
        "baseColorTexture": {
          "index": 0
        },
        "metallicRoughnessTexture": {
          "index": 1
        }
      }
    }
  ],
  "meshes": [
    {
      "name": "Building_HalfSection_01",
      "primitives": [
        {
          "attributes": {
            "NORMAL": 2,
            "POSITION": 1,
            "TEXCOORD_0": 3
          },
          "indices": 0,
          "material": 0,
          "mode": 4
        }
      ]
    }
  ],
  "nodes": [
    {
      "children": [
        1
      ],
      "name": "root",
      "scale": [
        11.8715858459473,
        11.8715858459473,
        11.8715858459473
      ],
      "translation": [
        -2.55752086639404,
        11.9045906066895,
        0.0
      ]
    },
    {
      "children": [
        2
      ],
      "name": "Building_HalfSection_01"
    },
    {
      "mesh": 0,
      "name": "Building_HalfSection_01"
    }
  ],
  "samplers": [
    {
      "magFilter": 9729,
      "minFilter": 9985,
      "wrapS": 10497,
      "wrapT": 10497
    }
  ],
  "scene": 0,
  "scenes": [
    {
      "name": "Scene",
      "nodes": [
        0
      ]
    }
  ],
  "textures": [
    {
      "sampler": 0,
      "source": 0
    },
    {
      "sampler": 0,
      "source": 1
    },
    {
      "sampler": 0,
      "source": 2
    }
  ]
}