{"asset":{"version":"2.0","generator":"babylon.js glTF exporter for maya 2018 v1.3.0"},"scene":0,"scenes":[{"nodes":[0],"extensions":{}}],"nodes":[{"children":[1],"translation":[0.0,-168.565414,0.0],"rotation":[0.0,0.0,0.0,1.0],"scale":[1.0,1.0,1.0],"name":"Half_Section_Brain"},{"mesh":0,"translation":[0.0,0.0,0.0],"rotation":[0.0,0.0,0.0,1.0],"scale":[1.0,1.0,1.0],"name":"Amygdala"}],"meshes":[{"primitives":[{"attributes":{"POSITION":1,"NORMAL":2,"TANGENT":3,"TEXCOORD_0":4,"TEXCOORD_1":5},"indices":0,"mode":4,"material":0}],"name":"Amygdala"}],"accessors":[{"bufferView":0,"componentType":5123,"count":480,"type":"SCALAR","name":"accessorIndices"},{"bufferView":1,"componentType":5126,"count":244,"max":[0.2339832,171.05687,5.08169746],"min":[-0.0211779959,169.664841,4.4365406],"type":"VEC3","name":"accessorPositions"},{"bufferView":1,"byteOffset":2928,"componentType":5126,"count":244,"type":"VEC3","name":"accessorNormals"},{"bufferView":2,"componentType":5126,"count":244,"type":"VEC4","name":"accessorTangents"},{"bufferView":3,"componentType":5126,"count":244,"type":"VEC2","name":"accessorUVs"},{"bufferView":3,"byteOffset":1952,"componentType":5126,"count":244,"type":"VEC2","name":"accessorUV2s"}],"bufferViews":[{"buffer":0,"byteLength":960,"name":"bufferViewScalar"},{"buffer":0,"byteOffset":960,"byteLength":5856,"byteStride":12,"name":"bufferViewFloatVec3"},{"buffer":0,"byteOffset":6816,"byteLength":3904,"byteStride":16,"name":"bufferViewFloatVec4"},{"buffer":0,"byteOffset":10720,"byteLength":3904,"byteStride":8,"name":"bufferViewFloatVec2"}],"buffers":[{"uri":"Amygdala.bin","byteLength":14624}],"materials":[{"pbrMetallicRoughness":{"baseColorFactor":[1.0,1.0,1.0,1.0],"baseColorTexture":{"index":0,"texCoord":0},"metallicFactor":1.0,"roughnessFactor":1.0,"metallicRoughnessTexture":{"index":1,"texCoord":0}},"emissiveFactor":[0.0,0.0,0.0],"alphaMode":"OPAQUE","name":"Half_Brain_Mat"}],"textures":[{"sampler":0,"source":0,"name":"Half_Brain_Mat_baseColor.jpg"},{"sampler":1,"source":1,"name":"Half_Brain_Mat_metallicRoughness.jpg"}],"images":[{"uri":"Half_Brain_Mat_baseColor.jpg"},{"uri":"Half_Brain_Mat_metallicRoughness.jpg"}],"samplers":[{"magFilter":9729,"minFilter":9987,"wrapS":10497,"wrapT":10497},{"magFilter":9729,"minFilter":9987,"wrapS":10497,"wrapT":10497}]}