{"asset":{"version":"2.0","generator":"babylon.js glTF exporter for maya 2018 v1.3.0"},"scene":0,"scenes":[{"nodes":[0],"extensions":{}}],"nodes":[{"children":[1],"translation":[0.0,0.0,0.0],"rotation":[0.0,0.0,0.0,1.0],"scale":[1.0,1.0,1.0],"name":"Brain_Full"},{"children":[2],"translation":[0.0,0.0,0.0],"rotation":[0.0,0.0,0.0,1.0],"scale":[1.0,1.0,1.0],"name":"Nervous_Full_Cerebellum_Grp"},{"mesh":0,"translation":[0.0,0.0,0.0],"rotation":[0.0,0.0,0.0,1.0],"scale":[1.0,1.0,1.0],"name":"Nervous_Full_Cerebellum_2"}],"meshes":[{"primitives":[{"attributes":{"POSITION":1,"NORMAL":2,"TANGENT":3,"TEXCOORD_0":4},"indices":0,"mode":4,"material":0}],"name":"Nervous_Full_Cerebellum_2"}],"accessors":[{"bufferView":0,"componentType":5123,"count":12330,"type":"SCALAR","name":"accessorIndices"},{"bufferView":1,"componentType":5126,"count":2217,"max":[4.40403175,-1.16958618,-0.407565355],"min":[-0.0502043739,-5.428833,-6.29481459],"type":"VEC3","name":"accessorPositions"},{"bufferView":1,"byteOffset":26604,"componentType":5126,"count":2217,"type":"VEC3","name":"accessorNormals"},{"bufferView":2,"componentType":5126,"count":2217,"type":"VEC4","name":"accessorTangents"},{"bufferView":3,"componentType":5126,"count":2217,"type":"VEC2","name":"accessorUVs"}],"bufferViews":[{"buffer":0,"byteLength":24660,"name":"bufferViewScalar"},{"buffer":0,"byteOffset":24660,"byteLength":53208,"byteStride":12,"name":"bufferViewFloatVec3"},{"buffer":0,"byteOffset":77868,"byteLength":35472,"byteStride":16,"name":"bufferViewFloatVec4"},{"buffer":0,"byteOffset":113340,"byteLength":17736,"byteStride":8,"name":"bufferViewFloatVec2"}],"buffers":[{"uri":"Transperent Nervous_Full_Cerebellum_3.bin","byteLength":131076}],"materials":[{"pbrMetallicRoughness":{"baseColorFactor":[0.0,0.0551948063,0.0551948063,0.357142866],"metallicFactor":0.0,"roughnessFactor":0.450053632},"emissiveFactor":[0.0,0.0,0.0],"alphaMode":"BLEND","name":"lambert2"}]}