{
  "accessors": [
    {
      "bufferView": 0,
      "componentType": 5125,
      "count": 11880,
      "type": "SCALAR"
    },
    {
      "bufferView": 1,
      "componentType": 5126,
      "count": 7797,
      "max": [
        0.459111392498016,
        0.348392903804779,
        1.0
      ],
      "min": [
        -0.459111392498016,
        -0.348392933607101,
        -1.0
      ],
      "type": "VEC3"
    },
    {
      "bufferView": 2,
      "componentType": 5126,
      "count": 7797,
      "type": "VEC3"
    },
    {
      "bufferView": 3,
      "componentType": 5126,
      "count": 7797,
      "type": "VEC2"
    }
  ],
  "asset": {
    "generator": "Substance Painter 2018.2.3",
    "version": "2.0"
  },
  "bufferViews": [
    {
      "buffer": 0,
      "byteLength": 47520,
      "target": 34963
    },
    {
      "buffer": 0,
      "byteLength": 93564,
      "byteOffset": 47520,
      "target": 34962
    },
    {
      "buffer": 0,
      "byteLength": 93564,
      "byteOffset": 141084,
      "target": 34962
    },
    {
      "buffer": 0,
      "byteLength": 62376,
      "byteOffset": 234648,
      "target": 34962
    }
  ],
  "buffers": [
    {
      "byteLength": 297024,
      "uri": "Untitled.bin"
    }
  ],
  "images": [
    {
      "uri": "All_Toy_Bmw_Car_baseColor.png"
    },
    {
      "uri": "All_Toy_Bmw_Car_occlusionRoughnessMetallic.png"
    },
    {
      "uri": "All_Toy_Bmw_Car_normal.png"
    }
  ],
  "materials": [
    {
      "alphaMode": "OPAQUE",
      "name": "All_Toy_Bmw_Car",
      "normalTexture": {
        "index": 2
      },
      "occlusionTexture": {
        "index": 1
      },
      "pbrMetallicRoughness": {
        "baseColorTexture": {
          "index": 0
        },
        "metallicRoughnessTexture": {
          "index": 1
        }
      }
    }
  ],
  "meshes": [
    {
      "name": "Full_Car",
      "primitives": [
        {
          "attributes": {
            "NORMAL": 2,
            "POSITION": 1,
            "TEXCOORD_0": 3
          },
          "indices": 0,
          "material": 0,
          "mode": 4
        }
      ]
    }
  ],
  "nodes": [
    {
      "children": [
        1
      ],
      "name": "root",
      "scale": [
        7.87800598144531,
        7.87800598144531,
        7.87800598144531
      ],
      "translation": [
        -0.02703857421875,
        2.75322246551514,
        0.00205135345458984
      ]
    },
    {
      "children": [
        2
      ],
      "name": "Full_Car"
    },
    {
      "mesh": 0,
      "name": "Full_Car"
    }
  ],
  "samplers": [
    {
      "magFilter": 9729,
      "minFilter": 9985,
      "wrapS": 10497,
      "wrapT": 10497
    }
  ],
  "scene": 0,
  "scenes": [
    {
      "name": "Scene",
      "nodes": [
        0
      ]
    }
  ],
  "textures": [
    {
      "sampler": 0,
      "source": 0
    },
    {
      "sampler": 0,
      "source": 1
    },
    {
      "sampler": 0,
      "source": 2
    }
  ]
}