{"asset":{"version":"2.0","generator":"babylon.js glTF exporter for maya 2018 v1.3.0"},"scene":0,"scenes":[{"nodes":[0],"extensions":{}}],"nodes":[{"mesh":0,"translation":[0.3273611,0.10310173,0.113109589],"rotation":[0.0,0.0,0.0,1.0],"scale":[1.0,1.0,1.0],"name":"Small_Pea_Plant_Green_Pod"}],"meshes":[{"primitives":[{"attributes":{"POSITION":1,"NORMAL":2,"TANGENT":3,"TEXCOORD_0":4},"indices":0,"mode":4,"material":0},{"attributes":{"POSITION":6,"NORMAL":7,"TANGENT":8,"TEXCOORD_0":9},"indices":5,"mode":4,"material":1},{"attributes":{"POSITION":11,"NORMAL":12,"TANGENT":13,"TEXCOORD_0":14},"indices":10,"mode":4,"material":2},{"attributes":{"POSITION":16,"NORMAL":17,"TANGENT":18,"TEXCOORD_0":19},"indices":15,"mode":4,"material":3}],"name":"Small_Pea_Plant_Green_Pod"}],"accessors":[{"bufferView":0,"componentType":5123,"count":32550,"type":"SCALAR","name":"accessorIndices"},{"bufferView":1,"componentType":5126,"count":6251,"max":[0.868490458,3.860754,1.61365891],"min":[-0.8684907,0.947487831,-1.24769211],"type":"VEC3","name":"accessorPositions"},{"bufferView":1,"byteOffset":75012,"componentType":5126,"count":6251,"type":"VEC3","name":"accessorNormals"},{"bufferView":2,"componentType":5126,"count":6251,"type":"VEC4","name":"accessorTangents"},{"bufferView":3,"componentType":5126,"count":6251,"type":"VEC2","name":"accessorUVs"},{"bufferView":0,"byteOffset":65100,"componentType":5123,"count":3948,"type":"SCALAR","name":"accessorIndices"},{"bufferView":1,"byteOffset":150024,"componentType":5126,"count":3462,"max":[0.800421953,3.94312763,0.7984276],"min":[-0.776648045,1.95484543,-1.61365891],"type":"VEC3","name":"accessorPositions"},{"bufferView":1,"byteOffset":191568,"componentType":5126,"count":3462,"type":"VEC3","name":"accessorNormals"},{"bufferView":2,"byteOffset":100016,"componentType":5126,"count":3462,"type":"VEC4","name":"accessorTangents"},{"bufferView":3,"byteOffset":50008,"componentType":5126,"count":3462,"type":"VEC2","name":"accessorUVs"},{"bufferView":0,"byteOffset":72996,"componentType":5123,"count":6636,"type":"SCALAR","name":"accessorIndices"},{"bufferView":1,"byteOffset":233112,"componentType":5126,"count":1377,"max":[0.635571,3.83062649,0.685565948],"min":[-0.452567577,0.5703659,-0.8115654],"type":"VEC3","name":"accessorPositions"},{"bufferView":1,"byteOffset":249636,"componentType":5126,"count":1377,"type":"VEC3","name":"accessorNormals"},{"bufferView":2,"byteOffset":155408,"componentType":5126,"count":1377,"type":"VEC4","name":"accessorTangents"},{"bufferView":3,"byteOffset":77704,"componentType":5126,"count":1377,"type":"VEC2","name":"accessorUVs"},{"bufferView":0,"byteOffset":86268,"componentType":5123,"count":504,"type":"SCALAR","name":"accessorIndices"},{"bufferView":1,"byteOffset":266160,"componentType":5126,"count":111,"max":[0.0428776741,0.5907879,0.25712204],"min":[-0.6975899,-0.10310173,-0.483341217],"type":"VEC3","name":"accessorPositions"},{"bufferView":1,"byteOffset":267492,"componentType":5126,"count":111,"type":"VEC3","name":"accessorNormals"},{"bufferView":2,"byteOffset":177440,"componentType":5126,"count":111,"type":"VEC4","name":"accessorTangents"},{"bufferView":3,"byteOffset":88720,"componentType":5126,"count":111,"type":"VEC2","name":"accessorUVs"},{"bufferView":4,"componentType":5126,"count":2,"max":[8.291667],"min":[0.0],"type":"SCALAR","name":"accessorAnimationInput"},{"bufferView":5,"componentType":5126,"count":2,"type":"VEC3","name":"accessorAnimationPositions"}],"bufferViews":[{"buffer":0,"byteLength":87276,"name":"bufferViewScalar"},{"buffer":0,"byteOffset":87276,"byteLength":268824,"byteStride":12,"name":"bufferViewFloatVec3"},{"buffer":0,"byteOffset":356100,"byteLength":179216,"byteStride":16,"name":"bufferViewFloatVec4"},{"buffer":0,"byteOffset":535316,"byteLength":89608,"byteStride":8,"name":"bufferViewFloatVec2"},{"buffer":0,"byteOffset":624924,"byteLength":8,"name":"bufferViewAnimationFloatScalar"},{"buffer":0,"byteOffset":624932,"byteLength":24,"name":"bufferViewAnimationFloatVec3"}],"buffers":[{"uri":"Small_Pea_Plant_Green_Pod.bin","byteLength":624956}],"materials":[{"pbrMetallicRoughness":{"baseColorFactor":[1.0,1.0,1.0,1.0],"baseColorTexture":{"index":1,"texCoord":0},"metallicFactor":0.0,"roughnessFactor":0.450053632},"normalTexture":{"index":0,"texCoord":0},"emissiveFactor":[0.0,0.0,0.0],"alphaMode":"OPAQUE","name":"Pea_Plant_Leaves_Flower_Green_Tex"},{"pbrMetallicRoughness":{"baseColorFactor":[1.0,1.0,1.0,1.0],"baseColorTexture":{"index":3,"texCoord":0},"metallicFactor":0.0,"roughnessFactor":0.450053632},"normalTexture":{"index":2,"texCoord":0},"emissiveFactor":[0.0,0.0,0.0],"alphaMode":"OPAQUE","name":"Stem1"},{"pbrMetallicRoughness":{"baseColorFactor":[1.0,1.0,1.0,1.0],"baseColorTexture":{"index":3,"texCoord":0},"metallicFactor":1.0,"roughnessFactor":1.0,"metallicRoughnessTexture":{"index":0}},"normalTexture":{"index":2,"texCoord":0},"emissiveFactor":[0.0,0.0,0.0],"alphaMode":"OPAQUE","name":"Pea_pod_Stem1"},{"pbrMetallicRoughness":{"baseColorFactor":[1.0,1.0,1.0,1.0],"baseColorTexture":{"index":4,"texCoord":0},"metallicFactor":0.0,"roughnessFactor":0.3207082},"emissiveFactor":[0.0,0.0,0.0],"alphaMode":"OPAQUE","name":"Mud"}],"textures":[{"sampler":0,"source":0,"name":"Pea_Plant_Leaves_Flower_Nm.jpg"},{"sampler":1,"source":1,"name":"Pea_Plant_Leaves_Flower_Green_Tex_baseColor.jpg"},{"sampler":2,"source":2,"name":"Stem_NM.jpg"},{"sampler":3,"source":3,"name":"Stem1_baseColor.jpg"},{"sampler":4,"source":4,"name":"Mud_baseColor.jpg"}],"images":[{"uri":"Pea_Plant_Leaves_Flower_Nm.jpg"},{"uri":"Pea_Plant_Leaves_Flower_Green_Tex_baseColor.jpg"},{"uri":"Stem_NM.jpg"},{"uri":"Stem1_baseColor.jpg"},{"uri":"Mud_baseColor.jpg"}],"samplers":[{"magFilter":9729,"minFilter":9987,"wrapS":10497,"wrapT":10497},{"magFilter":9729,"minFilter":9987,"wrapS":10497,"wrapT":10497},{"magFilter":9729,"minFilter":9987,"wrapS":10497,"wrapT":10497},{"magFilter":9729,"minFilter":9987,"wrapS":10497,"wrapT":10497},{"magFilter":9729,"minFilter":9987,"wrapS":10497,"wrapT":10497}],"animations":[{"channels":[{"sampler":0,"target":{"node":0,"path":"translation"}}],"samplers":[{"input":20,"interpolation":"LINEAR","output":21}],"name":"All Animations"}]}