{"asset":{"version":"2.0","generator":"babylon.js glTF exporter for maya 2018 v1.3.0"},"scene":0,"scenes":[{"nodes":[0],"extensions":{}}],"nodes":[{"children":[1],"translation":[0.0,0.0,0.0],"rotation":[0.0,0.0,0.0,1.0],"scale":[1.0,1.0,1.0],"name":"O_T_T_Enviorment_Geo"},{"children":[2],"translation":[0.0,0.0,0.0],"rotation":[0.0,0.0,0.0,1.0],"scale":[1.0,1.0,1.0],"name":"Objects_Grp"},{"mesh":0,"translation":[0.0,0.0,0.0],"rotation":[0.0,0.0,0.0,1.0],"scale":[1.0,1.0,1.0],"name":"Glass"}],"meshes":[{"primitives":[{"attributes":{"POSITION":1,"NORMAL":2,"TANGENT":3,"TEXCOORD_0":4},"indices":0,"mode":4,"material":0},{"attributes":{"POSITION":6,"NORMAL":7,"TANGENT":8,"TEXCOORD_0":9},"indices":5,"mode":4,"material":1}],"name":"Glass"}],"accessors":[{"bufferView":0,"componentType":5123,"count":288,"type":"SCALAR","name":"accessorIndices"},{"bufferView":1,"componentType":5126,"count":96,"max":[1.05274916,0.03670299,1.05274963],"min":[-1.05274868,-0.03670299,-1.05274963],"type":"VEC3","name":"accessorPositions"},{"bufferView":1,"byteOffset":1152,"componentType":5126,"count":96,"type":"VEC3","name":"accessorNormals"},{"bufferView":2,"componentType":5126,"count":96,"type":"VEC4","name":"accessorTangents"},{"bufferView":3,"componentType":5126,"count":96,"type":"VEC2","name":"accessorUVs"},{"bufferView":0,"byteOffset":576,"componentType":5123,"count":36,"type":"SCALAR","name":"accessorIndices"},{"bufferView":1,"byteOffset":2304,"componentType":5126,"count":91,"max":[1.05274916,0.03670299,1.05274963],"min":[-1.05274868,-0.03670299,-1.05274963],"type":"VEC3","name":"accessorPositions"},{"bufferView":1,"byteOffset":3396,"componentType":5126,"count":91,"type":"VEC3","name":"accessorNormals"},{"bufferView":2,"byteOffset":1536,"componentType":5126,"count":91,"type":"VEC4","name":"accessorTangents"},{"bufferView":3,"byteOffset":768,"componentType":5126,"count":91,"type":"VEC2","name":"accessorUVs"}],"bufferViews":[{"buffer":0,"byteLength":648,"name":"bufferViewScalar"},{"buffer":0,"byteOffset":648,"byteLength":4488,"byteStride":12,"name":"bufferViewFloatVec3"},{"buffer":0,"byteOffset":5136,"byteLength":2992,"byteStride":16,"name":"bufferViewFloatVec4"},{"buffer":0,"byteOffset":8128,"byteLength":1496,"byteStride":8,"name":"bufferViewFloatVec2"}],"buffers":[{"uri":"Tranceparent.bin","byteLength":9624}],"materials":[{"pbrMetallicRoughness":{"baseColorFactor":[0.0099,0.0082,0.0082,1.0],"metallicFactor":0.0,"roughnessFactor":0.450053632},"emissiveFactor":[0.0,0.0,0.0],"alphaMode":"OPAQUE","name":"lambert3"},{"pbrMetallicRoughness":{"baseColorFactor":[0.202,0.202,0.202,0.552845538],"metallicFactor":0.0,"roughnessFactor":0.3207082},"emissiveFactor":[0.0,0.0,0.0],"alphaMode":"BLEND","name":"Translucent"}]}