{"asset":{"version":"2.0","generator":"babylon.js glTF exporter for maya 2018 v1.3.0"},"scene":0,"scenes":[{"nodes":[0],"extensions":{}}],"nodes":[{"mesh":0,"translation":[0.0,0.0,0.0],"rotation":[0.0,0.0,0.0,1.0],"scale":[1.0,1.0,1.0],"name":"Big_Pin1"}],"meshes":[{"primitives":[{"attributes":{"POSITION":1,"NORMAL":2,"TANGENT":3,"TEXCOORD_0":4},"indices":0,"mode":4,"material":0}],"name":"Big_Pin1"}],"accessors":[{"bufferView":0,"componentType":5123,"count":28896,"type":"SCALAR","name":"accessorIndices"},{"bufferView":1,"componentType":5126,"count":7743,"max":[12.4764576,17.8656158,4.632294],"min":[-12.6117344,0.46222052,-2.107638],"type":"VEC3","name":"accessorPositions"},{"bufferView":1,"byteOffset":92916,"componentType":5126,"count":7743,"type":"VEC3","name":"accessorNormals"},{"bufferView":2,"componentType":5126,"count":7743,"type":"VEC4","name":"accessorTangents"},{"bufferView":3,"componentType":5126,"count":7743,"type":"VEC2","name":"accessorUVs"}],"bufferViews":[{"buffer":0,"byteLength":57792,"name":"bufferViewScalar"},{"buffer":0,"byteOffset":57792,"byteLength":185832,"byteStride":12,"name":"bufferViewFloatVec3"},{"buffer":0,"byteOffset":243624,"byteLength":123888,"byteStride":16,"name":"bufferViewFloatVec4"},{"buffer":0,"byteOffset":367512,"byteLength":61944,"byteStride":8,"name":"bufferViewFloatVec2"}],"buffers":[{"uri":"Cage.bin","byteLength":429456}],"materials":[{"pbrMetallicRoughness":{"baseColorFactor":[0.129312,0.263599068,0.288,0.398373961],"metallicFactor":0.0,"roughnessFactor":0.450053632},"emissiveFactor":[0.0,0.0,0.0],"alphaMode":"BLEND","name":"Glass1"}]}