{"asset":{"version":"2.0","generator":"babylon.js glTF exporter for maya 2018 v1.3.0"},"scene":0,"scenes":[{"nodes":[0],"extensions":{}}],"nodes":[{"children":[1],"translation":[0.0,0.0,0.0],"rotation":[0.0,0.0,0.0,1.0],"scale":[1.0,1.0,1.0],"name":"Galvanometer_Grp"},{"children":[2],"translation":[0.0,0.0,0.0],"rotation":[0.0,0.0,0.0,1.0],"scale":[1.0,1.0,1.0],"name":"Moving_Objects"},{"children":[3],"translation":[0.0,0.0,0.0],"rotation":[0.0,0.0,0.0,1.0],"scale":[1.0,1.0,1.0],"name":"Middle_Body_Parts_Grp"},{"mesh":0,"translation":[-0.0102712512,-2.78005457,-3.43752074],"rotation":[0.0,0.0,0.0,1.0],"scale":[1.0,1.0,1.0],"name":"Ring_01"}],"meshes":[{"primitives":[{"attributes":{"POSITION":1,"NORMAL":2,"TANGENT":3,"TEXCOORD_0":4},"indices":0,"mode":4,"material":0}],"name":"Ring_01"}],"accessors":[{"bufferView":0,"componentType":5123,"count":8412,"type":"SCALAR","name":"accessorIndices"},{"bufferView":1,"componentType":5126,"count":1759,"max":[1.0689137,3.8220048,3.48087549],"min":[-1.0483712,1.73810446,3.394166],"type":"VEC3","name":"accessorPositions"},{"bufferView":1,"byteOffset":21108,"componentType":5126,"count":1759,"type":"VEC3","name":"accessorNormals"},{"bufferView":2,"componentType":5126,"count":1759,"type":"VEC4","name":"accessorTangents"},{"bufferView":3,"componentType":5126,"count":1759,"type":"VEC2","name":"accessorUVs"}],"bufferViews":[{"buffer":0,"byteLength":16824,"name":"bufferViewScalar"},{"buffer":0,"byteOffset":16824,"byteLength":42216,"byteStride":12,"name":"bufferViewFloatVec3"},{"buffer":0,"byteOffset":59040,"byteLength":28144,"byteStride":16,"name":"bufferViewFloatVec4"},{"buffer":0,"byteOffset":87184,"byteLength":14072,"byteStride":8,"name":"bufferViewFloatVec2"}],"buffers":[{"uri":"Coil.bin","byteLength":101256}],"materials":[{"pbrMetallicRoughness":{"baseColorFactor":[0.0422077924,0.0422077924,0.0422077924,0.467532456],"metallicFactor":0.0,"roughnessFactor":0.2581639},"emissiveFactor":[0.0,0.0,0.0],"alphaMode":"BLEND","name":"phong1"}]}