{"asset":{"version":"2.0","generator":"babylon.js glTF exporter for maya 2018 v1.3.0"},"scene":0,"scenes":[{"nodes":[0],"extensions":{}}],"nodes":[{"children":[1,2],"translation":[0.0,0.0,0.0],"rotation":[0.0,0.0,0.0,1.0],"scale":[1.0,1.0,1.0],"name":"Galvanometer_Grp"},{"mesh":0,"translation":[0.0,-4.764301,0.0],"rotation":[0.0,0.0,0.0,1.0],"scale":[1.0,1.0,1.0],"name":"Reading_Numbers_Pin_Grp1"},{"mesh":1,"translation":[0.0,-4.764301,0.0],"rotation":[0.0,0.0,0.0,1.0],"scale":[1.0,1.0,1.0],"name":"Magnet"}],"meshes":[{"primitives":[{"attributes":{"POSITION":1,"NORMAL":2,"TANGENT":3,"TEXCOORD_0":4},"indices":0,"mode":4,"material":0}],"name":"Reading_Numbers_Pin_Grp1"},{"primitives":[{"attributes":{"POSITION":6,"NORMAL":7,"TANGENT":8,"TEXCOORD_0":9},"indices":5,"mode":4,"material":0}],"name":"Magnet"}],"accessors":[{"bufferView":0,"componentType":5123,"count":408,"type":"SCALAR","name":"accessorIndices"},{"bufferView":1,"componentType":5126,"count":176,"max":[4.155346,2.61843824,3.31416321],"min":[-4.34662437,1.5801841,3.01895142],"type":"VEC3","name":"accessorPositions"},{"bufferView":1,"byteOffset":2112,"componentType":5126,"count":176,"type":"VEC3","name":"accessorNormals"},{"bufferView":2,"componentType":5126,"count":176,"type":"VEC4","name":"accessorTangents"},{"bufferView":3,"componentType":5126,"count":176,"type":"VEC2","name":"accessorUVs"},{"bufferView":0,"byteOffset":816,"componentType":5123,"count":3096,"type":"SCALAR","name":"accessorIndices"},{"bufferView":1,"byteOffset":4224,"componentType":5126,"count":732,"max":[6.6421566,12.4219551,3.104847],"min":[-6.673979,0.508313835,-1.89515316],"type":"VEC3","name":"accessorPositions"},{"bufferView":1,"byteOffset":13008,"componentType":5126,"count":732,"type":"VEC3","name":"accessorNormals"},{"bufferView":2,"byteOffset":2816,"componentType":5126,"count":732,"type":"VEC4","name":"accessorTangents"},{"bufferView":3,"byteOffset":1408,"componentType":5126,"count":732,"type":"VEC2","name":"accessorUVs"}],"bufferViews":[{"buffer":0,"byteLength":7008,"name":"bufferViewScalar"},{"buffer":0,"byteOffset":7008,"byteLength":21792,"byteStride":12,"name":"bufferViewFloatVec3"},{"buffer":0,"byteOffset":28800,"byteLength":14528,"byteStride":16,"name":"bufferViewFloatVec4"},{"buffer":0,"byteOffset":43328,"byteLength":7264,"byteStride":8,"name":"bufferViewFloatVec2"}],"buffers":[{"uri":"Magnet.bin","byteLength":50592}],"materials":[{"pbrMetallicRoughness":{"baseColorFactor":[0.0422077924,0.0422077924,0.0422077924,0.467532456],"metallicFactor":0.0,"roughnessFactor":0.2581639},"emissiveFactor":[0.0,0.0,0.0],"alphaMode":"BLEND","name":"phong1"}]}