{"asset":{"version":"2.0","generator":"babylon.js glTF exporter for maya 2018 v1.3.0"},"scene":0,"scenes":[{"nodes":[0],"extensions":{}}],"nodes":[{"children":[1],"translation":[0.0,0.0,0.0],"rotation":[0.0,0.0,0.0,1.0],"scale":[1.0,1.0,1.0],"name":"Galvanometer_Grp"},{"children":[2,4],"translation":[0.0,0.0,0.0],"rotation":[0.0,0.0,0.0,1.0],"scale":[1.0,1.0,1.0],"name":"Moving_Objects"},{"children":[3],"translation":[0.0,0.0,0.0],"rotation":[0.0,0.0,0.0,1.0],"scale":[1.0,1.0,1.0],"name":"Middle_Body_Parts_Grp"},{"mesh":0,"translation":[0.0,-2.85444832,-0.3287209],"rotation":[0.0,0.0,0.0,1.0],"scale":[1.0,1.0,1.0],"name":"Body_Part_01"},{"children":[5],"translation":[0.0,0.0,0.0],"rotation":[0.0,0.0,0.0,1.0],"scale":[1.0,1.0,1.0],"name":"Wire_set_01"},{"mesh":1,"translation":[0.0,-2.85444832,-0.3287209],"rotation":[0.0,0.0,0.0,1.0],"scale":[1.0,1.0,1.0],"name":"Wire_01"}],"meshes":[{"primitives":[{"attributes":{"POSITION":1,"NORMAL":2,"TANGENT":3,"TEXCOORD_0":4},"indices":0,"mode":4,"material":0}],"name":"Body_Part_01"},{"primitives":[{"attributes":{"POSITION":6,"NORMAL":7,"TANGENT":8,"TEXCOORD_0":9},"indices":5,"mode":4,"material":0}],"name":"Wire_01"}],"accessors":[{"bufferView":0,"componentType":5123,"count":1440,"type":"SCALAR","name":"accessorIndices"},{"bufferView":1,"componentType":5126,"count":304,"max":[1.96407437,4.80496645,2.56850123],"min":[-2.01249766,0.8501768,-1.93149877],"type":"VEC3","name":"accessorPositions"},{"bufferView":1,"byteOffset":3648,"componentType":5126,"count":304,"type":"VEC3","name":"accessorNormals"},{"bufferView":2,"componentType":5126,"count":304,"type":"VEC4","name":"accessorTangents"},{"bufferView":3,"componentType":5126,"count":304,"type":"VEC2","name":"accessorUVs"},{"bufferView":0,"byteOffset":2880,"componentType":5123,"count":3612,"type":"SCALAR","name":"accessorIndices"},{"bufferView":1,"byteOffset":7296,"componentType":5126,"count":960,"max":[2.05895567,3.19609022,2.72179723],"min":[-2.106323,1.97202277,-2.07449913],"type":"VEC3","name":"accessorPositions"},{"bufferView":1,"byteOffset":18816,"componentType":5126,"count":960,"type":"VEC3","name":"accessorNormals"},{"bufferView":2,"byteOffset":4864,"componentType":5126,"count":960,"type":"VEC4","name":"accessorTangents"},{"bufferView":3,"byteOffset":2432,"componentType":5126,"count":960,"type":"VEC2","name":"accessorUVs"}],"bufferViews":[{"buffer":0,"byteLength":10104,"name":"bufferViewScalar"},{"buffer":0,"byteOffset":10104,"byteLength":30336,"byteStride":12,"name":"bufferViewFloatVec3"},{"buffer":0,"byteOffset":40440,"byteLength":20224,"byteStride":16,"name":"bufferViewFloatVec4"},{"buffer":0,"byteOffset":60664,"byteLength":10112,"byteStride":8,"name":"bufferViewFloatVec2"}],"buffers":[{"uri":"Motor.bin","byteLength":70776}],"materials":[{"pbrMetallicRoughness":{"baseColorFactor":[0.0422077924,0.0422077924,0.0422077924,0.467532456],"metallicFactor":0.0,"roughnessFactor":0.2581639},"emissiveFactor":[0.0,0.0,0.0],"alphaMode":"BLEND","name":"phong1"}]}