{"asset":{"version":"2.0","generator":"babylon.js glTF exporter for maya 2018 v1.3.0"},"scene":0,"scenes":[{"nodes":[0],"extensions":{}}],"nodes":[{"mesh":0,"translation":[0.0,0.0,0.0],"rotation":[0.0,0.0,0.0,1.0],"scale":[1.0,1.0,1.0],"name":"Arrow_Egg_Shape_Grp"}],"meshes":[{"primitives":[{"attributes":{"POSITION":1,"NORMAL":2,"TANGENT":3,"TEXCOORD_0":4},"indices":0,"mode":4,"material":0},{"attributes":{"POSITION":6,"NORMAL":7,"TANGENT":8,"TEXCOORD_0":9},"indices":5,"mode":4,"material":1}],"name":"Arrow_Egg_Shape_Grp"}],"accessors":[{"bufferView":0,"componentType":5123,"count":2280,"type":"SCALAR","name":"accessorIndices"},{"bufferView":1,"componentType":5126,"count":439,"max":[1.00000012,0.9987112,1.71540952],"min":[-1.00000012,-0.9987112,-1.71540976],"type":"VEC3","name":"accessorPositions"},{"bufferView":1,"byteOffset":5268,"componentType":5126,"count":439,"type":"VEC3","name":"accessorNormals"},{"bufferView":2,"componentType":5126,"count":439,"type":"VEC4","name":"accessorTangents"},{"bufferView":3,"componentType":5126,"count":439,"type":"VEC2","name":"accessorUVs"},{"bufferView":0,"byteOffset":4560,"componentType":5123,"count":480,"type":"SCALAR","name":"accessorIndices"},{"bufferView":1,"byteOffset":10536,"componentType":5126,"count":282,"max":[0.0148945246,0.7367624,0.100550175],"min":[-0.03842935,-0.7472631,-0.3145051],"type":"VEC3","name":"accessorPositions"},{"bufferView":1,"byteOffset":13920,"componentType":5126,"count":282,"type":"VEC3","name":"accessorNormals"},{"bufferView":2,"byteOffset":7024,"componentType":5126,"count":282,"type":"VEC4","name":"accessorTangents"},{"bufferView":3,"byteOffset":3512,"componentType":5126,"count":282,"type":"VEC2","name":"accessorUVs"}],"bufferViews":[{"buffer":0,"byteLength":5520,"name":"bufferViewScalar"},{"buffer":0,"byteOffset":5520,"byteLength":17304,"byteStride":12,"name":"bufferViewFloatVec3"},{"buffer":0,"byteOffset":22824,"byteLength":11536,"byteStride":16,"name":"bufferViewFloatVec4"},{"buffer":0,"byteOffset":34360,"byteLength":5768,"byteStride":8,"name":"bufferViewFloatVec2"}],"buffers":[{"uri":"Single_Arrow.bin","byteLength":40128}],"materials":[{"pbrMetallicRoughness":{"baseColorFactor":[0.1753,0.49585,0.5,0.181818187],"metallicFactor":0.0,"roughnessFactor":0.3207082},"emissiveFactor":[0.0,0.0,0.0],"alphaMode":"BLEND","name":"Egg_Shape_Glass"},{"pbrMetallicRoughness":{"baseColorFactor":[0.5,0.3661,0.01295,1.0],"metallicFactor":0.0,"roughnessFactor":0.3207082},"emissiveFactor":[0.0,0.0,0.0],"alphaMode":"OPAQUE","name":"Aero"}]}