{"asset":{"version":"2.0","generator":"babylon.js glTF exporter for maya 2018 v1.3.0"},"scene":0,"scenes":[{"nodes":[0],"extensions":{}}],"nodes":[{"children":[1],"translation":[0.0,0.0,0.0],"rotation":[0.0,0.0,0.0,1.0],"scale":[1.0,1.0,1.0],"name":"Rutherford"},{"children":[2,3,4,5],"translation":[53.3698578,11.2655935,-356.2556],"rotation":[0.0,0.0,0.0,1.0],"scale":[1.0,1.0,1.0],"name":"He_Orbital_Grp"},{"mesh":0,"translation":[0.0,0.0,0.0],"rotation":[0.0,0.0,0.0,1.0],"scale":[1.0,1.0,1.0],"name":"Electron_6_Geo1"},{"mesh":1,"translation":[0.0,0.0,0.0],"rotation":[0.0,0.0,0.0,1.0],"scale":[1.0,1.0,1.0],"name":"Electron_5_Geo1"},{"mesh":2,"translation":[0.0,0.0,0.0],"rotation":[0.0,0.0,0.0,1.0],"scale":[1.0,1.0,1.0],"name":"Orbital_1S1"},{"children":[6,7,8,9],"translation":[0.0,0.0,0.0],"rotation":[0.0,0.0,0.0,1.0],"scale":[1.0,1.0,1.0],"name":"Nucleous1"},{"mesh":3,"translation":[0.0,0.0,0.0],"rotation":[0.0,0.0,0.0,1.0],"scale":[1.0,1.0,1.0],"name":"Proton__09"},{"mesh":4,"translation":[0.0,0.0,0.0],"rotation":[0.0,0.0,0.0,1.0],"scale":[1.0,1.0,1.0],"name":"Proton__010"},{"mesh":5,"translation":[0.0,0.0,0.0],"rotation":[0.0,0.0,0.0,1.0],"scale":[1.0,1.0,1.0],"name":"Nutron__09"},{"mesh":6,"translation":[0.0,0.0,0.0],"rotation":[0.0,0.0,0.0,1.0],"scale":[1.0,1.0,1.0],"name":"Nutron__010"}],"meshes":[{"primitives":[{"attributes":{"POSITION":1,"NORMAL":2,"TANGENT":3,"TEXCOORD_0":4},"indices":0,"mode":4,"material":0}],"name":"Electron_6_Geo1"},{"primitives":[{"attributes":{"POSITION":6,"NORMAL":7,"TANGENT":8,"TEXCOORD_0":9},"indices":5,"mode":4,"material":0}],"name":"Electron_5_Geo1"},{"primitives":[{"attributes":{"POSITION":11,"NORMAL":12,"TANGENT":13,"TEXCOORD_0":14},"indices":10,"mode":4,"material":1}],"name":"Orbital_1S1"},{"primitives":[{"attributes":{"POSITION":16,"NORMAL":17,"TANGENT":18,"TEXCOORD_0":19},"indices":15,"mode":4,"material":2}],"name":"Proton__09"},{"primitives":[{"attributes":{"POSITION":21,"NORMAL":22,"TANGENT":23,"TEXCOORD_0":24},"indices":20,"mode":4,"material":2}],"name":"Proton__010"},{"primitives":[{"attributes":{"POSITION":26,"NORMAL":27,"TANGENT":28,"TEXCOORD_0":29},"indices":25,"mode":4,"material":3}],"name":"Nutron__09"},{"primitives":[{"attributes":{"POSITION":31,"NORMAL":32,"TANGENT":33,"TEXCOORD_0":34},"indices":30,"mode":4,"material":3}],"name":"Nutron__010"}],"accessors":[{"bufferView":0,"componentType":5123,"count":336,"type":"SCALAR","name":"accessorIndices"},{"bufferView":1,"componentType":5126,"count":83,"max":[-0.5207636,0.6934936,-159.861252],"min":[-1.47438788,-0.260192752,-160.814911],"type":"VEC3","name":"accessorPositions"},{"bufferView":1,"byteOffset":996,"componentType":5126,"count":83,"type":"VEC3","name":"accessorNormals"},{"bufferView":2,"componentType":5126,"count":83,"type":"VEC4","name":"accessorTangents"},{"bufferView":3,"componentType":5126,"count":83,"type":"VEC2","name":"accessorUVs"},{"bufferView":0,"byteOffset":672,"componentType":5123,"count":336,"type":"SCALAR","name":"accessorIndices"},{"bufferView":1,"byteOffset":1992,"componentType":5126,"count":83,"max":[-0.520753562,0.69349277,-135.186554],"min":[-1.47441351,-0.260167569,-136.140213],"type":"VEC3","name":"accessorPositions"},{"bufferView":1,"byteOffset":2988,"componentType":5126,"count":83,"type":"VEC3","name":"accessorNormals"},{"bufferView":2,"byteOffset":1328,"componentType":5126,"count":83,"type":"VEC4","name":"accessorTangents"},{"bufferView":3,"byteOffset":664,"componentType":5126,"count":83,"type":"VEC2","name":"accessorUVs"},{"bufferView":0,"byteOffset":1344,"componentType":5123,"count":2280,"type":"SCALAR","name":"accessorIndices"},{"bufferView":1,"byteOffset":3984,"componentType":5126,"count":443,"max":[13.6629705,14.7253332,-134.015732],"min":[-15.658226,-14.5819359,-163.322586],"type":"VEC3","name":"accessorPositions"},{"bufferView":1,"byteOffset":9300,"componentType":5126,"count":443,"type":"VEC3","name":"accessorNormals"},{"bufferView":2,"byteOffset":2656,"componentType":5126,"count":443,"type":"VEC4","name":"accessorTangents"},{"bufferView":3,"byteOffset":1328,"componentType":5126,"count":443,"type":"VEC2","name":"accessorUVs"},{"bufferView":0,"byteOffset":5904,"componentType":5123,"count":336,"type":"SCALAR","name":"accessorIndices"},{"bufferView":1,"byteOffset":14616,"componentType":5126,"count":83,"max":[1.54941738,1.11650884,-147.38298],"min":[-0.408138543,-0.857942045,-149.340515],"type":"VEC3","name":"accessorPositions"},{"bufferView":1,"byteOffset":15612,"componentType":5126,"count":83,"type":"VEC3","name":"accessorNormals"},{"bufferView":2,"byteOffset":9744,"componentType":5126,"count":83,"type":"VEC4","name":"accessorTangents"},{"bufferView":3,"byteOffset":4872,"componentType":5126,"count":83,"type":"VEC2","name":"accessorUVs"},{"bufferView":0,"byteOffset":6576,"componentType":5123,"count":336,"type":"SCALAR","name":"accessorIndices"},{"bufferView":1,"byteOffset":16608,"componentType":5126,"count":83,"max":[-0.9082734,1.24608552,-146.722519],"min":[-2.88271832,-0.72836566,-148.696945],"type":"VEC3","name":"accessorPositions"},{"bufferView":1,"byteOffset":17604,"componentType":5126,"count":83,"type":"VEC3","name":"accessorNormals"},{"bufferView":2,"byteOffset":11072,"componentType":5126,"count":83,"type":"VEC4","name":"accessorTangents"},{"bufferView":3,"byteOffset":5536,"componentType":5126,"count":83,"type":"VEC2","name":"accessorUVs"},{"bufferView":0,"byteOffset":7248,"componentType":5123,"count":336,"type":"SCALAR","name":"accessorIndices"},{"bufferView":1,"byteOffset":18600,"componentType":5126,"count":83,"max":[0.6051497,1.203888,-145.733749],"min":[-1.3692956,-0.770563,-147.708176],"type":"VEC3","name":"accessorPositions"},{"bufferView":1,"byteOffset":19596,"componentType":5126,"count":83,"type":"VEC3","name":"accessorNormals"},{"bufferView":2,"byteOffset":12400,"componentType":5126,"count":83,"type":"VEC4","name":"accessorTangents"},{"bufferView":3,"byteOffset":6200,"componentType":5126,"count":83,"type":"VEC2","name":"accessorUVs"},{"bufferView":0,"byteOffset":7920,"componentType":5123,"count":336,"type":"SCALAR","name":"accessorIndices"},{"bufferView":1,"byteOffset":20592,"componentType":5126,"count":83,"max":[-0.0174089652,1.21126759,-148.206818],"min":[-1.99185991,-0.7631837,-150.181244],"type":"VEC3","name":"accessorPositions"},{"bufferView":1,"byteOffset":21588,"componentType":5126,"count":83,"type":"VEC3","name":"accessorNormals"},{"bufferView":2,"byteOffset":13728,"componentType":5126,"count":83,"type":"VEC4","name":"accessorTangents"},{"bufferView":3,"byteOffset":6864,"componentType":5126,"count":83,"type":"VEC2","name":"accessorUVs"},{"bufferView":4,"componentType":5126,"count":2,"max":[8.291667],"min":[0.0],"type":"SCALAR","name":"accessorAnimationInput"},{"bufferView":5,"componentType":5126,"count":2,"type":"VEC3","name":"accessorAnimationPositions"}],"bufferViews":[{"buffer":0,"byteLength":8592,"name":"bufferViewScalar"},{"buffer":0,"byteOffset":8592,"byteLength":22584,"byteStride":12,"name":"bufferViewFloatVec3"},{"buffer":0,"byteOffset":31176,"byteLength":15056,"byteStride":16,"name":"bufferViewFloatVec4"},{"buffer":0,"byteOffset":46232,"byteLength":7528,"byteStride":8,"name":"bufferViewFloatVec2"},{"buffer":0,"byteOffset":53760,"byteLength":8,"name":"bufferViewAnimationFloatScalar"},{"buffer":0,"byteOffset":53768,"byteLength":24,"name":"bufferViewAnimationFloatVec3"}],"buffers":[{"uri":"He_Orbital.bin","byteLength":53792}],"materials":[{"pbrMetallicRoughness":{"baseColorFactor":[1.0,1.0,1.0,1.0],"baseColorTexture":{"index":0,"texCoord":0},"metallicFactor":0.0,"roughnessFactor":0.3207082},"emissiveFactor":[0.0,0.0,0.0],"alphaMode":"BLEND","name":"C_jj_Model_Orbital_2s_Diffuse"},{"pbrMetallicRoughness":{"baseColorFactor":[1.0,1.0,1.0,1.0],"baseColorTexture":{"index":1,"texCoord":0},"metallicFactor":0.0,"roughnessFactor":0.3207082},"emissiveFactor":[0.0,0.0,0.0],"alphaMode":"BLEND","name":"Orbital_1s_Diffuse"},{"pbrMetallicRoughness":{"baseColorFactor":[1.0,1.0,1.0,1.0],"baseColorTexture":{"index":2,"texCoord":0},"metallicFactor":0.0,"roughnessFactor":0.3207082},"emissiveFactor":[0.0,0.0,0.0],"alphaMode":"OPAQUE","name":"Nutron_Diffuse"},{"pbrMetallicRoughness":{"baseColorFactor":[1.0,1.0,1.0,1.0],"baseColorTexture":{"index":3,"texCoord":0},"metallicFactor":0.0,"roughnessFactor":0.3207082},"emissiveFactor":[0.0,0.0,0.0],"alphaMode":"OPAQUE","name":"proton_diffuse"}],"textures":[{"sampler":0,"source":0,"name":"C_jj_Model_Orbital_2s_Diffuse_baseColor.png"},{"sampler":1,"source":1,"name":"Orbital_1s_Diffuse_baseColor.png"},{"sampler":2,"source":2,"name":"Nutron_Diffuse_baseColor.jpg"},{"sampler":3,"source":3,"name":"proton_diffuse_baseColor.jpg"}],"images":[{"uri":"C_jj_Model_Orbital_2s_Diffuse_baseColor.png"},{"uri":"Orbital_1s_Diffuse_baseColor.png"},{"uri":"Nutron_Diffuse_baseColor.jpg"},{"uri":"proton_diffuse_baseColor.jpg"}],"samplers":[{"magFilter":9729,"minFilter":9987,"wrapS":10497,"wrapT":10497},{"magFilter":9729,"minFilter":9987,"wrapS":10497,"wrapT":10497},{"magFilter":9729,"minFilter":9987,"wrapS":10497,"wrapT":10497},{"magFilter":9729,"minFilter":9987,"wrapS":10497,"wrapT":10497}],"animations":[{"channels":[{"sampler":0,"target":{"node":1,"path":"translation"}}],"samplers":[{"input":35,"interpolation":"LINEAR","output":36}],"name":"All Animations"}]}