{"asset":{"version":"2.0","generator":"babylon.js glTF exporter for maya 2018 v1.3.0"},"scene":0,"scenes":[{"nodes":[0],"extensions":{}}],"nodes":[{"children":[1],"translation":[0.0,-172.453949,0.0],"rotation":[0.0,0.0,0.0,1.0],"scale":[1.0,1.0,1.0],"name":"Brain_Full"},{"children":[2,3],"translation":[0.0,0.0,0.0],"rotation":[0.0,0.0,0.0,1.0],"scale":[1.0,1.0,1.0],"name":"Parietal_Lobe"},{"mesh":0,"translation":[0.0,0.0,0.0],"rotation":[0.0,0.0,0.0,1.0],"scale":[1.0,1.0,1.0],"name":"Parietal_Lobe_Right"},{"mesh":1,"translation":[0.0,0.0,0.0],"rotation":[0.0,0.0,0.0,1.0],"scale":[1.0,1.0,1.0],"name":"Parietal_Lobe_Left"}],"meshes":[{"primitives":[{"attributes":{"POSITION":1,"NORMAL":2,"TEXCOORD_0":3},"indices":0,"mode":4,"material":0}],"name":"Parietal_Lobe_Right"},{"primitives":[{"attributes":{"POSITION":5,"NORMAL":6,"TEXCOORD_0":7},"indices":4,"mode":4,"material":0}],"name":"Parietal_Lobe_Left"}],"accessors":[{"bufferView":0,"componentType":5123,"count":11712,"type":"SCALAR","name":"accessorIndices"},{"bufferView":1,"componentType":5126,"count":2101,"max":[0.503549755,178.593475,2.805985],"min":[-6.23635864,171.875458,-4.579551],"type":"VEC3","name":"accessorPositions"},{"bufferView":1,"byteOffset":25212,"componentType":5126,"count":2101,"type":"VEC3","name":"accessorNormals"},{"bufferView":2,"componentType":5126,"count":2101,"type":"VEC2","name":"accessorUVs"},{"bufferView":0,"byteOffset":23424,"componentType":5123,"count":11847,"type":"SCALAR","name":"accessorIndices"},{"bufferView":1,"byteOffset":50424,"componentType":5126,"count":2134,"max":[6.29695845,178.593338,2.81010818],"min":[-0.442946047,171.875336,-4.57974768],"type":"VEC3","name":"accessorPositions"},{"bufferView":1,"byteOffset":76032,"componentType":5126,"count":2134,"type":"VEC3","name":"accessorNormals"},{"bufferView":2,"byteOffset":16808,"componentType":5126,"count":2134,"type":"VEC2","name":"accessorUVs"}],"bufferViews":[{"buffer":0,"byteLength":47120,"name":"bufferViewScalar"},{"buffer":0,"byteOffset":47120,"byteLength":101640,"byteStride":12,"name":"bufferViewFloatVec3"},{"buffer":0,"byteOffset":148760,"byteLength":33880,"byteStride":8,"name":"bufferViewFloatVec2"}],"buffers":[{"uri":"Parietal_Lobe.bin","byteLength":182640}],"materials":[{"pbrMetallicRoughness":{"baseColorFactor":[1.0,1.0,1.0,1.0],"baseColorTexture":{"index":0,"texCoord":0},"metallicFactor":1.0,"roughnessFactor":1.0,"metallicRoughnessTexture":{"index":1,"texCoord":0}},"emissiveFactor":[0.0,0.0,0.0],"alphaMode":"OPAQUE","name":"Full_Brain_Mat"}],"textures":[{"sampler":0,"source":0,"name":"Full_Brain_Mat_baseColor.jpg"},{"sampler":1,"source":1,"name":"Full_Brain_Mat_metallicRoughness.jpg"}],"images":[{"uri":"Full_Brain_Mat_baseColor.jpg"},{"uri":"Full_Brain_Mat_metallicRoughness.jpg"}],"samplers":[{"magFilter":9729,"minFilter":9987,"wrapS":10497,"wrapT":10497},{"magFilter":9729,"minFilter":9987,"wrapS":10497,"wrapT":10497}]}