{"asset":{"version":"2.0","generator":"babylon.js glTF exporter for maya 2018 v1.3.0"},"scene":0,"scenes":[{"nodes":[0],"extensions":{}}],"nodes":[{"children":[1],"translation":[0.0,0.0,0.0],"rotation":[0.0,0.0,0.0,1.0],"scale":[1.0,1.0,1.0],"name":"Colider"},{"mesh":0,"translation":[0.0,0.0,0.0],"rotation":[0.0,0.0,0.0,1.0],"scale":[1.0,1.0,1.0],"name":"Green"}],"meshes":[{"primitives":[{"attributes":{"POSITION":1,"NORMAL":2,"TANGENT":3,"TEXCOORD_0":4},"indices":0,"mode":4,"material":0}],"name":"Green"}],"accessors":[{"bufferView":0,"componentType":5123,"count":1026,"type":"SCALAR","name":"accessorIndices"},{"bufferView":1,"componentType":5126,"count":189,"max":[-1.52862549,0.231477454,0.702695847],"min":[-3.29542065,0.08942825,-0.702695847],"type":"VEC3","name":"accessorPositions"},{"bufferView":1,"byteOffset":2268,"componentType":5126,"count":189,"type":"VEC3","name":"accessorNormals"},{"bufferView":2,"componentType":5126,"count":189,"type":"VEC4","name":"accessorTangents"},{"bufferView":3,"componentType":5126,"count":189,"type":"VEC2","name":"accessorUVs"}],"bufferViews":[{"buffer":0,"byteLength":2052,"name":"bufferViewScalar"},{"buffer":0,"byteOffset":2052,"byteLength":4536,"byteStride":12,"name":"bufferViewFloatVec3"},{"buffer":0,"byteOffset":6588,"byteLength":3024,"byteStride":16,"name":"bufferViewFloatVec4"},{"buffer":0,"byteOffset":9612,"byteLength":1512,"byteStride":8,"name":"bufferViewFloatVec2"}],"buffers":[{"uri":"Green.bin","byteLength":11124}],"materials":[{"pbrMetallicRoughness":{"baseColorFactor":[0.25,0.25,0.25,1.0],"metallicFactor":0.0,"roughnessFactor":0.3207082},"emissiveFactor":[0.0,0.0,0.0],"alphaMode":"OPAQUE","name":"blinn1"}]}