{"asset":{"version":"2.0","generator":"babylon.js glTF exporter for maya 2018 v1.3.0"},"scene":0,"scenes":[{"nodes":[0],"extensions":{}}],"nodes":[{"children":[1],"translation":[-0.09223032,-1.049655,-0.516854346],"rotation":[-0.707106769,0.0,0.0,0.707106769],"scale":[2.54,2.54,2.54],"name":"Cherry_Flower_Cut_Section"},{"mesh":0,"translation":[0.0,0.0,0.0],"rotation":[0.0,0.0,0.0,1.0],"scale":[1.0,1.0,1.0],"name":"Main_Filament"}],"meshes":[{"primitives":[{"attributes":{"POSITION":1,"NORMAL":2,"TANGENT":3,"TEXCOORD_0":4},"indices":0,"mode":4,"material":0},{"attributes":{"POSITION":6,"NORMAL":7,"TANGENT":8,"TEXCOORD_0":9},"indices":5,"mode":4,"material":1}],"name":"Main_Filament"}],"accessors":[{"bufferView":0,"componentType":5123,"count":225,"type":"SCALAR","name":"accessorIndices"},{"bufferView":1,"componentType":5126,"count":54,"max":[0.350828469,-0.460501671,5.462411],"min":[-0.318542778,-1.24542928,2.30993176],"type":"VEC3","name":"accessorPositions"},{"bufferView":1,"byteOffset":648,"componentType":5126,"count":54,"type":"VEC3","name":"accessorNormals"},{"bufferView":2,"componentType":5126,"count":54,"type":"VEC4","name":"accessorTangents"},{"bufferView":3,"componentType":5126,"count":54,"type":"VEC2","name":"accessorUVs"},{"bufferView":0,"byteOffset":452,"componentType":5123,"count":744,"type":"SCALAR","name":"accessorIndices"},{"bufferView":1,"byteOffset":1296,"componentType":5126,"count":174,"max":[0.346046567,-0.494897842,5.719305],"min":[0.09299098,-0.6707592,5.18796825],"type":"VEC3","name":"accessorPositions"},{"bufferView":1,"byteOffset":3384,"componentType":5126,"count":174,"type":"VEC3","name":"accessorNormals"},{"bufferView":2,"byteOffset":864,"componentType":5126,"count":174,"type":"VEC4","name":"accessorTangents"},{"bufferView":3,"byteOffset":432,"componentType":5126,"count":174,"type":"VEC2","name":"accessorUVs"}],"bufferViews":[{"buffer":0,"byteLength":1940,"name":"bufferViewScalar"},{"buffer":0,"byteOffset":1940,"byteLength":5472,"byteStride":12,"name":"bufferViewFloatVec3"},{"buffer":0,"byteOffset":7412,"byteLength":3648,"byteStride":16,"name":"bufferViewFloatVec4"},{"buffer":0,"byteOffset":11060,"byteLength":1824,"byteStride":8,"name":"bufferViewFloatVec2"}],"buffers":[{"uri":"Main_Filament.bin","byteLength":12884}],"materials":[{"pbrMetallicRoughness":{"baseColorFactor":[1.0,1.0,1.0,1.0],"baseColorTexture":{"index":0,"texCoord":0},"metallicFactor":0.0,"roughnessFactor":0.3207082},"emissiveFactor":[0.0,0.0,0.0],"alphaMode":"OPAQUE","name":"Middle_flower"},{"pbrMetallicRoughness":{"baseColorFactor":[1.0,1.0,1.0,1.0],"baseColorTexture":{"index":2,"texCoord":0},"metallicFactor":0.0,"roughnessFactor":0.450053632},"emissiveTexture":{"index":1,"texCoord":0},"emissiveFactor":[1.0,1.0,1.0],"alphaMode":"OPAQUE","name":"Anther"}],"textures":[{"sampler":0,"source":0,"name":"Middle_flower_baseColor.jpg"},{"sampler":1,"source":1,"name":"Anther_emissive.jpg"},{"sampler":2,"source":2,"name":"Anther_baseColor.jpg"}],"images":[{"uri":"Middle_flower_baseColor.jpg"},{"uri":"Anther_emissive.jpg"},{"uri":"Anther_baseColor.jpg"}],"samplers":[{"magFilter":9729,"minFilter":9987,"wrapS":10497,"wrapT":10497},{"magFilter":9729,"minFilter":9987,"wrapS":10497,"wrapT":10497},{"magFilter":9729,"minFilter":9987,"wrapS":10497,"wrapT":10497}]}