{"asset":{"version":"2.0","generator":"babylon.js glTF exporter for maya 2018 v1.3.0"},"scene":0,"scenes":[{"nodes":[0],"extensions":{}}],"nodes":[{"children":[1],"translation":[-2.41292715,0.0,0.0],"rotation":[0.0,0.0,0.0,1.0],"scale":[1.0,1.0,1.0],"name":"Phenol_With_Map"},{"mesh":0,"translation":[0.0,0.0,0.0],"rotation":[0.0,0.0,0.0,1.0],"scale":[1.0,1.0,1.0],"name":"phenol_Map"}],"meshes":[{"primitives":[{"attributes":{"POSITION":1,"NORMAL":2,"TANGENT":3,"TEXCOORD_0":4},"indices":0,"mode":4,"material":0}],"name":"phenol_Map"}],"accessors":[{"bufferView":0,"componentType":5123,"count":2754,"type":"SCALAR","name":"accessorIndices"},{"bufferView":1,"componentType":5126,"count":488,"max":[0.9462405,0.231477454,0.7593497],"min":[-0.9462405,-0.231477454,-0.7593497],"type":"VEC3","name":"accessorPositions"},{"bufferView":1,"byteOffset":5856,"componentType":5126,"count":488,"type":"VEC3","name":"accessorNormals"},{"bufferView":2,"componentType":5126,"count":488,"type":"VEC4","name":"accessorTangents"},{"bufferView":3,"componentType":5126,"count":488,"type":"VEC2","name":"accessorUVs"}],"bufferViews":[{"buffer":0,"byteLength":5508,"name":"bufferViewScalar"},{"buffer":0,"byteOffset":5508,"byteLength":11712,"byteStride":12,"name":"bufferViewFloatVec3"},{"buffer":0,"byteOffset":17220,"byteLength":7808,"byteStride":16,"name":"bufferViewFloatVec4"},{"buffer":0,"byteOffset":25028,"byteLength":3904,"byteStride":8,"name":"bufferViewFloatVec2"}],"buffers":[{"uri":"Map.bin","byteLength":28932}],"materials":[{"pbrMetallicRoughness":{"baseColorFactor":[1.0,1.0,1.0,1.0],"baseColorTexture":{"index":0,"texCoord":0},"metallicFactor":0.0,"roughnessFactor":0.201679826},"emissiveFactor":[0.0,0.0,0.0],"alphaMode":"BLEND","name":"phenol_Map_Diff"}],"textures":[{"sampler":0,"source":0,"name":"phenol_Map_Diff_baseColor.png"}],"images":[{"uri":"phenol_Map_Diff_baseColor.png"}],"samplers":[{"magFilter":9729,"minFilter":9987,"wrapS":10497,"wrapT":10497}]}