{"asset":{"version":"2.0","generator":"babylon.js glTF exporter for maya 2018 v1.3.0"},"scene":0,"scenes":[{"nodes":[0],"extensions":{}}],"nodes":[{"children":[1],"translation":[-0.09223032,-1.049655,-0.516854346],"rotation":[-0.707106769,0.0,0.0,0.707106769],"scale":[2.54,2.54,2.54],"name":"Cherry_Flower_Cut_Section"},{"mesh":0,"translation":[0.0,0.0,0.0],"rotation":[0.0,0.0,0.0,1.0],"scale":[1.0,1.0,1.0],"name":"Filament_01"}],"meshes":[{"primitives":[{"attributes":{"POSITION":1,"NORMAL":2,"TANGENT":3,"TEXCOORD_0":4},"indices":0,"mode":4,"material":0},{"attributes":{"POSITION":6,"NORMAL":7,"TANGENT":8,"TEXCOORD_0":9},"indices":5,"mode":4,"material":1}],"name":"Filament_01"}],"accessors":[{"bufferView":0,"componentType":5123,"count":1995,"type":"SCALAR","name":"accessorIndices"},{"bufferView":1,"componentType":5126,"count":480,"max":[2.275112,-0.2922423,5.671018],"min":[-2.12577653,-2.70449352,2.30993152],"type":"VEC3","name":"accessorPositions"},{"bufferView":1,"byteOffset":5760,"componentType":5126,"count":480,"type":"VEC3","name":"accessorNormals"},{"bufferView":2,"componentType":5126,"count":480,"type":"VEC4","name":"accessorTangents"},{"bufferView":3,"componentType":5126,"count":480,"type":"VEC2","name":"accessorUVs"},{"bufferView":0,"byteOffset":3992,"componentType":5123,"count":6696,"type":"SCALAR","name":"accessorIndices"},{"bufferView":1,"byteOffset":11520,"componentType":5126,"count":4500,"max":[2.39387059,-0.3840866,5.943276],"min":[-2.34345,-2.963831,4.19327641],"type":"VEC3","name":"accessorPositions"},{"bufferView":1,"byteOffset":65520,"componentType":5126,"count":4500,"type":"VEC3","name":"accessorNormals"},{"bufferView":2,"byteOffset":7680,"componentType":5126,"count":4500,"type":"VEC4","name":"accessorTangents"},{"bufferView":3,"byteOffset":3840,"componentType":5126,"count":4500,"type":"VEC2","name":"accessorUVs"}],"bufferViews":[{"buffer":0,"byteLength":17384,"name":"bufferViewScalar"},{"buffer":0,"byteOffset":17384,"byteLength":119520,"byteStride":12,"name":"bufferViewFloatVec3"},{"buffer":0,"byteOffset":136904,"byteLength":79680,"byteStride":16,"name":"bufferViewFloatVec4"},{"buffer":0,"byteOffset":216584,"byteLength":39840,"byteStride":8,"name":"bufferViewFloatVec2"}],"buffers":[{"uri":"Filament_01.bin","byteLength":256424}],"materials":[{"pbrMetallicRoughness":{"baseColorFactor":[1.0,1.0,1.0,1.0],"baseColorTexture":{"index":0,"texCoord":0},"metallicFactor":0.0,"roughnessFactor":0.3207082},"emissiveFactor":[0.0,0.0,0.0],"alphaMode":"OPAQUE","name":"Middle_flower"},{"pbrMetallicRoughness":{"baseColorFactor":[1.0,1.0,1.0,1.0],"baseColorTexture":{"index":2,"texCoord":0},"metallicFactor":0.0,"roughnessFactor":0.450053632},"emissiveTexture":{"index":1,"texCoord":0},"emissiveFactor":[1.0,1.0,1.0],"alphaMode":"OPAQUE","name":"Anther"}],"textures":[{"sampler":0,"source":0,"name":"Middle_flower_baseColor.jpg"},{"sampler":1,"source":1,"name":"Anther_emissive.jpg"},{"sampler":2,"source":2,"name":"Anther_baseColor.jpg"}],"images":[{"uri":"Middle_flower_baseColor.jpg"},{"uri":"Anther_emissive.jpg"},{"uri":"Anther_baseColor.jpg"}],"samplers":[{"magFilter":9729,"minFilter":9987,"wrapS":10497,"wrapT":10497},{"magFilter":9729,"minFilter":9987,"wrapS":10497,"wrapT":10497},{"magFilter":9729,"minFilter":9987,"wrapS":10497,"wrapT":10497}]}