{"asset":{"version":"2.0","generator":"babylon.js glTF exporter for maya 2018 v1.3.0"},"scene":0,"scenes":[{"nodes":[0],"extensions":{}}],"nodes":[{"children":[1],"translation":[0.0,0.0,0.0],"rotation":[0.0,0.0,0.0,1.0],"scale":[1.0,1.0,1.0],"name":"Colider"},{"mesh":0,"translation":[0.0,0.0,0.0],"rotation":[0.0,0.0,0.0,1.0],"scale":[1.0,1.0,1.0],"name":"Blue"}],"meshes":[{"primitives":[{"attributes":{"POSITION":1,"NORMAL":2,"TANGENT":3,"TEXCOORD_0":4},"indices":0,"mode":4,"material":0}],"name":"Blue"}],"accessors":[{"bufferView":0,"componentType":5123,"count":108,"type":"SCALAR","name":"accessorIndices"},{"bufferView":1,"componentType":5126,"count":32,"max":[-2.86524773,0.147776544,0.473248839],"min":[-3.35916758,-0.147776663,0.100934848],"type":"VEC3","name":"accessorPositions"},{"bufferView":1,"byteOffset":384,"componentType":5126,"count":32,"type":"VEC3","name":"accessorNormals"},{"bufferView":2,"componentType":5126,"count":32,"type":"VEC4","name":"accessorTangents"},{"bufferView":3,"componentType":5126,"count":32,"type":"VEC2","name":"accessorUVs"}],"bufferViews":[{"buffer":0,"byteLength":216,"name":"bufferViewScalar"},{"buffer":0,"byteOffset":216,"byteLength":768,"byteStride":12,"name":"bufferViewFloatVec3"},{"buffer":0,"byteOffset":984,"byteLength":512,"byteStride":16,"name":"bufferViewFloatVec4"},{"buffer":0,"byteOffset":1496,"byteLength":256,"byteStride":8,"name":"bufferViewFloatVec2"}],"buffers":[{"uri":"Blue.bin","byteLength":1752}],"materials":[{"pbrMetallicRoughness":{"baseColorFactor":[0.25,0.25,0.25,1.0],"metallicFactor":0.0,"roughnessFactor":0.3207082},"emissiveFactor":[0.0,0.0,0.0],"alphaMode":"OPAQUE","name":"blinn1"}]}