{"asset":{"version":"2.0","generator":"babylon.js glTF exporter for maya 2018 v1.3.0"},"scene":0,"scenes":[{"nodes":[0],"extensions":{}}],"nodes":[{"children":[1],"translation":[0.0,-172.453949,0.0],"rotation":[0.0,0.0,0.0,1.0],"scale":[1.0,1.0,1.0],"name":"Brain_Full"},{"children":[2,3],"translation":[0.0,0.0,0.0],"rotation":[0.0,0.0,0.0,1.0],"scale":[1.0,1.0,1.0],"name":"Occipital_Lob_Grp"},{"mesh":0,"translation":[0.0,0.0,0.0],"rotation":[0.0,0.0,0.0,1.0],"scale":[1.0,1.0,1.0],"name":"Occipital_Lob_Left"},{"mesh":1,"translation":[0.0,0.0,0.0],"rotation":[0.0,0.0,0.0,1.0],"scale":[1.0,1.0,1.0],"name":"Occipital_Lob_Right"}],"meshes":[{"primitives":[{"attributes":{"POSITION":1,"NORMAL":2,"TEXCOORD_0":3},"indices":0,"mode":4,"material":0}],"name":"Occipital_Lob_Left"},{"primitives":[{"attributes":{"POSITION":5,"NORMAL":6,"TEXCOORD_0":7},"indices":4,"mode":4,"material":0}],"name":"Occipital_Lob_Right"}],"accessors":[{"bufferView":0,"componentType":5123,"count":2916,"type":"SCALAR","name":"accessorIndices"},{"bufferView":1,"componentType":5126,"count":527,"max":[4.255277,175.704529,-3.1906004],"min":[0.0183820426,168.252777,-6.06447029],"type":"VEC3","name":"accessorPositions"},{"bufferView":1,"byteOffset":6324,"componentType":5126,"count":527,"type":"VEC3","name":"accessorNormals"},{"bufferView":2,"componentType":5126,"count":527,"type":"VEC2","name":"accessorUVs"},{"bufferView":0,"byteOffset":5832,"componentType":5123,"count":2916,"type":"SCALAR","name":"accessorIndices"},{"bufferView":1,"byteOffset":12648,"componentType":5126,"count":503,"max":[-0.0322381034,175.704544,-3.190602],"min":[-4.269132,168.252777,-6.06447029],"type":"VEC3","name":"accessorPositions"},{"bufferView":1,"byteOffset":18684,"componentType":5126,"count":503,"type":"VEC3","name":"accessorNormals"},{"bufferView":2,"byteOffset":4216,"componentType":5126,"count":503,"type":"VEC2","name":"accessorUVs"}],"bufferViews":[{"buffer":0,"byteLength":11664,"name":"bufferViewScalar"},{"buffer":0,"byteOffset":11664,"byteLength":24720,"byteStride":12,"name":"bufferViewFloatVec3"},{"buffer":0,"byteOffset":36384,"byteLength":8240,"byteStride":8,"name":"bufferViewFloatVec2"}],"buffers":[{"uri":"Occipital_Lob_Trans.bin","byteLength":44624}],"materials":[{"pbrMetallicRoughness":{"baseColorFactor":[0.1995,0.1995,0.5,0.266233742],"metallicFactor":0.0,"roughnessFactor":0.2581639},"emissiveFactor":[0.0,0.0,0.0],"alphaMode":"BLEND","name":"phong1"}]}