{"asset":{"version":"2.0","generator":"babylon.js glTF exporter for maya 2018 v1.3.0"},"scene":0,"scenes":[{"nodes":[0],"extensions":{}}],"nodes":[{"children":[1],"translation":[-10.0377369,0.390613943,-3.29541779],"rotation":[0.0,0.0,0.0,1.0],"scale":[0.4,0.4,0.4],"name":"Level_2_Grp"},{"mesh":0,"translation":[0.0,0.0,0.0],"rotation":[0.0,0.0,0.0,1.0],"scale":[1.0,1.0,1.0],"name":"Lab"}],"meshes":[{"primitives":[{"attributes":{"POSITION":1,"NORMAL":2,"TANGENT":3,"TEXCOORD_0":4},"indices":0,"mode":4,"material":0},{"attributes":{"POSITION":6,"NORMAL":7,"TANGENT":8,"TEXCOORD_0":9},"indices":5,"mode":4,"material":1},{"attributes":{"POSITION":11,"NORMAL":12,"TANGENT":13,"TEXCOORD_0":14},"indices":10,"mode":4,"material":2},{"attributes":{"POSITION":16,"NORMAL":17,"TANGENT":18,"TEXCOORD_0":19},"indices":15,"mode":4,"material":3},{"attributes":{"POSITION":21,"NORMAL":22,"TANGENT":23,"TEXCOORD_0":24},"indices":20,"mode":4,"material":4},{"attributes":{"POSITION":26,"NORMAL":27,"TANGENT":28,"TEXCOORD_0":29},"indices":25,"mode":4,"material":5},{"attributes":{"POSITION":31,"NORMAL":32,"TANGENT":33,"TEXCOORD_0":34},"indices":30,"mode":4,"material":6},{"attributes":{"POSITION":36,"NORMAL":37,"TANGENT":38,"TEXCOORD_0":39},"indices":35,"mode":4,"material":7}],"name":"Lab"}],"accessors":[{"bufferView":0,"componentType":5123,"count":18,"type":"SCALAR","name":"accessorIndices"},{"bufferView":1,"componentType":5126,"count":8,"max":[45.5479164,1.54655838,66.550766],"min":[-51.116127,1.54655838,-30.1133041],"type":"VEC3","name":"accessorPositions"},{"bufferView":1,"byteOffset":96,"componentType":5126,"count":8,"type":"VEC3","name":"accessorNormals"},{"bufferView":2,"componentType":5126,"count":8,"type":"VEC4","name":"accessorTangents"},{"bufferView":3,"componentType":5126,"count":8,"type":"VEC2","name":"accessorUVs"},{"bufferView":0,"byteOffset":36,"componentType":5123,"count":360,"type":"SCALAR","name":"accessorIndices"},{"bufferView":1,"byteOffset":192,"componentType":5126,"count":174,"max":[43.8082161,43.8923874,64.81105],"min":[-49.3764076,-0.7901068,-28.37336],"type":"VEC3","name":"accessorPositions"},{"bufferView":1,"byteOffset":2280,"componentType":5126,"count":174,"type":"VEC3","name":"accessorNormals"},{"bufferView":2,"byteOffset":128,"componentType":5126,"count":174,"type":"VEC4","name":"accessorTangents"},{"bufferView":3,"byteOffset":64,"componentType":5126,"count":174,"type":"VEC2","name":"accessorUVs"},{"bufferView":0,"byteOffset":756,"componentType":5123,"count":1440,"type":"SCALAR","name":"accessorIndices"},{"bufferView":1,"byteOffset":4368,"componentType":5126,"count":527,"max":[45.09434,43.8923874,66.0851746],"min":[-50.5779037,-0.976534843,-29.0593185],"type":"VEC3","name":"accessorPositions"},{"bufferView":1,"byteOffset":10692,"componentType":5126,"count":527,"type":"VEC3","name":"accessorNormals"},{"bufferView":2,"byteOffset":2912,"componentType":5126,"count":527,"type":"VEC4","name":"accessorTangents"},{"bufferView":3,"byteOffset":1456,"componentType":5126,"count":527,"type":"VEC2","name":"accessorUVs"},{"bufferView":0,"byteOffset":3636,"componentType":5123,"count":924,"type":"SCALAR","name":"accessorIndices"},{"bufferView":1,"byteOffset":17016,"componentType":5126,"count":354,"max":[22.633358,46.69828,43.7189331],"min":[-28.2081661,43.22505,-7.17595339],"type":"VEC3","name":"accessorPositions"},{"bufferView":1,"byteOffset":21264,"componentType":5126,"count":354,"type":"VEC3","name":"accessorNormals"},{"bufferView":2,"byteOffset":11344,"componentType":5126,"count":354,"type":"VEC4","name":"accessorTangents"},{"bufferView":3,"byteOffset":5672,"componentType":5126,"count":354,"type":"VEC2","name":"accessorUVs"},{"bufferView":0,"byteOffset":5484,"componentType":5123,"count":60,"type":"SCALAR","name":"accessorIndices"},{"bufferView":1,"byteOffset":25512,"componentType":5126,"count":21,"max":[22.92665,44.9616661,43.9855423],"min":[-28.5014458,44.9616661,-7.442558],"type":"VEC3","name":"accessorPositions"},{"bufferView":1,"byteOffset":25764,"componentType":5126,"count":21,"type":"VEC3","name":"accessorNormals"},{"bufferView":2,"byteOffset":17008,"componentType":5126,"count":21,"type":"VEC4","name":"accessorTangents"},{"bufferView":3,"byteOffset":8504,"componentType":5126,"count":21,"type":"VEC2","name":"accessorUVs"},{"bufferView":0,"byteOffset":5604,"componentType":5123,"count":732,"type":"SCALAR","name":"accessorIndices"},{"bufferView":1,"byteOffset":26016,"componentType":5126,"count":368,"max":[45.0895233,45.7800827,66.08024],"min":[-50.64559,0.6026764,-29.6440182],"type":"VEC3","name":"accessorPositions"},{"bufferView":1,"byteOffset":30432,"componentType":5126,"count":368,"type":"VEC3","name":"accessorNormals"},{"bufferView":2,"byteOffset":17344,"componentType":5126,"count":368,"type":"VEC4","name":"accessorTangents"},{"bufferView":3,"byteOffset":8672,"componentType":5126,"count":368,"type":"VEC2","name":"accessorUVs"},{"bufferView":0,"byteOffset":7068,"componentType":5123,"count":2256,"type":"SCALAR","name":"accessorIndices"},{"bufferView":1,"byteOffset":34848,"componentType":5126,"count":513,"max":[6.77575,13.0438137,-25.0451622],"min":[-9.092279,1.33608425,-30.58625],"type":"VEC3","name":"accessorPositions"},{"bufferView":1,"byteOffset":41004,"componentType":5126,"count":513,"type":"VEC3","name":"accessorNormals"},{"bufferView":2,"byteOffset":23232,"componentType":5126,"count":513,"type":"VEC4","name":"accessorTangents"},{"bufferView":3,"byteOffset":11616,"componentType":5126,"count":513,"type":"VEC2","name":"accessorUVs"},{"bufferView":0,"byteOffset":11580,"componentType":5123,"count":5538,"type":"SCALAR","name":"accessorIndices"},{"bufferView":1,"byteOffset":47160,"componentType":5126,"count":1807,"max":[6.7589426,13.0438137,-23.8011589],"min":[-9.092279,1.33608425,-31.7031364],"type":"VEC3","name":"accessorPositions"},{"bufferView":1,"byteOffset":68844,"componentType":5126,"count":1807,"type":"VEC3","name":"accessorNormals"},{"bufferView":2,"byteOffset":31440,"componentType":5126,"count":1807,"type":"VEC4","name":"accessorTangents"},{"bufferView":3,"byteOffset":15720,"componentType":5126,"count":1807,"type":"VEC2","name":"accessorUVs"}],"bufferViews":[{"buffer":0,"byteLength":22656,"name":"bufferViewScalar"},{"buffer":0,"byteOffset":22656,"byteLength":90528,"byteStride":12,"name":"bufferViewFloatVec3"},{"buffer":0,"byteOffset":113184,"byteLength":60352,"byteStride":16,"name":"bufferViewFloatVec4"},{"buffer":0,"byteOffset":173536,"byteLength":30176,"byteStride":8,"name":"bufferViewFloatVec2"}],"buffers":[{"uri":"BG.bin","byteLength":203712}],"materials":[{"pbrMetallicRoughness":{"baseColorFactor":[0.21625,0.20775,0.5,1.0],"metallicFactor":0.0,"roughnessFactor":0.3207082},"emissiveFactor":[0.0,0.0,0.0],"alphaMode":"OPAQUE","name":"Floor_Ao"},{"pbrMetallicRoughness":{"baseColorFactor":[0.1215,0.0046169986,0.0046169986,1.0],"metallicFactor":0.0,"roughnessFactor":0.3089351},"emissiveFactor":[0.0,0.0,0.0],"alphaMode":"OPAQUE","name":"Pillars_Center_Mtl"},{"pbrMetallicRoughness":{"baseColorFactor":[0.487012982,0.487012982,0.487012982,1.0],"metallicFactor":0.0,"roughnessFactor":0.3207082},"emissiveFactor":[0.0,0.0,0.0],"alphaMode":"OPAQUE","name":"Pillars_Border_Mtl"},{"pbrMetallicRoughness":{"baseColorFactor":[0.0117904432,0.0214633476,0.0399307162,1.0],"metallicFactor":0.0,"roughnessFactor":0.3207082},"emissiveFactor":[0.0,0.0,0.0],"alphaMode":"OPAQUE","name":"Blue_Border_Line"},{"pbrMetallicRoughness":{"baseColorFactor":[0.0691494942,0.07305104,0.0805,0.6178862],"metallicFactor":0.0,"roughnessFactor":0.3207082},"emissiveFactor":[0.0,0.0,0.0],"alphaMode":"BLEND","name":"Chamber_Door_Glass"},{"pbrMetallicRoughness":{"baseColorFactor":[0.0347564928,0.2465,0.2465,0.146341443],"metallicFactor":0.0,"roughnessFactor":0.3207082},"emissiveFactor":[0.0,0.0,0.0],"alphaMode":"BLEND","name":"Lab_Glass"},{"pbrMetallicRoughness":{"baseColorFactor":[0.0348095074,0.08370029,0.0934959352,1.0],"metallicFactor":0.0,"roughnessFactor":0.3207082},"emissiveFactor":[0.0,0.0,0.0],"alphaMode":"OPAQUE","name":"Door_Outer_Boarder_Mt"},{"pbrMetallicRoughness":{"baseColorFactor":[1.0,1.0,1.0,1.0],"baseColorTexture":{"index":0,"texCoord":0},"metallicFactor":0.0,"roughnessFactor":0.222239226},"emissiveFactor":[0.0,0.0,0.0],"alphaMode":"OPAQUE","name":"Door_Grp_Diff1"}],"textures":[{"sampler":0,"source":0,"name":"Door_Grp_Diff1_baseColor.jpg"}],"images":[{"uri":"Door_Grp_Diff1_baseColor.jpg"}],"samplers":[{"magFilter":9729,"minFilter":9987,"wrapS":10497,"wrapT":10497}]}