{"asset":{"version":"2.0","generator":"babylon.js glTF exporter for maya 2018 v1.3.0"},"scene":0,"scenes":[{"nodes":[0],"extensions":{}}],"nodes":[{"mesh":0,"translation":[-6.83695269,-9.536743E-07,1.43051147E-06],"rotation":[0.0,0.0,0.0,1.0],"scale":[1.0,1.0,1.0],"name":"pCylinder1"}],"meshes":[{"primitives":[{"attributes":{"POSITION":1,"NORMAL":2,"TANGENT":3,"TEXCOORD_0":4},"indices":0,"mode":4,"material":0}],"name":"pCylinder1"}],"accessors":[{"bufferView":0,"componentType":5123,"count":480,"type":"SCALAR","name":"accessorIndices"},{"bufferView":1,"componentType":5126,"count":320,"max":[6.83695269,9.668913,9.668913],"min":[6.40882349,-9.668911,-9.668916],"type":"VEC3","name":"accessorPositions"},{"bufferView":1,"byteOffset":3840,"componentType":5126,"count":320,"type":"VEC3","name":"accessorNormals"},{"bufferView":2,"componentType":5126,"count":320,"type":"VEC4","name":"accessorTangents"},{"bufferView":3,"componentType":5126,"count":320,"type":"VEC2","name":"accessorUVs"}],"bufferViews":[{"buffer":0,"byteLength":960,"name":"bufferViewScalar"},{"buffer":0,"byteOffset":960,"byteLength":7680,"byteStride":12,"name":"bufferViewFloatVec3"},{"buffer":0,"byteOffset":8640,"byteLength":5120,"byteStride":16,"name":"bufferViewFloatVec4"},{"buffer":0,"byteOffset":13760,"byteLength":2560,"byteStride":8,"name":"bufferViewFloatVec2"}],"buffers":[{"uri":"circle.bin","byteLength":16320}],"materials":[{"pbrMetallicRoughness":{"baseColorFactor":[0.5,0.0,0.0,0.4935065],"metallicFactor":0.0,"roughnessFactor":0.2581639},"emissiveFactor":[0.0,0.0,0.0],"alphaMode":"BLEND","name":"phong2"}]}