{"asset":{"version":"2.0","generator":"babylon.js glTF exporter for maya 2018 v1.3.0"},"scene":0,"scenes":[{"nodes":[0],"extensions":{}}],"nodes":[{"mesh":0,"translation":[0.0,0.0,0.0],"rotation":[0.0,0.0,0.0,1.0],"scale":[1.0,1.0,1.0],"name":"Hydrochloric_Acid1"}],"meshes":[{"primitives":[{"attributes":{"POSITION":1,"NORMAL":2,"TANGENT":3,"TEXCOORD_0":4},"indices":0,"mode":4,"material":0},{"attributes":{"POSITION":6,"NORMAL":7,"TANGENT":8,"TEXCOORD_0":9},"indices":5,"mode":4,"material":1}],"name":"Hydrochloric_Acid1"}],"accessors":[{"bufferView":0,"componentType":5123,"count":840,"type":"SCALAR","name":"accessorIndices"},{"bufferView":1,"componentType":5126,"count":172,"max":[-7.19708538,0.5122014,1.09977567],"min":[-8.885959,-0.7394227,-0.547224641],"type":"VEC3","name":"accessorPositions"},{"bufferView":1,"byteOffset":2064,"componentType":5126,"count":172,"type":"VEC3","name":"accessorNormals"},{"bufferView":2,"componentType":5126,"count":172,"type":"VEC4","name":"accessorTangents"},{"bufferView":3,"componentType":5126,"count":172,"type":"VEC2","name":"accessorUVs"},{"bufferView":0,"byteOffset":1680,"componentType":5123,"count":540,"type":"SCALAR","name":"accessorIndices"},{"bufferView":1,"byteOffset":4128,"componentType":5126,"count":110,"max":[-6.87684631,0.896560669,0.986280441],"min":[-8.644394,-0.93255043,-0.840167046],"type":"VEC3","name":"accessorPositions"},{"bufferView":1,"byteOffset":5448,"componentType":5126,"count":110,"type":"VEC3","name":"accessorNormals"},{"bufferView":2,"byteOffset":2752,"componentType":5126,"count":110,"type":"VEC4","name":"accessorTangents"},{"bufferView":3,"byteOffset":1376,"componentType":5126,"count":110,"type":"VEC2","name":"accessorUVs"}],"bufferViews":[{"buffer":0,"byteLength":2760,"name":"bufferViewScalar"},{"buffer":0,"byteOffset":2760,"byteLength":6768,"byteStride":12,"name":"bufferViewFloatVec3"},{"buffer":0,"byteOffset":9528,"byteLength":4512,"byteStride":16,"name":"bufferViewFloatVec4"},{"buffer":0,"byteOffset":14040,"byteLength":2256,"byteStride":8,"name":"bufferViewFloatVec2"}],"buffers":[{"uri":"Hydrochloric_Acid.bin","byteLength":16296}],"materials":[{"pbrMetallicRoughness":{"baseColorFactor":[1.0,1.0,1.0,1.0],"baseColorTexture":{"index":1,"texCoord":0},"metallicFactor":0.0,"roughnessFactor":0.3207082},"normalTexture":{"index":0,"texCoord":0},"emissiveFactor":[0.0,0.0,0.0],"alphaMode":"OPAQUE","name":"Methane_H_Atom_Diff"},{"pbrMetallicRoughness":{"baseColorFactor":[1.0,1.0,1.0,1.0],"baseColorTexture":{"index":3,"texCoord":0},"metallicFactor":0.0,"roughnessFactor":0.3207082},"normalTexture":{"index":2,"texCoord":0},"emissiveFactor":[0.0,0.0,0.0],"alphaMode":"OPAQUE","name":"Chlorine_Atom_Diff1"}],"textures":[{"sampler":0,"source":0,"name":"Hydrogen_Atom_Nm.jpg"},{"sampler":1,"source":1,"name":"Methane_H_Atom_Diff_baseColor.jpg"},{"sampler":2,"source":2,"name":"Chlorine_Atom_Nm.jpg"},{"sampler":3,"source":3,"name":"Chlorine_Atom_Diff1_baseColor.jpg"}],"images":[{"uri":"Hydrogen_Atom_Nm.jpg"},{"uri":"Methane_H_Atom_Diff_baseColor.jpg"},{"uri":"Chlorine_Atom_Nm.jpg"},{"uri":"Chlorine_Atom_Diff1_baseColor.jpg"}],"samplers":[{"magFilter":9729,"minFilter":9987,"wrapS":10497,"wrapT":10497},{"magFilter":9729,"minFilter":9987,"wrapS":10497,"wrapT":10497},{"magFilter":9729,"minFilter":9987,"wrapS":10497,"wrapT":10497},{"magFilter":9729,"minFilter":9987,"wrapS":10497,"wrapT":10497}]}