{"asset":{"version":"2.0","generator":"babylon.js glTF exporter for maya 2018 v1.3.0"},"scene":0,"scenes":[{"nodes":[0],"extensions":{}}],"nodes":[{"children":[1,2],"translation":[-5.248275,0.237119392,0.0],"rotation":[0.0,0.0,0.0,1.0],"scale":[1.0,1.0,1.0],"name":"group2"},{"mesh":0,"translation":[0.0,0.0,0.0],"rotation":[0.0,0.0,0.0,1.0],"scale":[1.0,1.0,1.0],"name":"Anti__Node_199"},{"mesh":1,"translation":[0.0,0.0,0.0],"rotation":[0.0,0.0,0.0,1.0],"scale":[1.0,1.0,1.0],"name":"Orbital55"}],"meshes":[{"primitives":[{"attributes":{"POSITION":1,"NORMAL":2,"TANGENT":3,"TEXCOORD_0":4},"indices":0,"mode":4,"material":0}],"name":"Anti__Node_199"},{"primitives":[{"attributes":{"POSITION":6,"NORMAL":7,"TANGENT":8,"TEXCOORD_0":9},"indices":5,"mode":4,"material":1}],"name":"Orbital55"}],"accessors":[{"bufferView":0,"componentType":5123,"count":1440,"type":"SCALAR","name":"accessorIndices"},{"bufferView":1,"componentType":5126,"count":772,"max":[0.35596,0.0303579755,-0.0591131076],"min":[0.274324447,-0.0441803448,-0.1337659],"type":"VEC3","name":"accessorPositions"},{"bufferView":1,"byteOffset":9264,"componentType":5126,"count":772,"type":"VEC3","name":"accessorNormals"},{"bufferView":2,"componentType":5126,"count":772,"type":"VEC4","name":"accessorTangents"},{"bufferView":3,"componentType":5126,"count":772,"type":"VEC2","name":"accessorUVs"},{"bufferView":0,"byteOffset":2880,"componentType":5123,"count":1440,"type":"SCALAR","name":"accessorIndices"},{"bufferView":1,"byteOffset":18528,"componentType":5126,"count":771,"max":[0.46084246,0.100374192,0.0100394264],"min":[0.335062146,-0.108961463,-0.201816946],"type":"VEC3","name":"accessorPositions"},{"bufferView":1,"byteOffset":27780,"componentType":5126,"count":771,"type":"VEC3","name":"accessorNormals"},{"bufferView":2,"byteOffset":12352,"componentType":5126,"count":771,"type":"VEC4","name":"accessorTangents"},{"bufferView":3,"byteOffset":6176,"componentType":5126,"count":771,"type":"VEC2","name":"accessorUVs"}],"bufferViews":[{"buffer":0,"byteLength":5760,"name":"bufferViewScalar"},{"buffer":0,"byteOffset":5760,"byteLength":37032,"byteStride":12,"name":"bufferViewFloatVec3"},{"buffer":0,"byteOffset":42792,"byteLength":24688,"byteStride":16,"name":"bufferViewFloatVec4"},{"buffer":0,"byteOffset":67480,"byteLength":12344,"byteStride":8,"name":"bufferViewFloatVec2"}],"buffers":[{"uri":"Pie_01.bin","byteLength":79824}],"materials":[{"pbrMetallicRoughness":{"baseColorFactor":[1.0,1.0,1.0,1.0],"baseColorTexture":{"index":1,"texCoord":0},"metallicFactor":0.0,"roughnessFactor":0.3207082},"emissiveTexture":{"index":0,"texCoord":0},"emissiveFactor":[1.0,1.0,1.0],"alphaMode":"OPAQUE","name":"Proton_diffuse"},{"pbrMetallicRoughness":{"baseColorFactor":[0.0931,0.2313,0.17745,0.447154462],"metallicFactor":0.0,"roughnessFactor":0.450053632},"emissiveFactor":[0.0,0.0,0.0],"alphaMode":"BLEND","name":"Orbital_1S_Mat"}],"textures":[{"sampler":0,"source":0,"name":"Proton_diffuse_emissive.jpg"},{"sampler":1,"source":1,"name":"Proton_diffuse_baseColor.jpg"}],"images":[{"uri":"Proton_diffuse_emissive.jpg"},{"uri":"Proton_diffuse_baseColor.jpg"}],"samplers":[{"magFilter":9729,"minFilter":9987,"wrapS":10497,"wrapT":10497},{"magFilter":9729,"minFilter":9987,"wrapS":10497,"wrapT":10497}]}