{"asset":{"version":"2.0","generator":"babylon.js glTF exporter for maya 2018 v1.3.0"},"scene":0,"scenes":[{"nodes":[0],"extensions":{}}],"nodes":[{"children":[1,2,3,4,5,6,7,8,9,10],"translation":[-0.09223032,-1.049655,-0.516854346],"rotation":[-0.707106769,0.0,0.0,0.707106769],"scale":[2.54,2.54,2.54],"name":"Cherry_Flower_Cut_Section"},{"mesh":0,"translation":[0.0,0.0,0.0],"rotation":[0.0,0.0,0.0,1.0],"scale":[1.0,1.0,1.0],"name":"Main_Filament"},{"mesh":1,"translation":[0.0,0.0,0.0],"rotation":[0.0,0.0,0.0,1.0],"scale":[1.0,1.0,1.0],"name":"Petal_02"},{"mesh":2,"translation":[0.0,0.0,0.0],"rotation":[0.0,0.0,0.0,1.0],"scale":[1.0,1.0,1.0],"name":"Petal_01"},{"mesh":3,"translation":[0.0,0.0,0.0],"rotation":[0.0,0.0,0.0,1.0],"scale":[1.0,1.0,1.0],"name":"Ovule"},{"mesh":4,"translation":[0.0,0.0,0.0],"rotation":[0.0,0.0,0.0,1.0],"scale":[1.0,1.0,1.0],"name":"StyleFBXASC032HalfFBXASC0322"},{"mesh":5,"translation":[0.0,0.0,0.0],"rotation":[0.0,0.0,0.0,1.0],"scale":[1.0,1.0,1.0],"name":"Filament_01"},{"mesh":6,"translation":[0.0,0.0,0.0],"rotation":[0.0,0.0,0.0,1.0],"scale":[1.0,1.0,1.0],"name":"Sepal_02"},{"mesh":7,"translation":[0.0,0.0,0.0],"rotation":[0.0,0.0,0.0,1.0],"scale":[1.0,1.0,1.0],"name":"Sepal_01"},{"mesh":8,"translation":[0.0,0.0,0.0],"rotation":[0.0,0.0,0.0,1.0],"scale":[1.0,1.0,1.0],"name":"Style"},{"mesh":9,"translation":[0.0,0.0,0.0],"rotation":[0.0,0.0,0.0,1.0],"scale":[1.0,1.0,1.0],"name":"Filament_02"}],"meshes":[{"primitives":[{"attributes":{"POSITION":1,"NORMAL":2,"TANGENT":3,"TEXCOORD_0":4},"indices":0,"mode":4,"material":0},{"attributes":{"POSITION":6,"NORMAL":7,"TANGENT":8,"TEXCOORD_0":9},"indices":5,"mode":4,"material":1}],"name":"Main_Filament"},{"primitives":[{"attributes":{"POSITION":11,"NORMAL":12,"TANGENT":13,"TEXCOORD_0":14,"TEXCOORD_1":15},"indices":10,"mode":4,"material":2}],"name":"Petal_02"},{"primitives":[{"attributes":{"POSITION":17,"NORMAL":18,"TANGENT":19,"TEXCOORD_0":20},"indices":16,"mode":4,"material":2}],"name":"Petal_01"},{"primitives":[{"attributes":{"POSITION":22,"NORMAL":23,"TANGENT":24,"TEXCOORD_0":25},"indices":21,"mode":4,"material":3}],"name":"Ovule"},{"primitives":[{"attributes":{"POSITION":27,"NORMAL":28,"TANGENT":29,"TEXCOORD_0":30},"indices":26,"mode":4,"material":3}],"name":"StyleFBXASC032HalfFBXASC0322"},{"primitives":[{"attributes":{"POSITION":32,"NORMAL":33,"TANGENT":34,"TEXCOORD_0":35},"indices":31,"mode":4,"material":0},{"attributes":{"POSITION":37,"NORMAL":38,"TANGENT":39,"TEXCOORD_0":40},"indices":36,"mode":4,"material":1}],"name":"Filament_01"},{"primitives":[{"attributes":{"POSITION":42,"NORMAL":43,"TANGENT":44,"TEXCOORD_0":45},"indices":41,"mode":4,"material":4}],"name":"Sepal_02"},{"primitives":[{"attributes":{"POSITION":47,"NORMAL":48,"TANGENT":49,"TEXCOORD_0":50},"indices":46,"mode":4,"material":4}],"name":"Sepal_01"},{"primitives":[{"attributes":{"POSITION":52,"NORMAL":53,"TANGENT":54,"TEXCOORD_0":55},"indices":51,"mode":4,"material":3}],"name":"Style"},{"primitives":[{"attributes":{"POSITION":57,"NORMAL":58,"TANGENT":59,"TEXCOORD_0":60},"indices":56,"mode":4,"material":0},{"attributes":{"POSITION":62,"NORMAL":63,"TANGENT":64,"TEXCOORD_0":65},"indices":61,"mode":4,"material":1}],"name":"Filament_02"}],"accessors":[{"bufferView":0,"componentType":5123,"count":225,"type":"SCALAR","name":"accessorIndices"},{"bufferView":1,"componentType":5126,"count":54,"max":[0.350828469,-0.460501671,5.462411],"min":[-0.318542778,-1.24542928,2.30993176],"type":"VEC3","name":"accessorPositions"},{"bufferView":1,"byteOffset":648,"componentType":5126,"count":54,"type":"VEC3","name":"accessorNormals"},{"bufferView":2,"componentType":5126,"count":54,"type":"VEC4","name":"accessorTangents"},{"bufferView":3,"componentType":5126,"count":54,"type":"VEC2","name":"accessorUVs"},{"bufferView":0,"byteOffset":452,"componentType":5123,"count":744,"type":"SCALAR","name":"accessorIndices"},{"bufferView":1,"byteOffset":1296,"componentType":5126,"count":174,"max":[0.346046567,-0.494897842,5.719305],"min":[0.09299098,-0.6707592,5.18796825],"type":"VEC3","name":"accessorPositions"},{"bufferView":1,"byteOffset":3384,"componentType":5126,"count":174,"type":"VEC3","name":"accessorNormals"},{"bufferView":2,"byteOffset":864,"componentType":5126,"count":174,"type":"VEC4","name":"accessorTangents"},{"bufferView":3,"byteOffset":432,"componentType":5126,"count":174,"type":"VEC2","name":"accessorUVs"},{"bufferView":0,"byteOffset":1940,"componentType":5123,"count":2880,"type":"SCALAR","name":"accessorIndices"},{"bufferView":1,"byteOffset":5472,"componentType":5126,"count":708,"max":[6.740863,5.75748825,8.073304],"min":[-6.740864,-1.47163677,2.77929735],"type":"VEC3","name":"accessorPositions"},{"bufferView":1,"byteOffset":13968,"componentType":5126,"count":708,"type":"VEC3","name":"accessorNormals"},{"bufferView":2,"byteOffset":3648,"componentType":5126,"count":708,"type":"VEC4","name":"accessorTangents"},{"bufferView":3,"byteOffset":1824,"componentType":5126,"count":708,"type":"VEC2","name":"accessorUVs"},{"bufferView":3,"byteOffset":7488,"componentType":5126,"count":708,"type":"VEC2","name":"accessorUV2s"},{"bufferView":0,"byteOffset":7700,"componentType":5123,"count":1788,"type":"SCALAR","name":"accessorIndices"},{"bufferView":1,"byteOffset":22464,"componentType":5126,"count":486,"max":[5.40347576,-0.699484348,7.51463],"min":[-4.974214,-5.7574873,2.74379635],"type":"VEC3","name":"accessorPositions"},{"bufferView":1,"byteOffset":28296,"componentType":5126,"count":486,"type":"VEC3","name":"accessorNormals"},{"bufferView":2,"byteOffset":14976,"componentType":5126,"count":486,"type":"VEC4","name":"accessorTangents"},{"bufferView":3,"byteOffset":13152,"componentType":5126,"count":486,"type":"VEC2","name":"accessorUVs"},{"bufferView":0,"byteOffset":11276,"componentType":5123,"count":258,"type":"SCALAR","name":"accessorIndices"},{"bufferView":1,"byteOffset":34128,"componentType":5126,"count":81,"max":[0.220654041,-0.168489963,0.658914566],"min":[-0.0359638929,-0.2783817,0.31230256],"type":"VEC3","name":"accessorPositions"},{"bufferView":1,"byteOffset":35100,"componentType":5126,"count":81,"type":"VEC3","name":"accessorNormals"},{"bufferView":2,"byteOffset":22752,"componentType":5126,"count":81,"type":"VEC4","name":"accessorTangents"},{"bufferView":3,"byteOffset":17040,"componentType":5126,"count":81,"type":"VEC2","name":"accessorUVs"},{"bufferView":0,"byteOffset":11792,"componentType":5123,"count":204,"type":"SCALAR","name":"accessorIndices"},{"bufferView":1,"byteOffset":36072,"componentType":5126,"count":45,"max":[0.531227052,-0.278226733,1.24614739],"min":[-0.3636678,-0.5935958,-0.034984827],"type":"VEC3","name":"accessorPositions"},{"bufferView":1,"byteOffset":36612,"componentType":5126,"count":45,"type":"VEC3","name":"accessorNormals"},{"bufferView":2,"byteOffset":24048,"componentType":5126,"count":45,"type":"VEC4","name":"accessorTangents"},{"bufferView":3,"byteOffset":17688,"componentType":5126,"count":45,"type":"VEC2","name":"accessorUVs"},{"bufferView":0,"byteOffset":12200,"componentType":5123,"count":1995,"type":"SCALAR","name":"accessorIndices"},{"bufferView":1,"byteOffset":37152,"componentType":5126,"count":480,"max":[2.275112,-0.2922423,5.671018],"min":[-2.12577653,-2.70449352,2.30993152],"type":"VEC3","name":"accessorPositions"},{"bufferView":1,"byteOffset":42912,"componentType":5126,"count":480,"type":"VEC3","name":"accessorNormals"},{"bufferView":2,"byteOffset":24768,"componentType":5126,"count":480,"type":"VEC4","name":"accessorTangents"},{"bufferView":3,"byteOffset":18048,"componentType":5126,"count":480,"type":"VEC2","name":"accessorUVs"},{"bufferView":0,"byteOffset":16192,"componentType":5123,"count":6696,"type":"SCALAR","name":"accessorIndices"},{"bufferView":1,"byteOffset":48672,"componentType":5126,"count":4500,"max":[2.39387059,-0.3840866,5.943276],"min":[-2.34345,-2.963831,4.19327641],"type":"VEC3","name":"accessorPositions"},{"bufferView":1,"byteOffset":102672,"componentType":5126,"count":4500,"type":"VEC3","name":"accessorNormals"},{"bufferView":2,"byteOffset":32448,"componentType":5126,"count":4500,"type":"VEC4","name":"accessorTangents"},{"bufferView":3,"byteOffset":21888,"componentType":5126,"count":4500,"type":"VEC2","name":"accessorUVs"},{"bufferView":0,"byteOffset":29584,"componentType":5123,"count":3150,"type":"SCALAR","name":"accessorIndices"},{"bufferView":1,"byteOffset":156672,"componentType":5126,"count":758,"max":[2.0018692,2.37823486,3.03243256],"min":[-2.007576,-0.283802032,-8.073303],"type":"VEC3","name":"accessorPositions"},{"bufferView":1,"byteOffset":165768,"componentType":5126,"count":758,"type":"VEC3","name":"accessorNormals"},{"bufferView":2,"byteOffset":104448,"componentType":5126,"count":758,"type":"VEC4","name":"accessorTangents"},{"bufferView":3,"byteOffset":57888,"componentType":5126,"count":758,"type":"VEC2","name":"accessorUVs"},{"bufferView":0,"byteOffset":35884,"componentType":5123,"count":1608,"type":"SCALAR","name":"accessorIndices"},{"bufferView":1,"byteOffset":174864,"componentType":5126,"count":450,"max":[2.05764,-0.278745651,3.03282928],"min":[-1.97197723,-2.03601646,-2.612256],"type":"VEC3","name":"accessorPositions"},{"bufferView":1,"byteOffset":180264,"componentType":5126,"count":450,"type":"VEC3","name":"accessorNormals"},{"bufferView":2,"byteOffset":116576,"componentType":5126,"count":450,"type":"VEC4","name":"accessorTangents"},{"bufferView":3,"byteOffset":63952,"componentType":5126,"count":450,"type":"VEC2","name":"accessorUVs"},{"bufferView":0,"byteOffset":39100,"componentType":5123,"count":2910,"type":"SCALAR","name":"accessorIndices"},{"bufferView":1,"byteOffset":185664,"componentType":5126,"count":649,"max":[0.6034148,0.361312956,5.382514],"min":[-0.4199444,-0.31401062,-0.0362980962],"type":"VEC3","name":"accessorPositions"},{"bufferView":1,"byteOffset":193452,"componentType":5126,"count":649,"type":"VEC3","name":"accessorNormals"},{"bufferView":2,"byteOffset":123776,"componentType":5126,"count":649,"type":"VEC4","name":"accessorTangents"},{"bufferView":3,"byteOffset":67552,"componentType":5126,"count":649,"type":"VEC2","name":"accessorUVs"},{"bufferView":0,"byteOffset":44920,"componentType":5123,"count":3210,"type":"SCALAR","name":"accessorIndices"},{"bufferView":1,"byteOffset":201240,"componentType":5126,"count":768,"max":[2.70896149,2.58991742,5.906622],"min":[-2.332421,-0.70552063,2.194627],"type":"VEC3","name":"accessorPositions"},{"bufferView":1,"byteOffset":210456,"componentType":5126,"count":768,"type":"VEC3","name":"accessorNormals"},{"bufferView":2,"byteOffset":134160,"componentType":5126,"count":768,"type":"VEC4","name":"accessorTangents"},{"bufferView":3,"byteOffset":72744,"componentType":5126,"count":768,"type":"VEC2","name":"accessorUVs"},{"bufferView":0,"byteOffset":51340,"componentType":5123,"count":10416,"type":"SCALAR","name":"accessorIndices"},{"bufferView":1,"byteOffset":219672,"componentType":5126,"count":2436,"max":[2.84001827,2.830142,6.16514254],"min":[-2.60168028,-0.744102955,4.50531244],"type":"VEC3","name":"accessorPositions"},{"bufferView":1,"byteOffset":248904,"componentType":5126,"count":2436,"type":"VEC3","name":"accessorNormals"},{"bufferView":2,"byteOffset":146448,"componentType":5126,"count":2436,"type":"VEC4","name":"accessorTangents"},{"bufferView":3,"byteOffset":78888,"componentType":5126,"count":2436,"type":"VEC2","name":"accessorUVs"}],"bufferViews":[{"buffer":0,"byteLength":72172,"name":"bufferViewScalar"},{"buffer":0,"byteOffset":72172,"byteLength":278136,"byteStride":12,"name":"bufferViewFloatVec3"},{"buffer":0,"byteOffset":350308,"byteLength":185424,"byteStride":16,"name":"bufferViewFloatVec4"},{"buffer":0,"byteOffset":535732,"byteLength":98376,"byteStride":8,"name":"bufferViewFloatVec2"}],"buffers":[{"uri":"flower.bin","byteLength":634108}],"materials":[{"pbrMetallicRoughness":{"baseColorFactor":[1.0,1.0,1.0,1.0],"baseColorTexture":{"index":0,"texCoord":0},"metallicFactor":0.0,"roughnessFactor":0.3207082},"emissiveFactor":[0.0,0.0,0.0],"alphaMode":"OPAQUE","name":"Middle_flower"},{"pbrMetallicRoughness":{"baseColorFactor":[1.0,1.0,1.0,1.0],"baseColorTexture":{"index":2,"texCoord":0},"metallicFactor":0.0,"roughnessFactor":0.450053632},"emissiveTexture":{"index":1,"texCoord":0},"emissiveFactor":[1.0,1.0,1.0],"alphaMode":"OPAQUE","name":"Anther"},{"pbrMetallicRoughness":{"baseColorFactor":[1.0,1.0,1.0,1.0],"baseColorTexture":{"index":4,"texCoord":0},"metallicFactor":0.0,"roughnessFactor":0.450053632},"emissiveTexture":{"index":3,"texCoord":0},"emissiveFactor":[1.0,1.0,1.0],"alphaMode":"OPAQUE","name":"Patels"},{"pbrMetallicRoughness":{"baseColorFactor":[1.0,1.0,1.0,1.0],"baseColorTexture":{"index":5,"texCoord":0},"metallicFactor":0.0,"roughnessFactor":0.3207082},"emissiveFactor":[0.0,0.0,0.0],"alphaMode":"OPAQUE","name":"FlowerInnerPartCutSection"},{"pbrMetallicRoughness":{"baseColorFactor":[1.0,1.0,1.0,1.0],"baseColorTexture":{"index":6,"texCoord":0},"metallicFactor":0.0,"roughnessFactor":0.3207082},"emissiveFactor":[0.0,0.0,0.0],"alphaMode":"OPAQUE","name":"Middle_flower_lower"}],"textures":[{"sampler":0,"source":0,"name":"Middle_flower_baseColor.jpg"},{"sampler":1,"source":1,"name":"Anther_emissive.jpg"},{"sampler":2,"source":2,"name":"Anther_baseColor.jpg"},{"sampler":3,"source":3,"name":"Patels_emissive.jpg"},{"sampler":4,"source":4,"name":"Patels_baseColor.jpg"},{"sampler":5,"source":5,"name":"FlowerInnerPartCutSection_baseColor.jpg"},{"sampler":6,"source":6,"name":"Middle_flower_lower_baseColor.jpg"}],"images":[{"uri":"Middle_flower_baseColor.jpg"},{"uri":"Anther_emissive.jpg"},{"uri":"Anther_baseColor.jpg"},{"uri":"Patels_emissive.jpg"},{"uri":"Patels_baseColor.jpg"},{"uri":"FlowerInnerPartCutSection_baseColor.jpg"},{"uri":"Middle_flower_lower_baseColor.jpg"}],"samplers":[{"magFilter":9729,"minFilter":9987,"wrapS":10497,"wrapT":10497},{"magFilter":9729,"minFilter":9987,"wrapS":10497,"wrapT":10497},{"magFilter":9729,"minFilter":9987,"wrapS":10497,"wrapT":10497},{"magFilter":9729,"minFilter":9987,"wrapS":10497,"wrapT":10497},{"magFilter":9729,"minFilter":9987,"wrapS":10497,"wrapT":10497},{"magFilter":9729,"minFilter":9987,"wrapS":10497,"wrapT":10497},{"magFilter":9729,"minFilter":9987,"wrapS":10497,"wrapT":10497}]}