{"asset":{"version":"2.0","generator":"babylon.js glTF exporter for maya 2018 v1.3.0"},"scene":0,"scenes":[{"nodes":[0],"extensions":{}}],"nodes":[{"children":[1],"translation":[0.0,-171.27948,0.0],"rotation":[0.0,0.0,0.0,1.0],"scale":[1.0,1.0,1.0],"name":"Half_Section_Brain"},{"mesh":0,"translation":[0.0,0.0,0.0],"rotation":[0.0,0.0,0.0,1.0],"scale":[1.0,1.0,1.0],"name":"Pituitary_Gland"}],"meshes":[{"primitives":[{"attributes":{"POSITION":1,"NORMAL":2,"TEXCOORD_0":3,"TEXCOORD_1":4},"indices":0,"mode":4,"material":0}],"name":"Pituitary_Gland"}],"accessors":[{"bufferView":0,"componentType":5123,"count":504,"type":"SCALAR","name":"accessorIndices"},{"bufferView":1,"componentType":5126,"count":100,"max":[0.570261359,170.039856,5.117458],"min":[-0.09770144,168.680008,4.397345],"type":"VEC3","name":"accessorPositions"},{"bufferView":1,"byteOffset":1200,"componentType":5126,"count":100,"type":"VEC3","name":"accessorNormals"},{"bufferView":2,"componentType":5126,"count":100,"type":"VEC2","name":"accessorUVs"},{"bufferView":2,"byteOffset":800,"componentType":5126,"count":100,"type":"VEC2","name":"accessorUV2s"}],"bufferViews":[{"buffer":0,"byteLength":1008,"name":"bufferViewScalar"},{"buffer":0,"byteOffset":1008,"byteLength":2400,"byteStride":12,"name":"bufferViewFloatVec3"},{"buffer":0,"byteOffset":3408,"byteLength":1600,"byteStride":8,"name":"bufferViewFloatVec2"}],"buffers":[{"uri":"Pituitary_Gland.bin","byteLength":5008}],"materials":[{"pbrMetallicRoughness":{"baseColorFactor":[1.0,1.0,1.0,1.0],"baseColorTexture":{"index":0,"texCoord":0},"metallicFactor":1.0,"roughnessFactor":1.0,"metallicRoughnessTexture":{"index":1,"texCoord":0}},"emissiveFactor":[0.0,0.0,0.0],"alphaMode":"OPAQUE","name":"Half_Brain_Mat"}],"textures":[{"sampler":0,"source":0,"name":"Half_Brain_Mat_baseColor.jpg"},{"sampler":1,"source":1,"name":"Half_Brain_Mat_metallicRoughness.jpg"}],"images":[{"uri":"Half_Brain_Mat_baseColor.jpg"},{"uri":"Half_Brain_Mat_metallicRoughness.jpg"}],"samplers":[{"magFilter":9729,"minFilter":9987,"wrapS":10497,"wrapT":10497},{"magFilter":9729,"minFilter":9987,"wrapS":10497,"wrapT":10497}]}