{"asset":{"version":"2.0","generator":"babylon.js glTF exporter for maya 2018 v1.3.0"},"scene":0,"scenes":[{"nodes":[0],"extensions":{}}],"nodes":[{"children":[1,2,3,4,5,6,7,8,9,10,11,12,13,14,15,16,17,18,19,20,21,22,23,24],"translation":[-13.0000839,-0.7701859,-0.000183969736],"rotation":[1.0,0.0,0.0,6.123234E-17],"scale":[1.0,1.0,1.0],"name":"Benzene"},{"mesh":0,"translation":[0.0,0.0,0.0],"rotation":[0.0,0.0,0.0,1.0],"scale":[1.0,1.0,1.0],"name":"C_Atom_09"},{"mesh":1,"translation":[0.0,0.0,0.0],"rotation":[0.0,0.0,0.0,1.0],"scale":[1.0,1.0,1.0],"name":"C_Atom_011"},{"mesh":2,"translation":[0.0,0.0,0.0],"rotation":[0.0,0.0,0.0,1.0],"scale":[1.0,1.0,1.0],"name":"C_Atom_010"},{"mesh":3,"translation":[0.0,0.0,0.0],"rotation":[0.0,0.0,0.0,1.0],"scale":[1.0,1.0,1.0],"name":"C_Atom_017"},{"mesh":4,"translation":[0.0,0.0,0.0],"rotation":[0.0,0.0,0.0,1.0],"scale":[1.0,1.0,1.0],"name":"C_Atom_016"},{"mesh":5,"translation":[0.0,0.0,0.0],"rotation":[0.0,0.0,0.0,1.0],"scale":[1.0,1.0,1.0],"name":"C_Atom_015"},{"mesh":6,"translation":[0.0,0.0,0.0],"rotation":[0.0,0.0,0.0,1.0],"scale":[1.0,1.0,1.0],"name":"H_Atom_0118"},{"mesh":7,"translation":[0.0,0.0,0.0],"rotation":[0.0,0.0,0.0,1.0],"scale":[1.0,1.0,1.0],"name":"H_Atom_0115"},{"mesh":8,"translation":[0.0,0.0,0.0],"rotation":[0.0,0.0,0.0,1.0],"scale":[1.0,1.0,1.0],"name":"H_Atom_0113"},{"mesh":9,"translation":[0.0,0.0,0.0],"rotation":[0.0,0.0,0.0,1.0],"scale":[1.0,1.0,1.0],"name":"H_Atom_0116"},{"mesh":10,"translation":[0.0,0.0,0.0],"rotation":[0.0,0.0,0.0,1.0],"scale":[1.0,1.0,1.0],"name":"H_Atom_0119"},{"mesh":11,"translation":[0.0,0.0,0.0],"rotation":[0.0,0.0,0.0,1.0],"scale":[1.0,1.0,1.0],"name":"H_Atom_0117"},{"mesh":12,"translation":[0.0,0.0,0.0],"rotation":[0.0,0.0,0.0,1.0],"scale":[1.0,1.0,1.0],"name":"Single_Bond_032"},{"mesh":13,"translation":[0.0,0.0,0.0],"rotation":[0.0,0.0,0.0,1.0],"scale":[1.0,1.0,1.0],"name":"Single_Bond_035"},{"mesh":14,"translation":[0.0,0.0,0.0],"rotation":[0.0,0.0,0.0,1.0],"scale":[1.0,1.0,1.0],"name":"Single_Bond_031"},{"mesh":15,"translation":[0.0,0.0,0.0],"rotation":[0.0,0.0,0.0,1.0],"scale":[1.0,1.0,1.0],"name":"Single_Bond_030"},{"mesh":16,"translation":[0.0,0.0,0.0],"rotation":[0.0,0.0,0.0,1.0],"scale":[1.0,1.0,1.0],"name":"Single_Bond_034"},{"mesh":17,"translation":[0.0,0.0,0.0],"rotation":[0.0,0.0,0.0,1.0],"scale":[1.0,1.0,1.0],"name":"Single_Bond_025"},{"mesh":18,"translation":[0.0,0.0,0.0],"rotation":[0.0,0.0,0.0,1.0],"scale":[1.0,1.0,1.0],"name":"Single_Bond_020"},{"mesh":19,"translation":[0.0,0.0,0.0],"rotation":[0.0,0.0,0.0,1.0],"scale":[1.0,1.0,1.0],"name":"Single_Bond_019"},{"mesh":20,"translation":[0.0,0.0,0.0],"rotation":[0.0,0.0,0.0,1.0],"scale":[1.0,1.0,1.0],"name":"Single_Bond_021"},{"mesh":21,"translation":[0.0,0.0,0.0],"rotation":[0.0,0.0,0.0,1.0],"scale":[1.0,1.0,1.0],"name":"Single_Bond_026"},{"mesh":22,"translation":[0.0,0.0,0.0],"rotation":[0.0,0.0,0.0,1.0],"scale":[1.0,1.0,1.0],"name":"Single_Bond_033"},{"mesh":23,"translation":[0.0,0.0,0.0],"rotation":[0.0,0.0,0.0,1.0],"scale":[1.0,1.0,1.0],"name":"Single_Bond_029"}],"meshes":[{"primitives":[{"attributes":{"POSITION":1,"NORMAL":2,"TANGENT":3,"TEXCOORD_0":4},"indices":0,"mode":4,"material":0}],"name":"C_Atom_09"},{"primitives":[{"attributes":{"POSITION":6,"NORMAL":7,"TANGENT":8,"TEXCOORD_0":9},"indices":5,"mode":4,"material":0}],"name":"C_Atom_011"},{"primitives":[{"attributes":{"POSITION":11,"NORMAL":12,"TANGENT":13,"TEXCOORD_0":14},"indices":10,"mode":4,"material":0}],"name":"C_Atom_010"},{"primitives":[{"attributes":{"POSITION":16,"NORMAL":17,"TANGENT":18,"TEXCOORD_0":19},"indices":15,"mode":4,"material":0}],"name":"C_Atom_017"},{"primitives":[{"attributes":{"POSITION":21,"NORMAL":22,"TANGENT":23,"TEXCOORD_0":24},"indices":20,"mode":4,"material":0}],"name":"C_Atom_016"},{"primitives":[{"attributes":{"POSITION":26,"NORMAL":27,"TANGENT":28,"TEXCOORD_0":29},"indices":25,"mode":4,"material":0}],"name":"C_Atom_015"},{"primitives":[{"attributes":{"POSITION":31,"NORMAL":32,"TANGENT":33,"TEXCOORD_0":34},"indices":30,"mode":4,"material":0}],"name":"H_Atom_0118"},{"primitives":[{"attributes":{"POSITION":36,"NORMAL":37,"TANGENT":38,"TEXCOORD_0":39},"indices":35,"mode":4,"material":0}],"name":"H_Atom_0115"},{"primitives":[{"attributes":{"POSITION":41,"NORMAL":42,"TANGENT":43,"TEXCOORD_0":44},"indices":40,"mode":4,"material":0}],"name":"H_Atom_0113"},{"primitives":[{"attributes":{"POSITION":46,"NORMAL":47,"TANGENT":48,"TEXCOORD_0":49},"indices":45,"mode":4,"material":0}],"name":"H_Atom_0116"},{"primitives":[{"attributes":{"POSITION":51,"NORMAL":52,"TANGENT":53,"TEXCOORD_0":54},"indices":50,"mode":4,"material":0}],"name":"H_Atom_0119"},{"primitives":[{"attributes":{"POSITION":56,"NORMAL":57,"TANGENT":58,"TEXCOORD_0":59},"indices":55,"mode":4,"material":0}],"name":"H_Atom_0117"},{"primitives":[{"attributes":{"POSITION":61,"NORMAL":62,"TANGENT":63,"TEXCOORD_0":64},"indices":60,"mode":4,"material":0}],"name":"Single_Bond_032"},{"primitives":[{"attributes":{"POSITION":66,"NORMAL":67,"TANGENT":68,"TEXCOORD_0":69},"indices":65,"mode":4,"material":0}],"name":"Single_Bond_035"},{"primitives":[{"attributes":{"POSITION":71,"NORMAL":72,"TANGENT":73,"TEXCOORD_0":74},"indices":70,"mode":4,"material":0}],"name":"Single_Bond_031"},{"primitives":[{"attributes":{"POSITION":76,"NORMAL":77,"TANGENT":78,"TEXCOORD_0":79},"indices":75,"mode":4,"material":0}],"name":"Single_Bond_030"},{"primitives":[{"attributes":{"POSITION":81,"NORMAL":82,"TANGENT":83,"TEXCOORD_0":84},"indices":80,"mode":4,"material":0}],"name":"Single_Bond_034"},{"primitives":[{"attributes":{"POSITION":86,"NORMAL":87,"TANGENT":88,"TEXCOORD_0":89},"indices":85,"mode":4,"material":0}],"name":"Single_Bond_025"},{"primitives":[{"attributes":{"POSITION":91,"NORMAL":92,"TANGENT":93,"TEXCOORD_0":94},"indices":90,"mode":4,"material":0}],"name":"Single_Bond_020"},{"primitives":[{"attributes":{"POSITION":96,"NORMAL":97,"TANGENT":98,"TEXCOORD_0":99},"indices":95,"mode":4,"material":0}],"name":"Single_Bond_019"},{"primitives":[{"attributes":{"POSITION":101,"NORMAL":102,"TANGENT":103,"TEXCOORD_0":104},"indices":100,"mode":4,"material":0}],"name":"Single_Bond_021"},{"primitives":[{"attributes":{"POSITION":106,"NORMAL":107,"TANGENT":108,"TEXCOORD_0":109},"indices":105,"mode":4,"material":0}],"name":"Single_Bond_026"},{"primitives":[{"attributes":{"POSITION":111,"NORMAL":112,"TANGENT":113,"TEXCOORD_0":114},"indices":110,"mode":4,"material":0}],"name":"Single_Bond_033"},{"primitives":[{"attributes":{"POSITION":116,"NORMAL":117,"TANGENT":118,"TEXCOORD_0":119},"indices":115,"mode":4,"material":0}],"name":"Single_Bond_029"}],"accessors":[{"bufferView":0,"componentType":5123,"count":648,"type":"SCALAR","name":"accessorIndices"},{"bufferView":1,"componentType":5126,"count":128,"max":[0.5567074,-0.159671456,0.224202782],"min":[0.110130541,-0.606247962,-0.222369641],"type":"VEC3","name":"accessorPositions"},{"bufferView":1,"byteOffset":1536,"componentType":5126,"count":128,"type":"VEC3","name":"accessorNormals"},{"bufferView":2,"componentType":5126,"count":128,"type":"VEC4","name":"accessorTangents"},{"bufferView":3,"componentType":5126,"count":128,"type":"VEC2","name":"accessorUVs"},{"bufferView":0,"byteOffset":1296,"componentType":5123,"count":648,"type":"SCALAR","name":"accessorIndices"},{"bufferView":1,"byteOffset":3072,"componentType":5126,"count":128,"max":[1.22328854,0.223288268,0.224202782],"min":[0.7767116,-0.223288268,-0.222369641],"type":"VEC3","name":"accessorPositions"},{"bufferView":1,"byteOffset":4608,"componentType":5126,"count":128,"type":"VEC3","name":"accessorNormals"},{"bufferView":2,"byteOffset":2048,"componentType":5126,"count":128,"type":"VEC4","name":"accessorTangents"},{"bufferView":3,"byteOffset":1024,"componentType":5126,"count":128,"type":"VEC2","name":"accessorUVs"},{"bufferView":0,"byteOffset":2592,"componentType":5123,"count":648,"type":"SCALAR","name":"accessorIndices"},{"bufferView":1,"byteOffset":6144,"componentType":5126,"count":128,"max":[1.888232,-0.162508011,0.224202782],"min":[1.441655,-0.6090845,-0.222369641],"type":"VEC3","name":"accessorPositions"},{"bufferView":1,"byteOffset":7680,"componentType":5126,"count":128,"type":"VEC3","name":"accessorNormals"},{"bufferView":2,"byteOffset":4096,"componentType":5126,"count":128,"type":"VEC4","name":"accessorTangents"},{"bufferView":3,"byteOffset":2048,"componentType":5126,"count":128,"type":"VEC2","name":"accessorUVs"},{"bufferView":0,"byteOffset":3888,"componentType":5123,"count":648,"type":"SCALAR","name":"accessorIndices"},{"bufferView":1,"byteOffset":9216,"componentType":5126,"count":128,"max":[1.22328842,-1.31708372,0.222185642],"min":[0.7767116,-1.76366007,-0.224386752],"type":"VEC3","name":"accessorPositions"},{"bufferView":1,"byteOffset":10752,"componentType":5126,"count":128,"type":"VEC3","name":"accessorNormals"},{"bufferView":2,"byteOffset":6144,"componentType":5126,"count":128,"type":"VEC4","name":"accessorTangents"},{"bufferView":3,"byteOffset":3072,"componentType":5126,"count":128,"type":"VEC2","name":"accessorUVs"},{"bufferView":0,"byteOffset":5184,"componentType":5123,"count":648,"type":"SCALAR","name":"accessorIndices"},{"bufferView":1,"byteOffset":12288,"componentType":5126,"count":128,"max":[1.888232,-0.9312874,0.222185642],"min":[1.441655,-1.37786388,-0.224386752],"type":"VEC3","name":"accessorPositions"},{"bufferView":1,"byteOffset":13824,"componentType":5126,"count":128,"type":"VEC3","name":"accessorNormals"},{"bufferView":2,"byteOffset":8192,"componentType":5126,"count":128,"type":"VEC4","name":"accessorTangents"},{"bufferView":3,"byteOffset":4096,"componentType":5126,"count":128,"type":"VEC2","name":"accessorUVs"},{"bufferView":0,"byteOffset":6480,"componentType":5123,"count":648,"type":"SCALAR","name":"accessorIndices"},{"bufferView":1,"byteOffset":15360,"componentType":5126,"count":128,"max":[0.5567074,-0.9341239,0.222185642],"min":[0.110130563,-1.38070047,-0.224386752],"type":"VEC3","name":"accessorPositions"},{"bufferView":1,"byteOffset":16896,"componentType":5126,"count":128,"type":"VEC3","name":"accessorNormals"},{"bufferView":2,"byteOffset":10240,"componentType":5126,"count":128,"type":"VEC4","name":"accessorTangents"},{"bufferView":3,"byteOffset":5120,"componentType":5126,"count":128,"type":"VEC2","name":"accessorUVs"},{"bufferView":0,"byteOffset":7776,"componentType":5123,"count":420,"type":"SCALAR","name":"accessorIndices"},{"bufferView":1,"byteOffset":18432,"componentType":5126,"count":86,"max":[-0.132413477,-1.37760174,0.115711704],"min":[-0.3718977,-1.61629772,-0.115658492],"type":"VEC3","name":"accessorPositions"},{"bufferView":1,"byteOffset":19464,"componentType":5126,"count":86,"type":"VEC3","name":"accessorNormals"},{"bufferView":2,"byteOffset":12288,"componentType":5126,"count":86,"type":"VEC4","name":"accessorTangents"},{"bufferView":3,"byteOffset":6144,"componentType":5126,"count":86,"type":"VEC2","name":"accessorUVs"},{"bufferView":0,"byteOffset":8616,"componentType":5123,"count":420,"type":"SCALAR","name":"accessorIndices"},{"bufferView":1,"byteOffset":20496,"componentType":5126,"count":86,"max":[-0.133474529,0.07602361,0.117583141],"min":[-0.370836645,-0.16286774,-0.118004456],"type":"VEC3","name":"accessorPositions"},{"bufferView":1,"byteOffset":21528,"componentType":5126,"count":86,"type":"VEC3","name":"accessorNormals"},{"bufferView":2,"byteOffset":13664,"componentType":5126,"count":86,"type":"VEC4","name":"accessorTangents"},{"bufferView":3,"byteOffset":6832,"componentType":5126,"count":86,"type":"VEC2","name":"accessorUVs"},{"bufferView":0,"byteOffset":9456,"componentType":5123,"count":420,"type":"SCALAR","name":"accessorIndices"},{"bufferView":1,"byteOffset":22560,"componentType":5126,"count":86,"max":[1.12119579,0.796863139,0.115162],"min":[0.881346941,0.556862235,-0.11558336],"type":"VEC3","name":"accessorPositions"},{"bufferView":1,"byteOffset":23592,"componentType":5126,"count":86,"type":"VEC3","name":"accessorNormals"},{"bufferView":2,"byteOffset":15040,"componentType":5126,"count":86,"type":"VEC4","name":"accessorTangents"},{"bufferView":3,"byteOffset":7520,"componentType":5126,"count":86,"type":"VEC2","name":"accessorUVs"},{"bufferView":0,"byteOffset":10296,"componentType":5123,"count":420,"type":"SCALAR","name":"accessorIndices"},{"bufferView":1,"byteOffset":24624,"componentType":5126,"count":86,"max":[2.37083673,0.07602367,0.117583118],"min":[2.13347435,-0.16286777,-0.118004411],"type":"VEC3","name":"accessorPositions"},{"bufferView":1,"byteOffset":25656,"componentType":5126,"count":86,"type":"VEC3","name":"accessorNormals"},{"bufferView":2,"byteOffset":16416,"componentType":5126,"count":86,"type":"VEC4","name":"accessorTangents"},{"bufferView":3,"byteOffset":8208,"componentType":5126,"count":86,"type":"VEC2","name":"accessorUVs"},{"bufferView":0,"byteOffset":11136,"componentType":5123,"count":420,"type":"SCALAR","name":"accessorIndices"},{"bufferView":1,"byteOffset":26688,"componentType":5126,"count":86,"max":[2.37206554,-1.37694931,0.115505546],"min":[2.13224554,-1.61695039,-0.115452304],"type":"VEC3","name":"accessorPositions"},{"bufferView":1,"byteOffset":27720,"componentType":5126,"count":86,"type":"VEC3","name":"accessorNormals"},{"bufferView":2,"byteOffset":17792,"componentType":5126,"count":86,"type":"VEC4","name":"accessorTangents"},{"bufferView":3,"byteOffset":8896,"componentType":5126,"count":86,"type":"VEC2","name":"accessorUVs"},{"bufferView":0,"byteOffset":11976,"componentType":5123,"count":420,"type":"SCALAR","name":"accessorIndices"},{"bufferView":1,"byteOffset":28752,"componentType":5126,"count":86,"max":[1.12119639,-2.09723425,0.115399405],"min":[0.8813474,-2.337235,-0.115346044],"type":"VEC3","name":"accessorPositions"},{"bufferView":1,"byteOffset":29784,"componentType":5126,"count":86,"type":"VEC3","name":"accessorNormals"},{"bufferView":2,"byteOffset":19168,"componentType":5126,"count":86,"type":"VEC4","name":"accessorTangents"},{"bufferView":3,"byteOffset":9584,"componentType":5126,"count":86,"type":"VEC2","name":"accessorUVs"},{"bufferView":0,"byteOffset":12816,"componentType":5123,"count":96,"type":"SCALAR","name":"accessorIndices"},{"bufferView":1,"byteOffset":30816,"componentType":5126,"count":36,"max":[1.51284432,-1.22508621,0.03207037],"min":[1.15206981,-1.46992517,-0.03237353],"type":"VEC3","name":"accessorPositions"},{"bufferView":1,"byteOffset":31248,"componentType":5126,"count":36,"type":"VEC3","name":"accessorNormals"},{"bufferView":2,"byteOffset":20544,"componentType":5126,"count":36,"type":"VEC4","name":"accessorTangents"},{"bufferView":3,"byteOffset":10272,"componentType":5126,"count":36,"type":"VEC2","name":"accessorUVs"},{"bufferView":0,"byteOffset":13008,"componentType":5123,"count":96,"type":"SCALAR","name":"accessorIndices"},{"bufferView":1,"byteOffset":31680,"componentType":5126,"count":36,"max":[2.18069339,-1.22564328,0.0346808434],"min":[1.8174417,-1.4749825,-0.0348969661],"type":"VEC3","name":"accessorPositions"},{"bufferView":1,"byteOffset":32112,"componentType":5126,"count":36,"type":"VEC3","name":"accessorNormals"},{"bufferView":2,"byteOffset":21120,"componentType":5126,"count":36,"type":"VEC4","name":"accessorTangents"},{"bufferView":3,"byteOffset":10560,"componentType":5126,"count":36,"type":"VEC2","name":"accessorUVs"},{"bufferView":0,"byteOffset":13200,"componentType":5123,"count":96,"type":"SCALAR","name":"accessorIndices"},{"bufferView":1,"byteOffset":32544,"componentType":5126,"count":36,"max":[0.8472104,-1.22628713,0.03207037],"min":[0.486266553,-1.471501,-0.03237353],"type":"VEC3","name":"accessorPositions"},{"bufferView":1,"byteOffset":32976,"componentType":5126,"count":36,"type":"VEC3","name":"accessorNormals"},{"bufferView":2,"byteOffset":21696,"componentType":5126,"count":36,"type":"VEC4","name":"accessorTangents"},{"bufferView":3,"byteOffset":10848,"componentType":5126,"count":36,"type":"VEC2","name":"accessorUVs"},{"bufferView":0,"byteOffset":13392,"componentType":5123,"count":96,"type":"SCALAR","name":"accessorIndices"},{"bufferView":1,"byteOffset":33408,"componentType":5126,"count":36,"max":[0.3671224,-0.572078,0.0347129665],"min":[0.298048019,-0.9586382,-0.0348648578],"type":"VEC3","name":"accessorPositions"},{"bufferView":1,"byteOffset":33840,"componentType":5126,"count":36,"type":"VEC3","name":"accessorNormals"},{"bufferView":2,"byteOffset":22272,"componentType":5126,"count":36,"type":"VEC4","name":"accessorTangents"},{"bufferView":3,"byteOffset":11136,"componentType":5126,"count":36,"type":"VEC2","name":"accessorUVs"},{"bufferView":0,"byteOffset":13584,"componentType":5123,"count":96,"type":"SCALAR","name":"accessorIndices"},{"bufferView":1,"byteOffset":34272,"componentType":5126,"count":36,"max":[0.182558149,-1.22564316,0.0346808359],"min":[-0.180693388,-1.4749825,-0.0348969735],"type":"VEC3","name":"accessorPositions"},{"bufferView":1,"byteOffset":34704,"componentType":5126,"count":36,"type":"VEC3","name":"accessorNormals"},{"bufferView":2,"byteOffset":22848,"componentType":5126,"count":36,"type":"VEC4","name":"accessorTangents"},{"bufferView":3,"byteOffset":11424,"componentType":5126,"count":36,"type":"VEC2","name":"accessorUVs"},{"bufferView":0,"byteOffset":13776,"componentType":5123,"count":96,"type":"SCALAR","name":"accessorIndices"},{"bufferView":1,"byteOffset":35136,"componentType":5126,"count":36,"max":[0.182558149,-0.0653893352,0.03471296],"min":[-0.180693388,-0.314728618,-0.03486485],"type":"VEC3","name":"accessorPositions"},{"bufferView":1,"byteOffset":35568,"componentType":5126,"count":36,"type":"VEC3","name":"accessorNormals"},{"bufferView":2,"byteOffset":23424,"componentType":5126,"count":36,"type":"VEC4","name":"accessorTangents"},{"bufferView":3,"byteOffset":11712,"componentType":5126,"count":36,"type":"VEC2","name":"accessorUVs"},{"bufferView":0,"byteOffset":13968,"componentType":5123,"count":96,"type":"SCALAR","name":"accessorIndices"},{"bufferView":1,"byteOffset":36000,"componentType":5126,"count":36,"max":[0.8484552,-0.06667808,0.03471296],"min":[0.484963775,-0.316281617,-0.03486485],"type":"VEC3","name":"accessorPositions"},{"bufferView":1,"byteOffset":36432,"componentType":5126,"count":36,"type":"VEC3","name":"accessorNormals"},{"bufferView":2,"byteOffset":24000,"componentType":5126,"count":36,"type":"VEC4","name":"accessorTangents"},{"bufferView":3,"byteOffset":12000,"componentType":5126,"count":36,"type":"VEC2","name":"accessorUVs"},{"bufferView":0,"byteOffset":14160,"componentType":5123,"count":96,"type":"SCALAR","name":"accessorIndices"},{"bufferView":1,"byteOffset":36864,"componentType":5126,"count":36,"max":[1.032782,0.5796376,0.0321895219],"min":[0.968833447,0.1930775,-0.0322543755],"type":"VEC3","name":"accessorPositions"},{"bufferView":1,"byteOffset":37296,"componentType":5126,"count":36,"type":"VEC3","name":"accessorNormals"},{"bufferView":2,"byteOffset":24576,"componentType":5126,"count":36,"type":"VEC4","name":"accessorTangents"},{"bufferView":3,"byteOffset":12288,"componentType":5126,"count":36,"type":"VEC2","name":"accessorUVs"},{"bufferView":0,"byteOffset":14352,"componentType":5123,"count":96,"type":"SCALAR","name":"accessorIndices"},{"bufferView":1,"byteOffset":37728,"componentType":5126,"count":36,"max":[1.51284432,-0.07044667,0.0321895219],"min":[1.15206981,-0.315285683,-0.0322543755],"type":"VEC3","name":"accessorPositions"},{"bufferView":1,"byteOffset":38160,"componentType":5126,"count":36,"type":"VEC3","name":"accessorNormals"},{"bufferView":2,"byteOffset":25152,"componentType":5126,"count":36,"type":"VEC4","name":"accessorTangents"},{"bufferView":3,"byteOffset":12576,"componentType":5126,"count":36,"type":"VEC2","name":"accessorUVs"},{"bufferView":0,"byteOffset":14544,"componentType":5123,"count":96,"type":"SCALAR","name":"accessorIndices"},{"bufferView":1,"byteOffset":38592,"componentType":5126,"count":36,"max":[2.179455,-0.0676687956,0.0321895219],"min":[1.81868076,-0.312507749,-0.0322543755],"type":"VEC3","name":"accessorPositions"},{"bufferView":1,"byteOffset":39024,"componentType":5126,"count":36,"type":"VEC3","name":"accessorNormals"},{"bufferView":2,"byteOffset":25728,"componentType":5126,"count":36,"type":"VEC4","name":"accessorTangents"},{"bufferView":3,"byteOffset":12864,"componentType":5126,"count":36,"type":"VEC2","name":"accessorUVs"},{"bufferView":0,"byteOffset":14736,"componentType":5123,"count":96,"type":"SCALAR","name":"accessorIndices"},{"bufferView":1,"byteOffset":39456,"componentType":5126,"count":36,"max":[1.035341,-1.73344946,0.0346808434],"min":[0.966266751,-2.12000942,-0.0348969661],"type":"VEC3","name":"accessorPositions"},{"bufferView":1,"byteOffset":39888,"componentType":5126,"count":36,"type":"VEC3","name":"accessorNormals"},{"bufferView":2,"byteOffset":26304,"componentType":5126,"count":36,"type":"VEC4","name":"accessorTangents"},{"bufferView":3,"byteOffset":13152,"componentType":5126,"count":36,"type":"VEC2","name":"accessorUVs"},{"bufferView":0,"byteOffset":14928,"componentType":5123,"count":96,"type":"SCALAR","name":"accessorIndices"},{"bufferView":1,"byteOffset":40320,"componentType":5126,"count":36,"max":[1.6986469,-0.5788971,0.0346808434],"min":[1.62957251,-0.9654572,-0.0348969735],"type":"VEC3","name":"accessorPositions"},{"bufferView":1,"byteOffset":40752,"componentType":5126,"count":36,"type":"VEC3","name":"accessorNormals"},{"bufferView":2,"byteOffset":26880,"componentType":5126,"count":36,"type":"VEC4","name":"accessorTangents"},{"bufferView":3,"byteOffset":13440,"componentType":5126,"count":36,"type":"VEC2","name":"accessorUVs"},{"bufferView":4,"componentType":5126,"count":2,"max":[1.95833337],"min":[0.0],"type":"SCALAR","name":"accessorAnimationInput"},{"bufferView":5,"componentType":5126,"count":2,"type":"VEC4","name":"accessorAnimationRotations"},{"bufferView":4,"byteOffset":8,"componentType":5126,"count":2,"max":[1.95833337],"min":[0.0],"type":"SCALAR","name":"accessorAnimationInput"},{"bufferView":6,"componentType":5126,"count":2,"type":"VEC3","name":"accessorAnimationPositions"}],"bufferViews":[{"buffer":0,"byteLength":15120,"name":"bufferViewScalar"},{"buffer":0,"byteOffset":15120,"byteLength":41184,"byteStride":12,"name":"bufferViewFloatVec3"},{"buffer":0,"byteOffset":56304,"byteLength":27456,"byteStride":16,"name":"bufferViewFloatVec4"},{"buffer":0,"byteOffset":83760,"byteLength":13728,"byteStride":8,"name":"bufferViewFloatVec2"},{"buffer":0,"byteOffset":97488,"byteLength":16,"name":"bufferViewAnimationFloatScalar"},{"buffer":0,"byteOffset":97504,"byteLength":32,"name":"bufferViewAnimationFloatVec4"},{"buffer":0,"byteOffset":97536,"byteLength":24,"name":"bufferViewAnimationFloatVec3"}],"buffers":[{"uri":"Benzene.bin","byteLength":97560}],"materials":[{"pbrMetallicRoughness":{"baseColorFactor":[1.0,1.0,1.0,1.0],"baseColorTexture":{"index":0,"texCoord":0},"metallicFactor":0.0,"roughnessFactor":0.450053632},"emissiveFactor":[0.0,0.0,0.0],"alphaMode":"OPAQUE","name":"O_Atom_Diff4"}],"textures":[{"sampler":0,"source":0,"name":"O_Atom_Diff4_baseColor.jpg"}],"images":[{"uri":"O_Atom_Diff4_baseColor.jpg"}],"samplers":[{"magFilter":9729,"minFilter":9987,"wrapS":10497,"wrapT":10497}],"animations":[{"channels":[{"sampler":0,"target":{"node":0,"path":"rotation"}},{"sampler":1,"target":{"node":0,"path":"translation"}}],"samplers":[{"input":120,"interpolation":"LINEAR","output":121},{"input":122,"interpolation":"LINEAR","output":123}],"name":"All Animations"}]}