{"asset":{"version":"2.0","generator":"babylon.js glTF exporter for maya 2018 v1.3.0"},"extensionsUsed":["KHR_texture_transform"],"extensionsRequired":["KHR_texture_transform"],"scene":0,"scenes":[{"nodes":[0],"extensions":{}}],"nodes":[{"children":[1,2,3,4],"translation":[0.0,0.0,0.0],"rotation":[0.0,0.0,0.0,1.0],"scale":[1.0,1.0,1.0],"name":"Terrain"},{"mesh":0,"translation":[0.0,0.0,0.0],"rotation":[0.0,0.0,0.0,1.0],"scale":[1.0,1.0,1.0],"name":"Ground_floor"},{"mesh":1,"translation":[0.0,0.0,0.0],"rotation":[0.0,0.0,0.0,1.0],"scale":[1.0,1.0,1.0],"name":"Trees_1"},{"mesh":2,"translation":[0.0,0.0,0.0],"rotation":[0.0,0.0,0.0,1.0],"scale":[1.0,1.0,1.0],"name":"Mountain2"},{"children":[5,6],"translation":[0.0,0.0,0.0],"rotation":[0.0,0.0,0.0,1.0],"scale":[1.0,1.0,1.0],"name":"Mud_Ground"},{"mesh":3,"translation":[0.0,0.0,0.0],"rotation":[0.0,0.0,0.0,1.0],"scale":[1.0,1.0,1.0],"name":"Mud_Ground (1)"},{"mesh":4,"translation":[0.0,0.0,0.0],"rotation":[0.0,0.0,0.0,1.0],"scale":[1.0,1.0,1.0],"name":"Stone_Wall"}],"meshes":[{"primitives":[{"attributes":{"POSITION":1,"NORMAL":2,"TANGENT":3,"TEXCOORD_0":4},"indices":0,"mode":4,"material":0}],"name":"Ground_floor"},{"primitives":[{"attributes":{"POSITION":6,"NORMAL":7,"TANGENT":8,"TEXCOORD_0":9},"indices":5,"mode":4,"material":1}],"name":"Trees_1"},{"primitives":[{"attributes":{"POSITION":11,"NORMAL":12,"TANGENT":13,"TEXCOORD_0":14},"indices":10,"mode":4,"material":2}],"name":"Mountain2"},{"primitives":[{"attributes":{"POSITION":16,"NORMAL":17,"TANGENT":18,"TEXCOORD_0":19},"indices":15,"mode":4,"material":3}],"name":"Mud_Ground"},{"primitives":[{"attributes":{"POSITION":21,"NORMAL":22,"TANGENT":23,"TEXCOORD_0":24},"indices":20,"mode":4,"material":4},{"attributes":{"POSITION":26,"NORMAL":27,"TANGENT":28,"TEXCOORD_0":29},"indices":25,"mode":4,"material":5}],"name":"Stone_Wall"}],"accessors":[{"bufferView":0,"componentType":5123,"count":864,"type":"SCALAR","name":"accessorIndices"},{"bufferView":1,"componentType":5126,"count":186,"max":[57.525898,5.444029,56.23762],"min":[-57.52591,0.346099347,-58.6680756],"type":"VEC3","name":"accessorPositions"},{"bufferView":1,"byteOffset":2232,"componentType":5126,"count":186,"type":"VEC3","name":"accessorNormals"},{"bufferView":2,"componentType":5126,"count":186,"type":"VEC4","name":"accessorTangents"},{"bufferView":3,"componentType":5126,"count":186,"type":"VEC2","name":"accessorUVs"},{"bufferView":0,"byteOffset":1728,"componentType":5123,"count":582,"type":"SCALAR","name":"accessorIndices"},{"bufferView":1,"byteOffset":4464,"componentType":5126,"count":388,"max":[75.16542,14.7413921,72.2089539],"min":[-71.04622,-2.51272964,-81.9004059],"type":"VEC3","name":"accessorPositions"},{"bufferView":1,"byteOffset":9120,"componentType":5126,"count":388,"type":"VEC3","name":"accessorNormals"},{"bufferView":2,"byteOffset":2976,"componentType":5126,"count":388,"type":"VEC4","name":"accessorTangents"},{"bufferView":3,"byteOffset":1488,"componentType":5126,"count":388,"type":"VEC2","name":"accessorUVs"},{"bufferView":0,"byteOffset":2892,"componentType":5123,"count":66,"type":"SCALAR","name":"accessorIndices"},{"bufferView":1,"byteOffset":13776,"componentType":5126,"count":44,"max":[101.7374,60.96191,95.7228241],"min":[-103.709854,-5.553102,-108.972565],"type":"VEC3","name":"accessorPositions"},{"bufferView":1,"byteOffset":14304,"componentType":5126,"count":44,"type":"VEC3","name":"accessorNormals"},{"bufferView":2,"byteOffset":9184,"componentType":5126,"count":44,"type":"VEC4","name":"accessorTangents"},{"bufferView":3,"byteOffset":4592,"componentType":5126,"count":44,"type":"VEC2","name":"accessorUVs"},{"bufferView":0,"byteOffset":3024,"componentType":5123,"count":1623,"type":"SCALAR","name":"accessorIndices"},{"bufferView":1,"byteOffset":14832,"componentType":5126,"count":301,"max":[11.383358,1.40441465,5.645838],"min":[-9.681053,0.9647448,-10.7442093],"type":"VEC3","name":"accessorPositions"},{"bufferView":1,"byteOffset":18444,"componentType":5126,"count":301,"type":"VEC3","name":"accessorNormals"},{"bufferView":2,"byteOffset":9888,"componentType":5126,"count":301,"type":"VEC4","name":"accessorTangents"},{"bufferView":3,"byteOffset":4944,"componentType":5126,"count":301,"type":"VEC2","name":"accessorUVs"},{"bufferView":0,"byteOffset":6272,"componentType":5123,"count":378,"type":"SCALAR","name":"accessorIndices"},{"bufferView":1,"byteOffset":22056,"componentType":5126,"count":96,"max":[5.720253,0.8978466,4.210736],"min":[-2.46618414,0.24661088,1.72298717],"type":"VEC3","name":"accessorPositions"},{"bufferView":1,"byteOffset":23208,"componentType":5126,"count":96,"type":"VEC3","name":"accessorNormals"},{"bufferView":2,"byteOffset":14704,"componentType":5126,"count":96,"type":"VEC4","name":"accessorTangents"},{"bufferView":3,"byteOffset":7352,"componentType":5126,"count":96,"type":"VEC2","name":"accessorUVs"},{"bufferView":0,"byteOffset":7028,"componentType":5123,"count":696,"type":"SCALAR","name":"accessorIndices"},{"bufferView":1,"byteOffset":24360,"componentType":5126,"count":197,"max":[11.3596506,1.1402005,5.63027668],"min":[-9.657346,0.291766644,-10.7257633],"type":"VEC3","name":"accessorPositions"},{"bufferView":1,"byteOffset":26724,"componentType":5126,"count":197,"type":"VEC3","name":"accessorNormals"},{"bufferView":2,"byteOffset":16240,"componentType":5126,"count":197,"type":"VEC4","name":"accessorTangents"},{"bufferView":3,"byteOffset":8120,"componentType":5126,"count":197,"type":"VEC2","name":"accessorUVs"}],"bufferViews":[{"buffer":0,"byteLength":8420,"name":"bufferViewScalar"},{"buffer":0,"byteOffset":8420,"byteLength":29088,"byteStride":12,"name":"bufferViewFloatVec3"},{"buffer":0,"byteOffset":37508,"byteLength":19392,"byteStride":16,"name":"bufferViewFloatVec4"},{"buffer":0,"byteOffset":56900,"byteLength":9696,"byteStride":8,"name":"bufferViewFloatVec2"}],"buffers":[{"uri":"BG.bin","byteLength":66596}],"materials":[{"pbrMetallicRoughness":{"baseColorFactor":[1.0,1.0,1.0,1.0],"baseColorTexture":{"index":0,"texCoord":0,"extensions":{"KHR_texture_transform":{"offset":[0.0,-6.0],"scale":[7.0,7.0],"texCoord":0}}},"metallicFactor":0.0,"roughnessFactor":0.450053632},"emissiveFactor":[0.0,0.0,0.0],"alphaMode":"OPAQUE","name":"Grass_Diff"},{"pbrMetallicRoughness":{"baseColorFactor":[1.0,1.0,1.0,1.0],"baseColorTexture":{"index":1,"texCoord":0},"metallicFactor":0.0,"roughnessFactor":0.450053632},"emissiveFactor":[0.0,0.0,0.0],"alphaMode":"BLEND","name":"Tree_Horizon"},{"pbrMetallicRoughness":{"baseColorFactor":[1.0,1.0,1.0,1.0],"baseColorTexture":{"index":2,"texCoord":0},"metallicFactor":0.0,"roughnessFactor":0.450053632},"emissiveFactor":[0.0,0.0,0.0],"alphaMode":"BLEND","name":"Mountain"},{"pbrMetallicRoughness":{"baseColorFactor":[1.0,1.0,1.0,1.0],"baseColorTexture":{"index":4,"texCoord":0},"metallicFactor":0.0,"roughnessFactor":0.450053632},"normalTexture":{"index":3,"texCoord":0},"emissiveFactor":[0.0,0.0,0.0],"alphaMode":"OPAQUE","name":"Ground_Diff"},{"pbrMetallicRoughness":{"baseColorFactor":[1.0,1.0,1.0,1.0],"baseColorTexture":{"index":5,"texCoord":0},"metallicFactor":0.0,"roughnessFactor":0.450053632},"emissiveFactor":[0.0,0.0,0.0],"alphaMode":"OPAQUE","name":"Stair_Stone"},{"pbrMetallicRoughness":{"baseColorFactor":[1.0,1.0,1.0,1.0],"baseColorTexture":{"index":7,"texCoord":0,"extensions":{"KHR_texture_transform":{"offset":[0.0,-1.0],"scale":[2.0,2.0],"texCoord":0}}},"metallicFactor":0.0,"roughnessFactor":0.450053632},"normalTexture":{"index":6,"texCoord":0},"emissiveFactor":[0.0,0.0,0.0],"alphaMode":"OPAQUE","name":"Stone_Wall1"}],"textures":[{"sampler":0,"source":0,"name":"Grass_Diff_baseColor.jpg"},{"sampler":1,"source":1,"name":"Tree_Horizon_baseColor.png"},{"sampler":2,"source":2,"name":"Mountain_baseColor.png"},{"sampler":3,"source":3,"name":"Ground_Normal.jpg"},{"sampler":4,"source":4,"name":"Ground_Diff_baseColor.jpg"},{"sampler":5,"source":5,"name":"Stair_Stone_baseColor.jpg"},{"sampler":6,"source":6,"name":"Stone_Wall_Normal.jpg"},{"sampler":7,"source":7,"name":"Stone_Wall1_baseColor.jpg"}],"images":[{"uri":"Grass_Diff_baseColor.jpg"},{"uri":"Tree_Horizon_baseColor.png"},{"uri":"Mountain_baseColor.png"},{"uri":"Ground_Normal.jpg"},{"uri":"Ground_Diff_baseColor.jpg"},{"uri":"Stair_Stone_baseColor.jpg"},{"uri":"Stone_Wall_Normal.jpg"},{"uri":"Stone_Wall1_baseColor.jpg"}],"samplers":[{"magFilter":9729,"minFilter":9987,"wrapS":10497,"wrapT":10497},{"magFilter":9729,"minFilter":9987,"wrapS":10497,"wrapT":10497},{"magFilter":9729,"minFilter":9987,"wrapS":10497,"wrapT":10497},{"magFilter":9729,"minFilter":9987,"wrapS":10497,"wrapT":10497},{"magFilter":9729,"minFilter":9987,"wrapS":10497,"wrapT":10497},{"magFilter":9729,"minFilter":9987,"wrapS":10497,"wrapT":10497},{"magFilter":9729,"minFilter":9987,"wrapS":10497,"wrapT":10497},{"magFilter":9729,"minFilter":9987,"wrapS":10497,"wrapT":10497}]}