{"asset":{"version":"2.0","generator":"babylon.js glTF exporter for maya 2018 v1.3.0"},"scene":0,"scenes":[{"nodes":[0],"extensions":{}}],"nodes":[{"mesh":0,"translation":[0.0,0.0,0.0],"rotation":[0.0,0.0,0.0,1.0],"scale":[1.0,1.0,1.0],"name":"Carbon_Dioxide"}],"meshes":[{"primitives":[{"attributes":{"POSITION":1,"NORMAL":2,"TANGENT":3,"TEXCOORD_0":4},"indices":0,"mode":4,"material":0},{"attributes":{"POSITION":6,"NORMAL":7,"TANGENT":8,"TEXCOORD_0":9},"indices":5,"mode":4,"material":1}],"name":"Carbon_Dioxide"}],"accessors":[{"bufferView":0,"componentType":5123,"count":1296,"type":"SCALAR","name":"accessorIndices"},{"bufferView":1,"componentType":5126,"count":256,"max":[8.7547,0.6297617,0.6930561],"min":[6.25552368,-0.6655865,-0.55181694],"type":"VEC3","name":"accessorPositions"},{"bufferView":1,"byteOffset":3072,"componentType":5126,"count":256,"type":"VEC3","name":"accessorNormals"},{"bufferView":2,"componentType":5126,"count":256,"type":"VEC4","name":"accessorTangents"},{"bufferView":3,"componentType":5126,"count":256,"type":"VEC2","name":"accessorUVs"},{"bufferView":0,"byteOffset":2592,"componentType":5123,"count":648,"type":"SCALAR","name":"accessorIndices"},{"bufferView":1,"byteOffset":6144,"componentType":5126,"count":128,"max":[8.271515,0.750453,0.841556549],"min":[6.73458862,-0.7864437,-0.6954422],"type":"VEC3","name":"accessorPositions"},{"bufferView":1,"byteOffset":7680,"componentType":5126,"count":128,"type":"VEC3","name":"accessorNormals"},{"bufferView":2,"byteOffset":4096,"componentType":5126,"count":128,"type":"VEC4","name":"accessorTangents"},{"bufferView":3,"byteOffset":2048,"componentType":5126,"count":128,"type":"VEC2","name":"accessorUVs"}],"bufferViews":[{"buffer":0,"byteLength":3888,"name":"bufferViewScalar"},{"buffer":0,"byteOffset":3888,"byteLength":9216,"byteStride":12,"name":"bufferViewFloatVec3"},{"buffer":0,"byteOffset":13104,"byteLength":6144,"byteStride":16,"name":"bufferViewFloatVec4"},{"buffer":0,"byteOffset":19248,"byteLength":3072,"byteStride":8,"name":"bufferViewFloatVec2"}],"buffers":[{"uri":"Carbon_Dioxide.bin","byteLength":22320}],"materials":[{"pbrMetallicRoughness":{"baseColorFactor":[1.0,1.0,1.0,1.0],"baseColorTexture":{"index":1,"texCoord":0},"metallicFactor":0.0,"roughnessFactor":0.450053632},"normalTexture":{"index":0,"texCoord":0},"emissiveFactor":[0.0,0.0,0.0],"alphaMode":"OPAQUE","name":"O_Atom_Diff"},{"pbrMetallicRoughness":{"baseColorFactor":[1.0,1.0,1.0,1.0],"baseColorTexture":{"index":2,"texCoord":0},"metallicFactor":0.0,"roughnessFactor":0.3207082},"emissiveFactor":[0.0,0.0,0.0],"alphaMode":"OPAQUE","name":"carbon"}],"textures":[{"sampler":0,"source":0,"name":"Oxygen_Atom_Nm.jpg"},{"sampler":1,"source":1,"name":"O_Atom_Diff_baseColor.jpg"},{"sampler":2,"source":2,"name":"carbon_baseColor.jpg"}],"images":[{"uri":"Oxygen_Atom_Nm.jpg"},{"uri":"O_Atom_Diff_baseColor.jpg"},{"uri":"carbon_baseColor.jpg"}],"samplers":[{"magFilter":9729,"minFilter":9987,"wrapS":10497,"wrapT":10497},{"magFilter":9729,"minFilter":9987,"wrapS":10497,"wrapT":10497},{"magFilter":9729,"minFilter":9987,"wrapS":10497,"wrapT":10497}]}