{"asset":{"version":"2.0","generator":"babylon.js glTF exporter for maya 2018 v1.3.0"},"scene":0,"scenes":[{"nodes":[0],"extensions":{}}],"nodes":[{"children":[1],"translation":[0.0,-171.27948,0.0],"rotation":[0.0,0.0,0.0,1.0],"scale":[1.0,1.0,1.0],"name":"Half_Section_Brain1"},{"mesh":0,"translation":[0.0,0.0,0.0],"rotation":[0.0,0.0,0.0,1.0],"scale":[1.0,1.0,1.0],"name":"Nervous_Full_Cerebellum_3"}],"meshes":[{"primitives":[{"attributes":{"POSITION":1,"NORMAL":2,"TEXCOORD_0":3},"indices":0,"mode":4,"material":0}],"name":"Nervous_Full_Cerebellum_3"}],"accessors":[{"bufferView":0,"componentType":5123,"count":12330,"type":"SCALAR","name":"accessorIndices"},{"bufferView":1,"componentType":5126,"count":2237,"max":[4.37057543,169.647064,1.6238848],"min":[-0.08366088,165.387817,-4.26336432],"type":"VEC3","name":"accessorPositions"},{"bufferView":1,"byteOffset":26844,"componentType":5126,"count":2237,"type":"VEC3","name":"accessorNormals"},{"bufferView":2,"componentType":5126,"count":2237,"type":"VEC2","name":"accessorUVs"}],"bufferViews":[{"buffer":0,"byteLength":24660,"name":"bufferViewScalar"},{"buffer":0,"byteOffset":24660,"byteLength":53688,"byteStride":12,"name":"bufferViewFloatVec3"},{"buffer":0,"byteOffset":78348,"byteLength":17896,"byteStride":8,"name":"bufferViewFloatVec2"}],"buffers":[{"uri":"Nervous_Full_Cerebellum_3_Trans.bin","byteLength":96244}],"materials":[{"pbrMetallicRoughness":{"baseColorFactor":[0.1995,0.1995,0.5,0.266233742],"metallicFactor":0.0,"roughnessFactor":0.2581639},"emissiveFactor":[0.0,0.0,0.0],"alphaMode":"BLEND","name":"phong1"}]}