{"asset":{"version":"2.0","generator":"babylon.js glTF exporter for maya 2018 v1.3.0"},"scene":0,"scenes":[{"nodes":[0],"extensions":{}}],"nodes":[{"children":[1,2,11,14],"translation":[0.0,0.0,0.0],"rotation":[0.0,0.0,0.0,1.0],"scale":[1.0,1.0,1.0],"name":"Ethanol_Grp"},{"mesh":0,"translation":[0.0,0.0,0.0],"rotation":[0.0,0.0,0.0,1.0],"scale":[1.0,1.0,1.0],"name":"O_Atom_035"},{"children":[3,4,5,6,7,8,9,10],"translation":[0.0,0.0,0.0],"rotation":[0.0,0.0,0.0,1.0],"scale":[1.0,1.0,1.0],"name":"Single_Bond_Grp"},{"mesh":1,"translation":[0.0,0.0,0.0],"rotation":[0.0,0.0,0.0,1.0],"scale":[1.0,1.0,1.0],"name":"Single_Bond_01"},{"mesh":2,"translation":[0.0,0.0,0.0],"rotation":[0.0,0.0,0.0,1.0],"scale":[1.0,1.0,1.0],"name":"Single_Bond_02"},{"mesh":3,"translation":[0.0,0.0,0.0],"rotation":[0.0,0.0,0.0,1.0],"scale":[1.0,1.0,1.0],"name":"Single_Bond_03"},{"mesh":4,"translation":[0.0,0.0,0.0],"rotation":[0.0,0.0,0.0,1.0],"scale":[1.0,1.0,1.0],"name":"Single_Bond_04"},{"mesh":5,"translation":[0.0,0.0,0.0],"rotation":[0.0,0.0,0.0,1.0],"scale":[1.0,1.0,1.0],"name":"Single_Bond_05"},{"mesh":6,"translation":[0.0,0.0,0.0],"rotation":[0.0,0.0,0.0,1.0],"scale":[1.0,1.0,1.0],"name":"Single_Bond_06"},{"mesh":7,"translation":[0.0,0.0,0.0],"rotation":[0.0,0.0,0.0,1.0],"scale":[1.0,1.0,1.0],"name":"Single_Bond_07"},{"mesh":8,"translation":[0.0,0.0,0.0],"rotation":[0.0,0.0,0.0,1.0],"scale":[1.0,1.0,1.0],"name":"Single_Bond_08"},{"children":[12,13],"translation":[0.0,0.0,0.0],"rotation":[0.0,0.0,0.0,1.0],"scale":[1.0,1.0,1.0],"name":"C_Atom_Grp"},{"mesh":9,"translation":[0.0,0.0,0.0],"rotation":[0.0,0.0,0.0,1.0],"scale":[1.0,1.0,1.0],"name":"C_Atom_01"},{"mesh":10,"translation":[0.0,0.0,0.0],"rotation":[0.0,0.0,0.0,1.0],"scale":[1.0,1.0,1.0],"name":"C_Atom_02"},{"children":[15,16,17,18,19,20],"translation":[0.0,0.0,0.0],"rotation":[0.0,0.0,0.0,1.0],"scale":[1.0,1.0,1.0],"name":"H_Atom_Grp"},{"mesh":11,"translation":[0.0,0.0,0.0],"rotation":[0.0,0.0,0.0,1.0],"scale":[1.0,1.0,1.0],"name":"H_Atom_01"},{"mesh":12,"translation":[0.0,0.0,0.0],"rotation":[0.0,0.0,0.0,1.0],"scale":[1.0,1.0,1.0],"name":"H_Atom_02"},{"mesh":13,"translation":[0.0,0.0,0.0],"rotation":[0.0,0.0,0.0,1.0],"scale":[1.0,1.0,1.0],"name":"H_Atom_03"},{"mesh":14,"translation":[0.0,0.0,0.0],"rotation":[0.0,0.0,0.0,1.0],"scale":[1.0,1.0,1.0],"name":"H_Atom_04"},{"mesh":15,"translation":[0.0,0.0,0.0],"rotation":[0.0,0.0,0.0,1.0],"scale":[1.0,1.0,1.0],"name":"H_Atom_05"},{"mesh":16,"translation":[0.0,0.0,0.0],"rotation":[0.0,0.0,0.0,1.0],"scale":[1.0,1.0,1.0],"name":"H_Atom_06"}],"meshes":[{"primitives":[{"attributes":{"POSITION":1,"NORMAL":2,"TANGENT":3,"TEXCOORD_0":4},"indices":0,"mode":4,"material":0}],"name":"O_Atom_035"},{"primitives":[{"attributes":{"POSITION":6,"NORMAL":7,"TANGENT":8,"TEXCOORD_0":9},"indices":5,"mode":4,"material":0}],"name":"Single_Bond_01"},{"primitives":[{"attributes":{"POSITION":11,"NORMAL":12,"TANGENT":13,"TEXCOORD_0":14},"indices":10,"mode":4,"material":0}],"name":"Single_Bond_02"},{"primitives":[{"attributes":{"POSITION":16,"NORMAL":17,"TANGENT":18,"TEXCOORD_0":19},"indices":15,"mode":4,"material":0}],"name":"Single_Bond_03"},{"primitives":[{"attributes":{"POSITION":21,"NORMAL":22,"TANGENT":23,"TEXCOORD_0":24},"indices":20,"mode":4,"material":0}],"name":"Single_Bond_04"},{"primitives":[{"attributes":{"POSITION":26,"NORMAL":27,"TANGENT":28,"TEXCOORD_0":29},"indices":25,"mode":4,"material":0}],"name":"Single_Bond_05"},{"primitives":[{"attributes":{"POSITION":31,"NORMAL":32,"TANGENT":33,"TEXCOORD_0":34},"indices":30,"mode":4,"material":0}],"name":"Single_Bond_06"},{"primitives":[{"attributes":{"POSITION":36,"NORMAL":37,"TANGENT":38,"TEXCOORD_0":39},"indices":35,"mode":4,"material":0}],"name":"Single_Bond_07"},{"primitives":[{"attributes":{"POSITION":41,"NORMAL":42,"TANGENT":43,"TEXCOORD_0":44},"indices":40,"mode":4,"material":0}],"name":"Single_Bond_08"},{"primitives":[{"attributes":{"POSITION":46,"NORMAL":47,"TANGENT":48,"TEXCOORD_0":49},"indices":45,"mode":4,"material":0}],"name":"C_Atom_01"},{"primitives":[{"attributes":{"POSITION":51,"NORMAL":52,"TANGENT":53,"TEXCOORD_0":54},"indices":50,"mode":4,"material":0}],"name":"C_Atom_02"},{"primitives":[{"attributes":{"POSITION":56,"NORMAL":57,"TANGENT":58,"TEXCOORD_0":59},"indices":55,"mode":4,"material":0}],"name":"H_Atom_01"},{"primitives":[{"attributes":{"POSITION":61,"NORMAL":62,"TANGENT":63,"TEXCOORD_0":64},"indices":60,"mode":4,"material":0}],"name":"H_Atom_02"},{"primitives":[{"attributes":{"POSITION":66,"NORMAL":67,"TANGENT":68,"TEXCOORD_0":69},"indices":65,"mode":4,"material":0}],"name":"H_Atom_03"},{"primitives":[{"attributes":{"POSITION":71,"NORMAL":72,"TANGENT":73,"TEXCOORD_0":74},"indices":70,"mode":4,"material":0}],"name":"H_Atom_04"},{"primitives":[{"attributes":{"POSITION":76,"NORMAL":77,"TANGENT":78,"TEXCOORD_0":79},"indices":75,"mode":4,"material":0}],"name":"H_Atom_05"},{"primitives":[{"attributes":{"POSITION":81,"NORMAL":82,"TANGENT":83,"TEXCOORD_0":84},"indices":80,"mode":4,"material":0}],"name":"H_Atom_06"}],"accessors":[{"bufferView":0,"componentType":5123,"count":648,"type":"SCALAR","name":"accessorIndices"},{"bufferView":1,"componentType":5126,"count":128,"max":[0.592621744,0.763690233,0.0933709145],"min":[0.217126474,0.389264524,-0.277649373],"type":"VEC3","name":"accessorPositions"},{"bufferView":1,"byteOffset":1536,"componentType":5126,"count":128,"type":"VEC3","name":"accessorNormals"},{"bufferView":2,"componentType":5126,"count":128,"type":"VEC4","name":"accessorTangents"},{"bufferView":3,"componentType":5126,"count":128,"type":"VEC2","name":"accessorUVs"},{"bufferView":0,"byteOffset":1296,"componentType":5123,"count":96,"type":"SCALAR","name":"accessorIndices"},{"bufferView":1,"byteOffset":3072,"componentType":5126,"count":36,"max":[0.349274635,-0.126116991,-0.163373947],"min":[0.10430336,-0.389128923,-0.470609665],"type":"VEC3","name":"accessorPositions"},{"bufferView":1,"byteOffset":3504,"componentType":5126,"count":36,"type":"VEC3","name":"accessorNormals"},{"bufferView":2,"byteOffset":2048,"componentType":5126,"count":36,"type":"VEC4","name":"accessorTangents"},{"bufferView":3,"byteOffset":1024,"componentType":5126,"count":36,"type":"VEC2","name":"accessorUVs"},{"bufferView":0,"byteOffset":1488,"componentType":5123,"count":96,"type":"SCALAR","name":"accessorIndices"},{"bufferView":1,"byteOffset":3936,"componentType":5126,"count":36,"max":[0.349274635,0.44501844,0.009752274],"min":[0.10430336,0.08407162,-0.103866577],"type":"VEC3","name":"accessorPositions"},{"bufferView":1,"byteOffset":4368,"componentType":5126,"count":36,"type":"VEC3","name":"accessorNormals"},{"bufferView":2,"byteOffset":2624,"componentType":5126,"count":36,"type":"VEC4","name":"accessorTangents"},{"bufferView":3,"byteOffset":1312,"componentType":5126,"count":36,"type":"VEC2","name":"accessorUVs"},{"bufferView":0,"byteOffset":1680,"componentType":5123,"count":96,"type":"SCALAR","name":"accessorIndices"},{"bufferView":1,"byteOffset":4800,"componentType":5126,"count":36,"max":[0.349274635,-0.138234183,0.442968369],"min":[0.10430336,-0.322543144,0.09740257],"type":"VEC3","name":"accessorPositions"},{"bufferView":1,"byteOffset":5232,"componentType":5126,"count":36,"type":"VEC3","name":"accessorNormals"},{"bufferView":2,"byteOffset":3200,"componentType":5126,"count":36,"type":"VEC4","name":"accessorTangents"},{"bufferView":3,"byteOffset":1600,"componentType":5126,"count":36,"type":"VEC2","name":"accessorUVs"},{"bufferView":0,"byteOffset":1872,"componentType":5123,"count":96,"type":"SCALAR","name":"accessorIndices"},{"bufferView":1,"byteOffset":5664,"componentType":5126,"count":36,"max":[-0.7840452,-0.209632933,-0.00674533844],"min":[-1.03333282,-0.573252439,-0.07875824],"type":"VEC3","name":"accessorPositions"},{"bufferView":1,"byteOffset":6096,"componentType":5126,"count":36,"type":"VEC3","name":"accessorNormals"},{"bufferView":2,"byteOffset":3776,"componentType":5126,"count":36,"type":"VEC4","name":"accessorTangents"},{"bufferView":3,"byteOffset":1888,"componentType":5126,"count":36,"type":"VEC2","name":"accessorUVs"},{"bufferView":0,"byteOffset":2064,"componentType":5123,"count":96,"type":"SCALAR","name":"accessorIndices"},{"bufferView":1,"byteOffset":6528,"componentType":5126,"count":36,"max":[-0.7862015,0.2546445,-0.123268127],"min":[-1.03117275,0.031039834,-0.4526558],"type":"VEC3","name":"accessorPositions"},{"bufferView":1,"byteOffset":6960,"componentType":5126,"count":36,"type":"VEC3","name":"accessorNormals"},{"bufferView":2,"byteOffset":4352,"componentType":5126,"count":36,"type":"VEC4","name":"accessorTangents"},{"bufferView":3,"byteOffset":2176,"componentType":5126,"count":36,"type":"VEC2","name":"accessorUVs"},{"bufferView":0,"byteOffset":2256,"componentType":5123,"count":96,"type":"SCALAR","name":"accessorIndices"},{"bufferView":1,"byteOffset":7392,"componentType":5126,"count":36,"max":[-0.7862015,0.202449977,0.460760117],"min":[-1.03117275,-0.0262276232,0.13375473],"type":"VEC3","name":"accessorPositions"},{"bufferView":1,"byteOffset":7824,"componentType":5126,"count":36,"type":"VEC3","name":"accessorNormals"},{"bufferView":2,"byteOffset":4928,"componentType":5126,"count":36,"type":"VEC4","name":"accessorTangents"},{"bufferView":3,"byteOffset":2464,"componentType":5126,"count":36,"type":"VEC2","name":"accessorUVs"},{"bufferView":0,"byteOffset":2448,"componentType":5123,"count":96,"type":"SCALAR","name":"accessorIndices"},{"bufferView":1,"byteOffset":8256,"componentType":5126,"count":36,"max":[0.95765543,0.61338985,-0.0272312164],"min":[0.57114315,0.543047249,-0.144317627],"type":"VEC3","name":"accessorPositions"},{"bufferView":1,"byteOffset":8688,"componentType":5126,"count":36,"type":"VEC3","name":"accessorNormals"},{"bufferView":2,"byteOffset":5504,"componentType":5126,"count":36,"type":"VEC4","name":"accessorTangents"},{"bufferView":3,"byteOffset":2752,"componentType":5126,"count":36,"type":"VEC2","name":"accessorUVs"},{"bufferView":0,"byteOffset":2640,"componentType":5123,"count":96,"type":"SCALAR","name":"accessorIndices"},{"bufferView":1,"byteOffset":9120,"componentType":5126,"count":41,"max":[-0.149669647,-0.008983709,-0.00861930847],"min":[-0.536216736,-0.07770473,-0.07684708],"type":"VEC3","name":"accessorPositions"},{"bufferView":1,"byteOffset":9612,"componentType":5126,"count":41,"type":"VEC3","name":"accessorNormals"},{"bufferView":2,"byteOffset":6080,"componentType":5126,"count":41,"type":"VEC4","name":"accessorTangents"},{"bufferView":3,"byteOffset":3040,"componentType":5126,"count":41,"type":"VEC2","name":"accessorUVs"},{"bufferView":0,"byteOffset":2832,"componentType":5123,"count":648,"type":"SCALAR","name":"accessorIndices"},{"bufferView":1,"byteOffset":10104,"componentType":5126,"count":128,"max":[0.266262472,0.148753673,0.191530615],"min":[-0.179456115,-0.297720224,-0.254084],"type":"VEC3","name":"accessorPositions"},{"bufferView":1,"byteOffset":11640,"componentType":5126,"count":128,"type":"VEC3","name":"accessorNormals"},{"bufferView":2,"byteOffset":6736,"componentType":5126,"count":128,"type":"VEC4","name":"accessorTangents"},{"bufferView":3,"byteOffset":3368,"componentType":5126,"count":128,"type":"VEC2","name":"accessorUVs"},{"bufferView":0,"byteOffset":4128,"componentType":5123,"count":648,"type":"SCALAR","name":"accessorIndices"},{"bufferView":1,"byteOffset":13176,"componentType":5126,"count":128,"max":[-0.5021444,0.16702953,0.209297657],"min":[-0.9484581,-0.274012268,-0.231604069],"type":"VEC3","name":"accessorPositions"},{"bufferView":1,"byteOffset":14712,"componentType":5126,"count":128,"type":"VEC3","name":"accessorNormals"},{"bufferView":2,"byteOffset":8784,"componentType":5126,"count":128,"type":"VEC4","name":"accessorTangents"},{"bufferView":3,"byteOffset":4392,"componentType":5126,"count":128,"type":"VEC2","name":"accessorUVs"},{"bufferView":0,"byteOffset":5424,"componentType":5123,"count":420,"type":"SCALAR","name":"accessorIndices"},{"bufferView":1,"byteOffset":16248,"componentType":5126,"count":86,"max":[1.17402971,0.695809543,-0.01114428],"min":[0.9340845,0.4592458,-0.237274528],"type":"VEC3","name":"accessorPositions"},{"bufferView":1,"byteOffset":17280,"componentType":5126,"count":86,"type":"VEC3","name":"accessorNormals"},{"bufferView":2,"byteOffset":10832,"componentType":5126,"count":86,"type":"VEC4","name":"accessorTangents"},{"bufferView":3,"byteOffset":5416,"componentType":5126,"count":86,"type":"VEC2","name":"accessorUVs"},{"bufferView":0,"byteOffset":6264,"componentType":5123,"count":420,"type":"SCALAR","name":"accessorIndices"},{"bufferView":1,"byteOffset":18312,"componentType":5126,"count":86,"max":[0.4916567,-0.298394918,-0.399602354],"min":[0.2531219,-0.5341345,-0.6304518],"type":"VEC3","name":"accessorPositions"},{"bufferView":1,"byteOffset":19344,"componentType":5126,"count":86,"type":"VEC3","name":"accessorNormals"},{"bufferView":2,"byteOffset":12208,"componentType":5126,"count":86,"type":"VEC4","name":"accessorTangents"},{"bufferView":3,"byteOffset":6104,"componentType":5126,"count":86,"type":"VEC2","name":"accessorUVs"},{"bufferView":0,"byteOffset":7104,"componentType":5123,"count":420,"type":"SCALAR","name":"accessorIndices"},{"bufferView":1,"byteOffset":20376,"componentType":5126,"count":86,"max":[-0.9361972,0.385617077,-0.391684175],"min":[-1.17237961,0.148384824,-0.6268438],"type":"VEC3","name":"accessorPositions"},{"bufferView":1,"byteOffset":21408,"componentType":5126,"count":86,"type":"VEC3","name":"accessorNormals"},{"bufferView":2,"byteOffset":13584,"componentType":5126,"count":86,"type":"VEC4","name":"accessorTangents"},{"bufferView":3,"byteOffset":6792,"componentType":5126,"count":86,"type":"VEC2","name":"accessorUVs"},{"bufferView":0,"byteOffset":7944,"componentType":5123,"count":420,"type":"SCALAR","name":"accessorIndices"},{"bufferView":1,"byteOffset":22440,"componentType":5126,"count":86,"max":[-0.9375424,-0.5265364,0.0786052346],"min":[-1.171034,-0.7636903,-0.15791285],"type":"VEC3","name":"accessorPositions"},{"bufferView":1,"byteOffset":23472,"componentType":5126,"count":86,"type":"VEC3","name":"accessorNormals"},{"bufferView":2,"byteOffset":14960,"componentType":5126,"count":86,"type":"VEC4","name":"accessorTangents"},{"bufferView":3,"byteOffset":7480,"componentType":5126,"count":86,"type":"VEC2","name":"accessorUVs"},{"bufferView":0,"byteOffset":8784,"componentType":5123,"count":420,"type":"SCALAR","name":"accessorIndices"},{"bufferView":1,"byteOffset":24504,"componentType":5126,"count":86,"max":[0.492379576,-0.204515889,0.6191381],"min":[0.2524014,-0.440548956,0.3940435],"type":"VEC3","name":"accessorPositions"},{"bufferView":1,"byteOffset":25536,"componentType":5126,"count":86,"type":"VEC3","name":"accessorNormals"},{"bufferView":2,"byteOffset":16336,"componentType":5126,"count":86,"type":"VEC4","name":"accessorTangents"},{"bufferView":3,"byteOffset":8168,"componentType":5126,"count":86,"type":"VEC2","name":"accessorUVs"},{"bufferView":0,"byteOffset":9624,"componentType":5123,"count":420,"type":"SCALAR","name":"accessorIndices"},{"bufferView":1,"byteOffset":26568,"componentType":5126,"count":86,"max":[-0.934545,0.3373865,0.63045156],"min":[-1.17402947,0.0978898853,0.400458872],"type":"VEC3","name":"accessorPositions"},{"bufferView":1,"byteOffset":27600,"componentType":5126,"count":86,"type":"VEC3","name":"accessorNormals"},{"bufferView":2,"byteOffset":17712,"componentType":5126,"count":86,"type":"VEC4","name":"accessorTangents"},{"bufferView":3,"byteOffset":8856,"componentType":5126,"count":86,"type":"VEC2","name":"accessorUVs"}],"bufferViews":[{"buffer":0,"byteLength":10464,"name":"bufferViewScalar"},{"buffer":0,"byteOffset":10464,"byteLength":28632,"byteStride":12,"name":"bufferViewFloatVec3"},{"buffer":0,"byteOffset":39096,"byteLength":19088,"byteStride":16,"name":"bufferViewFloatVec4"},{"buffer":0,"byteOffset":58184,"byteLength":9544,"byteStride":8,"name":"bufferViewFloatVec2"}],"buffers":[{"uri":"Ethanol.bin","byteLength":67728}],"materials":[{"pbrMetallicRoughness":{"baseColorFactor":[1.0,1.0,1.0,1.0],"baseColorTexture":{"index":0,"texCoord":0},"metallicFactor":0.0,"roughnessFactor":0.450053632},"emissiveFactor":[0.0,0.0,0.0],"alphaMode":"OPAQUE","name":"O_Atom_Diff4"}],"textures":[{"sampler":0,"source":0,"name":"O_Atom_Diff4_baseColor.jpg"}],"images":[{"uri":"O_Atom_Diff4_baseColor.jpg"}],"samplers":[{"magFilter":9729,"minFilter":9987,"wrapS":10497,"wrapT":10497}]}