{"asset":{"version":"2.0","generator":"babylon.js glTF exporter for maya 2018 v1.3.0"},"scene":0,"scenes":[{"nodes":[0],"extensions":{}}],"nodes":[{"mesh":0,"translation":[-27.04531,2.220446E-16,4.3598547E-09],"rotation":[0.0,0.0,0.0,1.0],"scale":[1.0,1.0,1.0],"name":"Valence_electrons_8"}],"meshes":[{"primitives":[{"attributes":{"POSITION":1,"NORMAL":2,"TANGENT":3,"TEXCOORD_0":4},"indices":0,"mode":4,"material":0}],"name":"Valence_electrons_8"}],"accessors":[{"bufferView":0,"componentType":5123,"count":648,"type":"SCALAR","name":"accessorIndices"},{"bufferView":1,"componentType":5126,"count":141,"max":[-0.9245998,-0.503958166,-0.1436531],"min":[-1.04460025,-0.623957932,-0.263653576],"type":"VEC3","name":"accessorPositions"},{"bufferView":1,"byteOffset":1692,"componentType":5126,"count":141,"type":"VEC3","name":"accessorNormals"},{"bufferView":2,"componentType":5126,"count":141,"type":"VEC4","name":"accessorTangents"},{"bufferView":3,"componentType":5126,"count":141,"type":"VEC2","name":"accessorUVs"},{"bufferView":4,"componentType":5126,"count":2,"max":[23.416666],"min":[0.0],"type":"SCALAR","name":"accessorAnimationInput"},{"bufferView":5,"componentType":5126,"count":2,"type":"VEC3","name":"accessorAnimationPositions"}],"bufferViews":[{"buffer":0,"byteLength":1296,"name":"bufferViewScalar"},{"buffer":0,"byteOffset":1296,"byteLength":3384,"byteStride":12,"name":"bufferViewFloatVec3"},{"buffer":0,"byteOffset":4680,"byteLength":2256,"byteStride":16,"name":"bufferViewFloatVec4"},{"buffer":0,"byteOffset":6936,"byteLength":1128,"byteStride":8,"name":"bufferViewFloatVec2"},{"buffer":0,"byteOffset":8064,"byteLength":8,"name":"bufferViewAnimationFloatScalar"},{"buffer":0,"byteOffset":8072,"byteLength":24,"name":"bufferViewAnimationFloatVec3"}],"buffers":[{"uri":"Valence_electrons.bin","byteLength":8096}],"materials":[{"pbrMetallicRoughness":{"baseColorFactor":[1.0,1.0,1.0,1.0],"baseColorTexture":{"index":0,"texCoord":0},"metallicFactor":0.0,"roughnessFactor":0.3207082},"emissiveFactor":[0.0,0.0,0.0],"alphaMode":"BLEND","name":"Valence_electron"}],"textures":[{"sampler":0,"source":0,"name":"Valence_electron_baseColor.png"}],"images":[{"uri":"Valence_electron_baseColor.png"}],"samplers":[{"magFilter":9729,"minFilter":9987,"wrapS":10497,"wrapT":10497}],"animations":[{"channels":[{"sampler":0,"target":{"node":0,"path":"translation"}}],"samplers":[{"input":5,"interpolation":"LINEAR","output":6}],"name":"All Animations"}]}