{"asset":{"version":"2.0","generator":"babylon.js glTF exporter for maya 2018 v1.3.0"},"scene":0,"scenes":[{"nodes":[0,1,2],"extensions":{}}],"nodes":[{"mesh":0,"translation":[0.0,0.0,0.0],"rotation":[0.0,0.0,0.0,1.0],"scale":[1.0,1.0,1.0],"name":"Table4"},{"mesh":1,"translation":[0.0,0.0,0.0],"rotation":[0.0,0.0,0.0,1.0],"scale":[1.0,1.0,1.0],"name":"Table3"},{"mesh":2,"translation":[0.0,0.0,0.0],"rotation":[0.0,0.0,0.0,1.0],"scale":[1.0,1.0,1.0],"name":"Table2"}],"meshes":[{"primitives":[{"attributes":{"POSITION":1,"NORMAL":2,"TANGENT":3,"TEXCOORD_0":4},"indices":0,"mode":4,"material":0}],"name":"Table4"},{"primitives":[{"attributes":{"POSITION":6,"NORMAL":7,"TANGENT":8,"TEXCOORD_0":9},"indices":5,"mode":4,"material":1}],"name":"Table3"},{"primitives":[{"attributes":{"POSITION":11,"NORMAL":12,"TANGENT":13,"TEXCOORD_0":14},"indices":10,"mode":4,"material":2}],"name":"Table2"}],"accessors":[{"bufferView":0,"componentType":5123,"count":72,"type":"SCALAR","name":"accessorIndices"},{"bufferView":1,"componentType":5126,"count":48,"max":[1.195284,1.12428,1.265924],"min":[-1.195294,0.875333,-1.266301],"type":"VEC3","name":"accessorPositions"},{"bufferView":1,"byteOffset":576,"componentType":5126,"count":48,"type":"VEC3","name":"accessorNormals"},{"bufferView":2,"componentType":5126,"count":48,"type":"VEC4","name":"accessorTangents"},{"bufferView":3,"componentType":5126,"count":48,"type":"VEC2","name":"accessorUVs"},{"bufferView":0,"byteOffset":144,"componentType":5123,"count":2106,"type":"SCALAR","name":"accessorIndices"},{"bufferView":1,"byteOffset":1152,"componentType":5126,"count":787,"max":[1.668139,1.044098,1.447891],"min":[-1.668135,-1E-06,-1.447891],"type":"VEC3","name":"accessorPositions"},{"bufferView":1,"byteOffset":10596,"componentType":5126,"count":787,"type":"VEC3","name":"accessorNormals"},{"bufferView":2,"byteOffset":768,"componentType":5126,"count":787,"type":"VEC4","name":"accessorTangents"},{"bufferView":3,"byteOffset":384,"componentType":5126,"count":787,"type":"VEC2","name":"accessorUVs"},{"bufferView":0,"byteOffset":4356,"componentType":5123,"count":480,"type":"SCALAR","name":"accessorIndices"},{"bufferView":1,"byteOffset":20040,"componentType":5126,"count":168,"max":[0.511664,1.403625,0.551518],"min":[-0.591371,0.990784,-0.551513],"type":"VEC3","name":"accessorPositions"},{"bufferView":1,"byteOffset":22056,"componentType":5126,"count":168,"type":"VEC3","name":"accessorNormals"},{"bufferView":2,"byteOffset":13360,"componentType":5126,"count":168,"type":"VEC4","name":"accessorTangents"},{"bufferView":3,"byteOffset":6680,"componentType":5126,"count":168,"type":"VEC2","name":"accessorUVs"}],"bufferViews":[{"buffer":0,"byteLength":5316,"name":"bufferViewScalar"},{"buffer":0,"byteOffset":5316,"byteLength":24072,"byteStride":12,"name":"bufferViewFloatVec3"},{"buffer":0,"byteOffset":29388,"byteLength":16048,"byteStride":16,"name":"bufferViewFloatVec4"},{"buffer":0,"byteOffset":45436,"byteLength":8024,"byteStride":8,"name":"bufferViewFloatVec2"}],"buffers":[{"uri":"SI_FI.bin","byteLength":53460}],"materials":[{"pbrMetallicRoughness":{"baseColorFactor":[1.0,1.0,1.0,1.0],"baseColorTexture":{"index":0,"texCoord":0},"metallicFactor":0.0,"roughnessFactor":0.2581639},"emissiveFactor":[0.0,0.0,0.0],"alphaMode":"BLEND","name":"Table1SG1"},{"pbrMetallicRoughness":{"baseColorFactor":[1.0,1.0,1.0,1.0],"baseColorTexture":{"index":2,"texCoord":0},"metallicFactor":0.0,"roughnessFactor":0.450053632},"normalTexture":{"index":1,"texCoord":0},"emissiveFactor":[0.0,0.0,0.0],"alphaMode":"OPAQUE","name":"lambert3SG1"},{"pbrMetallicRoughness":{"baseColorFactor":[1.0,1.0,1.0,1.0],"baseColorTexture":{"index":3,"texCoord":0},"metallicFactor":0.0,"roughnessFactor":0.450053632},"emissiveFactor":[0.0,0.0,0.0],"alphaMode":"BLEND","name":"UV_HologramSG1"}],"textures":[{"sampler":0,"source":0,"name":"Table1SG1_baseColor.png"},{"sampler":1,"source":1,"name":"Table_NM.jpg"},{"sampler":2,"source":2,"name":"lambert3SG1_baseColor.jpg"},{"sampler":3,"source":3,"name":"UV_HologramSG1_baseColor.png"}],"images":[{"uri":"Table1SG1_baseColor.png"},{"uri":"Table_NM.jpg"},{"uri":"lambert3SG1_baseColor.jpg"},{"uri":"UV_HologramSG1_baseColor.png"}],"samplers":[{"magFilter":9729,"minFilter":9987,"wrapS":10497,"wrapT":10497},{"magFilter":9729,"minFilter":9987,"wrapS":10497,"wrapT":10497},{"magFilter":9729,"minFilter":9987,"wrapS":10497,"wrapT":10497},{"magFilter":9729,"minFilter":9987,"wrapS":10497,"wrapT":10497}]}