{"asset":{"version":"2.0","generator":"babylon.js glTF exporter for maya 2018 v1.3.0"},"scene":0,"scenes":[{"nodes":[0],"extensions":{}}],"nodes":[{"children":[1,2,3,4,5,6,7,8,9,10,11,12,13,14,15,16,17,18,19,20,21,22,23],"translation":[0.0,0.0,0.0],"rotation":[0.0,0.0,0.0,1.0],"scale":[1.0,1.0,1.0],"name":"Propanol"},{"mesh":0,"translation":[0.0,0.0,0.0],"rotation":[0.0,0.0,0.0,1.0],"scale":[1.0,1.0,1.0],"name":"O_Atom_04"},{"mesh":1,"translation":[0.0,0.0,0.0],"rotation":[0.0,0.0,0.0,1.0],"scale":[1.0,1.0,1.0],"name":"Single_Bond_014"},{"mesh":2,"translation":[0.0,0.0,0.0],"rotation":[0.0,0.0,0.0,1.0],"scale":[1.0,1.0,1.0],"name":"H_Atom_0116"},{"mesh":3,"translation":[0.0,0.0,0.0],"rotation":[0.0,0.0,0.0,1.0],"scale":[1.0,1.0,1.0],"name":"Bond_130"},{"mesh":4,"translation":[0.0,0.0,0.0],"rotation":[0.0,0.0,0.0,1.0],"scale":[1.0,1.0,1.0],"name":"H_Atom_61"},{"mesh":5,"translation":[0.0,0.0,0.0],"rotation":[0.0,0.0,0.0,1.0],"scale":[1.0,1.0,1.0],"name":"H_Atom_85"},{"mesh":6,"translation":[0.0,0.0,0.0],"rotation":[0.0,0.0,0.0,1.0],"scale":[1.0,1.0,1.0],"name":"Bond_127"},{"mesh":7,"translation":[0.0,0.0,0.0],"rotation":[0.0,0.0,0.0,1.0],"scale":[1.0,1.0,1.0],"name":"H_Atom_63"},{"mesh":8,"translation":[0.0,0.0,0.0],"rotation":[0.0,0.0,0.0,1.0],"scale":[1.0,1.0,1.0],"name":"Bond_58"},{"mesh":9,"translation":[0.0,0.0,0.0],"rotation":[0.0,0.0,0.0,1.0],"scale":[1.0,1.0,1.0],"name":"Bond_126"},{"mesh":10,"translation":[0.0,0.0,0.0],"rotation":[0.0,0.0,0.0,1.0],"scale":[1.0,1.0,1.0],"name":"Bond_54"},{"mesh":11,"translation":[0.0,0.0,0.0],"rotation":[0.0,0.0,0.0,1.0],"scale":[1.0,1.0,1.0],"name":"Bond_72"},{"mesh":12,"translation":[0.0,0.0,0.0],"rotation":[0.0,0.0,0.0,1.0],"scale":[1.0,1.0,1.0],"name":"H_Atom_82"},{"mesh":13,"translation":[0.0,0.0,0.0],"rotation":[0.0,0.0,0.0,1.0],"scale":[1.0,1.0,1.0],"name":"Bond_054"},{"mesh":14,"translation":[0.0,0.0,0.0],"rotation":[0.0,0.0,0.0,1.0],"scale":[1.0,1.0,1.0],"name":"Bond_055"},{"mesh":15,"translation":[0.0,0.0,0.0],"rotation":[0.0,0.0,0.0,1.0],"scale":[1.0,1.0,1.0],"name":"Bond_55"},{"mesh":16,"translation":[0.0,0.0,0.0],"rotation":[0.0,0.0,0.0,1.0],"scale":[1.0,1.0,1.0],"name":"H_Atom_38"},{"mesh":17,"translation":[0.0,0.0,0.0],"rotation":[0.0,0.0,0.0,1.0],"scale":[1.0,1.0,1.0],"name":"C_Atom_22"},{"mesh":18,"translation":[0.0,0.0,0.0],"rotation":[0.0,0.0,0.0,1.0],"scale":[1.0,1.0,1.0],"name":"C_Atom_35"},{"mesh":19,"translation":[0.0,0.0,0.0],"rotation":[0.0,0.0,0.0,1.0],"scale":[1.0,1.0,1.0],"name":"H_Atom_40"},{"mesh":20,"translation":[0.0,0.0,0.0],"rotation":[0.0,0.0,0.0,1.0],"scale":[1.0,1.0,1.0],"name":"Bond_128"},{"mesh":21,"translation":[0.0,0.0,0.0],"rotation":[0.0,0.0,0.0,1.0],"scale":[1.0,1.0,1.0],"name":"C_Atom_37"},{"mesh":22,"translation":[0.0,0.0,0.0],"rotation":[0.0,0.0,0.0,1.0],"scale":[1.0,1.0,1.0],"name":"H_Atom_84"}],"meshes":[{"primitives":[{"attributes":{"POSITION":1,"NORMAL":2,"TANGENT":3,"TEXCOORD_0":4},"indices":0,"mode":4,"material":0}],"name":"O_Atom_04"},{"primitives":[{"attributes":{"POSITION":6,"NORMAL":7,"TANGENT":8,"TEXCOORD_0":9},"indices":5,"mode":4,"material":0}],"name":"Single_Bond_014"},{"primitives":[{"attributes":{"POSITION":11,"NORMAL":12,"TANGENT":13,"TEXCOORD_0":14},"indices":10,"mode":4,"material":0}],"name":"H_Atom_0116"},{"primitives":[{"attributes":{"POSITION":16,"NORMAL":17,"TANGENT":18,"TEXCOORD_0":19},"indices":15,"mode":4,"material":0}],"name":"Bond_130"},{"primitives":[{"attributes":{"POSITION":21,"NORMAL":22,"TANGENT":23,"TEXCOORD_0":24},"indices":20,"mode":4,"material":0}],"name":"H_Atom_61"},{"primitives":[{"attributes":{"POSITION":26,"NORMAL":27,"TANGENT":28,"TEXCOORD_0":29},"indices":25,"mode":4,"material":0}],"name":"H_Atom_85"},{"primitives":[{"attributes":{"POSITION":31,"NORMAL":32,"TANGENT":33,"TEXCOORD_0":34},"indices":30,"mode":4,"material":0}],"name":"Bond_127"},{"primitives":[{"attributes":{"POSITION":36,"NORMAL":37,"TANGENT":38,"TEXCOORD_0":39},"indices":35,"mode":4,"material":0}],"name":"H_Atom_63"},{"primitives":[{"attributes":{"POSITION":41,"NORMAL":42,"TANGENT":43,"TEXCOORD_0":44},"indices":40,"mode":4,"material":0}],"name":"Bond_58"},{"primitives":[{"attributes":{"POSITION":46,"NORMAL":47,"TANGENT":48,"TEXCOORD_0":49},"indices":45,"mode":4,"material":0}],"name":"Bond_126"},{"primitives":[{"attributes":{"POSITION":51,"NORMAL":52,"TANGENT":53,"TEXCOORD_0":54},"indices":50,"mode":4,"material":0}],"name":"Bond_54"},{"primitives":[{"attributes":{"POSITION":56,"NORMAL":57,"TANGENT":58,"TEXCOORD_0":59},"indices":55,"mode":4,"material":0}],"name":"Bond_72"},{"primitives":[{"attributes":{"POSITION":61,"NORMAL":62,"TANGENT":63,"TEXCOORD_0":64},"indices":60,"mode":4,"material":0}],"name":"H_Atom_82"},{"primitives":[{"attributes":{"POSITION":66,"NORMAL":67,"TANGENT":68,"TEXCOORD_0":69},"indices":65,"mode":4,"material":0}],"name":"Bond_054"},{"primitives":[{"attributes":{"POSITION":71,"NORMAL":72,"TANGENT":73,"TEXCOORD_0":74},"indices":70,"mode":4,"material":0}],"name":"Bond_055"},{"primitives":[{"attributes":{"POSITION":76,"NORMAL":77,"TANGENT":78,"TEXCOORD_0":79},"indices":75,"mode":4,"material":0}],"name":"Bond_55"},{"primitives":[{"attributes":{"POSITION":81,"NORMAL":82,"TANGENT":83,"TEXCOORD_0":84},"indices":80,"mode":4,"material":0}],"name":"H_Atom_38"},{"primitives":[{"attributes":{"POSITION":86,"NORMAL":87,"TANGENT":88,"TEXCOORD_0":89},"indices":85,"mode":4,"material":0}],"name":"C_Atom_22"},{"primitives":[{"attributes":{"POSITION":91,"NORMAL":92,"TANGENT":93,"TEXCOORD_0":94},"indices":90,"mode":4,"material":0}],"name":"C_Atom_35"},{"primitives":[{"attributes":{"POSITION":96,"NORMAL":97,"TANGENT":98,"TEXCOORD_0":99},"indices":95,"mode":4,"material":0}],"name":"H_Atom_40"},{"primitives":[{"attributes":{"POSITION":101,"NORMAL":102,"TANGENT":103,"TEXCOORD_0":104},"indices":100,"mode":4,"material":0}],"name":"Bond_128"},{"primitives":[{"attributes":{"POSITION":106,"NORMAL":107,"TANGENT":108,"TEXCOORD_0":109},"indices":105,"mode":4,"material":0}],"name":"C_Atom_37"},{"primitives":[{"attributes":{"POSITION":111,"NORMAL":112,"TANGENT":113,"TEXCOORD_0":114},"indices":110,"mode":4,"material":0}],"name":"H_Atom_84"}],"accessors":[{"bufferView":0,"componentType":5123,"count":648,"type":"SCALAR","name":"accessorIndices"},{"bufferView":1,"componentType":5126,"count":128,"max":[1.49099672,0.389511228,0.219561383],"min":[1.115283,0.0124434382,-0.155251],"type":"VEC3","name":"accessorPositions"},{"bufferView":1,"byteOffset":1536,"componentType":5126,"count":128,"type":"VEC3","name":"accessorNormals"},{"bufferView":2,"componentType":5126,"count":128,"type":"VEC4","name":"accessorTangents"},{"bufferView":3,"componentType":5126,"count":128,"type":"VEC2","name":"accessorUVs"},{"bufferView":0,"byteOffset":1296,"componentType":5123,"count":96,"type":"SCALAR","name":"accessorIndices"},{"bufferView":1,"byteOffset":3072,"componentType":5126,"count":36,"max":[1.80994439,0.150470227,0.10523209],"min":[1.44123471,-0.0807825,0.007450491],"type":"VEC3","name":"accessorPositions"},{"bufferView":1,"byteOffset":3504,"componentType":5126,"count":36,"type":"VEC3","name":"accessorNormals"},{"bufferView":2,"byteOffset":2048,"componentType":5126,"count":36,"type":"VEC4","name":"accessorTangents"},{"bufferView":3,"byteOffset":1024,"componentType":5126,"count":36,"type":"VEC2","name":"accessorUVs"},{"bufferView":0,"byteOffset":1488,"componentType":5123,"count":420,"type":"SCALAR","name":"accessorIndices"},{"bufferView":1,"byteOffset":3936,"componentType":5126,"count":86,"max":[2.00404239,0.022121653,0.199291021],"min":[1.76619458,-0.217718765,-0.0366530269],"type":"VEC3","name":"accessorPositions"},{"bufferView":1,"byteOffset":4968,"componentType":5126,"count":86,"type":"VEC3","name":"accessorNormals"},{"bufferView":2,"byteOffset":2624,"componentType":5126,"count":86,"type":"VEC4","name":"accessorTangents"},{"bufferView":3,"byteOffset":1312,"componentType":5126,"count":86,"type":"VEC2","name":"accessorUVs"},{"bufferView":0,"byteOffset":2328,"componentType":5123,"count":96,"type":"SCALAR","name":"accessorIndices"},{"bufferView":1,"byteOffset":6000,"componentType":5126,"count":36,"max":[1.17816675,0.1375151,0.0376855135],"min":[0.8290374,-0.127638578,-0.09537767],"type":"VEC3","name":"accessorPositions"},{"bufferView":1,"byteOffset":6432,"componentType":5126,"count":36,"type":"VEC3","name":"accessorNormals"},{"bufferView":2,"byteOffset":4000,"componentType":5126,"count":36,"type":"VEC4","name":"accessorTangents"},{"bufferView":3,"byteOffset":2000,"componentType":5126,"count":36,"type":"VEC2","name":"accessorUVs"},{"bufferView":0,"byteOffset":2520,"componentType":5123,"count":420,"type":"SCALAR","name":"accessorIndices"},{"bufferView":1,"byteOffset":6864,"componentType":5126,"count":86,"max":[-0.562222242,-0.6878194,0.436014056],"min":[-0.8014141,-0.9266153,0.205762446],"type":"VEC3","name":"accessorPositions"},{"bufferView":1,"byteOffset":7896,"componentType":5126,"count":86,"type":"VEC3","name":"accessorNormals"},{"bufferView":2,"byteOffset":4576,"componentType":5126,"count":86,"type":"VEC4","name":"accessorTangents"},{"bufferView":3,"byteOffset":2288,"componentType":5126,"count":86,"type":"VEC2","name":"accessorUVs"},{"bufferView":0,"byteOffset":3360,"componentType":5123,"count":420,"type":"SCALAR","name":"accessorIndices"},{"bufferView":1,"byteOffset":8928,"componentType":5126,"count":86,"max":[0.8258254,-0.655343235,0.3883742],"min":[0.5884788,-0.894408762,0.1528874],"type":"VEC3","name":"accessorPositions"},{"bufferView":1,"byteOffset":9960,"componentType":5126,"count":86,"type":"VEC3","name":"accessorNormals"},{"bufferView":2,"byteOffset":5952,"componentType":5126,"count":86,"type":"VEC4","name":"accessorTangents"},{"bufferView":3,"byteOffset":2976,"componentType":5126,"count":86,"type":"VEC2","name":"accessorUVs"},{"bufferView":0,"byteOffset":4200,"componentType":5123,"count":96,"type":"SCALAR","name":"accessorIndices"},{"bufferView":1,"byteOffset":10992,"componentType":5126,"count":36,"max":[0.5048225,0.150197089,0.07357025],"min":[0.1598506,-0.1060645,-0.0948634148],"type":"VEC3","name":"accessorPositions"},{"bufferView":1,"byteOffset":11424,"componentType":5126,"count":36,"type":"VEC3","name":"accessorNormals"},{"bufferView":2,"byteOffset":7328,"componentType":5126,"count":36,"type":"VEC4","name":"accessorTangents"},{"bufferView":3,"byteOffset":3664,"componentType":5126,"count":36,"type":"VEC2","name":"accessorUVs"},{"bufferView":0,"byteOffset":4392,"componentType":5123,"count":420,"type":"SCALAR","name":"accessorIndices"},{"bufferView":1,"byteOffset":11856,"componentType":5126,"count":86,"max":[0.153643787,0.4805138,0.874312758],"min":[-0.07782599,0.2429548,0.636911452],"type":"VEC3","name":"accessorPositions"},{"bufferView":1,"byteOffset":12888,"componentType":5126,"count":86,"type":"VEC3","name":"accessorNormals"},{"bufferView":2,"byteOffset":7904,"componentType":5126,"count":86,"type":"VEC4","name":"accessorTangents"},{"bufferView":3,"byteOffset":3952,"componentType":5126,"count":86,"type":"VEC2","name":"accessorUVs"},{"bufferView":0,"byteOffset":5232,"componentType":5123,"count":96,"type":"SCALAR","name":"accessorIndices"},{"bufferView":1,"byteOffset":13920,"componentType":5126,"count":36,"max":[-0.836027145,0.10834983,0.151845574],"min":[-1.17991138,-0.152806044,-0.012440905],"type":"VEC3","name":"accessorPositions"},{"bufferView":1,"byteOffset":14352,"componentType":5126,"count":36,"type":"VEC3","name":"accessorNormals"},{"bufferView":2,"byteOffset":9280,"componentType":5126,"count":36,"type":"VEC4","name":"accessorTangents"},{"bufferView":3,"byteOffset":4640,"componentType":5126,"count":36,"type":"VEC2","name":"accessorUVs"},{"bufferView":0,"byteOffset":5424,"componentType":5123,"count":96,"type":"SCALAR","name":"accessorIndices"},{"bufferView":1,"byteOffset":14784,"componentType":5126,"count":36,"max":[0.710695744,-0.214476913,-0.280036449],"min":[0.6192441,-0.366417974,-0.665572643],"type":"VEC3","name":"accessorPositions"},{"bufferView":1,"byteOffset":15216,"componentType":5126,"count":36,"type":"VEC3","name":"accessorNormals"},{"bufferView":2,"byteOffset":9856,"componentType":5126,"count":36,"type":"VEC4","name":"accessorTangents"},{"bufferView":3,"byteOffset":4928,"componentType":5126,"count":36,"type":"VEC2","name":"accessorUVs"},{"bufferView":0,"byteOffset":5616,"componentType":5123,"count":96,"type":"SCALAR","name":"accessorIndices"},{"bufferView":1,"byteOffset":15648,"componentType":5126,"count":36,"max":[-0.651165962,-0.378672034,0.294294834],"min":[-0.7254467,-0.737814963,0.0406221151],"type":"VEC3","name":"accessorPositions"},{"bufferView":1,"byteOffset":16080,"componentType":5126,"count":36,"type":"VEC3","name":"accessorNormals"},{"bufferView":2,"byteOffset":10432,"componentType":5126,"count":36,"type":"VEC4","name":"accessorTangents"},{"bufferView":3,"byteOffset":5216,"componentType":5126,"count":36,"type":"VEC2","name":"accessorUVs"},{"bufferView":0,"byteOffset":5808,"componentType":5123,"count":96,"type":"SCALAR","name":"accessorIndices"},{"bufferView":1,"byteOffset":16512,"componentType":5126,"count":36,"max":[-0.162344933,0.127599776,0.102860451],"min":[-0.5132916,-0.127756774,-0.0438876152],"type":"VEC3","name":"accessorPositions"},{"bufferView":1,"byteOffset":16944,"componentType":5126,"count":36,"type":"VEC3","name":"accessorNormals"},{"bufferView":2,"byteOffset":11008,"componentType":5126,"count":36,"type":"VEC4","name":"accessorTangents"},{"bufferView":3,"byteOffset":5504,"componentType":5126,"count":36,"type":"VEC2","name":"accessorUVs"},{"bufferView":0,"byteOffset":6000,"componentType":5123,"count":420,"type":"SCALAR","name":"accessorIndices"},{"bufferView":1,"byteOffset":17376,"componentType":5126,"count":86,"max":[0.125818521,0.9266153,-0.145604253],"min":[-0.113431513,0.6875159,-0.378022134],"type":"VEC3","name":"accessorPositions"},{"bufferView":1,"byteOffset":18408,"componentType":5126,"count":86,"type":"VEC3","name":"accessorNormals"},{"bufferView":2,"byteOffset":11584,"componentType":5126,"count":86,"type":"VEC4","name":"accessorTangents"},{"bufferView":3,"byteOffset":5792,"componentType":5126,"count":86,"type":"VEC2","name":"accessorUVs"},{"bufferView":0,"byteOffset":6840,"componentType":5123,"count":96,"type":"SCALAR","name":"accessorIndices"},{"bufferView":1,"byteOffset":19440,"componentType":5126,"count":36,"max":[0.0498232841,0.73766315,0.0184516311],"min":[-0.0244574547,0.3785207,-0.235220671],"type":"VEC3","name":"accessorPositions"},{"bufferView":1,"byteOffset":19872,"componentType":5126,"count":36,"type":"VEC3","name":"accessorNormals"},{"bufferView":2,"byteOffset":12960,"componentType":5126,"count":36,"type":"VEC4","name":"accessorTangents"},{"bufferView":3,"byteOffset":6480,"componentType":5126,"count":36,"type":"VEC2","name":"accessorUVs"},{"bufferView":0,"byteOffset":7032,"componentType":5123,"count":96,"type":"SCALAR","name":"accessorIndices"},{"bufferView":1,"byteOffset":20304,"componentType":5126,"count":36,"max":[0.07065177,0.3740032,0.6619969],"min":[-0.00610113144,0.2317011,0.2762038],"type":"VEC3","name":"accessorPositions"},{"bufferView":1,"byteOffset":20736,"componentType":5126,"count":36,"type":"VEC3","name":"accessorNormals"},{"bufferView":2,"byteOffset":13536,"componentType":5126,"count":36,"type":"VEC4","name":"accessorTangents"},{"bufferView":3,"byteOffset":6768,"componentType":5126,"count":36,"type":"VEC2","name":"accessorUVs"},{"bufferView":0,"byteOffset":7224,"componentType":5123,"count":96,"type":"SCALAR","name":"accessorIndices"},{"bufferView":1,"byteOffset":21168,"componentType":5126,"count":36,"max":[-0.669522047,-0.231852382,-0.217128754],"min":[-0.7462752,-0.374154657,-0.6029229],"type":"VEC3","name":"accessorPositions"},{"bufferView":1,"byteOffset":21600,"componentType":5126,"count":36,"type":"VEC3","name":"accessorNormals"},{"bufferView":2,"byteOffset":14112,"componentType":5126,"count":36,"type":"VEC4","name":"accessorTangents"},{"bufferView":3,"byteOffset":7056,"componentType":5126,"count":36,"type":"VEC2","name":"accessorUVs"},{"bufferView":0,"byteOffset":7416,"componentType":5123,"count":420,"type":"SCALAR","name":"accessorIndices"},{"bufferView":1,"byteOffset":22032,"componentType":5126,"count":86,"max":[-0.5970254,-0.242723867,-0.5776438],"min":[-0.830040038,-0.481046975,-0.815433145],"type":"VEC3","name":"accessorPositions"},{"bufferView":1,"byteOffset":23064,"componentType":5126,"count":86,"type":"VEC3","name":"accessorNormals"},{"bufferView":2,"byteOffset":14688,"componentType":5126,"count":86,"type":"VEC4","name":"accessorTangents"},{"bufferView":3,"byteOffset":7344,"componentType":5126,"count":86,"type":"VEC2","name":"accessorUVs"},{"bufferView":0,"byteOffset":8256,"componentType":5123,"count":648,"type":"SCALAR","name":"accessorIndices"},{"bufferView":1,"byteOffset":24096,"componentType":5126,"count":128,"max":[0.2180469,0.433740646,0.306943059],"min":[-0.227727577,-0.0127732679,-0.1387969],"type":"VEC3","name":"accessorPositions"},{"bufferView":1,"byteOffset":25632,"componentType":5126,"count":128,"type":"VEC3","name":"accessorNormals"},{"bufferView":2,"byteOffset":16064,"componentType":5126,"count":128,"type":"VEC4","name":"accessorTangents"},{"bufferView":3,"byteOffset":8032,"componentType":5126,"count":128,"type":"VEC2","name":"accessorUVs"},{"bufferView":0,"byteOffset":9552,"componentType":5123,"count":648,"type":"SCALAR","name":"accessorIndices"},{"bufferView":1,"byteOffset":27168,"componentType":5126,"count":128,"max":[-0.4476189,0.0125801638,0.198228747],"min":[-0.893949032,-0.433852136,-0.248227477],"type":"VEC3","name":"accessorPositions"},{"bufferView":1,"byteOffset":28704,"componentType":5126,"count":128,"type":"VEC3","name":"accessorNormals"},{"bufferView":2,"byteOffset":18112,"componentType":5126,"count":128,"type":"VEC4","name":"accessorTangents"},{"bufferView":3,"byteOffset":9056,"componentType":5126,"count":128,"type":"VEC2","name":"accessorUVs"},{"bufferView":0,"byteOffset":10848,"componentType":5123,"count":420,"type":"SCALAR","name":"accessorIndices"},{"bufferView":1,"byteOffset":30240,"componentType":5126,"count":86,"max":[-1.12309313,0.255327,0.2601987],"min":[-1.362611,0.0154834539,0.0283936262],"type":"VEC3","name":"accessorPositions"},{"bufferView":1,"byteOffset":31272,"componentType":5126,"count":86,"type":"VEC3","name":"accessorNormals"},{"bufferView":2,"byteOffset":20160,"componentType":5126,"count":86,"type":"VEC4","name":"accessorTangents"},{"bufferView":3,"byteOffset":10080,"componentType":5126,"count":86,"type":"VEC2","name":"accessorUVs"},{"bufferView":0,"byteOffset":11688,"componentType":5123,"count":96,"type":"SCALAR","name":"accessorIndices"},{"bufferView":1,"byteOffset":32304,"componentType":5126,"count":36,"max":[0.7374277,-0.352553755,0.242063522],"min":[0.658852339,-0.707654536,-0.02065003],"type":"VEC3","name":"accessorPositions"},{"bufferView":1,"byteOffset":32736,"componentType":5126,"count":36,"type":"VEC3","name":"accessorNormals"},{"bufferView":2,"byteOffset":21536,"componentType":5126,"count":36,"type":"VEC4","name":"accessorTangents"},{"bufferView":3,"byteOffset":10768,"componentType":5126,"count":36,"type":"VEC2","name":"accessorUVs"},{"bufferView":0,"byteOffset":11880,"componentType":5123,"count":648,"type":"SCALAR","name":"accessorIndices"},{"bufferView":1,"byteOffset":33168,"componentType":5126,"count":128,"max":[0.8836542,0.0352011248,0.1341776],"min":[0.438279629,-0.411063462,-0.311334968],"type":"VEC3","name":"accessorPositions"},{"bufferView":1,"byteOffset":34704,"componentType":5126,"count":128,"type":"VEC3","name":"accessorNormals"},{"bufferView":2,"byteOffset":22112,"componentType":5126,"count":128,"type":"VEC4","name":"accessorTangents"},{"bufferView":3,"byteOffset":11056,"componentType":5126,"count":128,"type":"VEC2","name":"accessorUVs"},{"bufferView":0,"byteOffset":13176,"componentType":5123,"count":420,"type":"SCALAR","name":"accessorIndices"},{"bufferView":1,"byteOffset":36240,"componentType":5126,"count":86,"max":[0.764538467,-0.238256857,-0.63979],"min":[0.527405,-0.475769341,-0.874313],"type":"VEC3","name":"accessorPositions"},{"bufferView":1,"byteOffset":37272,"componentType":5126,"count":86,"type":"VEC3","name":"accessorNormals"},{"bufferView":2,"byteOffset":24160,"componentType":5126,"count":86,"type":"VEC4","name":"accessorTangents"},{"bufferView":3,"byteOffset":12080,"componentType":5126,"count":86,"type":"VEC2","name":"accessorUVs"}],"bufferViews":[{"buffer":0,"byteLength":14016,"name":"bufferViewScalar"},{"buffer":0,"byteOffset":14016,"byteLength":38304,"byteStride":12,"name":"bufferViewFloatVec3"},{"buffer":0,"byteOffset":52320,"byteLength":25536,"byteStride":16,"name":"bufferViewFloatVec4"},{"buffer":0,"byteOffset":77856,"byteLength":12768,"byteStride":8,"name":"bufferViewFloatVec2"}],"buffers":[{"uri":"Propanol.bin","byteLength":90624}],"materials":[{"pbrMetallicRoughness":{"baseColorFactor":[1.0,1.0,1.0,1.0],"baseColorTexture":{"index":0,"texCoord":0},"metallicFactor":0.0,"roughnessFactor":0.450053632},"emissiveFactor":[0.0,0.0,0.0],"alphaMode":"OPAQUE","name":"O_Atom_Diff4"}],"textures":[{"sampler":0,"source":0,"name":"O_Atom_Diff4_baseColor.jpg"}],"images":[{"uri":"O_Atom_Diff4_baseColor.jpg"}],"samplers":[{"magFilter":9729,"minFilter":9987,"wrapS":10497,"wrapT":10497}]}