{"asset":{"version":"2.0","generator":"babylon.js glTF exporter for maya 2018 v1.3.0"},"scene":0,"scenes":[{"nodes":[0],"extensions":{}}],"nodes":[{"mesh":0,"translation":[0.0,0.0,0.0],"rotation":[0.0,0.0,0.0,1.0],"scale":[1.0,1.0,1.0],"name":"Electromagnet"}],"meshes":[{"primitives":[{"attributes":{"POSITION":1,"NORMAL":2,"TANGENT":3,"TEXCOORD_0":4},"indices":0,"mode":4,"material":0},{"attributes":{"POSITION":6,"NORMAL":7,"TANGENT":8,"TEXCOORD_0":9},"indices":5,"mode":4,"material":1},{"attributes":{"POSITION":11,"NORMAL":12,"TANGENT":13,"TEXCOORD_0":14},"indices":10,"mode":4,"material":2}],"name":"Electromagnet"}],"accessors":[{"bufferView":0,"componentType":5123,"count":2352,"type":"SCALAR","name":"accessorIndices"},{"bufferView":1,"componentType":5126,"count":601,"max":[1.96407437,4.80496645,3.9546628],"min":[-2.01249766,0.8501768,-1.93149877],"type":"VEC3","name":"accessorPositions"},{"bufferView":1,"byteOffset":7212,"componentType":5126,"count":601,"type":"VEC3","name":"accessorNormals"},{"bufferView":2,"componentType":5126,"count":601,"type":"VEC4","name":"accessorTangents"},{"bufferView":3,"componentType":5126,"count":601,"type":"VEC2","name":"accessorUVs"},{"bufferView":0,"byteOffset":4704,"componentType":5123,"count":600,"type":"SCALAR","name":"accessorIndices"},{"bufferView":1,"byteOffset":14424,"componentType":5126,"count":142,"max":[0.337877572,3.17983,3.40506935],"min":[-0.3797751,2.46217728,3.2683332],"type":"VEC3","name":"accessorPositions"},{"bufferView":1,"byteOffset":16128,"componentType":5126,"count":142,"type":"VEC3","name":"accessorNormals"},{"bufferView":2,"byteOffset":9616,"componentType":5126,"count":142,"type":"VEC4","name":"accessorTangents"},{"bufferView":3,"byteOffset":4808,"componentType":5126,"count":142,"type":"VEC2","name":"accessorUVs"},{"bufferView":0,"byteOffset":5904,"componentType":5123,"count":7560,"type":"SCALAR","name":"accessorIndices"},{"bufferView":1,"byteOffset":17832,"componentType":5126,"count":1757,"max":[3.94188428,3.19609022,4.569614],"min":[-3.93244672,0.612787843,-2.07449913],"type":"VEC3","name":"accessorPositions"},{"bufferView":1,"byteOffset":38916,"componentType":5126,"count":1757,"type":"VEC3","name":"accessorNormals"},{"bufferView":2,"byteOffset":11888,"componentType":5126,"count":1757,"type":"VEC4","name":"accessorTangents"},{"bufferView":3,"byteOffset":5944,"componentType":5126,"count":1757,"type":"VEC2","name":"accessorUVs"}],"bufferViews":[{"buffer":0,"byteLength":21024,"name":"bufferViewScalar"},{"buffer":0,"byteOffset":21024,"byteLength":60000,"byteStride":12,"name":"bufferViewFloatVec3"},{"buffer":0,"byteOffset":81024,"byteLength":40000,"byteStride":16,"name":"bufferViewFloatVec4"},{"buffer":0,"byteOffset":121024,"byteLength":20000,"byteStride":8,"name":"bufferViewFloatVec2"}],"buffers":[{"uri":"Electromagnet.bin","byteLength":141024}],"materials":[{"pbrMetallicRoughness":{"baseColorFactor":[0.25,0.25,0.25,1.0],"metallicFactor":0.0,"roughnessFactor":0.201679826},"emissiveFactor":[0.0,0.0,0.0],"alphaMode":"OPAQUE","name":"Steel"},{"pbrMetallicRoughness":{"baseColorFactor":[0.04878049,0.04878049,0.04878049,1.0],"metallicFactor":0.0,"roughnessFactor":0.201679826},"emissiveFactor":[0.0,0.0,0.0],"alphaMode":"OPAQUE","name":"Metal_blck"},{"pbrMetallicRoughness":{"baseColorFactor":[0.35505,0.13195,0.0,1.0],"metallicFactor":0.0,"roughnessFactor":0.201679826},"emissiveFactor":[0.0,0.0,0.0],"alphaMode":"OPAQUE","name":"Battary_Color"}]}