{"asset":{"version":"2.0","generator":"babylon.js glTF exporter for maya 2018 v1.3.0"},"scene":0,"scenes":[{"nodes":[0],"extensions":{}}],"nodes":[{"children":[1],"translation":[0.0,0.0,0.0],"rotation":[0.0,0.0,0.0,1.0],"scale":[1.0,1.0,1.0],"name":"O_T_T_Enviorment_Geo"},{"children":[2],"translation":[0.0,0.0,0.0],"rotation":[0.0,0.0,0.0,1.0],"scale":[1.0,1.0,1.0],"name":"Magnifine_Grp"},{"children":[3,4],"translation":[0.0,0.0,0.0],"rotation":[0.0,0.0,0.0,1.0],"scale":[1.0,1.0,1.0],"name":"Magnifine_Opaque_Glass_Grp"},{"mesh":0,"translation":[0.0,0.0,0.0],"rotation":[0.0,0.0,0.0,1.0],"scale":[1.0,1.0,1.0],"name":"Magnifire_Glass"},{"mesh":1,"translation":[0.0,0.0,0.0],"rotation":[0.0,0.0,0.0,1.0],"scale":[1.0,1.0,1.0],"name":"Glass1"}],"meshes":[{"primitives":[{"attributes":{"POSITION":1,"NORMAL":2,"TANGENT":3,"TEXCOORD_0":4},"indices":0,"mode":4,"material":0}],"name":"Magnifire_Glass"},{"primitives":[{"attributes":{"POSITION":6,"NORMAL":7,"TANGENT":8,"TEXCOORD_0":9},"indices":5,"mode":4,"material":1}],"name":"Glass1"}],"accessors":[{"bufferView":0,"componentType":5123,"count":3360,"type":"SCALAR","name":"accessorIndices"},{"bufferView":1,"componentType":5126,"count":949,"max":[-3.43865252,2.517903,-0.209180355],"min":[-4.165052,0.9777853,-0.818939],"type":"VEC3","name":"accessorPositions"},{"bufferView":1,"byteOffset":11388,"componentType":5126,"count":949,"type":"VEC3","name":"accessorNormals"},{"bufferView":2,"componentType":5126,"count":949,"type":"VEC4","name":"accessorTangents"},{"bufferView":3,"componentType":5126,"count":949,"type":"VEC2","name":"accessorUVs"},{"bufferView":0,"byteOffset":6720,"componentType":5123,"count":798,"type":"SCALAR","name":"accessorIndices"},{"bufferView":1,"byteOffset":22776,"componentType":5126,"count":154,"max":[-3.46918774,2.48686457,-0.235628247],"min":[-4.13591146,1.67415071,-0.7907599],"type":"VEC3","name":"accessorPositions"},{"bufferView":1,"byteOffset":24624,"componentType":5126,"count":154,"type":"VEC3","name":"accessorNormals"},{"bufferView":2,"byteOffset":15184,"componentType":5126,"count":154,"type":"VEC4","name":"accessorTangents"},{"bufferView":3,"byteOffset":7592,"componentType":5126,"count":154,"type":"VEC2","name":"accessorUVs"}],"bufferViews":[{"buffer":0,"byteLength":8316,"name":"bufferViewScalar"},{"buffer":0,"byteOffset":8316,"byteLength":26472,"byteStride":12,"name":"bufferViewFloatVec3"},{"buffer":0,"byteOffset":34788,"byteLength":17648,"byteStride":16,"name":"bufferViewFloatVec4"},{"buffer":0,"byteOffset":52436,"byteLength":8824,"byteStride":8,"name":"bufferViewFloatVec2"}],"buffers":[{"uri":"Lance_Opaque.bin","byteLength":61260}],"materials":[{"pbrMetallicRoughness":{"baseColorFactor":[1.0,1.0,1.0,1.0],"baseColorTexture":{"index":0,"texCoord":0},"metallicFactor":1.0,"roughnessFactor":1.0,"metallicRoughnessTexture":{"index":1,"texCoord":0}},"emissiveFactor":[0.0,0.0,0.0],"alphaMode":"OPAQUE","name":"Steel"},{"pbrMetallicRoughness":{"baseColorFactor":[0.0,0.0,0.0,1.0],"metallicFactor":0.0,"roughnessFactor":0.3207082},"emissiveFactor":[0.0,0.0,0.0],"alphaMode":"OPAQUE","name":"Opaque1"}],"textures":[{"sampler":0,"source":0,"name":"Steel_baseColor.jpg"},{"sampler":1,"source":1,"name":"Steel_metallicRoughness.jpg"}],"images":[{"uri":"Steel_baseColor.jpg"},{"uri":"Steel_metallicRoughness.jpg"}],"samplers":[{"magFilter":9729,"minFilter":9987,"wrapS":10497,"wrapT":10497},{"magFilter":9729,"minFilter":9987,"wrapS":10497,"wrapT":10497}]}