{"asset":{"version":"2.0","generator":"babylon.js glTF exporter for maya 2018 v1.3.0"},"scene":0,"scenes":[{"nodes":[0],"extensions":{}}],"nodes":[{"mesh":0,"translation":[0.0,0.0,0.0],"rotation":[0.0,0.0,0.0,1.0],"scale":[1.0,1.0,1.0],"name":"Cherry_flower"}],"meshes":[{"primitives":[{"attributes":{"POSITION":1,"NORMAL":2,"TANGENT":3},"indices":0,"mode":4,"material":0},{"attributes":{"POSITION":5,"NORMAL":6,"TANGENT":7},"indices":4,"mode":4,"material":1},{"attributes":{"POSITION":9,"NORMAL":10,"TANGENT":11},"indices":8,"mode":4,"material":2},{"attributes":{"POSITION":13,"NORMAL":14,"TANGENT":15},"indices":12,"mode":4,"material":3},{"attributes":{"POSITION":17,"NORMAL":18,"TANGENT":19},"indices":16,"mode":4,"material":4},{"attributes":{"POSITION":21,"NORMAL":22,"TANGENT":23},"indices":20,"mode":4,"material":5}],"name":"Cherry_flower"}],"accessors":[{"bufferView":0,"componentType":5123,"count":13728,"type":"SCALAR","name":"accessorIndices"},{"bufferView":1,"componentType":5126,"count":3718,"max":[625.562561,2325.96,813.9565],"min":[-601.6189,1247.23535,-708.5288],"type":"VEC3","name":"accessorPositions"},{"bufferView":1,"byteOffset":44616,"componentType":5126,"count":3718,"type":"VEC3","name":"accessorNormals"},{"bufferView":2,"componentType":5126,"count":3718,"type":"VEC4","name":"accessorTangents"},{"bufferView":0,"byteOffset":27456,"componentType":5123,"count":15600,"type":"SCALAR","name":"accessorIndices"},{"bufferView":1,"byteOffset":89232,"componentType":5126,"count":2860,"max":[620.926758,2302.543,778.4309],"min":[-588.694458,1259.745,-688.3669],"type":"VEC3","name":"accessorPositions"},{"bufferView":1,"byteOffset":123552,"componentType":5126,"count":2860,"type":"VEC3","name":"accessorNormals"},{"bufferView":2,"byteOffset":59488,"componentType":5126,"count":2860,"type":"VEC4","name":"accessorTangents"},{"bufferView":0,"byteOffset":58656,"componentType":5123,"count":32838,"type":"SCALAR","name":"accessorIndices"},{"bufferView":1,"byteOffset":157872,"componentType":5126,"count":6630,"max":[633.6244,2296.39624,771.253235],"min":[-587.0363,1208.968,-680.1023],"type":"VEC3","name":"accessorPositions"},{"bufferView":1,"byteOffset":237432,"componentType":5126,"count":6630,"type":"VEC3","name":"accessorNormals"},{"bufferView":2,"byteOffset":105248,"componentType":5126,"count":6630,"type":"VEC4","name":"accessorTangents"},{"bufferView":0,"byteOffset":124332,"componentType":5123,"count":3828,"type":"SCALAR","name":"accessorIndices"},{"bufferView":1,"byteOffset":316992,"componentType":5126,"count":716,"max":[610.7659,2390.14771,28.3917847],"min":[430.510284,1944.0166,-58.3571472],"type":"VEC3","name":"accessorPositions"},{"bufferView":1,"byteOffset":325584,"componentType":5126,"count":716,"type":"VEC3","name":"accessorNormals"},{"bufferView":2,"byteOffset":211328,"componentType":5126,"count":716,"type":"VEC4","name":"accessorTangents"},{"bufferView":0,"byteOffset":131988,"componentType":5123,"count":90666,"type":"SCALAR","name":"accessorIndices"},{"bufferView":1,"byteOffset":334176,"componentType":5126,"count":33764,"max":[471.128021,1895.20789,569.5771],"min":[-424.91507,596.0948,-168.207733],"type":"VEC3","name":"accessorPositions"},{"bufferView":1,"byteOffset":739344,"componentType":5126,"count":33764,"type":"VEC3","name":"accessorNormals"},{"bufferView":2,"byteOffset":222784,"componentType":5126,"count":33764,"type":"VEC4","name":"accessorTangents"},{"bufferView":0,"byteOffset":313320,"componentType":5123,"count":7536,"type":"SCALAR","name":"accessorIndices"},{"bufferView":1,"byteOffset":1144512,"componentType":5126,"count":1380,"max":[648.1361,2359.99414,737.5636],"min":[-576.688843,-0.000122070313,-651.9452],"type":"VEC3","name":"accessorPositions"},{"bufferView":1,"byteOffset":1161072,"componentType":5126,"count":1380,"type":"VEC3","name":"accessorNormals"},{"bufferView":2,"byteOffset":763008,"componentType":5126,"count":1380,"type":"VEC4","name":"accessorTangents"}],"bufferViews":[{"buffer":0,"byteLength":328392,"name":"bufferViewScalar"},{"buffer":0,"byteOffset":328392,"byteLength":1177632,"byteStride":12,"name":"bufferViewFloatVec3"},{"buffer":0,"byteOffset":1506024,"byteLength":785088,"byteStride":16,"name":"bufferViewFloatVec4"}],"buffers":[{"uri":"Flower.bin","byteLength":2291112}],"materials":[{"pbrMetallicRoughness":{"baseColorFactor":[1.0,1.0,1.0,1.0],"baseColorTexture":{"index":1,"texCoord":0},"metallicFactor":0.0,"roughnessFactor":0.450053632},"emissiveTexture":{"index":0,"texCoord":0},"emissiveFactor":[1.0,1.0,1.0],"alphaMode":"OPAQUE","name":"Patels"},{"pbrMetallicRoughness":{"baseColorFactor":[1.0,1.0,1.0,1.0],"baseColorTexture":{"index":2,"texCoord":1},"metallicFactor":0.0,"roughnessFactor":0.3207082},"emissiveFactor":[0.0,0.0,0.0],"alphaMode":"OPAQUE","name":"Middle_flower"},{"pbrMetallicRoughness":{"baseColorFactor":[1.0,1.0,1.0,1.0],"baseColorTexture":{"index":3,"texCoord":1},"metallicFactor":0.0,"roughnessFactor":0.3207082},"emissiveFactor":[0.0,0.0,0.0],"alphaMode":"OPAQUE","name":"Middle_flower_lower"},{"pbrMetallicRoughness":{"baseColorFactor":[0.25,0.25,0.25,1.0],"metallicFactor":0.0,"roughnessFactor":0.450053632},"emissiveFactor":[0.0,0.0,0.0],"alphaMode":"OPAQUE","name":"lambert2"},{"pbrMetallicRoughness":{"baseColorFactor":[1.0,1.0,1.0,1.0],"baseColorTexture":{"index":5,"texCoord":0},"metallicFactor":0.0,"roughnessFactor":0.450053632},"emissiveTexture":{"index":4,"texCoord":0},"emissiveFactor":[1.0,1.0,1.0],"alphaMode":"OPAQUE","name":"FBXASC0482FBXASC032FBXASC045FBXASC032Default"},{"pbrMetallicRoughness":{"baseColorFactor":[0.0137254912,0.007843138,0.007843138,1.0],"metallicFactor":0.0,"roughnessFactor":0.450053632},"emissiveFactor":[0.000753556436,0.000246059237,0.000246059237],"alphaMode":"OPAQUE","name":"FBXASC0483FBXASC032FBXASC045FBXASC032Default"}],"textures":[{"sampler":0,"source":0,"name":"Patels_emissive.jpg"},{"sampler":1,"source":1,"name":"Patels_baseColor.jpg"},{"sampler":2,"source":2,"name":"Middle_flower_baseColor.jpg"},{"sampler":3,"source":3,"name":"Middle_flower_lower_baseColor.jpg"},{"sampler":4,"source":4,"name":"FBXASC0482FBXASC032FBXASC045FBXASC032Default_emissive.jpg"},{"sampler":5,"source":5,"name":"FBXASC0482FBXASC032FBXASC045FBXASC032Default_baseColor.jpg"}],"images":[{"uri":"Patels_emissive.jpg"},{"uri":"Patels_baseColor.jpg"},{"uri":"Middle_flower_baseColor.jpg"},{"uri":"Middle_flower_lower_baseColor.jpg"},{"uri":"FBXASC0482FBXASC032FBXASC045FBXASC032Default_emissive.jpg"},{"uri":"FBXASC0482FBXASC032FBXASC045FBXASC032Default_baseColor.jpg"}],"samplers":[{"magFilter":9729,"minFilter":9987,"wrapS":10497,"wrapT":10497},{"magFilter":9729,"minFilter":9987,"wrapS":10497,"wrapT":10497},{"magFilter":9729,"minFilter":9987,"wrapS":10497,"wrapT":10497},{"magFilter":9729,"minFilter":9987,"wrapS":10497,"wrapT":10497},{"magFilter":9729,"minFilter":9987,"wrapS":10497,"wrapT":10497},{"magFilter":9729,"minFilter":9987,"wrapS":10497,"wrapT":10497}]}