{"asset":{"version":"2.0","generator":"babylon.js glTF exporter for maya 2018 v1.3.0"},"scene":0,"scenes":[{"nodes":[0],"extensions":{}}],"nodes":[{"mesh":0,"translation":[0.0,0.0,0.0],"rotation":[0.0,0.0,0.0,1.0],"scale":[1.0,1.0,1.0],"name":"White"}],"meshes":[{"primitives":[{"attributes":{"POSITION":1,"NORMAL":2,"TANGENT":3,"TEXCOORD_0":4},"indices":0,"mode":4,"material":0}],"name":"White"}],"accessors":[{"bufferView":0,"componentType":5123,"count":720,"type":"SCALAR","name":"accessorIndices"},{"bufferView":1,"componentType":5126,"count":240,"max":[0.127745762,0.004851844,0.127046049],"min":[-0.127745762,0.0,-0.127046019],"type":"VEC3","name":"accessorPositions"},{"bufferView":1,"byteOffset":2880,"componentType":5126,"count":240,"type":"VEC3","name":"accessorNormals"},{"bufferView":2,"componentType":5126,"count":240,"type":"VEC4","name":"accessorTangents"},{"bufferView":3,"componentType":5126,"count":240,"type":"VEC2","name":"accessorUVs"}],"bufferViews":[{"buffer":0,"byteLength":1440,"name":"bufferViewScalar"},{"buffer":0,"byteOffset":1440,"byteLength":5760,"byteStride":12,"name":"bufferViewFloatVec3"},{"buffer":0,"byteOffset":7200,"byteLength":3840,"byteStride":16,"name":"bufferViewFloatVec4"},{"buffer":0,"byteOffset":11040,"byteLength":1920,"byteStride":8,"name":"bufferViewFloatVec2"}],"buffers":[{"uri":"White.bin","byteLength":12960}],"materials":[{"pbrMetallicRoughness":{"baseColorFactor":[0.25,0.25,0.25,1.0],"metallicFactor":0.0,"roughnessFactor":0.450053632},"emissiveFactor":[0.0,0.0,0.0],"alphaMode":"OPAQUE","name":"lambert1"}]}