{"asset":{"version":"2.0","generator":"babylon.js glTF exporter for maya 2018 v1.3.0"},"scene":0,"scenes":[{"nodes":[0],"extensions":{}}],"nodes":[{"children":[1],"translation":[0.0,0.0,0.0],"rotation":[0.0,0.0,0.0,1.0],"scale":[1.0,1.0,1.0],"name":"Human_Brain"},{"children":[2,5,8,11,12,15,17],"translation":[-0.0150194168,-170.914246,-2.220026],"rotation":[0.0,0.0,0.0,1.0],"scale":[1.0,1.0,1.0],"name":"Brain_Full"},{"children":[3,4],"translation":[0.0,0.0,0.0],"rotation":[0.0,0.0,0.0,1.0],"scale":[1.0,1.0,1.0],"name":"Frontal_Lobe_Grp"},{"mesh":0,"translation":[0.0,0.0,0.0],"rotation":[0.0,0.0,0.0,1.0],"scale":[1.0,1.0,1.0],"name":"Frontal_Lobe_Left"},{"mesh":1,"translation":[0.0,0.0,0.0],"rotation":[0.0,0.0,0.0,1.0],"scale":[1.0,1.0,1.0],"name":"Frontal_Lobe_Right"},{"children":[6,7],"translation":[0.0,0.0,0.0],"rotation":[0.0,0.0,0.0,1.0],"scale":[1.0,1.0,1.0],"name":"Parietal_Lobe"},{"mesh":2,"translation":[0.0,0.0,0.0],"rotation":[0.0,0.0,0.0,1.0],"scale":[1.0,1.0,1.0],"name":"Parietal_Lobe_Right"},{"mesh":3,"translation":[0.0,0.0,0.0],"rotation":[0.0,0.0,0.0,1.0],"scale":[1.0,1.0,1.0],"name":"Parietal_Lobe_Left"},{"children":[9,10],"translation":[0.0,0.0,0.0],"rotation":[0.0,0.0,0.0,1.0],"scale":[1.0,1.0,1.0],"name":"Occipital_Lob_Grp"},{"mesh":4,"translation":[0.0,0.0,0.0],"rotation":[0.0,0.0,0.0,1.0],"scale":[1.0,1.0,1.0],"name":"Occipital_Lob_Left"},{"mesh":5,"translation":[0.0,0.0,0.0],"rotation":[0.0,0.0,0.0,1.0],"scale":[1.0,1.0,1.0],"name":"Occipital_Lob_Right"},{"mesh":6,"translation":[0.0,0.0,0.0],"rotation":[0.0,0.0,0.0,1.0],"scale":[1.0,1.0,1.0],"name":"Pituitary_Gland1"},{"children":[13,14],"translation":[0.0,0.0,0.0],"rotation":[0.0,0.0,0.0,1.0],"scale":[1.0,1.0,1.0],"name":"Temporal_Lobe"},{"mesh":7,"translation":[0.0,0.0,0.0],"rotation":[0.0,0.0,0.0,1.0],"scale":[1.0,1.0,1.0],"name":"Temporal_Lobe_Left"},{"mesh":8,"translation":[0.0,0.0,0.0],"rotation":[0.0,0.0,0.0,1.0],"scale":[1.0,1.0,1.0],"name":"Temporal_Lobe_Right"},{"children":[16],"mesh":9,"translation":[0.0,0.0,0.0],"rotation":[0.0,0.0,0.0,1.0],"scale":[1.0,1.0,1.0],"name":"Nervous_Brain_Stem"},{"mesh":10,"translation":[0.0,0.0,0.0],"rotation":[0.0,0.0,0.0,1.0],"scale":[1.0,1.0,1.0],"name":"Nervous_Brain_Stem_1"},{"children":[18,19],"translation":[0.0,0.0,0.0],"rotation":[0.0,0.0,0.0,1.0],"scale":[1.0,1.0,1.0],"name":"Nervous_Full_Cerebellum_Grp"},{"mesh":11,"translation":[0.0,0.0,0.0],"rotation":[0.0,0.0,0.0,1.0],"scale":[1.0,1.0,1.0],"name":"Nervous_Full_Cerebellum_1"},{"mesh":12,"translation":[0.0,0.0,0.0],"rotation":[0.0,0.0,0.0,1.0],"scale":[1.0,1.0,1.0],"name":"Nervous_Full_Cerebellum_2"}],"meshes":[{"primitives":[{"attributes":{"POSITION":1,"NORMAL":2,"TANGENT":3,"TEXCOORD_0":4},"indices":0,"mode":4,"material":0}],"name":"Frontal_Lobe_Left"},{"primitives":[{"attributes":{"POSITION":6,"NORMAL":7,"TANGENT":8,"TEXCOORD_0":9},"indices":5,"mode":4,"material":0}],"name":"Frontal_Lobe_Right"},{"primitives":[{"attributes":{"POSITION":11,"NORMAL":12,"TANGENT":13,"TEXCOORD_0":14},"indices":10,"mode":4,"material":0}],"name":"Parietal_Lobe_Right"},{"primitives":[{"attributes":{"POSITION":16,"NORMAL":17,"TANGENT":18,"TEXCOORD_0":19},"indices":15,"mode":4,"material":0}],"name":"Parietal_Lobe_Left"},{"primitives":[{"attributes":{"POSITION":21,"NORMAL":22,"TANGENT":23,"TEXCOORD_0":24},"indices":20,"mode":4,"material":0}],"name":"Occipital_Lob_Left"},{"primitives":[{"attributes":{"POSITION":26,"NORMAL":27,"TANGENT":28,"TEXCOORD_0":29},"indices":25,"mode":4,"material":0}],"name":"Occipital_Lob_Right"},{"primitives":[{"attributes":{"POSITION":31,"NORMAL":32,"TANGENT":33,"TEXCOORD_0":34,"TEXCOORD_1":35},"indices":30,"mode":4,"material":1}],"name":"Pituitary_Gland1"},{"primitives":[{"attributes":{"POSITION":37,"NORMAL":38,"TANGENT":39,"TEXCOORD_0":40},"indices":36,"mode":4,"material":0}],"name":"Temporal_Lobe_Left"},{"primitives":[{"attributes":{"POSITION":42,"NORMAL":43,"TANGENT":44,"TEXCOORD_0":45},"indices":41,"mode":4,"material":0}],"name":"Temporal_Lobe_Right"},{"primitives":[{"attributes":{"POSITION":47,"NORMAL":48,"TANGENT":49,"TEXCOORD_0":50},"indices":46,"mode":4,"material":0}],"name":"Nervous_Brain_Stem"},{"primitives":[{"attributes":{"POSITION":52,"NORMAL":53,"TANGENT":54,"TEXCOORD_0":55},"indices":51,"mode":4,"material":0}],"name":"Nervous_Brain_Stem_1"},{"primitives":[{"attributes":{"POSITION":57,"NORMAL":58,"TANGENT":59,"TEXCOORD_0":60},"indices":56,"mode":4,"material":0}],"name":"Nervous_Full_Cerebellum_1"},{"primitives":[{"attributes":{"POSITION":62,"NORMAL":63,"TANGENT":64,"TEXCOORD_0":65},"indices":61,"mode":4,"material":0}],"name":"Nervous_Full_Cerebellum_2"}],"accessors":[{"bufferView":0,"componentType":5123,"count":17286,"type":"SCALAR","name":"accessorIndices"},{"bufferView":1,"componentType":5126,"count":3049,"max":[6.05571556,178.768967,10.4535475],"min":[-0.279922962,169.000473,0.65434134],"type":"VEC3","name":"accessorPositions"},{"bufferView":1,"byteOffset":36588,"componentType":5126,"count":3049,"type":"VEC3","name":"accessorNormals"},{"bufferView":2,"componentType":5126,"count":3049,"type":"VEC4","name":"accessorTangents"},{"bufferView":3,"componentType":5126,"count":3049,"type":"VEC2","name":"accessorUVs"},{"bufferView":0,"byteOffset":34572,"componentType":5123,"count":17244,"type":"SCALAR","name":"accessorIndices"},{"bufferView":1,"byteOffset":73176,"componentType":5126,"count":3047,"max":[0.392266065,178.714035,10.5045223],"min":[-5.98600245,168.945541,0.7304684],"type":"VEC3","name":"accessorPositions"},{"bufferView":1,"byteOffset":109740,"componentType":5126,"count":3047,"type":"VEC3","name":"accessorNormals"},{"bufferView":2,"byteOffset":48784,"componentType":5126,"count":3047,"type":"VEC4","name":"accessorTangents"},{"bufferView":3,"byteOffset":24392,"componentType":5126,"count":3047,"type":"VEC2","name":"accessorUVs"},{"bufferView":0,"byteOffset":69060,"componentType":5123,"count":11712,"type":"SCALAR","name":"accessorIndices"},{"bufferView":1,"byteOffset":146304,"componentType":5126,"count":2101,"max":[0.503549755,178.593475,2.805985],"min":[-6.23635864,171.875458,-4.579551],"type":"VEC3","name":"accessorPositions"},{"bufferView":1,"byteOffset":171516,"componentType":5126,"count":2101,"type":"VEC3","name":"accessorNormals"},{"bufferView":2,"byteOffset":97536,"componentType":5126,"count":2101,"type":"VEC4","name":"accessorTangents"},{"bufferView":3,"byteOffset":48768,"componentType":5126,"count":2101,"type":"VEC2","name":"accessorUVs"},{"bufferView":0,"byteOffset":92484,"componentType":5123,"count":11847,"type":"SCALAR","name":"accessorIndices"},{"bufferView":1,"byteOffset":196728,"componentType":5126,"count":2134,"max":[6.29695845,178.593338,2.81010818],"min":[-0.442946047,171.875336,-4.57974768],"type":"VEC3","name":"accessorPositions"},{"bufferView":1,"byteOffset":222336,"componentType":5126,"count":2134,"type":"VEC3","name":"accessorNormals"},{"bufferView":2,"byteOffset":131152,"componentType":5126,"count":2134,"type":"VEC4","name":"accessorTangents"},{"bufferView":3,"byteOffset":65576,"componentType":5126,"count":2134,"type":"VEC2","name":"accessorUVs"},{"bufferView":0,"byteOffset":116180,"componentType":5123,"count":2916,"type":"SCALAR","name":"accessorIndices"},{"bufferView":1,"byteOffset":247944,"componentType":5126,"count":527,"max":[4.255277,175.704529,-3.1906004],"min":[0.0183820426,168.252777,-6.06447029],"type":"VEC3","name":"accessorPositions"},{"bufferView":1,"byteOffset":254268,"componentType":5126,"count":527,"type":"VEC3","name":"accessorNormals"},{"bufferView":2,"byteOffset":165296,"componentType":5126,"count":527,"type":"VEC4","name":"accessorTangents"},{"bufferView":3,"byteOffset":82648,"componentType":5126,"count":527,"type":"VEC2","name":"accessorUVs"},{"bufferView":0,"byteOffset":122012,"componentType":5123,"count":2916,"type":"SCALAR","name":"accessorIndices"},{"bufferView":1,"byteOffset":260592,"componentType":5126,"count":503,"max":[-0.0322381034,175.704544,-3.190602],"min":[-4.269132,168.252777,-6.06447029],"type":"VEC3","name":"accessorPositions"},{"bufferView":1,"byteOffset":266628,"componentType":5126,"count":503,"type":"VEC3","name":"accessorNormals"},{"bufferView":2,"byteOffset":173728,"componentType":5126,"count":503,"type":"VEC4","name":"accessorTangents"},{"bufferView":3,"byteOffset":86864,"componentType":5126,"count":503,"type":"VEC2","name":"accessorUVs"},{"bufferView":0,"byteOffset":127844,"componentType":5123,"count":504,"type":"SCALAR","name":"accessorIndices"},{"bufferView":1,"byteOffset":272664,"componentType":5126,"count":100,"max":[0.6187373,170.137451,5.30603361],"min":[-0.04922551,168.7776,4.585921],"type":"VEC3","name":"accessorPositions"},{"bufferView":1,"byteOffset":273864,"componentType":5126,"count":100,"type":"VEC3","name":"accessorNormals"},{"bufferView":2,"byteOffset":181776,"componentType":5126,"count":100,"type":"VEC4","name":"accessorTangents"},{"bufferView":3,"byteOffset":90888,"componentType":5126,"count":100,"type":"VEC2","name":"accessorUVs"},{"bufferView":3,"byteOffset":91688,"componentType":5126,"count":100,"type":"VEC2","name":"accessorUV2s"},{"bufferView":0,"byteOffset":128852,"componentType":5123,"count":14298,"type":"SCALAR","name":"accessorIndices"},{"bufferView":1,"byteOffset":275064,"componentType":5126,"count":2498,"max":[6.38580847,174.168533,5.92796135],"min":[-0.112451,167.477844,-4.592445],"type":"VEC3","name":"accessorPositions"},{"bufferView":1,"byteOffset":305040,"componentType":5126,"count":2498,"type":"VEC3","name":"accessorNormals"},{"bufferView":2,"byteOffset":183376,"componentType":5126,"count":2498,"type":"VEC4","name":"accessorTangents"},{"bufferView":3,"byteOffset":92488,"componentType":5126,"count":2498,"type":"VEC2","name":"accessorUVs"},{"bufferView":0,"byteOffset":157448,"componentType":5123,"count":14340,"type":"SCALAR","name":"accessorIndices"},{"bufferView":1,"byteOffset":335016,"componentType":5126,"count":2568,"max":[0.1424891,174.167847,5.92796135],"min":[-6.35576963,167.477844,-4.592445],"type":"VEC3","name":"accessorPositions"},{"bufferView":1,"byteOffset":365832,"componentType":5126,"count":2568,"type":"VEC3","name":"accessorNormals"},{"bufferView":2,"byteOffset":223344,"componentType":5126,"count":2568,"type":"VEC4","name":"accessorTangents"},{"bufferView":3,"byteOffset":112472,"componentType":5126,"count":2568,"type":"VEC2","name":"accessorUVs"},{"bufferView":0,"byteOffset":186128,"componentType":5123,"count":6282,"type":"SCALAR","name":"accessorIndices"},{"bufferView":1,"byteOffset":396648,"componentType":5126,"count":1157,"max":[0.15383327,175.26326,6.545714],"min":[-4.109887,163.059525,-0.9242762],"type":"VEC3","name":"accessorPositions"},{"bufferView":1,"byteOffset":410532,"componentType":5126,"count":1157,"type":"VEC3","name":"accessorNormals"},{"bufferView":2,"byteOffset":264432,"componentType":5126,"count":1157,"type":"VEC4","name":"accessorTangents"},{"bufferView":3,"byteOffset":133016,"componentType":5126,"count":1157,"type":"VEC2","name":"accessorUVs"},{"bufferView":0,"byteOffset":198692,"componentType":5123,"count":6282,"type":"SCALAR","name":"accessorIndices"},{"bufferView":1,"byteOffset":424416,"componentType":5126,"count":1157,"max":[4.25804424,175.26326,6.545714],"min":[-0.005676627,163.059525,-0.9242762],"type":"VEC3","name":"accessorPositions"},{"bufferView":1,"byteOffset":438300,"componentType":5126,"count":1157,"type":"VEC3","name":"accessorNormals"},{"bufferView":2,"byteOffset":282944,"componentType":5126,"count":1157,"type":"VEC4","name":"accessorTangents"},{"bufferView":3,"byteOffset":142272,"componentType":5126,"count":1157,"type":"VEC2","name":"accessorUVs"},{"bufferView":0,"byteOffset":211256,"componentType":5123,"count":11856,"type":"SCALAR","name":"accessorIndices"},{"bufferView":1,"byteOffset":452184,"componentType":5126,"count":2132,"max":[-0.0151476562,169.742355,1.82084358],"min":[-4.46887159,165.4834,-4.08559561],"type":"VEC3","name":"accessorPositions"},{"bufferView":1,"byteOffset":477768,"componentType":5126,"count":2132,"type":"VEC3","name":"accessorNormals"},{"bufferView":2,"byteOffset":301456,"componentType":5126,"count":2132,"type":"VEC4","name":"accessorTangents"},{"bufferView":3,"byteOffset":151528,"componentType":5126,"count":2132,"type":"VEC2","name":"accessorUVs"},{"bufferView":0,"byteOffset":234968,"componentType":5123,"count":12330,"type":"SCALAR","name":"accessorIndices"},{"bufferView":1,"byteOffset":503352,"componentType":5126,"count":2217,"max":[4.419051,169.744659,1.81246066],"min":[-0.0351849571,165.485413,-4.07478857],"type":"VEC3","name":"accessorPositions"},{"bufferView":1,"byteOffset":529956,"componentType":5126,"count":2217,"type":"VEC3","name":"accessorNormals"},{"bufferView":2,"byteOffset":335568,"componentType":5126,"count":2217,"type":"VEC4","name":"accessorTangents"},{"bufferView":3,"byteOffset":168584,"componentType":5126,"count":2217,"type":"VEC2","name":"accessorUVs"},{"bufferView":4,"componentType":5126,"count":2,"max":[8.291667],"min":[0.0],"type":"SCALAR","name":"accessorAnimationInput"},{"bufferView":5,"componentType":5126,"count":2,"type":"VEC3","name":"accessorAnimationPositions"}],"bufferViews":[{"buffer":0,"byteLength":259628,"name":"bufferViewScalar"},{"buffer":0,"byteOffset":259628,"byteLength":556560,"byteStride":12,"name":"bufferViewFloatVec3"},{"buffer":0,"byteOffset":816188,"byteLength":371040,"byteStride":16,"name":"bufferViewFloatVec4"},{"buffer":0,"byteOffset":1187228,"byteLength":186320,"byteStride":8,"name":"bufferViewFloatVec2"},{"buffer":0,"byteOffset":1373548,"byteLength":8,"name":"bufferViewAnimationFloatScalar"},{"buffer":0,"byteOffset":1373556,"byteLength":24,"name":"bufferViewAnimationFloatVec3"}],"buffers":[{"uri":"Full Brain.bin","byteLength":1373580}],"materials":[{"pbrMetallicRoughness":{"baseColorFactor":[1.0,1.0,1.0,1.0],"baseColorTexture":{"index":0,"texCoord":0},"metallicFactor":1.0,"roughnessFactor":1.0,"metallicRoughnessTexture":{"index":1,"texCoord":0}},"emissiveFactor":[0.0,0.0,0.0],"alphaMode":"OPAQUE","name":"Full_Brain_Mat"},{"pbrMetallicRoughness":{"baseColorFactor":[1.0,1.0,1.0,1.0],"baseColorTexture":{"index":2,"texCoord":0},"metallicFactor":1.0,"roughnessFactor":1.0,"metallicRoughnessTexture":{"index":3,"texCoord":0}},"emissiveFactor":[0.0,0.0,0.0],"alphaMode":"OPAQUE","name":"Half_Brain_Mat"}],"textures":[{"sampler":0,"source":0,"name":"Full_Brain_Mat_baseColor.jpg"},{"sampler":1,"source":1,"name":"Full_Brain_Mat_metallicRoughness.jpg"},{"sampler":2,"source":2,"name":"Half_Brain_Mat_baseColor.jpg"},{"sampler":3,"source":3,"name":"Half_Brain_Mat_metallicRoughness.jpg"}],"images":[{"uri":"Full_Brain_Mat_baseColor.jpg"},{"uri":"Full_Brain_Mat_metallicRoughness.jpg"},{"uri":"Half_Brain_Mat_baseColor.jpg"},{"uri":"Half_Brain_Mat_metallicRoughness.jpg"}],"samplers":[{"magFilter":9729,"minFilter":9987,"wrapS":10497,"wrapT":10497},{"magFilter":9729,"minFilter":9987,"wrapS":10497,"wrapT":10497},{"magFilter":9729,"minFilter":9987,"wrapS":10497,"wrapT":10497},{"magFilter":9729,"minFilter":9987,"wrapS":10497,"wrapT":10497}],"animations":[{"channels":[{"sampler":0,"target":{"node":1,"path":"translation"}}],"samplers":[{"input":66,"interpolation":"LINEAR","output":67}],"name":"All Animations"}]}