{"asset":{"version":"2.0","generator":"babylon.js glTF exporter for maya 2018 v1.3.0"},"scene":0,"scenes":[{"nodes":[0],"extensions":{}}],"nodes":[{"mesh":0,"translation":[0.0,0.0,0.0],"rotation":[0.0,0.0,0.0,1.0],"scale":[1.0,1.0,1.0],"name":"Cross_Arrow_"}],"meshes":[{"primitives":[{"attributes":{"POSITION":1,"NORMAL":2,"TANGENT":3,"TEXCOORD_0":4},"indices":0,"mode":4,"material":0},{"attributes":{"POSITION":6,"NORMAL":7,"TANGENT":8,"TEXCOORD_0":9},"indices":5,"mode":4,"material":1}],"name":"Cross_Arrow_"}],"accessors":[{"bufferView":0,"componentType":5123,"count":960,"type":"SCALAR","name":"accessorIndices"},{"bufferView":1,"componentType":5126,"count":564,"max":[0.024049934,0.6030289,0.241586685],"min":[-0.04261407,-0.7315433,-0.531368732],"type":"VEC3","name":"accessorPositions"},{"bufferView":1,"byteOffset":6768,"componentType":5126,"count":564,"type":"VEC3","name":"accessorNormals"},{"bufferView":2,"componentType":5126,"count":564,"type":"VEC4","name":"accessorTangents"},{"bufferView":3,"componentType":5126,"count":564,"type":"VEC2","name":"accessorUVs"},{"bufferView":0,"byteOffset":1920,"componentType":5123,"count":2280,"type":"SCALAR","name":"accessorIndices"},{"bufferView":1,"byteOffset":13536,"componentType":5126,"count":439,"max":[1.00000012,0.9987112,1.71540928],"min":[-1.00000012,-0.9987112,-1.71540928],"type":"VEC3","name":"accessorPositions"},{"bufferView":1,"byteOffset":18804,"componentType":5126,"count":439,"type":"VEC3","name":"accessorNormals"},{"bufferView":2,"byteOffset":9024,"componentType":5126,"count":439,"type":"VEC4","name":"accessorTangents"},{"bufferView":3,"byteOffset":4512,"componentType":5126,"count":439,"type":"VEC2","name":"accessorUVs"}],"bufferViews":[{"buffer":0,"byteLength":6480,"name":"bufferViewScalar"},{"buffer":0,"byteOffset":6480,"byteLength":24072,"byteStride":12,"name":"bufferViewFloatVec3"},{"buffer":0,"byteOffset":30552,"byteLength":16048,"byteStride":16,"name":"bufferViewFloatVec4"},{"buffer":0,"byteOffset":46600,"byteLength":8024,"byteStride":8,"name":"bufferViewFloatVec2"}],"buffers":[{"uri":"Cross_Arrow.bin","byteLength":54624}],"materials":[{"pbrMetallicRoughness":{"baseColorFactor":[0.5,0.3661,0.01295,1.0],"metallicFactor":0.0,"roughnessFactor":0.3207082},"emissiveFactor":[0.0,0.0,0.0],"alphaMode":"OPAQUE","name":"Aero"},{"pbrMetallicRoughness":{"baseColorFactor":[0.1753,0.49585,0.5,0.181818187],"metallicFactor":0.0,"roughnessFactor":0.3207082},"emissiveFactor":[0.0,0.0,0.0],"alphaMode":"BLEND","name":"Egg_Shape_Glass"}]}