{"asset":{"version":"2.0","generator":"babylon.js glTF exporter for maya 2018 v1.3.0"},"scene":0,"scenes":[{"nodes":[0],"extensions":{}}],"nodes":[{"children":[1],"translation":[0.0,0.0,0.0],"rotation":[0.0,0.0,0.0,1.0],"scale":[1.0,1.0,1.0],"name":"Brain_Full"},{"children":[2],"translation":[0.0,0.0,0.0],"rotation":[0.0,0.0,0.0,1.0],"scale":[1.0,1.0,1.0],"name":"Parietal_Lobe"},{"mesh":0,"translation":[0.0,0.0,0.0],"rotation":[0.0,0.0,0.0,1.0],"scale":[1.0,1.0,1.0],"name":"Parietal_Lobe_Left"}],"meshes":[{"primitives":[{"attributes":{"POSITION":1,"NORMAL":2,"TANGENT":3,"TEXCOORD_0":4},"indices":0,"mode":4,"material":0}],"name":"Parietal_Lobe_Left"}],"accessors":[{"bufferView":0,"componentType":5123,"count":11847,"type":"SCALAR","name":"accessorIndices"},{"bufferView":1,"componentType":5126,"count":2134,"max":[6.281939,7.67909241,0.590082169],"min":[-0.457965463,0.9610901,-6.79977369],"type":"VEC3","name":"accessorPositions"},{"bufferView":1,"byteOffset":25608,"componentType":5126,"count":2134,"type":"VEC3","name":"accessorNormals"},{"bufferView":2,"componentType":5126,"count":2134,"type":"VEC4","name":"accessorTangents"},{"bufferView":3,"componentType":5126,"count":2134,"type":"VEC2","name":"accessorUVs"}],"bufferViews":[{"buffer":0,"byteLength":23696,"name":"bufferViewScalar"},{"buffer":0,"byteOffset":23696,"byteLength":51216,"byteStride":12,"name":"bufferViewFloatVec3"},{"buffer":0,"byteOffset":74912,"byteLength":34144,"byteStride":16,"name":"bufferViewFloatVec4"},{"buffer":0,"byteOffset":109056,"byteLength":17072,"byteStride":8,"name":"bufferViewFloatVec2"}],"buffers":[{"uri":"Transperent Parietal_Lobe.bin","byteLength":126128}],"materials":[{"pbrMetallicRoughness":{"baseColorFactor":[0.0,0.0551948063,0.0551948063,0.357142866],"metallicFactor":0.0,"roughnessFactor":0.450053632},"emissiveFactor":[0.0,0.0,0.0],"alphaMode":"BLEND","name":"lambert2"}]}