{"asset":{"version":"2.0","generator":"babylon.js glTF exporter for maya 2018 v1.3.0"},"scene":0,"scenes":[{"nodes":[0],"extensions":{}}],"nodes":[{"mesh":0,"translation":[0.0,0.0,0.0],"rotation":[0.0,0.0,0.0,1.0],"scale":[1.0,1.0,1.0],"name":"F"}],"meshes":[{"primitives":[{"attributes":{"POSITION":1,"NORMAL":2,"TANGENT":3,"TEXCOORD_0":4},"indices":0,"mode":4,"material":0}],"name":"F"}],"accessors":[{"bufferView":0,"componentType":5123,"count":120,"type":"SCALAR","name":"accessorIndices"},{"bufferView":1,"componentType":5126,"count":64,"max":[2.59740448,4.67532444,1.357547],"min":[-2.59740067,-4.67532444,-1.357547],"type":"VEC3","name":"accessorPositions"},{"bufferView":1,"byteOffset":768,"componentType":5126,"count":64,"type":"VEC3","name":"accessorNormals"},{"bufferView":2,"componentType":5126,"count":64,"type":"VEC4","name":"accessorTangents"},{"bufferView":3,"componentType":5126,"count":64,"type":"VEC2","name":"accessorUVs"}],"bufferViews":[{"buffer":0,"byteLength":240,"name":"bufferViewScalar"},{"buffer":0,"byteOffset":240,"byteLength":1536,"byteStride":12,"name":"bufferViewFloatVec3"},{"buffer":0,"byteOffset":1776,"byteLength":1024,"byteStride":16,"name":"bufferViewFloatVec4"},{"buffer":0,"byteOffset":2800,"byteLength":512,"byteStride":8,"name":"bufferViewFloatVec2"}],"buffers":[{"uri":"F.bin","byteLength":3312}],"materials":[{"pbrMetallicRoughness":{"baseColorFactor":[0.5,0.5,0.5,1.0],"metallicFactor":0.0,"roughnessFactor":0.201679826},"emissiveFactor":[0.0,0.0,0.0],"alphaMode":"OPAQUE","name":"typeBlinn"}]}