{"asset":{"version":"2.0","generator":"babylon.js glTF exporter for maya 2018 v1.3.0"},"scene":0,"scenes":[{"nodes":[0],"extensions":{}}],"nodes":[{"mesh":0,"translation":[0.0,0.0,0.0],"rotation":[0.0,0.0,0.0,1.0],"scale":[1.0,1.0,1.0],"name":"Angle_Arc_01_Geo"}],"meshes":[{"primitives":[{"attributes":{"POSITION":1,"NORMAL":2,"TANGENT":3,"TEXCOORD_0":4},"indices":0,"mode":4,"material":0}],"name":"Angle_Arc_01_Geo"}],"accessors":[{"bufferView":0,"componentType":5123,"count":840,"type":"SCALAR","name":"accessorIndices"},{"bufferView":1,"componentType":5126,"count":216,"max":[2.44570971,1.4088943,0.0740866661],"min":[-2.44570971,-0.125711918,-0.07677427],"type":"VEC3","name":"accessorPositions"},{"bufferView":1,"byteOffset":2592,"componentType":5126,"count":216,"type":"VEC3","name":"accessorNormals"},{"bufferView":2,"componentType":5126,"count":216,"type":"VEC4","name":"accessorTangents"},{"bufferView":3,"componentType":5126,"count":216,"type":"VEC2","name":"accessorUVs"}],"bufferViews":[{"buffer":0,"byteLength":1680,"name":"bufferViewScalar"},{"buffer":0,"byteOffset":1680,"byteLength":5184,"byteStride":12,"name":"bufferViewFloatVec3"},{"buffer":0,"byteOffset":6864,"byteLength":3456,"byteStride":16,"name":"bufferViewFloatVec4"},{"buffer":0,"byteOffset":10320,"byteLength":1728,"byteStride":8,"name":"bufferViewFloatVec2"}],"buffers":[{"uri":"Arc_arrow.bin","byteLength":12048}],"materials":[{"pbrMetallicRoughness":{"baseColorFactor":[0.04675,0.09775,0.019,1.0],"metallicFactor":0.0,"roughnessFactor":0.450053632},"emissiveFactor":[0.0,0.0,0.0],"alphaMode":"OPAQUE","name":"lambert2"}]}