{"asset":{"version":"2.0","generator":"babylon.js glTF exporter for maya 2018 v1.3.0"},"scene":0,"scenes":[{"nodes":[0],"extensions":{}}],"nodes":[{"children":[1],"translation":[-2.41292715,0.0,0.0],"rotation":[0.0,0.0,0.0,1.0],"scale":[1.0,1.0,1.0],"name":"Phenol_With_Map"},{"mesh":0,"translation":[0.0,0.0,0.0],"rotation":[0.0,0.0,0.0,1.0],"scale":[1.0,1.0,1.0],"name":"Hydroxy_Grp"}],"meshes":[{"primitives":[{"attributes":{"POSITION":1,"NORMAL":2,"TANGENT":3,"TEXCOORD_0":4},"indices":0,"mode":4,"material":0}],"name":"Hydroxy_Grp"}],"accessors":[{"bufferView":0,"componentType":5123,"count":1260,"type":"SCALAR","name":"accessorIndices"},{"bufferView":1,"componentType":5126,"count":282,"max":[-0.3545208,0.132169247,0.367467165],"min":[-0.875175,-0.102983966,-0.09916968],"type":"VEC3","name":"accessorPositions"},{"bufferView":1,"byteOffset":3384,"componentType":5126,"count":282,"type":"VEC3","name":"accessorNormals"},{"bufferView":2,"componentType":5126,"count":282,"type":"VEC4","name":"accessorTangents"},{"bufferView":3,"componentType":5126,"count":282,"type":"VEC2","name":"accessorUVs"}],"bufferViews":[{"buffer":0,"byteLength":2520,"name":"bufferViewScalar"},{"buffer":0,"byteOffset":2520,"byteLength":6768,"byteStride":12,"name":"bufferViewFloatVec3"},{"buffer":0,"byteOffset":9288,"byteLength":4512,"byteStride":16,"name":"bufferViewFloatVec4"},{"buffer":0,"byteOffset":13800,"byteLength":2256,"byteStride":8,"name":"bufferViewFloatVec2"}],"buffers":[{"uri":"Heilight.bin","byteLength":16056}],"materials":[{"pbrMetallicRoughness":{"baseColorFactor":[0.364,0.0357,0.02835,0.634146333],"metallicFactor":0.0,"roughnessFactor":0.201679826},"emissiveFactor":[0.0,0.0,0.0],"alphaMode":"BLEND","name":"blinn9"}]}