{"asset":{"version":"2.0","generator":"babylon.js glTF exporter for maya 2018 v1.3.0"},"scene":0,"scenes":[{"nodes":[0],"extensions":{}}],"nodes":[{"children":[1,8],"translation":[0.0,0.0,0.0],"rotation":[0.0,0.0,0.0,1.0],"scale":[1.0,1.0,1.0],"name":"Human_Brain"},{"children":[2],"translation":[0.0,0.0,0.0],"rotation":[0.0,0.0,0.0,1.0],"scale":[1.0,1.0,1.0],"name":"Anatomy_Male_grp"},{"children":[3,6],"translation":[0.0,0.0,0.0],"rotation":[0.0,0.0,0.0,1.0],"scale":[1.0,1.0,1.0],"name":"Male_Body_grp"},{"children":[4,5],"translation":[0.0,0.0,0.0],"rotation":[0.0,0.0,0.0,1.0],"scale":[1.0,1.0,1.0],"name":"Male_Body__Eyes"},{"mesh":0,"translation":[0.0,0.0,0.0],"rotation":[0.0,0.0,0.0,1.0],"scale":[1.0,1.0,1.0],"name":"Nervous_Eye_Ball_Inner_Left_Geo"},{"mesh":1,"translation":[0.0,0.0,0.0],"rotation":[0.0,0.0,0.0,1.0],"scale":[1.0,1.0,1.0],"name":"Nervous_Eye_Ball_Inner_Right_Geo"},{"children":[7],"translation":[0.0,0.0,0.0],"rotation":[0.0,0.0,0.0,1.0],"scale":[1.0,1.0,1.0],"name":"Skin"},{"mesh":2,"translation":[0.0,0.0,0.0],"rotation":[0.0,0.0,0.0,1.0],"scale":[1.0,1.0,1.0],"name":"Male_Body_No_Genitals_Geo"},{"children":[9,10],"translation":[0.0,0.0,0.0],"rotation":[0.0,0.0,0.0,1.0],"scale":[1.0,1.0,1.0],"name":"Man_cloths"},{"mesh":3,"translation":[0.0,0.0,0.0],"rotation":[0.0,0.0,0.0,1.0],"scale":[1.0,1.0,1.0],"name":"Man_Upper"},{"mesh":4,"translation":[0.0,0.0,0.0],"rotation":[0.0,0.0,0.0,1.0],"scale":[1.0,1.0,1.0],"name":"Man_Torso"}],"meshes":[{"primitives":[{"attributes":{"POSITION":1,"NORMAL":2,"TANGENT":3,"TEXCOORD_0":4},"indices":0,"mode":4,"material":0}],"name":"Nervous_Eye_Ball_Inner_Left_Geo"},{"primitives":[{"attributes":{"POSITION":6,"NORMAL":7,"TANGENT":8,"TEXCOORD_0":9},"indices":5,"mode":4,"material":0}],"name":"Nervous_Eye_Ball_Inner_Right_Geo"},{"primitives":[{"attributes":{"POSITION":11,"NORMAL":12,"TANGENT":13,"TEXCOORD_0":14,"TEXCOORD_1":15},"indices":10,"mode":4,"material":1}],"name":"Male_Body_No_Genitals_Geo"},{"primitives":[{"attributes":{"POSITION":17,"NORMAL":18,"TANGENT":19,"TEXCOORD_0":20},"indices":16,"mode":4,"material":2}],"name":"Man_Upper"},{"primitives":[{"attributes":{"POSITION":22,"NORMAL":23,"TANGENT":24,"TEXCOORD_0":25},"indices":21,"mode":4,"material":2}],"name":"Man_Torso"}],"accessors":[{"bufferView":0,"componentType":5123,"count":432,"type":"SCALAR","name":"accessorIndices"},{"bufferView":1,"componentType":5126,"count":82,"max":[4.37924957,169.37149,10.4549093],"min":[1.15576017,166.201965,7.46067429],"type":"VEC3","name":"accessorPositions"},{"bufferView":1,"byteOffset":984,"componentType":5126,"count":82,"type":"VEC3","name":"accessorNormals"},{"bufferView":2,"componentType":5126,"count":82,"type":"VEC4","name":"accessorTangents"},{"bufferView":3,"componentType":5126,"count":82,"type":"VEC2","name":"accessorUVs"},{"bufferView":0,"byteOffset":864,"componentType":5123,"count":432,"type":"SCALAR","name":"accessorIndices"},{"bufferView":1,"byteOffset":1968,"componentType":5126,"count":82,"max":[-1.15576017,169.37149,10.4549093],"min":[-4.37924957,166.201965,7.46067429],"type":"VEC3","name":"accessorPositions"},{"bufferView":1,"byteOffset":2952,"componentType":5126,"count":82,"type":"VEC3","name":"accessorNormals"},{"bufferView":2,"byteOffset":1312,"componentType":5126,"count":82,"type":"VEC4","name":"accessorTangents"},{"bufferView":3,"byteOffset":656,"componentType":5126,"count":82,"type":"VEC2","name":"accessorUVs"},{"bufferView":0,"byteOffset":1728,"componentType":5123,"count":45000,"type":"SCALAR","name":"accessorIndices"},{"bufferView":1,"byteOffset":3936,"componentType":5126,"count":8328,"max":[87.01365,179.919754,20.3620663],"min":[-87.01365,-0.0208904818,-16.9405136],"type":"VEC3","name":"accessorPositions"},{"bufferView":1,"byteOffset":103872,"componentType":5126,"count":8328,"type":"VEC3","name":"accessorNormals"},{"bufferView":2,"byteOffset":2624,"componentType":5126,"count":8328,"type":"VEC4","name":"accessorTangents"},{"bufferView":3,"byteOffset":1312,"componentType":5126,"count":8328,"type":"VEC2","name":"accessorUVs"},{"bufferView":3,"byteOffset":67936,"componentType":5126,"count":8328,"type":"VEC2","name":"accessorUV2s"},{"bufferView":0,"byteOffset":91728,"componentType":5123,"count":7572,"type":"SCALAR","name":"accessorIndices"},{"bufferView":1,"byteOffset":203808,"componentType":5126,"count":1380,"max":[25.6361885,158.6587,13.7987976],"min":[-25.6055527,97.12025,-18.784687],"type":"VEC3","name":"accessorPositions"},{"bufferView":1,"byteOffset":220368,"componentType":5126,"count":1380,"type":"VEC3","name":"accessorNormals"},{"bufferView":2,"byteOffset":135872,"componentType":5126,"count":1380,"type":"VEC4","name":"accessorTangents"},{"bufferView":3,"byteOffset":134560,"componentType":5126,"count":1380,"type":"VEC2","name":"accessorUVs"},{"bufferView":0,"byteOffset":106872,"componentType":5123,"count":11883,"type":"SCALAR","name":"accessorIndices"},{"bufferView":1,"byteOffset":236928,"componentType":5126,"count":2098,"max":[20.18888,114.552628,12.9730959],"min":[-19.9111748,68.90665,-17.2986412],"type":"VEC3","name":"accessorPositions"},{"bufferView":1,"byteOffset":262104,"componentType":5126,"count":2098,"type":"VEC3","name":"accessorNormals"},{"bufferView":2,"byteOffset":157952,"componentType":5126,"count":2098,"type":"VEC4","name":"accessorTangents"},{"bufferView":3,"byteOffset":145600,"componentType":5126,"count":2098,"type":"VEC2","name":"accessorUVs"}],"bufferViews":[{"buffer":0,"byteLength":130640,"name":"bufferViewScalar"},{"buffer":0,"byteOffset":130640,"byteLength":287280,"byteStride":12,"name":"bufferViewFloatVec3"},{"buffer":0,"byteOffset":417920,"byteLength":191520,"byteStride":16,"name":"bufferViewFloatVec4"},{"buffer":0,"byteOffset":609440,"byteLength":162384,"byteStride":8,"name":"bufferViewFloatVec2"}],"buffers":[{"uri":"Body.bin","byteLength":771824}],"materials":[{"pbrMetallicRoughness":{"baseColorFactor":[1.0,1.0,1.0,1.0],"baseColorTexture":{"index":1,"texCoord":0},"metallicFactor":0.0,"roughnessFactor":0.2581639},"emissiveTexture":{"index":0,"texCoord":0},"emissiveFactor":[1.0,1.0,1.0],"alphaMode":"OPAQUE","name":"Nervous_Eye_Ball_Inner_Left_mat1"},{"pbrMetallicRoughness":{"baseColorFactor":[1.0,1.0,1.0,1.0],"baseColorTexture":{"index":2,"texCoord":0},"metallicFactor":0.0,"roughnessFactor":0.23726733},"emissiveFactor":[0.0,0.0,0.0],"alphaMode":"OPAQUE","name":"Male_Body_No_Genitals_mat"},{"pbrMetallicRoughness":{"baseColorFactor":[1.0,1.0,1.0,1.0],"baseColorTexture":{"index":3,"texCoord":0},"metallicFactor":0.0,"roughnessFactor":0.450053632},"emissiveFactor":[0.0,0.0,0.0],"alphaMode":"OPAQUE","name":"Man_Sports_wear"}],"textures":[{"sampler":0,"source":0,"name":"Nervous_Eye_Ball_Inner_Left_mat1_emissive.jpg"},{"sampler":1,"source":1,"name":"Nervous_Eye_Ball_Inner_Left_mat1_baseColor.jpg"},{"sampler":2,"source":2,"name":"Male_Body_No_Genitals_mat_baseColor.jpg"},{"sampler":3,"source":3,"name":"Man_Sports_wear_baseColor.jpg"}],"images":[{"uri":"Nervous_Eye_Ball_Inner_Left_mat1_emissive.jpg"},{"uri":"Nervous_Eye_Ball_Inner_Left_mat1_baseColor.jpg"},{"uri":"Male_Body_No_Genitals_mat_baseColor.jpg"},{"uri":"Man_Sports_wear_baseColor.jpg"}],"samplers":[{"magFilter":9729,"minFilter":9987,"wrapS":10497,"wrapT":10497},{"magFilter":9729,"minFilter":9987,"wrapS":10497,"wrapT":10497},{"magFilter":9729,"minFilter":9987,"wrapS":10497,"wrapT":10497},{"magFilter":9729,"minFilter":9987,"wrapS":10497,"wrapT":10497}]}