{"asset":{"version":"2.0","generator":"babylon.js glTF exporter for maya 2018 v1.3.0"},"scene":0,"scenes":[{"nodes":[0],"extensions":{}}],"nodes":[{"mesh":0,"translation":[0.0,0.0,0.0],"rotation":[0.0,0.0,0.0,1.0],"scale":[1.0,1.0,1.0],"name":"Oxigen"}],"meshes":[{"primitives":[{"attributes":{"POSITION":1,"NORMAL":2,"TANGENT":3,"TEXCOORD_0":4},"indices":0,"mode":4,"material":0}],"name":"Oxigen"}],"accessors":[{"bufferView":0,"componentType":5123,"count":768,"type":"SCALAR","name":"accessorIndices"},{"bufferView":1,"componentType":5126,"count":166,"max":[16.2115326,5.973648,0.8768797],"min":[14.911377,4.647461,-0.423377037],"type":"VEC3","name":"accessorPositions"},{"bufferView":1,"byteOffset":1992,"componentType":5126,"count":166,"type":"VEC3","name":"accessorNormals"},{"bufferView":2,"componentType":5126,"count":166,"type":"VEC4","name":"accessorTangents"},{"bufferView":3,"componentType":5126,"count":166,"type":"VEC2","name":"accessorUVs"}],"bufferViews":[{"buffer":0,"byteLength":1536,"name":"bufferViewScalar"},{"buffer":0,"byteOffset":1536,"byteLength":3984,"byteStride":12,"name":"bufferViewFloatVec3"},{"buffer":0,"byteOffset":5520,"byteLength":2656,"byteStride":16,"name":"bufferViewFloatVec4"},{"buffer":0,"byteOffset":8176,"byteLength":1328,"byteStride":8,"name":"bufferViewFloatVec2"}],"buffers":[{"uri":"Oxygen.bin","byteLength":9504}],"materials":[{"pbrMetallicRoughness":{"baseColorFactor":[1.0,1.0,1.0,1.0],"baseColorTexture":{"index":0,"texCoord":0},"metallicFactor":0.0,"roughnessFactor":0.450053632},"emissiveFactor":[0.0,0.0,0.0],"alphaMode":"OPAQUE","name":"Atom_Diff_Set_1"}],"textures":[{"sampler":0,"source":0,"name":"Atom_Diff_Set_1_baseColor.jpg"}],"images":[{"uri":"Atom_Diff_Set_1_baseColor.jpg"}],"samplers":[{"magFilter":9729,"minFilter":9987,"wrapS":10497,"wrapT":10497}]}