{"asset":{"version":"2.0","generator":"babylon.js glTF exporter for maya 2018 v1.3.0"},"scene":0,"scenes":[{"nodes":[0],"extensions":{}}],"nodes":[{"mesh":0,"translation":[0.0,0.0,0.0],"rotation":[0.0,0.0,0.0,1.0],"scale":[1.0,1.0,1.0],"name":"Box_Highlight"}],"meshes":[{"primitives":[{"attributes":{"POSITION":1,"NORMAL":2,"TANGENT":3,"TEXCOORD_0":4},"indices":0,"mode":4,"material":0}],"name":"Box_Highlight"}],"accessors":[{"bufferView":0,"componentType":5123,"count":132,"type":"SCALAR","name":"accessorIndices"},{"bufferView":1,"componentType":5126,"count":38,"max":[16.9092255,6.427147,1.73410082],"min":[14.1074829,4.24550056,-1.0799787],"type":"VEC3","name":"accessorPositions"},{"bufferView":1,"byteOffset":456,"componentType":5126,"count":38,"type":"VEC3","name":"accessorNormals"},{"bufferView":2,"componentType":5126,"count":38,"type":"VEC4","name":"accessorTangents"},{"bufferView":3,"componentType":5126,"count":38,"type":"VEC2","name":"accessorUVs"}],"bufferViews":[{"buffer":0,"byteLength":264,"name":"bufferViewScalar"},{"buffer":0,"byteOffset":264,"byteLength":912,"byteStride":12,"name":"bufferViewFloatVec3"},{"buffer":0,"byteOffset":1176,"byteLength":608,"byteStride":16,"name":"bufferViewFloatVec4"},{"buffer":0,"byteOffset":1784,"byteLength":304,"byteStride":8,"name":"bufferViewFloatVec2"}],"buffers":[{"uri":"Box_Highlight.bin","byteLength":2088}],"materials":[{"pbrMetallicRoughness":{"baseColorFactor":[0.5,0.0,0.0,0.5447154],"metallicFactor":0.0,"roughnessFactor":0.3207082},"emissiveFactor":[0.0,0.0,0.0],"alphaMode":"BLEND","name":"Glow"}]}