{"asset":{"version":"2.0","generator":"babylon.js glTF exporter for maya 2018 v1.3.0"},"scene":0,"scenes":[{"nodes":[0],"extensions":{}}],"nodes":[{"children":[1],"translation":[0.0,0.0,0.0],"rotation":[0.0,0.0,0.0,1.0],"scale":[1.0,1.0,1.0],"name":"Arrow_Chromosomes_Grp"},{"mesh":0,"translation":[-6.49132872,-0.290231526,-0.526420653],"rotation":[0.0,0.0,0.0,1.0],"scale":[1.0,1.0,1.0],"name":"X"}],"meshes":[{"primitives":[{"attributes":{"POSITION":1,"NORMAL":2,"TANGENT":3,"TEXCOORD_0":4},"indices":0,"mode":4,"material":0}],"name":"X"}],"accessors":[{"bufferView":0,"componentType":5123,"count":144,"type":"SCALAR","name":"accessorIndices"},{"bufferView":1,"componentType":5126,"count":74,"max":[6.859947,0.4044981,0.935623169],"min":[6.122711,0.175965309,0.117218018],"type":"VEC3","name":"accessorPositions"},{"bufferView":1,"byteOffset":888,"componentType":5126,"count":74,"type":"VEC3","name":"accessorNormals"},{"bufferView":2,"componentType":5126,"count":74,"type":"VEC4","name":"accessorTangents"},{"bufferView":3,"componentType":5126,"count":74,"type":"VEC2","name":"accessorUVs"},{"bufferView":4,"componentType":5126,"count":2,"max":[8.291667],"min":[0.0],"type":"SCALAR","name":"accessorAnimationInput"},{"bufferView":5,"componentType":5126,"count":2,"type":"VEC3","name":"accessorAnimationPositions"}],"bufferViews":[{"buffer":0,"byteLength":288,"name":"bufferViewScalar"},{"buffer":0,"byteOffset":288,"byteLength":1776,"byteStride":12,"name":"bufferViewFloatVec3"},{"buffer":0,"byteOffset":2064,"byteLength":1184,"byteStride":16,"name":"bufferViewFloatVec4"},{"buffer":0,"byteOffset":3248,"byteLength":592,"byteStride":8,"name":"bufferViewFloatVec2"},{"buffer":0,"byteOffset":3840,"byteLength":8,"name":"bufferViewAnimationFloatScalar"},{"buffer":0,"byteOffset":3848,"byteLength":24,"name":"bufferViewAnimationFloatVec3"}],"buffers":[{"uri":"X.bin","byteLength":3872}],"materials":[{"pbrMetallicRoughness":{"baseColorFactor":[0.29015,0.0452,0.0675,1.0],"metallicFactor":0.0,"roughnessFactor":0.450053632},"emissiveFactor":[0.0,0.0,0.0],"alphaMode":"OPAQUE","name":"Arrow_Diff"}],"animations":[{"channels":[{"sampler":0,"target":{"node":1,"path":"translation"}}],"samplers":[{"input":5,"interpolation":"LINEAR","output":6}],"name":"All Animations"}]}