{"asset":{"version":"2.0","generator":"babylon.js glTF exporter for maya 2018 v1.3.0"},"scene":0,"scenes":[{"nodes":[0],"extensions":{}}],"nodes":[{"children":[1],"translation":[0.0,-171.27948,0.0],"rotation":[0.0,0.0,0.0,1.0],"scale":[1.0,1.0,1.0],"name":"Half_Section_Brain1"},{"mesh":0,"translation":[0.0,0.0,0.0],"rotation":[0.0,0.0,0.0,1.0],"scale":[1.0,1.0,1.0],"name":"Carebrum"}],"meshes":[{"primitives":[{"attributes":{"POSITION":1,"NORMAL":2,"TEXCOORD_0":3,"TEXCOORD_1":4},"indices":0,"mode":4,"material":0}],"name":"Carebrum"}],"accessors":[{"bufferView":0,"componentType":5123,"count":29400,"type":"SCALAR","name":"accessorIndices"},{"bufferView":1,"componentType":5126,"count":5375,"max":[6.420817,178.800934,10.4312258],"min":[-0.179617226,167.48056,-6.32649469],"type":"VEC3","name":"accessorPositions"},{"bufferView":1,"byteOffset":64500,"componentType":5126,"count":5375,"type":"VEC3","name":"accessorNormals"},{"bufferView":2,"componentType":5126,"count":5375,"type":"VEC2","name":"accessorUVs"},{"bufferView":2,"byteOffset":43000,"componentType":5126,"count":5375,"type":"VEC2","name":"accessorUV2s"}],"bufferViews":[{"buffer":0,"byteLength":58800,"name":"bufferViewScalar"},{"buffer":0,"byteOffset":58800,"byteLength":129000,"byteStride":12,"name":"bufferViewFloatVec3"},{"buffer":0,"byteOffset":187800,"byteLength":86000,"byteStride":8,"name":"bufferViewFloatVec2"}],"buffers":[{"uri":"Carebrum_Trans.bin","byteLength":273800}],"materials":[{"pbrMetallicRoughness":{"baseColorFactor":[0.1995,0.1995,0.5,0.266233742],"metallicFactor":0.0,"roughnessFactor":0.2581639},"emissiveFactor":[0.0,0.0,0.0],"alphaMode":"BLEND","name":"phong1"}]}