{"asset":{"version":"2.0","generator":"babylon.js glTF exporter for maya 2018 v1.3.0"},"scene":0,"scenes":[{"nodes":[0],"extensions":{}}],"nodes":[{"children":[1],"translation":[0.0,-171.27948,0.0],"rotation":[0.0,0.0,0.0,1.0],"scale":[1.0,1.0,1.0],"name":"Half_Section_Brain1"},{"mesh":0,"translation":[0.0,0.0,0.0],"rotation":[0.0,0.0,0.0,1.0],"scale":[1.0,1.0,1.0],"name":"Thalamus_Part_B"}],"meshes":[{"primitives":[{"attributes":{"POSITION":1,"NORMAL":2,"TEXCOORD_0":3},"indices":0,"mode":4,"material":0}],"name":"Thalamus_Part_B"}],"accessors":[{"bufferView":0,"componentType":5123,"count":1302,"type":"SCALAR","name":"accessorIndices"},{"bufferView":1,"componentType":5126,"count":227,"max":[2.25498962,173.389145,5.329898],"min":[0.1333636,168.70697,0.294349223],"type":"VEC3","name":"accessorPositions"},{"bufferView":1,"byteOffset":2724,"componentType":5126,"count":227,"type":"VEC3","name":"accessorNormals"},{"bufferView":2,"componentType":5126,"count":227,"type":"VEC2","name":"accessorUVs"}],"bufferViews":[{"buffer":0,"byteLength":2604,"name":"bufferViewScalar"},{"buffer":0,"byteOffset":2604,"byteLength":5448,"byteStride":12,"name":"bufferViewFloatVec3"},{"buffer":0,"byteOffset":8052,"byteLength":1816,"byteStride":8,"name":"bufferViewFloatVec2"}],"buffers":[{"uri":"Thalamus_Part_B_Trans.bin","byteLength":9868}],"materials":[{"pbrMetallicRoughness":{"baseColorFactor":[0.1995,0.1995,0.5,0.266233742],"metallicFactor":0.0,"roughnessFactor":0.2581639},"emissiveFactor":[0.0,0.0,0.0],"alphaMode":"BLEND","name":"phong1"}]}