{"asset":{"version":"2.0","generator":"babylon.js glTF exporter for maya 2018 v1.3.0"},"scene":0,"scenes":[{"nodes":[0],"extensions":{}}],"nodes":[{"children":[1],"translation":[0.0,-168.866745,0.0],"rotation":[0.0,0.0,0.0,1.0],"scale":[1.0,1.0,1.0],"name":"Half_Section_Brain"},{"mesh":0,"translation":[0.0,0.0,0.0],"rotation":[0.0,0.0,0.0,1.0],"scale":[1.0,1.0,1.0],"name":"Pituitary_Gland_Part_A"}],"meshes":[{"primitives":[{"attributes":{"POSITION":1,"NORMAL":2,"TANGENT":3,"TEXCOORD_0":4,"TEXCOORD_1":5},"indices":0,"mode":4,"material":0}],"name":"Pituitary_Gland_Part_A"}],"accessors":[{"bufferView":0,"componentType":5123,"count":552,"type":"SCALAR","name":"accessorIndices"},{"bufferView":1,"componentType":5126,"count":143,"max":[0.09502621,169.912323,4.714141],"min":[-0.267344,169.242264,4.39328671],"type":"VEC3","name":"accessorPositions"},{"bufferView":1,"byteOffset":1716,"componentType":5126,"count":143,"type":"VEC3","name":"accessorNormals"},{"bufferView":2,"componentType":5126,"count":143,"type":"VEC4","name":"accessorTangents"},{"bufferView":3,"componentType":5126,"count":143,"type":"VEC2","name":"accessorUVs"},{"bufferView":3,"byteOffset":1144,"componentType":5126,"count":143,"type":"VEC2","name":"accessorUV2s"}],"bufferViews":[{"buffer":0,"byteLength":1104,"name":"bufferViewScalar"},{"buffer":0,"byteOffset":1104,"byteLength":3432,"byteStride":12,"name":"bufferViewFloatVec3"},{"buffer":0,"byteOffset":4536,"byteLength":2288,"byteStride":16,"name":"bufferViewFloatVec4"},{"buffer":0,"byteOffset":6824,"byteLength":2288,"byteStride":8,"name":"bufferViewFloatVec2"}],"buffers":[{"uri":"Transperent Pituitary_Gland_Part_A.bin","byteLength":9112}],"materials":[{"pbrMetallicRoughness":{"baseColorFactor":[0.0,0.0551948063,0.0551948063,0.357142866],"metallicFactor":0.0,"roughnessFactor":0.450053632},"emissiveFactor":[0.0,0.0,0.0],"alphaMode":"BLEND","name":"lambert2"}]}