{"asset":{"version":"2.0","generator":"babylon.js glTF exporter for maya 2018 v1.3.0"},"scene":0,"scenes":[{"nodes":[0],"extensions":{}}],"nodes":[{"mesh":0,"translation":[-27.04531,0.0,0.0],"rotation":[0.0,0.0,0.0,1.0],"scale":[1.0,1.0,1.0],"name":"Atom_Box_13"}],"meshes":[{"primitives":[{"attributes":{"POSITION":1,"NORMAL":2,"TANGENT":3,"TEXCOORD_0":4},"indices":0,"mode":4,"material":0},{"attributes":{"POSITION":6,"NORMAL":7,"TANGENT":8,"TEXCOORD_0":9},"indices":5,"mode":4,"material":1}],"name":"Atom_Box_13"}],"accessors":[{"bufferView":0,"componentType":5123,"count":468,"type":"SCALAR","name":"accessorIndices"},{"bufferView":1,"componentType":5126,"count":152,"max":[0.0369567871,1.01148033,1.06851959],"min":[-2.06452942,-1.01148033,-1.0685215],"type":"VEC3","name":"accessorPositions"},{"bufferView":1,"byteOffset":1824,"componentType":5126,"count":152,"type":"VEC3","name":"accessorNormals"},{"bufferView":2,"componentType":5126,"count":152,"type":"VEC4","name":"accessorTangents"},{"bufferView":3,"componentType":5126,"count":152,"type":"VEC2","name":"accessorUVs"},{"bufferView":0,"byteOffset":936,"componentType":5123,"count":102,"type":"SCALAR","name":"accessorIndices"},{"bufferView":1,"byteOffset":3648,"componentType":5126,"count":44,"max":[0.06452942,1.01148033,0.880123138],"min":[-2.03695679,-1.01148033,-1.067339],"type":"VEC3","name":"accessorPositions"},{"bufferView":1,"byteOffset":4176,"componentType":5126,"count":44,"type":"VEC3","name":"accessorNormals"},{"bufferView":2,"byteOffset":2432,"componentType":5126,"count":44,"type":"VEC4","name":"accessorTangents"},{"bufferView":3,"byteOffset":1216,"componentType":5126,"count":44,"type":"VEC2","name":"accessorUVs"},{"bufferView":4,"componentType":5126,"count":2,"max":[23.416666],"min":[0.0],"type":"SCALAR","name":"accessorAnimationInput"},{"bufferView":5,"componentType":5126,"count":2,"type":"VEC3","name":"accessorAnimationPositions"}],"bufferViews":[{"buffer":0,"byteLength":1140,"name":"bufferViewScalar"},{"buffer":0,"byteOffset":1140,"byteLength":4704,"byteStride":12,"name":"bufferViewFloatVec3"},{"buffer":0,"byteOffset":5844,"byteLength":3136,"byteStride":16,"name":"bufferViewFloatVec4"},{"buffer":0,"byteOffset":8980,"byteLength":1568,"byteStride":8,"name":"bufferViewFloatVec2"},{"buffer":0,"byteOffset":10548,"byteLength":8,"name":"bufferViewAnimationFloatScalar"},{"buffer":0,"byteOffset":10556,"byteLength":24,"name":"bufferViewAnimationFloatVec3"}],"buffers":[{"uri":"Atom_Box.bin","byteLength":10580}],"materials":[{"pbrMetallicRoughness":{"baseColorFactor":[0.0119030112,0.0351979025,0.121951222,0.34959352],"metallicFactor":0.0,"roughnessFactor":0.3207082},"emissiveFactor":[0.0,0.0,0.0],"alphaMode":"BLEND","name":"glass_box"},{"pbrMetallicRoughness":{"baseColorFactor":[0.0162337665,0.0162337665,0.0162337665,0.471544743],"metallicFactor":0.0,"roughnessFactor":0.3207082},"emissiveFactor":[0.0,0.0,0.0],"alphaMode":"BLEND","name":"Atom_Box_Glass_Diff"}],"animations":[{"channels":[{"sampler":0,"target":{"node":0,"path":"translation"}}],"samplers":[{"input":10,"interpolation":"LINEAR","output":11}],"name":"All Animations"}]}