{"asset":{"version":"2.0","generator":"babylon.js glTF exporter for maya 2018 v1.3.0"},"scene":0,"scenes":[{"nodes":[0],"extensions":{}}],"nodes":[{"children":[1],"translation":[0.0,0.0,0.0],"rotation":[0.0,0.0,0.0,1.0],"scale":[1.0,1.0,1.0],"name":"Arrow_Chromosomes_Grp"},{"children":[2],"translation":[0.0,0.0,0.0],"rotation":[0.0,0.0,0.0,1.0],"scale":[1.0,1.0,1.0],"name":"Chromosomes_Grp"},{"mesh":0,"translation":[-0.631259561,-0.155766487,-0.498929143],"rotation":[0.0,0.0,0.0,1.0],"scale":[1.0,1.0,1.0],"name":"Chromosomes_r"}],"meshes":[{"primitives":[{"attributes":{"POSITION":1,"NORMAL":2,"TANGENT":3,"TEXCOORD_0":4},"indices":0,"mode":4,"material":0}],"name":"Chromosomes_r"}],"accessors":[{"bufferView":0,"componentType":5123,"count":2160,"type":"SCALAR","name":"accessorIndices"},{"bufferView":1,"componentType":5126,"count":441,"max":[1.05686915,0.581378937,2.75186086],"min":[0.205649972,-0.269845963,-1.75400257],"type":"VEC3","name":"accessorPositions"},{"bufferView":1,"byteOffset":5292,"componentType":5126,"count":441,"type":"VEC3","name":"accessorNormals"},{"bufferView":2,"componentType":5126,"count":441,"type":"VEC4","name":"accessorTangents"},{"bufferView":3,"componentType":5126,"count":441,"type":"VEC2","name":"accessorUVs"},{"bufferView":4,"componentType":5126,"count":2,"max":[8.291667],"min":[0.0],"type":"SCALAR","name":"accessorAnimationInput"},{"bufferView":5,"componentType":5126,"count":2,"type":"VEC3","name":"accessorAnimationPositions"}],"bufferViews":[{"buffer":0,"byteLength":4320,"name":"bufferViewScalar"},{"buffer":0,"byteOffset":4320,"byteLength":10584,"byteStride":12,"name":"bufferViewFloatVec3"},{"buffer":0,"byteOffset":14904,"byteLength":7056,"byteStride":16,"name":"bufferViewFloatVec4"},{"buffer":0,"byteOffset":21960,"byteLength":3528,"byteStride":8,"name":"bufferViewFloatVec2"},{"buffer":0,"byteOffset":25488,"byteLength":8,"name":"bufferViewAnimationFloatScalar"},{"buffer":0,"byteOffset":25496,"byteLength":24,"name":"bufferViewAnimationFloatVec3"}],"buffers":[{"uri":"Chromosomes_r_red.bin","byteLength":25520}],"materials":[{"pbrMetallicRoughness":{"baseColorFactor":[1.0,1.0,1.0,1.0],"baseColorTexture":{"index":1,"texCoord":0},"metallicFactor":0.0,"roughnessFactor":0.3207082},"normalTexture":{"index":0,"texCoord":0},"emissiveFactor":[0.0,0.0,0.0],"alphaMode":"OPAQUE","name":"Chromosomes_Diff"}],"textures":[{"sampler":0,"source":0,"name":"chromosomes_NM.jpg"},{"sampler":1,"source":1,"name":"Chromosomes_Diff_baseColor.jpg"}],"images":[{"uri":"chromosomes_NM.jpg"},{"uri":"Chromosomes_Diff_baseColor.jpg"}],"samplers":[{"magFilter":9729,"minFilter":9987,"wrapS":10497,"wrapT":10497},{"magFilter":9729,"minFilter":9987,"wrapS":10497,"wrapT":10497}],"animations":[{"channels":[{"sampler":0,"target":{"node":2,"path":"translation"}}],"samplers":[{"input":5,"interpolation":"LINEAR","output":6}],"name":"All Animations"}]}