{"asset":{"version":"2.0","generator":"babylon.js glTF exporter for maya 2018 v1.3.0"},"scene":0,"scenes":[{"nodes":[0],"extensions":{}}],"nodes":[{"children":[1],"translation":[0.0,-172.453949,0.0],"rotation":[0.0,0.0,0.0,1.0],"scale":[1.0,1.0,1.0],"name":"Brain_Full"},{"children":[2,3],"translation":[0.0,0.0,0.0],"rotation":[0.0,0.0,0.0,1.0],"scale":[1.0,1.0,1.0],"name":"Temporal_Lobe"},{"mesh":0,"translation":[0.0,0.0,0.0],"rotation":[0.0,0.0,0.0,1.0],"scale":[1.0,1.0,1.0],"name":"Temporal_Lobe_Left"},{"mesh":1,"translation":[0.0,0.0,0.0],"rotation":[0.0,0.0,0.0,1.0],"scale":[1.0,1.0,1.0],"name":"Temporal_Lobe_Right"}],"meshes":[{"primitives":[{"attributes":{"POSITION":1,"NORMAL":2,"TEXCOORD_0":3},"indices":0,"mode":4,"material":0}],"name":"Temporal_Lobe_Left"},{"primitives":[{"attributes":{"POSITION":5,"NORMAL":6,"TEXCOORD_0":7},"indices":4,"mode":4,"material":0}],"name":"Temporal_Lobe_Right"}],"accessors":[{"bufferView":0,"componentType":5123,"count":14298,"type":"SCALAR","name":"accessorIndices"},{"bufferView":1,"componentType":5126,"count":2498,"max":[6.38580847,174.168533,5.92796135],"min":[-0.112451,167.477844,-4.592445],"type":"VEC3","name":"accessorPositions"},{"bufferView":1,"byteOffset":29976,"componentType":5126,"count":2498,"type":"VEC3","name":"accessorNormals"},{"bufferView":2,"componentType":5126,"count":2498,"type":"VEC2","name":"accessorUVs"},{"bufferView":0,"byteOffset":28596,"componentType":5123,"count":14340,"type":"SCALAR","name":"accessorIndices"},{"bufferView":1,"byteOffset":59952,"componentType":5126,"count":2568,"max":[0.1424891,174.167847,5.92796135],"min":[-6.35576963,167.477844,-4.592445],"type":"VEC3","name":"accessorPositions"},{"bufferView":1,"byteOffset":90768,"componentType":5126,"count":2568,"type":"VEC3","name":"accessorNormals"},{"bufferView":2,"byteOffset":19984,"componentType":5126,"count":2568,"type":"VEC2","name":"accessorUVs"}],"bufferViews":[{"buffer":0,"byteLength":57276,"name":"bufferViewScalar"},{"buffer":0,"byteOffset":57276,"byteLength":121584,"byteStride":12,"name":"bufferViewFloatVec3"},{"buffer":0,"byteOffset":178860,"byteLength":40528,"byteStride":8,"name":"bufferViewFloatVec2"}],"buffers":[{"uri":"Temporal_Lobe.bin","byteLength":219388}],"materials":[{"pbrMetallicRoughness":{"baseColorFactor":[1.0,1.0,1.0,1.0],"baseColorTexture":{"index":0,"texCoord":0},"metallicFactor":1.0,"roughnessFactor":1.0,"metallicRoughnessTexture":{"index":1,"texCoord":0}},"emissiveFactor":[0.0,0.0,0.0],"alphaMode":"OPAQUE","name":"Full_Brain_Mat"}],"textures":[{"sampler":0,"source":0,"name":"Full_Brain_Mat_baseColor.jpg"},{"sampler":1,"source":1,"name":"Full_Brain_Mat_metallicRoughness.jpg"}],"images":[{"uri":"Full_Brain_Mat_baseColor.jpg"},{"uri":"Full_Brain_Mat_metallicRoughness.jpg"}],"samplers":[{"magFilter":9729,"minFilter":9987,"wrapS":10497,"wrapT":10497},{"magFilter":9729,"minFilter":9987,"wrapS":10497,"wrapT":10497}]}