{"asset":{"version":"2.0","generator":"babylon.js glTF exporter for maya 2018 v1.3.0"},"scene":0,"scenes":[{"nodes":[0],"extensions":{}}],"nodes":[{"children":[1],"translation":[-2.41292715,0.0,0.0],"rotation":[0.0,0.0,0.0,1.0],"scale":[1.0,1.0,1.0],"name":"Phenol_With_Map"},{"children":[2],"translation":[0.0,0.0,0.0],"rotation":[0.0,0.0,0.0,1.0],"scale":[1.0,1.0,1.0],"name":"phenol_Map"},{"children":[3],"translation":[0.0,0.0,0.0],"rotation":[0.0,0.0,0.0,1.0],"scale":[1.0,1.0,1.0],"name":"polySurface1"},{"children":[4],"translation":[0.0,0.0,0.0],"rotation":[0.0,0.0,0.0,1.0],"scale":[1.0,1.0,1.0],"name":"polySurface3"},{"mesh":0,"translation":[0.0,0.0,0.0],"rotation":[0.0,0.0,0.0,1.0],"scale":[1.0,1.0,1.0],"name":"Yellow"}],"meshes":[{"primitives":[{"attributes":{"POSITION":1,"NORMAL":2,"TANGENT":3,"TEXCOORD_0":4},"indices":0,"mode":4,"material":0}],"name":"Yellow"}],"accessors":[{"bufferView":0,"componentType":5123,"count":129,"type":"SCALAR","name":"accessorIndices"},{"bufferView":1,"componentType":5126,"count":47,"max":[-0.3348689,0.1819996,-0.00946855],"min":[-0.863014936,-0.182677031,-0.440946668],"type":"VEC3","name":"accessorPositions"},{"bufferView":1,"byteOffset":564,"componentType":5126,"count":47,"type":"VEC3","name":"accessorNormals"},{"bufferView":2,"componentType":5126,"count":47,"type":"VEC4","name":"accessorTangents"},{"bufferView":3,"componentType":5126,"count":47,"type":"VEC2","name":"accessorUVs"}],"bufferViews":[{"buffer":0,"byteLength":260,"name":"bufferViewScalar"},{"buffer":0,"byteOffset":260,"byteLength":1128,"byteStride":12,"name":"bufferViewFloatVec3"},{"buffer":0,"byteOffset":1388,"byteLength":752,"byteStride":16,"name":"bufferViewFloatVec4"},{"buffer":0,"byteOffset":2140,"byteLength":376,"byteStride":8,"name":"bufferViewFloatVec2"}],"buffers":[{"uri":"Yellow.bin","byteLength":2516}],"materials":[{"pbrMetallicRoughness":{"baseColorFactor":[1.0,1.0,1.0,1.0],"baseColorTexture":{"index":0,"texCoord":0},"metallicFactor":0.0,"roughnessFactor":0.3207082},"emissiveFactor":[0.0,0.0,0.0],"alphaMode":"BLEND","name":"phenol_Map_Diff"}],"textures":[{"sampler":0,"source":0,"name":"phenol_Map_Diff_baseColor.png"}],"images":[{"uri":"phenol_Map_Diff_baseColor.png"}],"samplers":[{"magFilter":9729,"minFilter":9987,"wrapS":10497,"wrapT":10497}]}