{"asset":{"version":"2.0","generator":"babylon.js glTF exporter for maya 2018 v1.3.0"},"scene":0,"scenes":[{"nodes":[0],"extensions":{}}],"nodes":[{"children":[1],"translation":[-6.397955,0.354433954,29.8183651],"rotation":[0.0,0.0,0.0,1.0],"scale":[1.0,1.0,1.0],"name":"cntrl_Oil_Paper_Role_grp1"},{"children":[2],"translation":[6.397955,-0.354433954,-31.8183651],"rotation":[0.0,0.0,0.0,1.0],"scale":[1.0,1.0,1.0],"name":"cntrl_Oil_Paper_Role"},{"mesh":0,"translation":[6.397955,-0.354433954,-29.8183651],"rotation":[0.0,0.0,0.0,1.0],"scale":[1.0,1.0,1.0],"name":"Oil_Paper_Role"}],"meshes":[{"primitives":[{"attributes":{"POSITION":1,"NORMAL":2,"TANGENT":3,"TEXCOORD_0":4},"indices":0,"mode":4,"material":0,"targets":[{"POSITION":5,"NORMAL":6}]}],"weights":[0.0],"name":"Oil_Paper_Role"}],"accessors":[{"bufferView":0,"componentType":5123,"count":504,"type":"SCALAR","name":"accessorIndices"},{"bufferView":1,"componentType":5126,"count":178,"max":[-5.385011,0.607247531,30.0990467],"min":[-7.410898,0.101620384,29.5377083],"type":"VEC3","name":"accessorPositions"},{"bufferView":1,"byteOffset":2136,"componentType":5126,"count":178,"type":"VEC3","name":"accessorNormals"},{"bufferView":2,"componentType":5126,"count":178,"type":"VEC4","name":"accessorTangents"},{"bufferView":3,"componentType":5126,"count":178,"type":"VEC2","name":"accessorUVs"},{"bufferView":1,"byteOffset":4272,"componentType":5126,"count":178,"max":[0.0,0.0,0.0],"min":[0.0,0.0,-1.54671478],"type":"VEC3","name":"accessorTargetPositions"},{"bufferView":1,"byteOffset":6408,"componentType":5126,"count":178,"type":"VEC3","name":"accessorTargetNormals"},{"bufferView":4,"componentType":5126,"count":61,"max":[3.33333325],"min":[0.0416666679],"type":"SCALAR","name":"accessorAnimationInput"},{"bufferView":4,"byteOffset":244,"componentType":5126,"count":61,"type":"SCALAR","name":"accessorAnimationWeights"}],"bufferViews":[{"buffer":0,"byteLength":1008,"name":"bufferViewScalar"},{"buffer":0,"byteOffset":1008,"byteLength":8544,"byteStride":12,"name":"bufferViewFloatVec3"},{"buffer":0,"byteOffset":9552,"byteLength":2848,"byteStride":16,"name":"bufferViewFloatVec4"},{"buffer":0,"byteOffset":12400,"byteLength":1424,"byteStride":8,"name":"bufferViewFloatVec2"},{"buffer":0,"byteOffset":13824,"byteLength":488,"name":"bufferViewAnimationFloatScalar"}],"buffers":[{"uri":"Oil_Paper.bin","byteLength":14312}],"materials":[{"pbrMetallicRoughness":{"baseColorFactor":[0.25,0.25,0.25,0.65925926],"metallicFactor":0.0,"roughnessFactor":0.3207082},"normalTexture":{"index":0,"texCoord":0},"emissiveFactor":[0.0,0.0,0.0],"alphaMode":"BLEND","name":"Oil_Paper"}],"textures":[{"sampler":0,"source":0,"name":"Oil_Paper_NM.jpg"}],"images":[{"uri":"Oil_Paper_NM.jpg"}],"samplers":[{"magFilter":9729,"minFilter":9987,"wrapS":10497,"wrapT":10497}],"animations":[{"channels":[{"sampler":0,"target":{"node":2,"path":"weights"}}],"samplers":[{"input":7,"interpolation":"LINEAR","output":8}],"name":"All Animations"}]}