{"asset":{"version":"2.0","generator":"babylon.js glTF exporter for maya 2018 v1.3.0"},"scene":0,"scenes":[{"nodes":[0],"extensions":{}}],"nodes":[{"children":[1],"translation":[0.0,0.0,0.0],"rotation":[0.0,0.0,0.0,1.0],"scale":[1.0,1.0,1.0],"name":"Rutherford"},{"mesh":0,"translation":[0.0,0.0,118.976677],"rotation":[0.0,0.0,0.0,1.0],"scale":[1.0,1.0,1.0],"name":"Proton"}],"meshes":[{"primitives":[{"attributes":{"POSITION":1,"NORMAL":2,"TANGENT":3,"TEXCOORD_0":4},"indices":0,"mode":4,"material":0}],"name":"Proton"}],"accessors":[{"bufferView":0,"componentType":5123,"count":336,"type":"SCALAR","name":"accessorIndices"},{"bufferView":1,"componentType":5126,"count":79,"max":[1.4249264,2.49425721,4.872431],"min":[-3.420177,-2.3508606,0.0273204539],"type":"VEC3","name":"accessorPositions"},{"bufferView":1,"byteOffset":948,"componentType":5126,"count":79,"type":"VEC3","name":"accessorNormals"},{"bufferView":2,"componentType":5126,"count":79,"type":"VEC4","name":"accessorTangents"},{"bufferView":3,"componentType":5126,"count":79,"type":"VEC2","name":"accessorUVs"},{"bufferView":4,"componentType":5126,"count":2,"max":[8.291667],"min":[0.0],"type":"SCALAR","name":"accessorAnimationInput"},{"bufferView":5,"componentType":5126,"count":2,"type":"VEC3","name":"accessorAnimationPositions"}],"bufferViews":[{"buffer":0,"byteLength":672,"name":"bufferViewScalar"},{"buffer":0,"byteOffset":672,"byteLength":1896,"byteStride":12,"name":"bufferViewFloatVec3"},{"buffer":0,"byteOffset":2568,"byteLength":1264,"byteStride":16,"name":"bufferViewFloatVec4"},{"buffer":0,"byteOffset":3832,"byteLength":632,"byteStride":8,"name":"bufferViewFloatVec2"},{"buffer":0,"byteOffset":4464,"byteLength":8,"name":"bufferViewAnimationFloatScalar"},{"buffer":0,"byteOffset":4472,"byteLength":24,"name":"bufferViewAnimationFloatVec3"}],"buffers":[{"uri":"Proton.bin","byteLength":4496}],"materials":[{"pbrMetallicRoughness":{"baseColorFactor":[1.0,1.0,1.0,1.0],"baseColorTexture":{"index":0,"texCoord":0},"metallicFactor":0.0,"roughnessFactor":0.3207082},"emissiveFactor":[0.0,0.0,0.0],"alphaMode":"OPAQUE","name":"Nutron_Diffuse"}],"textures":[{"sampler":0,"source":0,"name":"Nutron_Diffuse_baseColor.jpg"}],"images":[{"uri":"Nutron_Diffuse_baseColor.jpg"}],"samplers":[{"magFilter":9729,"minFilter":9987,"wrapS":10497,"wrapT":10497}],"animations":[{"channels":[{"sampler":0,"target":{"node":1,"path":"translation"}}],"samplers":[{"input":5,"interpolation":"LINEAR","output":6}],"name":"All Animations"}]}