{"asset":{"version":"2.0","generator":"babylon.js glTF exporter for maya 2018 v1.3.0"},"scene":0,"scenes":[{"nodes":[0],"extensions":{}}],"nodes":[{"mesh":0,"translation":[0.0,0.0,0.0],"rotation":[0.0,0.0,0.0,1.0],"scale":[1.0,1.0,1.0],"name":"Dot_Line_Egg_Shape_Grp"}],"meshes":[{"primitives":[{"attributes":{"POSITION":1,"NORMAL":2,"TANGENT":3,"TEXCOORD_0":4},"indices":0,"mode":4,"material":0},{"attributes":{"POSITION":6,"NORMAL":7,"TANGENT":8,"TEXCOORD_0":9},"indices":5,"mode":4,"material":1},{"attributes":{"POSITION":11,"NORMAL":12,"TANGENT":13,"TEXCOORD_0":14},"indices":10,"mode":4,"material":2}],"name":"Dot_Line_Egg_Shape_Grp"}],"accessors":[{"bufferView":0,"componentType":5123,"count":2280,"type":"SCALAR","name":"accessorIndices"},{"bufferView":1,"componentType":5126,"count":439,"max":[1.00000012,0.9987112,1.71540952],"min":[-1.00000012,-0.9987112,-1.71540952],"type":"VEC3","name":"accessorPositions"},{"bufferView":1,"byteOffset":5268,"componentType":5126,"count":439,"type":"VEC3","name":"accessorNormals"},{"bufferView":2,"componentType":5126,"count":439,"type":"VEC4","name":"accessorTangents"},{"bufferView":3,"componentType":5126,"count":439,"type":"VEC2","name":"accessorUVs"},{"bufferView":0,"byteOffset":4560,"componentType":5123,"count":672,"type":"SCALAR","name":"accessorIndices"},{"bufferView":1,"byteOffset":10536,"componentType":5126,"count":158,"max":[0.039194122,0.688548565,0.163114786],"min":[-0.0617150143,-0.820907,-0.31331557],"type":"VEC3","name":"accessorPositions"},{"bufferView":1,"byteOffset":12432,"componentType":5126,"count":158,"type":"VEC3","name":"accessorNormals"},{"bufferView":2,"byteOffset":7024,"componentType":5126,"count":158,"type":"VEC4","name":"accessorTangents"},{"bufferView":3,"byteOffset":3512,"componentType":5126,"count":158,"type":"VEC2","name":"accessorUVs"},{"bufferView":0,"byteOffset":5904,"componentType":5123,"count":96,"type":"SCALAR","name":"accessorIndices"},{"bufferView":1,"byteOffset":14328,"componentType":5126,"count":42,"max":[0.0036506094,0.620201945,0.128103018],"min":[-0.02592384,-0.772324443,-0.2716884],"type":"VEC3","name":"accessorPositions"},{"bufferView":1,"byteOffset":14832,"componentType":5126,"count":42,"type":"VEC3","name":"accessorNormals"},{"bufferView":2,"byteOffset":9552,"componentType":5126,"count":42,"type":"VEC4","name":"accessorTangents"},{"bufferView":3,"byteOffset":4776,"componentType":5126,"count":42,"type":"VEC2","name":"accessorUVs"}],"bufferViews":[{"buffer":0,"byteLength":6096,"name":"bufferViewScalar"},{"buffer":0,"byteOffset":6096,"byteLength":15336,"byteStride":12,"name":"bufferViewFloatVec3"},{"buffer":0,"byteOffset":21432,"byteLength":10224,"byteStride":16,"name":"bufferViewFloatVec4"},{"buffer":0,"byteOffset":31656,"byteLength":5112,"byteStride":8,"name":"bufferViewFloatVec2"}],"buffers":[{"uri":"Dot_Line.bin","byteLength":36768}],"materials":[{"pbrMetallicRoughness":{"baseColorFactor":[0.1753,0.49585,0.5,0.181818187],"metallicFactor":0.0,"roughnessFactor":0.3207082},"emissiveFactor":[0.0,0.0,0.0],"alphaMode":"BLEND","name":"Egg_Shape_Glass"},{"pbrMetallicRoughness":{"baseColorFactor":[0.5,0.4936,0.0,1.0],"metallicFactor":0.0,"roughnessFactor":0.3207082},"emissiveFactor":[0.0,0.0,0.0],"alphaMode":"OPAQUE","name":"Yellow_Spear"},{"pbrMetallicRoughness":{"baseColorFactor":[0.0,0.5,0.1777,1.0],"metallicFactor":0.0,"roughnessFactor":0.3207082},"emissiveFactor":[0.0,0.0,0.0],"alphaMode":"OPAQUE","name":"Green_Line"}]}