{"asset":{"version":"2.0","generator":"babylon.js glTF exporter for maya 2018 v1.3.0"},"scene":0,"scenes":[{"nodes":[0],"extensions":{}}],"nodes":[{"mesh":0,"translation":[0.0,0.0,0.0],"rotation":[0.0,0.0,0.0,1.0],"scale":[1.0,1.0,1.0],"name":"Blue"}],"meshes":[{"primitives":[{"attributes":{"POSITION":1,"NORMAL":2,"TANGENT":3,"TEXCOORD_0":4},"indices":0,"mode":4,"material":0}],"name":"Blue"}],"accessors":[{"bufferView":0,"componentType":5123,"count":720,"type":"SCALAR","name":"accessorIndices"},{"bufferView":1,"componentType":5126,"count":360,"max":[0.229654729,0.004851844,0.228396848],"min":[-0.229654372,0.0,-0.22839649],"type":"VEC3","name":"accessorPositions"},{"bufferView":1,"byteOffset":4320,"componentType":5126,"count":360,"type":"VEC3","name":"accessorNormals"},{"bufferView":2,"componentType":5126,"count":360,"type":"VEC4","name":"accessorTangents"},{"bufferView":3,"componentType":5126,"count":360,"type":"VEC2","name":"accessorUVs"}],"bufferViews":[{"buffer":0,"byteLength":1440,"name":"bufferViewScalar"},{"buffer":0,"byteOffset":1440,"byteLength":8640,"byteStride":12,"name":"bufferViewFloatVec3"},{"buffer":0,"byteOffset":10080,"byteLength":5760,"byteStride":16,"name":"bufferViewFloatVec4"},{"buffer":0,"byteOffset":15840,"byteLength":2880,"byteStride":8,"name":"bufferViewFloatVec2"}],"buffers":[{"uri":"Blue_circle.bin","byteLength":18720}],"materials":[{"pbrMetallicRoughness":{"baseColorFactor":[0.01255,0.0438,0.24205,1.0],"metallicFactor":0.0,"roughnessFactor":0.201679826},"emissiveFactor":[0.0,0.0,0.0],"alphaMode":"OPAQUE","name":"blinn1"}]}