{"asset":{"version":"2.0","generator":"babylon.js glTF exporter for maya 2018 v1.3.0"},"scene":0,"scenes":[{"nodes":[0],"extensions":{}}],"nodes":[{"children":[1],"translation":[0.0,0.0,0.0],"rotation":[0.0,0.0,0.0,1.0],"scale":[1.0,1.0,1.0],"name":"Level_1_Grp"},{"children":[2],"translation":[0.0,0.0,0.0],"rotation":[0.0,0.0,0.0,1.0],"scale":[1.0,1.0,1.0],"name":"Step_2_Grp"},{"mesh":0,"translation":[-3.57085419,0.0179949757,-0.0730561242],"rotation":[0.0,0.0,0.0,1.0],"scale":[1.0,1.0,1.0],"name":"Oxygen_Molecule"}],"meshes":[{"primitives":[{"attributes":{"POSITION":1,"NORMAL":2,"TANGENT":3,"TEXCOORD_0":4},"indices":0,"mode":4,"material":0}],"name":"Oxygen_Molecule"}],"accessors":[{"bufferView":0,"componentType":5123,"count":1296,"type":"SCALAR","name":"accessorIndices"},{"bufferView":1,"componentType":5126,"count":259,"max":[4.50827026,0.618453,0.709241867],"min":[2.63345337,-0.654443741,-0.56313324],"type":"VEC3","name":"accessorPositions"},{"bufferView":1,"byteOffset":3108,"componentType":5126,"count":259,"type":"VEC3","name":"accessorNormals"},{"bufferView":2,"componentType":5126,"count":259,"type":"VEC4","name":"accessorTangents"},{"bufferView":3,"componentType":5126,"count":259,"type":"VEC2","name":"accessorUVs"}],"bufferViews":[{"buffer":0,"byteLength":2592,"name":"bufferViewScalar"},{"buffer":0,"byteOffset":2592,"byteLength":6216,"byteStride":12,"name":"bufferViewFloatVec3"},{"buffer":0,"byteOffset":8808,"byteLength":4144,"byteStride":16,"name":"bufferViewFloatVec4"},{"buffer":0,"byteOffset":12952,"byteLength":2072,"byteStride":8,"name":"bufferViewFloatVec2"}],"buffers":[{"uri":"Oxygen_Molecule.bin","byteLength":15024}],"materials":[{"pbrMetallicRoughness":{"baseColorFactor":[1.0,1.0,1.0,1.0],"baseColorTexture":{"index":1,"texCoord":0},"metallicFactor":0.0,"roughnessFactor":0.450053632},"normalTexture":{"index":0,"texCoord":0},"emissiveFactor":[0.0,0.0,0.0],"alphaMode":"OPAQUE","name":"O_Atom_Diff"}],"textures":[{"sampler":0,"source":0,"name":"Oxygen_Atom_Nm.jpg"},{"sampler":1,"source":1,"name":"O_Atom_Diff_baseColor.jpg"}],"images":[{"uri":"Oxygen_Atom_Nm.jpg"},{"uri":"O_Atom_Diff_baseColor.jpg"}],"samplers":[{"magFilter":9729,"minFilter":9987,"wrapS":10497,"wrapT":10497},{"magFilter":9729,"minFilter":9987,"wrapS":10497,"wrapT":10497}]}