{"asset":{"version":"2.0","generator":"babylon.js glTF exporter for maya 2018 v1.3.0"},"scene":0,"scenes":[{"nodes":[0],"extensions":{}}],"nodes":[{"mesh":0,"translation":[0.0,0.0,0.0],"rotation":[0.0,0.0,0.0,1.0],"scale":[1.0,1.0,1.0],"name":"Meter1"}],"meshes":[{"primitives":[{"attributes":{"POSITION":1,"NORMAL":2,"TANGENT":3,"TEXCOORD_0":4},"indices":0,"mode":4,"material":0},{"attributes":{"POSITION":6,"NORMAL":7,"TANGENT":8,"TEXCOORD_0":9},"indices":5,"mode":4,"material":1},{"attributes":{"POSITION":11,"NORMAL":12,"TANGENT":13,"TEXCOORD_0":14},"indices":10,"mode":4,"material":2},{"attributes":{"POSITION":16,"NORMAL":17,"TANGENT":18,"TEXCOORD_0":19},"indices":15,"mode":4,"material":3}],"name":"Meter1"}],"accessors":[{"bufferView":0,"componentType":5123,"count":96,"type":"SCALAR","name":"accessorIndices"},{"bufferView":1,"componentType":5126,"count":34,"max":[12.14213,17.5675774,3.24459982],"min":[-12.2792435,9.372861,3.24459982],"type":"VEC3","name":"accessorPositions"},{"bufferView":1,"byteOffset":408,"componentType":5126,"count":34,"type":"VEC3","name":"accessorNormals"},{"bufferView":2,"componentType":5126,"count":34,"type":"VEC4","name":"accessorTangents"},{"bufferView":3,"componentType":5126,"count":34,"type":"VEC2","name":"accessorUVs"},{"bufferView":0,"byteOffset":192,"componentType":5123,"count":3672,"type":"SCALAR","name":"accessorIndices"},{"bufferView":1,"byteOffset":816,"componentType":5126,"count":1018,"max":[12.4194632,17.80155,3.326973],"min":[-12.55474,8.80174,2.70317554],"type":"VEC3","name":"accessorPositions"},{"bufferView":1,"byteOffset":13032,"componentType":5126,"count":1018,"type":"VEC3","name":"accessorNormals"},{"bufferView":2,"byteOffset":544,"componentType":5126,"count":1018,"type":"VEC4","name":"accessorTangents"},{"bufferView":3,"byteOffset":272,"componentType":5126,"count":1018,"type":"VEC2","name":"accessorUVs"},{"bufferView":0,"byteOffset":7536,"componentType":5123,"count":96,"type":"SCALAR","name":"accessorIndices"},{"bufferView":1,"byteOffset":25248,"componentType":5126,"count":34,"max":[12.1439667,17.5490074,2.99351],"min":[-12.2792435,9.359005,2.99351],"type":"VEC3","name":"accessorPositions"},{"bufferView":1,"byteOffset":25656,"componentType":5126,"count":34,"type":"VEC3","name":"accessorNormals"},{"bufferView":2,"byteOffset":16832,"componentType":5126,"count":34,"type":"VEC4","name":"accessorTangents"},{"bufferView":3,"byteOffset":8416,"componentType":5126,"count":34,"type":"VEC2","name":"accessorUVs"},{"bufferView":0,"byteOffset":7728,"componentType":5123,"count":4254,"type":"SCALAR","name":"accessorIndices"},{"bufferView":1,"byteOffset":26064,"componentType":5126,"count":2280,"max":[11.3965435,17.25673,3.294956],"min":[-11.499938,10.466815,2.91952872],"type":"VEC3","name":"accessorPositions"},{"bufferView":1,"byteOffset":53424,"componentType":5126,"count":2280,"type":"VEC3","name":"accessorNormals"},{"bufferView":2,"byteOffset":17376,"componentType":5126,"count":2280,"type":"VEC4","name":"accessorTangents"},{"bufferView":3,"byteOffset":8688,"componentType":5126,"count":2280,"type":"VEC2","name":"accessorUVs"}],"bufferViews":[{"buffer":0,"byteLength":16236,"name":"bufferViewScalar"},{"buffer":0,"byteOffset":16236,"byteLength":80784,"byteStride":12,"name":"bufferViewFloatVec3"},{"buffer":0,"byteOffset":97020,"byteLength":53856,"byteStride":16,"name":"bufferViewFloatVec4"},{"buffer":0,"byteOffset":150876,"byteLength":26928,"byteStride":8,"name":"bufferViewFloatVec2"}],"buffers":[{"uri":"Meter.bin","byteLength":177804}],"materials":[{"pbrMetallicRoughness":{"baseColorFactor":[0.129312,0.263599068,0.288,0.398373961],"metallicFactor":0.0,"roughnessFactor":0.450053632},"emissiveFactor":[0.0,0.0,0.0],"alphaMode":"BLEND","name":"Glass1"},{"pbrMetallicRoughness":{"baseColorFactor":[0.04878049,0.04878049,0.04878049,1.0],"metallicFactor":0.0,"roughnessFactor":0.201679826},"emissiveFactor":[0.0,0.0,0.0],"alphaMode":"OPAQUE","name":"Metal_blck"},{"pbrMetallicRoughness":{"baseColorFactor":[0.25,0.25,0.25,1.0],"metallicFactor":0.0,"roughnessFactor":0.201679826},"emissiveFactor":[0.0,0.0,0.0],"alphaMode":"OPAQUE","name":"Steel"},{"pbrMetallicRoughness":{"baseColorFactor":[0.0,0.0,0.0,1.0],"metallicFactor":0.0,"roughnessFactor":0.450053632},"emissiveFactor":[0.0,0.0,0.0],"alphaMode":"OPAQUE","name":"Black"}]}