{"asset":{"version":"2.0","generator":"babylon.js glTF exporter for maya 2018 v1.3.0"},"scene":0,"scenes":[{"nodes":[0],"extensions":{}}],"nodes":[{"children":[1],"translation":[0.0,0.0,6.78899765],"rotation":[0.0,0.0,0.0,1.0],"scale":[1.0,1.0,1.0],"name":"cntrl_galvometer_grp"},{"children":[2],"translation":[0.0,0.0,0.0],"rotation":[0.0,0.0,0.0,1.0],"scale":[1.0,1.0,1.0],"name":"cntrl_galvometer"},{"children":[3],"translation":[0.0,0.0,-6.78899765],"rotation":[0.0,0.0,0.0,1.0],"scale":[1.0,1.0,1.0],"name":"galvometer"},{"children":[4],"translation":[0.0,0.116870344,0.0],"rotation":[0.0,0.0,0.0,1.0],"scale":[1.0,1.0,1.0],"name":"Set_01"},{"children":[5],"translation":[0.0,0.0,0.0],"rotation":[0.0,0.0,0.0,1.0],"scale":[1.0,1.0,1.0],"name":"Wires_Set_02"},{"children":[6],"translation":[5.790162,1.49420846,12.5319624],"rotation":[0.0,0.0,0.0,1.0],"scale":[1.0,1.0,1.0],"name":"cntrl_Holder_grp"},{"children":[7],"translation":[0.0,0.0,0.0],"rotation":[0.0,0.0,0.0,1.0],"scale":[1.0,1.0,1.0],"name":"cntrl_Holder"},{"mesh":0,"translation":[-8.836312,-3.22215748,-25.0639248],"rotation":[0.0,0.0,0.0,1.0],"scale":[1.0,1.0,1.0],"name":"Holder"}],"meshes":[{"primitives":[{"attributes":{"POSITION":1,"NORMAL":2,"TANGENT":3,"TEXCOORD_0":4},"indices":0,"mode":4,"material":0},{"attributes":{"POSITION":6,"NORMAL":7,"TANGENT":8,"TEXCOORD_0":9},"indices":5,"mode":4,"material":1}],"name":"Holder"}],"accessors":[{"bufferView":0,"componentType":5123,"count":336,"type":"SCALAR","name":"accessorIndices"},{"bufferView":1,"componentType":5126,"count":96,"max":[1.46204,2.0491662,12.80902],"min":[0.3439827,1.21355677,11.9734087],"type":"VEC3","name":"accessorPositions"},{"bufferView":1,"byteOffset":1152,"componentType":5126,"count":96,"type":"VEC3","name":"accessorNormals"},{"bufferView":2,"componentType":5126,"count":96,"type":"VEC4","name":"accessorTangents"},{"bufferView":3,"componentType":5126,"count":96,"type":"VEC2","name":"accessorUVs"},{"bufferView":0,"byteOffset":672,"componentType":5123,"count":30,"type":"SCALAR","name":"accessorIndices"},{"bufferView":1,"byteOffset":2304,"componentType":5126,"count":20,"max":[6.45415,1.79517794,12.4217777],"min":[1.08043957,1.38840342,12.3659706],"type":"VEC3","name":"accessorPositions"},{"bufferView":1,"byteOffset":2544,"componentType":5126,"count":20,"type":"VEC3","name":"accessorNormals"},{"bufferView":2,"byteOffset":1536,"componentType":5126,"count":20,"type":"VEC4","name":"accessorTangents"},{"bufferView":3,"byteOffset":768,"componentType":5126,"count":20,"type":"VEC2","name":"accessorUVs"}],"bufferViews":[{"buffer":0,"byteLength":732,"name":"bufferViewScalar"},{"buffer":0,"byteOffset":732,"byteLength":2784,"byteStride":12,"name":"bufferViewFloatVec3"},{"buffer":0,"byteOffset":3516,"byteLength":1856,"byteStride":16,"name":"bufferViewFloatVec4"},{"buffer":0,"byteOffset":5372,"byteLength":928,"byteStride":8,"name":"bufferViewFloatVec2"}],"buffers":[{"uri":"Holder.bin","byteLength":6300}],"materials":[{"pbrMetallicRoughness":{"baseColorFactor":[0.04878049,0.04878049,0.04878049,1.0],"metallicFactor":0.0,"roughnessFactor":0.3207082},"emissiveFactor":[0.0,0.0,0.0],"alphaMode":"OPAQUE","name":"Metal_blck"},{"pbrMetallicRoughness":{"baseColorFactor":[0.25,0.25,0.25,1.0],"metallicFactor":0.0,"roughnessFactor":0.3207082},"emissiveFactor":[0.0,0.0,0.0],"alphaMode":"OPAQUE","name":"Steel"}]}