{"asset":{"version":"2.0","generator":"babylon.js glTF exporter for maya 2018 v1.3.0"},"scene":0,"scenes":[{"nodes":[0],"extensions":{}}],"nodes":[{"children":[1],"translation":[-0.09223032,-1.049655,-0.516854346],"rotation":[-0.707106769,0.0,0.0,0.707106769],"scale":[2.54,2.54,2.54],"name":"Cherry_Flower_Cut_Section"},{"mesh":0,"translation":[0.0,0.0,0.0],"rotation":[0.0,0.0,0.0,1.0],"scale":[1.0,1.0,1.0],"name":"Stigma_01"}],"meshes":[{"primitives":[{"attributes":{"POSITION":1,"NORMAL":2,"TANGENT":3,"TEXCOORD_0":4},"indices":0,"mode":4,"material":0}],"name":"Stigma_01"}],"accessors":[{"bufferView":0,"componentType":5123,"count":2910,"type":"SCALAR","name":"accessorIndices"},{"bufferView":1,"componentType":5126,"count":649,"max":[0.6034148,0.361312956,5.382514],"min":[-0.4199444,-0.31401062,-0.0362980962],"type":"VEC3","name":"accessorPositions"},{"bufferView":1,"byteOffset":7788,"componentType":5126,"count":649,"type":"VEC3","name":"accessorNormals"},{"bufferView":2,"componentType":5126,"count":649,"type":"VEC4","name":"accessorTangents"},{"bufferView":3,"componentType":5126,"count":649,"type":"VEC2","name":"accessorUVs"}],"bufferViews":[{"buffer":0,"byteLength":5820,"name":"bufferViewScalar"},{"buffer":0,"byteOffset":5820,"byteLength":15576,"byteStride":12,"name":"bufferViewFloatVec3"},{"buffer":0,"byteOffset":21396,"byteLength":10384,"byteStride":16,"name":"bufferViewFloatVec4"},{"buffer":0,"byteOffset":31780,"byteLength":5192,"byteStride":8,"name":"bufferViewFloatVec2"}],"buffers":[{"uri":"Stigma_01.bin","byteLength":36972}],"materials":[{"pbrMetallicRoughness":{"baseColorFactor":[1.0,1.0,1.0,1.0],"baseColorTexture":{"index":0,"texCoord":0},"metallicFactor":0.0,"roughnessFactor":0.3207082},"emissiveFactor":[0.0,0.0,0.0],"alphaMode":"OPAQUE","name":"FlowerInnerPartCutSection"}],"textures":[{"sampler":0,"source":0,"name":"FlowerInnerPartCutSection_baseColor.jpg"}],"images":[{"uri":"FlowerInnerPartCutSection_baseColor.jpg"}],"samplers":[{"magFilter":9729,"minFilter":9987,"wrapS":10497,"wrapT":10497}]}