{"asset":{"version":"2.0","generator":"babylon.js glTF exporter for maya 2018 v1.3.0"},"scene":0,"scenes":[{"nodes":[0],"extensions":{}}],"nodes":[{"mesh":0,"translation":[0.0,0.0,0.0],"rotation":[0.0,0.0,0.0,1.0],"scale":[1.0,1.0,1.0],"name":"pCube1"}],"meshes":[{"primitives":[{"attributes":{"POSITION":1,"NORMAL":2,"TANGENT":3,"TEXCOORD_0":4},"indices":0,"mode":4,"material":0}],"name":"pCube1"}],"accessors":[{"bufferView":0,"componentType":5123,"count":288,"type":"SCALAR","name":"accessorIndices"},{"bufferView":1,"componentType":5126,"count":144,"max":[2.76978159,7.441496,2.76978159],"min":[-2.76978159,-7.441496,-2.76978159],"type":"VEC3","name":"accessorPositions"},{"bufferView":1,"byteOffset":1728,"componentType":5126,"count":144,"type":"VEC3","name":"accessorNormals"},{"bufferView":2,"componentType":5126,"count":144,"type":"VEC4","name":"accessorTangents"},{"bufferView":3,"componentType":5126,"count":144,"type":"VEC2","name":"accessorUVs"}],"bufferViews":[{"buffer":0,"byteLength":576,"name":"bufferViewScalar"},{"buffer":0,"byteOffset":576,"byteLength":3456,"byteStride":12,"name":"bufferViewFloatVec3"},{"buffer":0,"byteOffset":4032,"byteLength":2304,"byteStride":16,"name":"bufferViewFloatVec4"},{"buffer":0,"byteOffset":6336,"byteLength":1152,"byteStride":8,"name":"bufferViewFloatVec2"}],"buffers":[{"uri":"cuboid.bin","byteLength":7488}],"materials":[{"pbrMetallicRoughness":{"baseColorFactor":[0.5,0.0,0.0,0.4935065],"metallicFactor":0.0,"roughnessFactor":0.2581639},"emissiveFactor":[0.0,0.0,0.0],"alphaMode":"BLEND","name":"phong2"}]}