{"asset":{"version":"2.0","generator":"babylon.js glTF exporter for maya 2018 v1.3.0"},"scene":0,"scenes":[{"nodes":[0],"extensions":{}}],"nodes":[{"children":[1],"translation":[0.0,0.0,0.0],"rotation":[0.0,0.0,0.0,1.0],"scale":[1.0,1.0,1.0],"name":"Brain_Full"},{"children":[2],"translation":[0.0,0.0,0.0],"rotation":[0.0,0.0,0.0,1.0],"scale":[1.0,1.0,1.0],"name":"Occipital_Lob_Grp"},{"mesh":0,"translation":[0.0,0.0,0.0],"rotation":[0.0,0.0,0.0,1.0],"scale":[1.0,1.0,1.0],"name":"Occipital_Lob_Left"}],"meshes":[{"primitives":[{"attributes":{"POSITION":1,"NORMAL":2,"TANGENT":3,"TEXCOORD_0":4},"indices":0,"mode":4,"material":0}],"name":"Occipital_Lob_Left"}],"accessors":[{"bufferView":0,"componentType":5123,"count":2916,"type":"SCALAR","name":"accessorIndices"},{"bufferView":1,"componentType":5126,"count":527,"max":[4.24025774,4.790283,-5.41062641],"min":[0.00336262584,-2.66146851,-8.284496],"type":"VEC3","name":"accessorPositions"},{"bufferView":1,"byteOffset":6324,"componentType":5126,"count":527,"type":"VEC3","name":"accessorNormals"},{"bufferView":2,"componentType":5126,"count":527,"type":"VEC4","name":"accessorTangents"},{"bufferView":3,"componentType":5126,"count":527,"type":"VEC2","name":"accessorUVs"}],"bufferViews":[{"buffer":0,"byteLength":5832,"name":"bufferViewScalar"},{"buffer":0,"byteOffset":5832,"byteLength":12648,"byteStride":12,"name":"bufferViewFloatVec3"},{"buffer":0,"byteOffset":18480,"byteLength":8432,"byteStride":16,"name":"bufferViewFloatVec4"},{"buffer":0,"byteOffset":26912,"byteLength":4216,"byteStride":8,"name":"bufferViewFloatVec2"}],"buffers":[{"uri":"Transperent Occipital_Lob.bin","byteLength":31128}],"materials":[{"pbrMetallicRoughness":{"baseColorFactor":[0.0,0.0551948063,0.0551948063,0.357142866],"metallicFactor":0.0,"roughnessFactor":0.450053632},"emissiveFactor":[0.0,0.0,0.0],"alphaMode":"BLEND","name":"lambert2"}]}