{"asset":{"version":"2.0","generator":"babylon.js glTF exporter for maya 2018 v1.3.0"},"scene":0,"scenes":[{"nodes":[0],"extensions":{}}],"nodes":[{"children":[1],"translation":[0.0,-171.27948,0.0],"rotation":[0.0,0.0,0.0,1.0],"scale":[1.0,1.0,1.0],"name":"Half_Section_Brain1"},{"mesh":0,"translation":[0.0,0.0,0.0],"rotation":[0.0,0.0,0.0,1.0],"scale":[1.0,1.0,1.0],"name":"Medulla_Oblongate"}],"meshes":[{"primitives":[{"attributes":{"POSITION":1,"NORMAL":2,"TEXCOORD_0":3,"TEXCOORD_1":4},"indices":0,"mode":4,"material":0}],"name":"Medulla_Oblongate"}],"accessors":[{"bufferView":0,"componentType":5123,"count":1266,"type":"SCALAR","name":"accessorIndices"},{"bufferView":1,"componentType":5126,"count":352,"max":[0.912091732,171.082153,4.69974327],"min":[-0.05990458,163.366638,-0.2671769],"type":"VEC3","name":"accessorPositions"},{"bufferView":1,"byteOffset":4224,"componentType":5126,"count":352,"type":"VEC3","name":"accessorNormals"},{"bufferView":2,"componentType":5126,"count":352,"type":"VEC2","name":"accessorUVs"},{"bufferView":2,"byteOffset":2816,"componentType":5126,"count":352,"type":"VEC2","name":"accessorUV2s"}],"bufferViews":[{"buffer":0,"byteLength":2532,"name":"bufferViewScalar"},{"buffer":0,"byteOffset":2532,"byteLength":8448,"byteStride":12,"name":"bufferViewFloatVec3"},{"buffer":0,"byteOffset":10980,"byteLength":5632,"byteStride":8,"name":"bufferViewFloatVec2"}],"buffers":[{"uri":"Medulla_Oblongate_Trans.bin","byteLength":16612}],"materials":[{"pbrMetallicRoughness":{"baseColorFactor":[0.1995,0.1995,0.5,0.266233742],"metallicFactor":0.0,"roughnessFactor":0.2581639},"emissiveFactor":[0.0,0.0,0.0],"alphaMode":"BLEND","name":"phong1"}]}