{"asset":{"version":"2.0","generator":"babylon.js glTF exporter for maya 2018 v1.3.0"},"scene":0,"scenes":[{"nodes":[0],"extensions":{}}],"nodes":[{"children":[1],"translation":[0.0,0.0,0.0],"rotation":[0.0,0.0,0.0,1.0],"scale":[1.0,1.0,1.0],"name":"Rutherford"},{"children":[2,3,4,5,6,7,8],"translation":[0.0,0.0,-1.56853628],"rotation":[0.0,0.0,0.0,1.0],"scale":[1.0,1.0,1.0],"name":"C_jj_Model_Grp"},{"mesh":0,"translation":[0.0,0.0,0.0],"rotation":[0.0,0.0,0.0,1.0],"scale":[1.0,1.0,1.0],"name":"Orbital_1S"},{"mesh":1,"translation":[0.0,0.0,0.0],"rotation":[0.0,0.0,0.0,1.0],"scale":[1.0,1.0,1.0],"name":"Electron_6_Geo1"},{"mesh":2,"translation":[0.0,0.0,0.0],"rotation":[0.0,0.0,0.0,1.0],"scale":[1.0,1.0,1.0],"name":"Electron_5_Geo1"},{"mesh":3,"translation":[0.0,0.0,0.0],"rotation":[0.0,0.0,0.0,1.0],"scale":[1.0,1.0,1.0],"name":"Electron_5_Geo2"},{"mesh":4,"translation":[0.0,0.0,0.0],"rotation":[0.0,0.0,0.0,1.0],"scale":[1.0,1.0,1.0],"name":"Electron_6_Geo2"},{"mesh":5,"translation":[0.0,0.0,0.0],"rotation":[0.0,0.0,0.0,1.0],"scale":[1.0,1.0,1.0],"name":"Electron_6_Geo3"},{"mesh":6,"translation":[0.0,0.0,0.0],"rotation":[0.0,0.0,0.0,1.0],"scale":[1.0,1.0,1.0],"name":"Electron_6_Geo4"}],"meshes":[{"primitives":[{"attributes":{"POSITION":1,"NORMAL":2,"TANGENT":3,"TEXCOORD_0":4},"indices":0,"mode":4,"material":0}],"name":"Orbital_1S"},{"primitives":[{"attributes":{"POSITION":6,"NORMAL":7,"TANGENT":8,"TEXCOORD_0":9},"indices":5,"mode":4,"material":1}],"name":"Electron_6_Geo1"},{"primitives":[{"attributes":{"POSITION":11,"NORMAL":12,"TANGENT":13,"TEXCOORD_0":14},"indices":10,"mode":4,"material":1}],"name":"Electron_5_Geo1"},{"primitives":[{"attributes":{"POSITION":16,"NORMAL":17,"TANGENT":18,"TEXCOORD_0":19},"indices":15,"mode":4,"material":1}],"name":"Electron_5_Geo2"},{"primitives":[{"attributes":{"POSITION":21,"NORMAL":22,"TANGENT":23,"TEXCOORD_0":24},"indices":20,"mode":4,"material":1}],"name":"Electron_6_Geo2"},{"primitives":[{"attributes":{"POSITION":26,"NORMAL":27,"TANGENT":28,"TEXCOORD_0":29},"indices":25,"mode":4,"material":1}],"name":"Electron_6_Geo3"},{"primitives":[{"attributes":{"POSITION":31,"NORMAL":32,"TANGENT":33,"TEXCOORD_0":34},"indices":30,"mode":4,"material":1}],"name":"Electron_6_Geo4"}],"accessors":[{"bufferView":0,"componentType":5123,"count":2280,"type":"SCALAR","name":"accessorIndices"},{"bufferView":1,"componentType":5126,"count":443,"max":[16.595089,17.65606,-72.20593],"min":[-18.5903454,-17.5126629,-107.374153],"type":"VEC3","name":"accessorPositions"},{"bufferView":1,"byteOffset":5316,"componentType":5126,"count":443,"type":"VEC3","name":"accessorNormals"},{"bufferView":2,"componentType":5126,"count":443,"type":"VEC4","name":"accessorTangents"},{"bufferView":3,"componentType":5126,"count":443,"type":"VEC2","name":"accessorUVs"},{"bufferView":0,"byteOffset":4560,"componentType":5123,"count":336,"type":"SCALAR","name":"accessorIndices"},{"bufferView":1,"byteOffset":10632,"componentType":5126,"count":83,"max":[6.294256,8.861811,-97.18532],"min":[5.34063148,7.908124,-98.13898],"type":"VEC3","name":"accessorPositions"},{"bufferView":1,"byteOffset":11628,"componentType":5126,"count":83,"type":"VEC3","name":"accessorNormals"},{"bufferView":2,"byteOffset":7088,"componentType":5126,"count":83,"type":"VEC4","name":"accessorTangents"},{"bufferView":3,"byteOffset":3544,"componentType":5126,"count":83,"type":"VEC2","name":"accessorUVs"},{"bufferView":0,"byteOffset":5232,"componentType":5123,"count":336,"type":"SCALAR","name":"accessorIndices"},{"bufferView":1,"byteOffset":12624,"componentType":5126,"count":83,"max":[-3.84713173,0.69349277,-77.64668],"min":[-4.800792,-0.260167569,-78.60032],"type":"VEC3","name":"accessorPositions"},{"bufferView":1,"byteOffset":13620,"componentType":5126,"count":83,"type":"VEC3","name":"accessorNormals"},{"bufferView":2,"byteOffset":8416,"componentType":5126,"count":83,"type":"VEC4","name":"accessorTangents"},{"bufferView":3,"byteOffset":4208,"componentType":5126,"count":83,"type":"VEC2","name":"accessorUVs"},{"bufferView":0,"byteOffset":5904,"componentType":5123,"count":336,"type":"SCALAR","name":"accessorIndices"},{"bufferView":1,"byteOffset":14616,"componentType":5126,"count":83,"max":[7.884471,3.23371816,-89.16731],"min":[6.93081,2.280058,-90.12095],"type":"VEC3","name":"accessorPositions"},{"bufferView":1,"byteOffset":15612,"componentType":5126,"count":83,"type":"VEC3","name":"accessorNormals"},{"bufferView":2,"byteOffset":9744,"componentType":5126,"count":83,"type":"VEC4","name":"accessorTangents"},{"bufferView":3,"byteOffset":4872,"componentType":5126,"count":83,"type":"VEC2","name":"accessorUVs"},{"bufferView":0,"byteOffset":6576,"componentType":5123,"count":336,"type":"SCALAR","name":"accessorIndices"},{"bufferView":1,"byteOffset":16608,"componentType":5126,"count":83,"max":[-10.6612616,-6.126593,-98.7268143],"min":[-11.6148853,-7.08027935,-99.68045],"type":"VEC3","name":"accessorPositions"},{"bufferView":1,"byteOffset":17604,"componentType":5126,"count":83,"type":"VEC3","name":"accessorNormals"},{"bufferView":2,"byteOffset":11072,"componentType":5126,"count":83,"type":"VEC4","name":"accessorTangents"},{"bufferView":3,"byteOffset":5536,"componentType":5126,"count":83,"type":"VEC2","name":"accessorUVs"},{"bufferView":0,"byteOffset":7248,"componentType":5123,"count":336,"type":"SCALAR","name":"accessorIndices"},{"bufferView":1,"byteOffset":18600,"componentType":5126,"count":83,"max":[-4.50493431,13.8674946,-86.90024],"min":[-5.458558,12.9138088,-87.85392],"type":"VEC3","name":"accessorPositions"},{"bufferView":1,"byteOffset":19596,"componentType":5126,"count":83,"type":"VEC3","name":"accessorNormals"},{"bufferView":2,"byteOffset":12400,"componentType":5126,"count":83,"type":"VEC4","name":"accessorTangents"},{"bufferView":3,"byteOffset":6200,"componentType":5126,"count":83,"type":"VEC2","name":"accessorUVs"},{"bufferView":0,"byteOffset":7920,"componentType":5123,"count":336,"type":"SCALAR","name":"accessorIndices"},{"bufferView":1,"byteOffset":20592,"componentType":5126,"count":83,"max":[9.415488,-11.7346916,-85.40083],"min":[8.461863,-12.6883783,-86.3545151],"type":"VEC3","name":"accessorPositions"},{"bufferView":1,"byteOffset":21588,"componentType":5126,"count":83,"type":"VEC3","name":"accessorNormals"},{"bufferView":2,"byteOffset":13728,"componentType":5126,"count":83,"type":"VEC4","name":"accessorTangents"},{"bufferView":3,"byteOffset":6864,"componentType":5126,"count":83,"type":"VEC2","name":"accessorUVs"},{"bufferView":4,"componentType":5126,"count":2,"max":[8.291667],"min":[0.0],"type":"SCALAR","name":"accessorAnimationInput"},{"bufferView":5,"componentType":5126,"count":2,"type":"VEC3","name":"accessorAnimationPositions"}],"bufferViews":[{"buffer":0,"byteLength":8592,"name":"bufferViewScalar"},{"buffer":0,"byteOffset":8592,"byteLength":22584,"byteStride":12,"name":"bufferViewFloatVec3"},{"buffer":0,"byteOffset":31176,"byteLength":15056,"byteStride":16,"name":"bufferViewFloatVec4"},{"buffer":0,"byteOffset":46232,"byteLength":7528,"byteStride":8,"name":"bufferViewFloatVec2"},{"buffer":0,"byteOffset":53760,"byteLength":8,"name":"bufferViewAnimationFloatScalar"},{"buffer":0,"byteOffset":53768,"byteLength":24,"name":"bufferViewAnimationFloatVec3"}],"buffers":[{"uri":"C_jj_Model.bin","byteLength":53792}],"materials":[{"pbrMetallicRoughness":{"baseColorFactor":[1.0,1.0,1.0,1.0],"baseColorTexture":{"index":0,"texCoord":0},"metallicFactor":0.0,"roughnessFactor":0.3207082},"emissiveFactor":[0.0,0.0,0.0],"alphaMode":"BLEND","name":"C_jj_Model_proton_diffuse"},{"pbrMetallicRoughness":{"baseColorFactor":[1.0,1.0,1.0,1.0],"baseColorTexture":{"index":1,"texCoord":0},"metallicFactor":0.0,"roughnessFactor":0.3207082},"emissiveFactor":[0.0,0.0,0.0],"alphaMode":"BLEND","name":"C_jj_Model_Orbital_2s_Diffuse"}],"textures":[{"sampler":0,"source":0,"name":"C_jj_Model_proton_diffuse_baseColor.jpg"},{"sampler":1,"source":1,"name":"C_jj_Model_Orbital_2s_Diffuse_baseColor.png"}],"images":[{"uri":"C_jj_Model_proton_diffuse_baseColor.jpg"},{"uri":"C_jj_Model_Orbital_2s_Diffuse_baseColor.png"}],"samplers":[{"magFilter":9729,"minFilter":9987,"wrapS":10497,"wrapT":10497},{"magFilter":9729,"minFilter":9987,"wrapS":10497,"wrapT":10497}],"animations":[{"channels":[{"sampler":0,"target":{"node":1,"path":"translation"}}],"samplers":[{"input":35,"interpolation":"LINEAR","output":36}],"name":"All Animations"}]}