{"asset":{"version":"2.0","generator":"babylon.js glTF exporter for maya 2018 v1.3.0"},"scene":0,"scenes":[{"nodes":[0],"extensions":{}}],"nodes":[{"children":[1],"translation":[-0.09223032,-1.049655,-0.516854346],"rotation":[-0.707106769,0.0,0.0,0.707106769],"scale":[2.54,2.54,2.54],"name":"Cherry_Flower_Cut_Section"},{"mesh":0,"translation":[0.0,0.0,0.0],"rotation":[0.0,0.0,0.0,1.0],"scale":[1.0,1.0,1.0],"name":"Petal_02"}],"meshes":[{"primitives":[{"attributes":{"POSITION":1,"NORMAL":2,"TANGENT":3,"TEXCOORD_0":4,"TEXCOORD_1":5},"indices":0,"mode":4,"material":0}],"name":"Petal_02"}],"accessors":[{"bufferView":0,"componentType":5123,"count":2880,"type":"SCALAR","name":"accessorIndices"},{"bufferView":1,"componentType":5126,"count":708,"max":[6.740863,5.75748825,8.073304],"min":[-6.740864,-1.47163677,2.77929735],"type":"VEC3","name":"accessorPositions"},{"bufferView":1,"byteOffset":8496,"componentType":5126,"count":708,"type":"VEC3","name":"accessorNormals"},{"bufferView":2,"componentType":5126,"count":708,"type":"VEC4","name":"accessorTangents"},{"bufferView":3,"componentType":5126,"count":708,"type":"VEC2","name":"accessorUVs"},{"bufferView":3,"byteOffset":5664,"componentType":5126,"count":708,"type":"VEC2","name":"accessorUV2s"}],"bufferViews":[{"buffer":0,"byteLength":5760,"name":"bufferViewScalar"},{"buffer":0,"byteOffset":5760,"byteLength":16992,"byteStride":12,"name":"bufferViewFloatVec3"},{"buffer":0,"byteOffset":22752,"byteLength":11328,"byteStride":16,"name":"bufferViewFloatVec4"},{"buffer":0,"byteOffset":34080,"byteLength":11328,"byteStride":8,"name":"bufferViewFloatVec2"}],"buffers":[{"uri":"Petal_02.bin","byteLength":45408}],"materials":[{"pbrMetallicRoughness":{"baseColorFactor":[1.0,1.0,1.0,1.0],"baseColorTexture":{"index":1,"texCoord":0},"metallicFactor":0.0,"roughnessFactor":0.450053632},"emissiveTexture":{"index":0,"texCoord":0},"emissiveFactor":[1.0,1.0,1.0],"alphaMode":"OPAQUE","name":"Patels"}],"textures":[{"sampler":0,"source":0,"name":"Patels_emissive.jpg"},{"sampler":1,"source":1,"name":"Patels_baseColor.jpg"}],"images":[{"uri":"Patels_emissive.jpg"},{"uri":"Patels_baseColor.jpg"}],"samplers":[{"magFilter":9729,"minFilter":9987,"wrapS":10497,"wrapT":10497},{"magFilter":9729,"minFilter":9987,"wrapS":10497,"wrapT":10497}]}