{"asset":{"version":"2.0","generator":"babylon.js glTF exporter for maya 2018 v1.3.0"},"scene":0,"scenes":[{"nodes":[0],"extensions":{}}],"nodes":[{"children":[1],"translation":[0.0,0.0,0.0],"rotation":[0.0,0.0,0.0,1.0],"scale":[1.0,1.0,1.0],"name":"Rutherford"},{"mesh":0,"translation":[0.0,0.0,929.2578],"rotation":[0.0,0.0,0.0,1.0],"scale":[1.0,1.0,1.0],"name":"Zns_Screen"}],"meshes":[{"primitives":[{"attributes":{"POSITION":1,"NORMAL":2,"TANGENT":3,"TEXCOORD_0":4},"indices":0,"mode":4,"material":0},{"attributes":{"POSITION":6,"NORMAL":7,"TANGENT":8,"TEXCOORD_0":9},"indices":5,"mode":4,"material":1}],"name":"Zns_Screen"}],"accessors":[{"bufferView":0,"componentType":5123,"count":1680,"type":"SCALAR","name":"accessorIndices"},{"bufferView":1,"componentType":5126,"count":319,"max":[108.440872,27.0199928,260.128662],"min":[-108.423454,-27.021244,34.2626953],"type":"VEC3","name":"accessorPositions"},{"bufferView":1,"byteOffset":3828,"componentType":5126,"count":319,"type":"VEC3","name":"accessorNormals"},{"bufferView":2,"componentType":5126,"count":319,"type":"VEC4","name":"accessorTangents"},{"bufferView":3,"componentType":5126,"count":319,"type":"VEC2","name":"accessorUVs"},{"bufferView":0,"byteOffset":3360,"componentType":5123,"count":576,"type":"SCALAR","name":"accessorIndices"},{"bufferView":1,"byteOffset":7656,"componentType":5126,"count":145,"max":[83.31343,27.0199928,235.46376],"min":[-108.423454,-27.021244,58.9275932],"type":"VEC3","name":"accessorPositions"},{"bufferView":1,"byteOffset":9396,"componentType":5126,"count":145,"type":"VEC3","name":"accessorNormals"},{"bufferView":2,"byteOffset":5104,"componentType":5126,"count":145,"type":"VEC4","name":"accessorTangents"},{"bufferView":3,"byteOffset":2552,"componentType":5126,"count":145,"type":"VEC2","name":"accessorUVs"},{"bufferView":4,"componentType":5126,"count":2,"max":[8.291667],"min":[0.0],"type":"SCALAR","name":"accessorAnimationInput"},{"bufferView":5,"componentType":5126,"count":2,"type":"VEC3","name":"accessorAnimationPositions"}],"bufferViews":[{"buffer":0,"byteLength":4512,"name":"bufferViewScalar"},{"buffer":0,"byteOffset":4512,"byteLength":11136,"byteStride":12,"name":"bufferViewFloatVec3"},{"buffer":0,"byteOffset":15648,"byteLength":7424,"byteStride":16,"name":"bufferViewFloatVec4"},{"buffer":0,"byteOffset":23072,"byteLength":3712,"byteStride":8,"name":"bufferViewFloatVec2"},{"buffer":0,"byteOffset":26784,"byteLength":8,"name":"bufferViewAnimationFloatScalar"},{"buffer":0,"byteOffset":26792,"byteLength":24,"name":"bufferViewAnimationFloatVec3"}],"buffers":[{"uri":"Zns_Screen.bin","byteLength":26816}],"materials":[{"pbrMetallicRoughness":{"baseColorFactor":[0.0,0.0706,0.5,1.0],"metallicFactor":0.0,"roughnessFactor":0.3207082},"emissiveFactor":[0.0,0.0,0.0],"alphaMode":"OPAQUE","name":"Zns_Screen_Blue_Mtl"},{"pbrMetallicRoughness":{"baseColorFactor":[0.288617879,0.288617879,0.288617879,1.0],"metallicFactor":0.0,"roughnessFactor":0.3207082},"emissiveFactor":[0.0,0.0,0.0],"alphaMode":"OPAQUE","name":"Zns_Screen_Grey_Mtl"}],"animations":[{"channels":[{"sampler":0,"target":{"node":1,"path":"translation"}}],"samplers":[{"input":10,"interpolation":"LINEAR","output":11}],"name":"All Animations"}]}