{"asset":{"version":"2.0","generator":"babylon.js glTF exporter for maya 2018 v1.3.0"},"scene":0,"scenes":[{"nodes":[0],"extensions":{}}],"nodes":[{"children":[1],"translation":[-0.09223032,-1.049655,-0.516854346],"rotation":[-0.707106769,0.0,0.0,0.707106769],"scale":[2.54,2.54,2.54],"name":"Cherry_Flower_Cut_Section"},{"mesh":0,"translation":[0.0,0.0,0.0],"rotation":[0.0,0.0,0.0,1.0],"scale":[1.0,1.0,1.0],"name":"Sepal_02"}],"meshes":[{"primitives":[{"attributes":{"POSITION":1,"NORMAL":2,"TANGENT":3,"TEXCOORD_0":4},"indices":0,"mode":4,"material":0}],"name":"Sepal_02"}],"accessors":[{"bufferView":0,"componentType":5123,"count":3150,"type":"SCALAR","name":"accessorIndices"},{"bufferView":1,"componentType":5126,"count":758,"max":[2.0018692,2.37823486,3.03243256],"min":[-2.007576,-0.283802032,-8.073303],"type":"VEC3","name":"accessorPositions"},{"bufferView":1,"byteOffset":9096,"componentType":5126,"count":758,"type":"VEC3","name":"accessorNormals"},{"bufferView":2,"componentType":5126,"count":758,"type":"VEC4","name":"accessorTangents"},{"bufferView":3,"componentType":5126,"count":758,"type":"VEC2","name":"accessorUVs"}],"bufferViews":[{"buffer":0,"byteLength":6300,"name":"bufferViewScalar"},{"buffer":0,"byteOffset":6300,"byteLength":18192,"byteStride":12,"name":"bufferViewFloatVec3"},{"buffer":0,"byteOffset":24492,"byteLength":12128,"byteStride":16,"name":"bufferViewFloatVec4"},{"buffer":0,"byteOffset":36620,"byteLength":6064,"byteStride":8,"name":"bufferViewFloatVec2"}],"buffers":[{"uri":"Sepal_02.bin","byteLength":42684}],"materials":[{"pbrMetallicRoughness":{"baseColorFactor":[1.0,1.0,1.0,1.0],"baseColorTexture":{"index":0,"texCoord":0},"metallicFactor":0.0,"roughnessFactor":0.3207082},"emissiveFactor":[0.0,0.0,0.0],"alphaMode":"OPAQUE","name":"Middle_flower_lower"}],"textures":[{"sampler":0,"source":0,"name":"Middle_flower_lower_baseColor.jpg"}],"images":[{"uri":"Middle_flower_lower_baseColor.jpg"}],"samplers":[{"magFilter":9729,"minFilter":9987,"wrapS":10497,"wrapT":10497}]}