{"asset":{"version":"2.0","generator":"babylon.js glTF exporter for maya 2018 v1.3.0"},"scene":0,"scenes":[{"nodes":[0],"extensions":{}}],"nodes":[{"children":[1],"translation":[0.0,-171.27948,0.0],"rotation":[0.0,0.0,0.0,1.0],"scale":[1.0,1.0,1.0],"name":"Half_Section_Brain1"},{"mesh":0,"translation":[0.0,0.0,0.0],"rotation":[0.0,0.0,0.0,1.0],"scale":[1.0,1.0,1.0],"name":"Hypothalamus"}],"meshes":[{"primitives":[{"attributes":{"POSITION":1,"NORMAL":2,"TEXCOORD_0":3,"TEXCOORD_1":4},"indices":0,"mode":4,"material":0}],"name":"Hypothalamus"}],"accessors":[{"bufferView":0,"componentType":5123,"count":546,"type":"SCALAR","name":"accessorIndices"},{"bufferView":1,"componentType":5126,"count":135,"max":[0.5325972,173.696,4.98470926],"min":[-0.06912298,170.764648,2.3682034],"type":"VEC3","name":"accessorPositions"},{"bufferView":1,"byteOffset":1620,"componentType":5126,"count":135,"type":"VEC3","name":"accessorNormals"},{"bufferView":2,"componentType":5126,"count":135,"type":"VEC2","name":"accessorUVs"},{"bufferView":2,"byteOffset":1080,"componentType":5126,"count":135,"type":"VEC2","name":"accessorUV2s"}],"bufferViews":[{"buffer":0,"byteLength":1092,"name":"bufferViewScalar"},{"buffer":0,"byteOffset":1092,"byteLength":3240,"byteStride":12,"name":"bufferViewFloatVec3"},{"buffer":0,"byteOffset":4332,"byteLength":2160,"byteStride":8,"name":"bufferViewFloatVec2"}],"buffers":[{"uri":"Hypothalamus_Trans.bin","byteLength":6492}],"materials":[{"pbrMetallicRoughness":{"baseColorFactor":[0.1995,0.1995,0.5,0.266233742],"metallicFactor":0.0,"roughnessFactor":0.2581639},"emissiveFactor":[0.0,0.0,0.0],"alphaMode":"BLEND","name":"phong1"}]}