{"asset":{"version":"2.0","generator":"babylon.js glTF exporter for maya 2018 v1.3.0"},"scene":0,"scenes":[{"nodes":[0],"extensions":{}}],"nodes":[{"children":[1],"translation":[0.0,0.0,0.0],"rotation":[0.0,0.0,0.0,1.0],"scale":[1.0,1.0,1.0],"name":"Galvanometer_Grp"},{"mesh":0,"translation":[0.0,0.0,0.0],"rotation":[0.0,0.0,0.0,1.0],"scale":[1.0,1.0,1.0],"name":"Ring_01"}],"meshes":[{"primitives":[{"attributes":{"POSITION":1,"NORMAL":2,"TANGENT":3,"TEXCOORD_0":4},"indices":0,"mode":4,"material":0}],"name":"Ring_01"}],"accessors":[{"bufferView":0,"componentType":5123,"count":8412,"type":"SCALAR","name":"accessorIndices"},{"bufferView":1,"componentType":5126,"count":2472,"max":[1.0689137,3.8220048,3.48087549],"min":[-1.0483712,1.73810446,3.394166],"type":"VEC3","name":"accessorPositions"},{"bufferView":1,"byteOffset":29664,"componentType":5126,"count":2472,"type":"VEC3","name":"accessorNormals"},{"bufferView":2,"componentType":5126,"count":2472,"type":"VEC4","name":"accessorTangents"},{"bufferView":3,"componentType":5126,"count":2472,"type":"VEC2","name":"accessorUVs"}],"bufferViews":[{"buffer":0,"byteLength":16824,"name":"bufferViewScalar"},{"buffer":0,"byteOffset":16824,"byteLength":59328,"byteStride":12,"name":"bufferViewFloatVec3"},{"buffer":0,"byteOffset":76152,"byteLength":39552,"byteStride":16,"name":"bufferViewFloatVec4"},{"buffer":0,"byteOffset":115704,"byteLength":19776,"byteStride":8,"name":"bufferViewFloatVec2"}],"buffers":[{"uri":"Ring.bin","byteLength":135480}],"materials":[{"pbrMetallicRoughness":{"baseColorFactor":[0.04878049,0.04878049,0.04878049,1.0],"metallicFactor":0.0,"roughnessFactor":0.201679826},"emissiveFactor":[0.0,0.0,0.0],"alphaMode":"OPAQUE","name":"Metal_blck"}]}