{"asset":{"version":"2.0","generator":"babylon.js glTF exporter for maya 2018 v1.3.0"},"scene":0,"scenes":[{"nodes":[0],"extensions":{}}],"nodes":[{"children":[1],"translation":[0.0,0.0,0.0],"rotation":[0.0,0.0,0.0,1.0],"scale":[1.0,1.0,1.0],"name":"Rutherford"},{"children":[2,15,19],"translation":[0.0,0.0,-607.0682],"rotation":[0.0,0.0,0.0,1.0],"scale":[1.0,1.0,1.0],"name":"Carbon_Grp"},{"children":[3,4,5,6,7,8,9,10,11,12,13,14],"translation":[0.0,0.0,0.0],"rotation":[0.0,0.0,0.0,1.0],"scale":[1.0,1.0,1.0],"name":"Carbon"},{"mesh":0,"translation":[0.0,0.0,0.0],"rotation":[0.0,0.0,0.0,1.0],"scale":[1.0,1.0,1.0],"name":"Proton_04_Geo"},{"mesh":1,"translation":[0.0,0.0,0.0],"rotation":[0.0,0.0,0.0,1.0],"scale":[1.0,1.0,1.0],"name":"Nutron_05_Geo"},{"mesh":2,"translation":[0.0,0.0,0.0],"rotation":[0.0,0.0,0.0,1.0],"scale":[1.0,1.0,1.0],"name":"Nutron_04_Geo"},{"mesh":3,"translation":[0.0,0.0,0.0],"rotation":[0.0,0.0,0.0,1.0],"scale":[1.0,1.0,1.0],"name":"Nutron_03_Geo"},{"mesh":4,"translation":[0.0,0.0,0.0],"rotation":[0.0,0.0,0.0,1.0],"scale":[1.0,1.0,1.0],"name":"Nutron_02_Geo"},{"mesh":5,"translation":[0.0,0.0,0.0],"rotation":[0.0,0.0,0.0,1.0],"scale":[1.0,1.0,1.0],"name":"Nutron_01_Geo"},{"mesh":6,"translation":[0.0,0.0,0.0],"rotation":[0.0,0.0,0.0,1.0],"scale":[1.0,1.0,1.0],"name":"Proton_01_Geo"},{"mesh":7,"translation":[0.0,0.0,0.0],"rotation":[0.0,0.0,0.0,1.0],"scale":[1.0,1.0,1.0],"name":"Proton_02_Geo"},{"mesh":8,"translation":[0.0,0.0,0.0],"rotation":[0.0,0.0,0.0,1.0],"scale":[1.0,1.0,1.0],"name":"Proton_03_Geo"},{"mesh":9,"translation":[0.0,0.0,0.0],"rotation":[0.0,0.0,0.0,1.0],"scale":[1.0,1.0,1.0],"name":"Proton_05_Geo"},{"mesh":10,"translation":[0.0,0.0,0.0],"rotation":[0.0,0.0,0.0,1.0],"scale":[1.0,1.0,1.0],"name":"Proton_06_Geo"},{"mesh":11,"translation":[0.0,0.0,0.0],"rotation":[0.0,0.0,0.0,1.0],"scale":[1.0,1.0,1.0],"name":"Nutron_04_Geo1"},{"children":[16,17,18],"translation":[0.0,0.0,0.0],"rotation":[0.0,0.0,0.0,1.0],"scale":[1.0,1.0,1.0],"name":"K_Shell_Grp1"},{"mesh":12,"translation":[-0.477070421,-4.581514,1.58618546],"rotation":[0.0,0.0,0.0,1.0],"scale":[1.0,1.0,1.0],"name":"Electron_5_Geo118"},{"mesh":13,"translation":[-0.451944232,4.597217,-1.784763],"rotation":[0.0,0.0,0.0,1.0],"scale":[1.0,1.0,1.0],"name":"Electron_5_Geo5"},{"mesh":14,"translation":[0.0,0.0,0.0],"rotation":[0.0,0.0,0.0,1.0],"scale":[1.0,1.0,1.0],"name":"K_ring_Geo"},{"children":[20,21,22,23,24,25,26],"translation":[0.0,0.0,0.0],"rotation":[0.0,0.0,0.0,1.0],"scale":[1.0,1.0,1.0],"name":"L_Shell_Grp1"},{"mesh":15,"translation":[-0.488641828,7.299492,7.23145676],"rotation":[0.0,0.0,0.0,1.0],"scale":[1.0,1.0,1.0],"name":"Electron_5_Geo116"},{"mesh":16,"translation":[-0.488641828,3.03868532,-2.53651714],"rotation":[0.0,0.0,0.0,1.0],"scale":[1.0,1.0,1.0],"name":"Electron_5_Geo5 (1)"},{"mesh":17,"translation":[0.0,0.0,0.0],"rotation":[0.0,0.0,0.0,1.0],"scale":[1.0,1.0,1.0],"name":"L_ring_Geo"},{"mesh":18,"translation":[-0.488641828,75.95355,-67.64767],"rotation":[0.0,0.0,0.0,1.0],"scale":[1.0,1.0,1.0],"name":"Electron_5_Geo119"},{"mesh":19,"translation":[0.0,0.0,0.0],"rotation":[0.0,0.0,0.0,1.0],"scale":[1.0,1.0,1.0],"name":"L_ring_Geo1"},{"mesh":20,"translation":[-0.4886508,-0.6522666,-66.00955],"rotation":[0.0,0.0,0.0,1.0],"scale":[1.0,1.0,1.0],"name":"Electron_5_Geo120"},{"mesh":21,"translation":[0.0,0.0,0.0],"rotation":[0.0,0.0,0.0,1.0],"scale":[1.0,1.0,1.0],"name":"L_ring_Geo2"}],"meshes":[{"primitives":[{"attributes":{"POSITION":1,"NORMAL":2,"TANGENT":3,"TEXCOORD_0":4},"indices":0,"mode":4,"material":0}],"name":"Proton_04_Geo"},{"primitives":[{"attributes":{"POSITION":6,"NORMAL":7,"TANGENT":8,"TEXCOORD_0":9},"indices":5,"mode":4,"material":1}],"name":"Nutron_05_Geo"},{"primitives":[{"attributes":{"POSITION":11,"NORMAL":12,"TANGENT":13,"TEXCOORD_0":14},"indices":10,"mode":4,"material":1}],"name":"Nutron_04_Geo"},{"primitives":[{"attributes":{"POSITION":16,"NORMAL":17,"TANGENT":18,"TEXCOORD_0":19},"indices":15,"mode":4,"material":1}],"name":"Nutron_03_Geo"},{"primitives":[{"attributes":{"POSITION":21,"NORMAL":22,"TANGENT":23,"TEXCOORD_0":24},"indices":20,"mode":4,"material":1}],"name":"Nutron_02_Geo"},{"primitives":[{"attributes":{"POSITION":26,"NORMAL":27,"TANGENT":28,"TEXCOORD_0":29},"indices":25,"mode":4,"material":1}],"name":"Nutron_01_Geo"},{"primitives":[{"attributes":{"POSITION":31,"NORMAL":32,"TANGENT":33,"TEXCOORD_0":34},"indices":30,"mode":4,"material":0}],"name":"Proton_01_Geo"},{"primitives":[{"attributes":{"POSITION":36,"NORMAL":37,"TANGENT":38,"TEXCOORD_0":39},"indices":35,"mode":4,"material":0}],"name":"Proton_02_Geo"},{"primitives":[{"attributes":{"POSITION":41,"NORMAL":42,"TANGENT":43,"TEXCOORD_0":44},"indices":40,"mode":4,"material":0}],"name":"Proton_03_Geo"},{"primitives":[{"attributes":{"POSITION":46,"NORMAL":47,"TANGENT":48,"TEXCOORD_0":49},"indices":45,"mode":4,"material":0}],"name":"Proton_05_Geo"},{"primitives":[{"attributes":{"POSITION":51,"NORMAL":52,"TANGENT":53,"TEXCOORD_0":54},"indices":50,"mode":4,"material":0}],"name":"Proton_06_Geo"},{"primitives":[{"attributes":{"POSITION":56,"NORMAL":57,"TANGENT":58,"TEXCOORD_0":59},"indices":55,"mode":4,"material":1}],"name":"Nutron_04_Geo1"},{"primitives":[{"attributes":{"POSITION":61,"NORMAL":62,"TANGENT":63,"TEXCOORD_0":64},"indices":60,"mode":4,"material":2}],"name":"Electron_5_Geo118"},{"primitives":[{"attributes":{"POSITION":66,"NORMAL":67,"TANGENT":68,"TEXCOORD_0":69},"indices":65,"mode":4,"material":2}],"name":"Electron_5_Geo5"},{"primitives":[{"attributes":{"POSITION":71,"NORMAL":72,"TANGENT":73,"TEXCOORD_0":74},"indices":70,"mode":4,"material":3}],"name":"K_ring_Geo"},{"primitives":[{"attributes":{"POSITION":76,"NORMAL":77,"TANGENT":78,"TEXCOORD_0":79},"indices":75,"mode":4,"material":2}],"name":"Electron_5_Geo116"},{"primitives":[{"attributes":{"POSITION":81,"NORMAL":82,"TANGENT":83,"TEXCOORD_0":84},"indices":80,"mode":4,"material":2}],"name":"Electron_5_Geo5"},{"primitives":[{"attributes":{"POSITION":86,"NORMAL":87,"TANGENT":88,"TEXCOORD_0":89},"indices":85,"mode":4,"material":4}],"name":"L_ring_Geo"},{"primitives":[{"attributes":{"POSITION":91,"NORMAL":92,"TANGENT":93,"TEXCOORD_0":94},"indices":90,"mode":4,"material":2}],"name":"Electron_5_Geo119"},{"primitives":[{"attributes":{"POSITION":96,"NORMAL":97,"TANGENT":98,"TEXCOORD_0":99},"indices":95,"mode":4,"material":4}],"name":"L_ring_Geo1"},{"primitives":[{"attributes":{"POSITION":101,"NORMAL":102,"TANGENT":103,"TEXCOORD_0":104},"indices":100,"mode":4,"material":2}],"name":"Electron_5_Geo120"},{"primitives":[{"attributes":{"POSITION":106,"NORMAL":107,"TANGENT":108,"TEXCOORD_0":109},"indices":105,"mode":4,"material":4}],"name":"L_ring_Geo2"}],"accessors":[{"bufferView":0,"componentType":5123,"count":192,"type":"SCALAR","name":"accessorIndices"},{"bufferView":1,"componentType":5126,"count":56,"max":[3.75911427,5.33368158,-362.147522],"min":[-1.0589453,0.5433453,-367.156555],"type":"VEC3","name":"accessorPositions"},{"bufferView":1,"byteOffset":672,"componentType":5126,"count":56,"type":"VEC3","name":"accessorNormals"},{"bufferView":2,"componentType":5126,"count":56,"type":"VEC4","name":"accessorTangents"},{"bufferView":3,"componentType":5126,"count":56,"type":"VEC2","name":"accessorUVs"},{"bufferView":0,"byteOffset":384,"componentType":5123,"count":192,"type":"SCALAR","name":"accessorIndices"},{"bufferView":1,"byteOffset":1344,"componentType":5126,"count":56,"max":[0.584734738,2.786108,-363.013367],"min":[-4.00086975,-1.777139,-368.022156],"type":"VEC3","name":"accessorPositions"},{"bufferView":1,"byteOffset":2016,"componentType":5126,"count":56,"type":"VEC3","name":"accessorNormals"},{"bufferView":2,"byteOffset":896,"componentType":5126,"count":56,"type":"VEC4","name":"accessorTangents"},{"bufferView":3,"byteOffset":448,"componentType":5126,"count":56,"type":"VEC2","name":"accessorUVs"},{"bufferView":0,"byteOffset":768,"componentType":5123,"count":192,"type":"SCALAR","name":"accessorIndices"},{"bufferView":1,"byteOffset":2688,"componentType":5126,"count":56,"max":[0.5666856,6.27930927,-360.700256],"min":[-4.018774,1.71610355,-365.709076],"type":"VEC3","name":"accessorPositions"},{"bufferView":1,"byteOffset":3360,"componentType":5126,"count":56,"type":"VEC3","name":"accessorNormals"},{"bufferView":2,"byteOffset":1792,"componentType":5126,"count":56,"type":"VEC4","name":"accessorTangents"},{"bufferView":3,"byteOffset":896,"componentType":5126,"count":56,"type":"VEC2","name":"accessorUVs"},{"bufferView":0,"byteOffset":1152,"componentType":5123,"count":192,"type":"SCALAR","name":"accessorIndices"},{"bufferView":1,"byteOffset":4032,"componentType":5126,"count":56,"max":[1.30681849,-0.484845847,-360.372955],"min":[-3.528071,-5.29355,-365.38205],"type":"VEC3","name":"accessorPositions"},{"bufferView":1,"byteOffset":4704,"componentType":5126,"count":56,"type":"VEC3","name":"accessorNormals"},{"bufferView":2,"byteOffset":2688,"componentType":5126,"count":56,"type":"VEC4","name":"accessorTangents"},{"bufferView":3,"byteOffset":1344,"componentType":5126,"count":56,"type":"VEC2","name":"accessorUVs"},{"bufferView":0,"byteOffset":1536,"componentType":5123,"count":192,"type":"SCALAR","name":"accessorIndices"},{"bufferView":1,"byteOffset":5376,"componentType":5126,"count":56,"max":[-0.462307572,1.53873134,-356.602325],"min":[-5.04791164,-3.02439165,-361.611359],"type":"VEC3","name":"accessorPositions"},{"bufferView":1,"byteOffset":6048,"componentType":5126,"count":56,"type":"VEC3","name":"accessorNormals"},{"bufferView":2,"byteOffset":3584,"componentType":5126,"count":56,"type":"VEC4","name":"accessorTangents"},{"bufferView":3,"byteOffset":1792,"componentType":5126,"count":56,"type":"VEC2","name":"accessorUVs"},{"bufferView":0,"byteOffset":1920,"componentType":5123,"count":192,"type":"SCALAR","name":"accessorIndices"},{"bufferView":1,"byteOffset":6720,"componentType":5126,"count":56,"max":[4.540971,1.57931364,-361.9582],"min":[-0.293866932,-3.22945261,-366.967224],"type":"VEC3","name":"accessorPositions"},{"bufferView":1,"byteOffset":7392,"componentType":5126,"count":56,"type":"VEC3","name":"accessorNormals"},{"bufferView":2,"byteOffset":4480,"componentType":5126,"count":56,"type":"VEC4","name":"accessorTangents"},{"bufferView":3,"byteOffset":2240,"componentType":5126,"count":56,"type":"VEC2","name":"accessorUVs"},{"bufferView":0,"byteOffset":2304,"componentType":5123,"count":192,"type":"SCALAR","name":"accessorIndices"},{"bufferView":1,"byteOffset":8064,"componentType":5126,"count":56,"max":[0.6029029,5.4347496,-357.350342],"min":[-4.307526,0.8714565,-362.01535],"type":"VEC3","name":"accessorPositions"},{"bufferView":1,"byteOffset":8736,"componentType":5126,"count":56,"type":"VEC3","name":"accessorNormals"},{"bufferView":2,"byteOffset":5376,"componentType":5126,"count":56,"type":"VEC4","name":"accessorTangents"},{"bufferView":3,"byteOffset":2688,"componentType":5126,"count":56,"type":"VEC2","name":"accessorUVs"},{"bufferView":0,"byteOffset":2688,"componentType":5123,"count":192,"type":"SCALAR","name":"accessorIndices"},{"bufferView":1,"byteOffset":9408,"componentType":5126,"count":56,"max":[4.809804,1.5651052,-359.322845],"min":[-0.0249878168,-3.24351645,-364.3319],"type":"VEC3","name":"accessorPositions"},{"bufferView":1,"byteOffset":10080,"componentType":5126,"count":56,"type":"VEC3","name":"accessorNormals"},{"bufferView":2,"byteOffset":6272,"componentType":5126,"count":56,"type":"VEC4","name":"accessorTangents"},{"bufferView":3,"byteOffset":3136,"componentType":5126,"count":56,"type":"VEC2","name":"accessorUVs"},{"bufferView":0,"byteOffset":3072,"componentType":5123,"count":192,"type":"SCALAR","name":"accessorIndices"},{"bufferView":1,"byteOffset":10752,"componentType":5126,"count":56,"max":[-1.94011426,4.24761152,-360.314056],"min":[-6.694722,-0.478915483,-365.3229],"type":"VEC3","name":"accessorPositions"},{"bufferView":1,"byteOffset":11424,"componentType":5126,"count":56,"type":"VEC3","name":"accessorNormals"},{"bufferView":2,"byteOffset":7168,"componentType":5126,"count":56,"type":"VEC4","name":"accessorTangents"},{"bufferView":3,"byteOffset":3584,"componentType":5126,"count":56,"type":"VEC2","name":"accessorUVs"},{"bufferView":0,"byteOffset":3456,"componentType":5123,"count":192,"type":"SCALAR","name":"accessorIndices"},{"bufferView":1,"byteOffset":12096,"componentType":5126,"count":56,"max":[2.90194035,1.67275751,-356.93515],"min":[-1.88595653,-3.09019876,-361.94397],"type":"VEC3","name":"accessorPositions"},{"bufferView":1,"byteOffset":12768,"componentType":5126,"count":56,"type":"VEC3","name":"accessorNormals"},{"bufferView":2,"byteOffset":8064,"componentType":5126,"count":56,"type":"VEC4","name":"accessorTangents"},{"bufferView":3,"byteOffset":4032,"componentType":5126,"count":56,"type":"VEC2","name":"accessorUVs"},{"bufferView":0,"byteOffset":3840,"componentType":5123,"count":192,"type":"SCALAR","name":"accessorIndices"},{"bufferView":1,"byteOffset":13440,"componentType":5126,"count":56,"max":[-2.01714659,0.6683509,-360.3117],"min":[-6.80506372,-4.0945096,-365.320526],"type":"VEC3","name":"accessorPositions"},{"bufferView":1,"byteOffset":14112,"componentType":5126,"count":56,"type":"VEC3","name":"accessorNormals"},{"bufferView":2,"byteOffset":8960,"componentType":5126,"count":56,"type":"VEC4","name":"accessorTangents"},{"bufferView":3,"byteOffset":4480,"componentType":5126,"count":56,"type":"VEC2","name":"accessorUVs"},{"bufferView":0,"byteOffset":4224,"componentType":5123,"count":192,"type":"SCALAR","name":"accessorIndices"},{"bufferView":1,"byteOffset":14784,"componentType":5126,"count":56,"max":[3.98008943,5.08110476,-358.269653],"min":[-0.605370462,0.51789844,-363.278473],"type":"VEC3","name":"accessorPositions"},{"bufferView":1,"byteOffset":15456,"componentType":5126,"count":56,"type":"VEC3","name":"accessorNormals"},{"bufferView":2,"byteOffset":9856,"componentType":5126,"count":56,"type":"VEC4","name":"accessorTangents"},{"bufferView":3,"byteOffset":4928,"componentType":5126,"count":56,"type":"VEC2","name":"accessorUVs"},{"bufferView":0,"byteOffset":4608,"componentType":5123,"count":336,"type":"SCALAR","name":"accessorIndices"},{"bufferView":1,"byteOffset":16128,"componentType":5126,"count":83,"max":[1.43236244,15.1901121,-331.127],"min":[-3.575059,10.1828632,-336.134],"type":"VEC3","name":"accessorPositions"},{"bufferView":1,"byteOffset":17124,"componentType":5126,"count":83,"type":"VEC3","name":"accessorNormals"},{"bufferView":2,"byteOffset":10752,"componentType":5126,"count":83,"type":"VEC4","name":"accessorTangents"},{"bufferView":3,"byteOffset":5376,"componentType":5126,"count":83,"type":"VEC2","name":"accessorUVs"},{"bufferView":0,"byteOffset":5280,"componentType":5123,"count":336,"type":"SCALAR","name":"accessorIndices"},{"bufferView":1,"byteOffset":18120,"componentType":5126,"count":83,"max":[1.57981455,-9.211564,-388.29483],"min":[-3.427607,-14.218646,-393.301819],"type":"VEC3","name":"accessorPositions"},{"bufferView":1,"byteOffset":19116,"componentType":5126,"count":83,"type":"VEC3","name":"accessorNormals"},{"bufferView":2,"byteOffset":12080,"componentType":5126,"count":83,"type":"VEC4","name":"accessorTangents"},{"bufferView":3,"byteOffset":6040,"componentType":5126,"count":83,"type":"VEC2","name":"accessorUVs"},{"bufferView":0,"byteOffset":5952,"componentType":5123,"count":2880,"type":"SCALAR","name":"accessorIndices"},{"bufferView":1,"byteOffset":20112,"componentType":5126,"count":611,"max":[-0.421038181,32.0963631,-330.708954],"min":[-1.57420659,-31.1106834,-393.915466],"type":"VEC3","name":"accessorPositions"},{"bufferView":1,"byteOffset":27444,"componentType":5126,"count":611,"type":"VEC3","name":"accessorNormals"},{"bufferView":2,"byteOffset":13408,"componentType":5126,"count":611,"type":"VEC4","name":"accessorTangents"},{"bufferView":3,"byteOffset":6704,"componentType":5126,"count":611,"type":"VEC2","name":"accessorUVs"},{"bufferView":0,"byteOffset":11712,"componentType":5123,"count":336,"type":"SCALAR","name":"accessorIndices"},{"bufferView":1,"byteOffset":34776,"componentType":5126,"count":83,"max":[1.50575793,-35.4420547,-326.695],"min":[-3.50100255,-40.4348259,-331.68808],"type":"VEC3","name":"accessorPositions"},{"bufferView":1,"byteOffset":35772,"componentType":5126,"count":83,"type":"VEC3","name":"accessorNormals"},{"bufferView":2,"byteOffset":23184,"componentType":5126,"count":83,"type":"VEC4","name":"accessorTangents"},{"bufferView":3,"byteOffset":11592,"componentType":5126,"count":83,"type":"VEC2","name":"accessorUVs"},{"bufferView":0,"byteOffset":12384,"componentType":5123,"count":336,"type":"SCALAR","name":"accessorIndices"},{"bufferView":1,"byteOffset":36768,"componentType":5126,"count":83,"max":[1.50575793,36.0054474,-321.294128],"min":[-3.50100255,31.0120125,-326.28717],"type":"VEC3","name":"accessorPositions"},{"bufferView":1,"byteOffset":37764,"componentType":5126,"count":83,"type":"VEC3","name":"accessorNormals"},{"bufferView":2,"byteOffset":24512,"componentType":5126,"count":83,"type":"VEC4","name":"accessorTangents"},{"bufferView":3,"byteOffset":12256,"componentType":5126,"count":83,"type":"VEC2","name":"accessorUVs"},{"bufferView":0,"byteOffset":13056,"componentType":5123,"count":2880,"type":"SCALAR","name":"accessorIndices"},{"bufferView":1,"byteOffset":38760,"componentType":5126,"count":611,"max":[-0.432940036,51.7260056,-311.078918],"min":[-1.56230438,-50.74066,-413.5455],"type":"VEC3","name":"accessorPositions"},{"bufferView":1,"byteOffset":46092,"componentType":5126,"count":611,"type":"VEC3","name":"accessorNormals"},{"bufferView":2,"byteOffset":25840,"componentType":5126,"count":611,"type":"VEC4","name":"accessorTangents"},{"bufferView":3,"byteOffset":12920,"componentType":5126,"count":611,"type":"VEC2","name":"accessorUVs"},{"bufferView":0,"byteOffset":18816,"componentType":5123,"count":336,"type":"SCALAR","name":"accessorIndices"},{"bufferView":1,"byteOffset":53424,"componentType":5126,"count":83,"max":[1.50575793,-35.4420547,-326.695],"min":[-3.50100255,-40.4348259,-331.68808],"type":"VEC3","name":"accessorPositions"},{"bufferView":1,"byteOffset":54420,"componentType":5126,"count":83,"type":"VEC3","name":"accessorNormals"},{"bufferView":2,"byteOffset":35616,"componentType":5126,"count":83,"type":"VEC4","name":"accessorTangents"},{"bufferView":3,"byteOffset":17808,"componentType":5126,"count":83,"type":"VEC2","name":"accessorUVs"},{"bufferView":0,"byteOffset":19488,"componentType":5123,"count":2880,"type":"SCALAR","name":"accessorIndices"},{"bufferView":1,"byteOffset":55416,"componentType":5126,"count":611,"max":[-0.432940036,51.7260056,-311.078918],"min":[-1.56230438,-50.74066,-413.5455],"type":"VEC3","name":"accessorPositions"},{"bufferView":1,"byteOffset":62748,"componentType":5126,"count":611,"type":"VEC3","name":"accessorNormals"},{"bufferView":2,"byteOffset":36944,"componentType":5126,"count":611,"type":"VEC4","name":"accessorTangents"},{"bufferView":3,"byteOffset":18472,"componentType":5126,"count":611,"type":"VEC2","name":"accessorUVs"},{"bufferView":0,"byteOffset":25248,"componentType":5123,"count":336,"type":"SCALAR","name":"accessorIndices"},{"bufferView":1,"byteOffset":70080,"componentType":5126,"count":83,"max":[1.50575793,-35.4420547,-326.695],"min":[-3.50100255,-40.4348259,-331.68808],"type":"VEC3","name":"accessorPositions"},{"bufferView":1,"byteOffset":71076,"componentType":5126,"count":83,"type":"VEC3","name":"accessorNormals"},{"bufferView":2,"byteOffset":46720,"componentType":5126,"count":83,"type":"VEC4","name":"accessorTangents"},{"bufferView":3,"byteOffset":23360,"componentType":5126,"count":83,"type":"VEC2","name":"accessorUVs"},{"bufferView":0,"byteOffset":25920,"componentType":5123,"count":2880,"type":"SCALAR","name":"accessorIndices"},{"bufferView":1,"byteOffset":72072,"componentType":5126,"count":611,"max":[-0.432940036,51.7260056,-311.078918],"min":[-1.56230438,-50.74066,-413.5455],"type":"VEC3","name":"accessorPositions"},{"bufferView":1,"byteOffset":79404,"componentType":5126,"count":611,"type":"VEC3","name":"accessorNormals"},{"bufferView":2,"byteOffset":48048,"componentType":5126,"count":611,"type":"VEC4","name":"accessorTangents"},{"bufferView":3,"byteOffset":24024,"componentType":5126,"count":611,"type":"VEC2","name":"accessorUVs"},{"bufferView":4,"componentType":5126,"count":2,"max":[3.08333325],"min":[0.0],"type":"SCALAR","name":"accessorAnimationInput"},{"bufferView":5,"componentType":5126,"count":2,"type":"VEC3","name":"accessorAnimationPositions"},{"bufferView":4,"byteOffset":8,"componentType":5126,"count":75,"max":[3.08333325],"min":[0.0],"type":"SCALAR","name":"accessorAnimationInput"},{"bufferView":5,"byteOffset":24,"componentType":5126,"count":75,"type":"VEC3","name":"accessorAnimationPositions"},{"bufferView":4,"byteOffset":308,"componentType":5126,"count":75,"max":[3.08333325],"min":[0.0],"type":"SCALAR","name":"accessorAnimationInput"},{"bufferView":5,"byteOffset":924,"componentType":5126,"count":75,"type":"VEC3","name":"accessorAnimationPositions"},{"bufferView":4,"byteOffset":608,"componentType":5126,"count":75,"max":[3.08333325],"min":[0.0],"type":"SCALAR","name":"accessorAnimationInput"},{"bufferView":5,"byteOffset":1824,"componentType":5126,"count":75,"type":"VEC3","name":"accessorAnimationPositions"},{"bufferView":4,"byteOffset":908,"componentType":5126,"count":75,"max":[3.08333325],"min":[0.0],"type":"SCALAR","name":"accessorAnimationInput"},{"bufferView":5,"byteOffset":2724,"componentType":5126,"count":75,"type":"VEC3","name":"accessorAnimationPositions"},{"bufferView":4,"byteOffset":1208,"componentType":5126,"count":75,"max":[3.08333325],"min":[0.0],"type":"SCALAR","name":"accessorAnimationInput"},{"bufferView":5,"byteOffset":3624,"componentType":5126,"count":75,"type":"VEC3","name":"accessorAnimationPositions"},{"bufferView":4,"byteOffset":1508,"componentType":5126,"count":75,"max":[3.08333325],"min":[0.0],"type":"SCALAR","name":"accessorAnimationInput"},{"bufferView":5,"byteOffset":4524,"componentType":5126,"count":75,"type":"VEC3","name":"accessorAnimationPositions"}],"bufferViews":[{"buffer":0,"byteLength":31680,"name":"bufferViewScalar"},{"buffer":0,"byteOffset":31680,"byteLength":86736,"byteStride":12,"name":"bufferViewFloatVec3"},{"buffer":0,"byteOffset":118416,"byteLength":57824,"byteStride":16,"name":"bufferViewFloatVec4"},{"buffer":0,"byteOffset":176240,"byteLength":28912,"byteStride":8,"name":"bufferViewFloatVec2"},{"buffer":0,"byteOffset":205152,"byteLength":1808,"name":"bufferViewAnimationFloatScalar"},{"buffer":0,"byteOffset":206960,"byteLength":5424,"name":"bufferViewAnimationFloatVec3"}],"buffers":[{"uri":"Carbon.bin","byteLength":212384}],"materials":[{"pbrMetallicRoughness":{"baseColorFactor":[0.5,0.0,0.0,1.0],"metallicFactor":0.0,"roughnessFactor":0.3207082},"emissiveFactor":[0.0,0.0,0.0],"alphaMode":"OPAQUE","name":"Proton_Mat"},{"pbrMetallicRoughness":{"baseColorFactor":[0.0,0.0,0.5,1.0],"metallicFactor":0.0,"roughnessFactor":0.3207082},"emissiveFactor":[0.0,0.0,0.0],"alphaMode":"OPAQUE","name":"Nutron_Mat"},{"pbrMetallicRoughness":{"baseColorFactor":[1.0,1.0,1.0,1.0],"baseColorTexture":{"index":0,"texCoord":0},"metallicFactor":0.0,"roughnessFactor":0.3207082},"emissiveFactor":[0.0,0.0,0.0],"alphaMode":"OPAQUE","name":"c_Shell_Electron_Diffuse"},{"pbrMetallicRoughness":{"baseColorFactor":[0.0,0.5,0.5,1.0],"metallicFactor":0.0,"roughnessFactor":0.450053632},"emissiveFactor":[0.0,0.0,0.0],"alphaMode":"OPAQUE","name":"K_Shell"},{"pbrMetallicRoughness":{"baseColorFactor":[0.0,0.5,0.5,1.0],"metallicFactor":0.0,"roughnessFactor":0.450053632},"emissiveFactor":[0.0,0.0,0.0],"alphaMode":"OPAQUE","name":"c_Shell_L_Shell"}],"textures":[{"sampler":0,"source":0,"name":"c_Shell_Electron_Diffuse_baseColor.jpg"}],"images":[{"uri":"c_Shell_Electron_Diffuse_baseColor.jpg"}],"samplers":[{"magFilter":9729,"minFilter":9987,"wrapS":10497,"wrapT":10497}],"animations":[{"channels":[{"sampler":0,"target":{"node":1,"path":"translation"}},{"sampler":1,"target":{"node":16,"path":"translation"}},{"sampler":2,"target":{"node":17,"path":"translation"}},{"sampler":3,"target":{"node":20,"path":"translation"}},{"sampler":4,"target":{"node":21,"path":"translation"}},{"sampler":5,"target":{"node":23,"path":"translation"}},{"sampler":6,"target":{"node":25,"path":"translation"}}],"samplers":[{"input":110,"interpolation":"LINEAR","output":111},{"input":112,"interpolation":"LINEAR","output":113},{"input":114,"interpolation":"LINEAR","output":115},{"input":116,"interpolation":"LINEAR","output":117},{"input":118,"interpolation":"LINEAR","output":119},{"input":120,"interpolation":"LINEAR","output":121},{"input":122,"interpolation":"LINEAR","output":123}],"name":"All Animations"}]}