{
  "accessors": [
    {
      "bufferView": 0,
      "componentType": 5125,
      "count": 2358,
      "type": "SCALAR"
    },
    {
      "bufferView": 1,
      "componentType": 5126,
      "count": 1529,
      "max": [
        0.734461188316345,
        0.282618016004562,
        1.0
      ],
      "min": [
        -0.734461188316345,
        -0.282618045806885,
        -1.0
      ],
      "type": "VEC3"
    },
    {
      "bufferView": 2,
      "componentType": 5126,
      "count": 1529,
      "type": "VEC3"
    },
    {
      "bufferView": 3,
      "componentType": 5126,
      "count": 1529,
      "type": "VEC2"
    }
  ],
  "asset": {
    "generator": "Substance Painter 2018.2.3",
    "version": "2.0"
  },
  "bufferViews": [
    {
      "buffer": 0,
      "byteLength": 9432,
      "target": 34963
    },
    {
      "buffer": 0,
      "byteLength": 18348,
      "byteOffset": 9432,
      "target": 34962
    },
    {
      "buffer": 0,
      "byteLength": 18348,
      "byteOffset": 27780,
      "target": 34962
    },
    {
      "buffer": 0,
      "byteLength": 12232,
      "byteOffset": 46128,
      "target": 34962
    }
  ],
  "buffers": [
    {
      "byteLength": 58360,
      "uri": "Untitled.bin"
    }
  ],
  "images": [
    {
      "uri": "Butterfly_baseColor.png"
    },
    {
      "uri": "Butterfly_occlusionRoughnessMetallic.png"
    },
    {
      "uri": "Butterfly_normal.png"
    }
  ],
  "materials": [
    {
      "alphaMode": "OPAQUE",
      "name": "Butterfly",
      "normalTexture": {
        "index": 2
      },
      "occlusionTexture": {
        "index": 1
      },
      "pbrMetallicRoughness": {
        "baseColorTexture": {
          "index": 0
        },
        "metallicRoughnessTexture": {
          "index": 1
        }
      }
    }
  ],
  "meshes": [
    {
      "name": "Half_Butterfly_Left",
      "primitives": [
        {
          "attributes": {
            "NORMAL": 2,
            "POSITION": 1,
            "TEXCOORD_0": 3
          },
          "indices": 0,
          "material": 0,
          "mode": 4
        }
      ]
    }
  ],
  "nodes": [
    {
      "children": [
        1
      ],
      "name": "root",
      "scale": [
        1.2848756313324,
        1.2848756313324,
        1.2848756313324
      ],
      "translation": [
        -0.940410614013672,
        0.236579522490501,
        0.0
      ]
    },
    {
      "children": [
        2
      ],
      "name": "Half_Butterfly_Left"
    },
    {
      "mesh": 0,
      "name": "Half_Butterfly_Left"
    }
  ],
  "samplers": [
    {
      "magFilter": 9729,
      "minFilter": 9985,
      "wrapS": 10497,
      "wrapT": 10497
    }
  ],
  "scene": 0,
  "scenes": [
    {
      "name": "Scene",
      "nodes": [
        0
      ]
    }
  ],
  "textures": [
    {
      "sampler": 0,
      "source": 0
    },
    {
      "sampler": 0,
      "source": 1
    },
    {
      "sampler": 0,
      "source": 2
    }
  ]
}