{
  "accessors": [
    {
      "bufferView": 0,
      "componentType": 5125,
      "count": 4416,
      "type": "SCALAR"
    },
    {
      "bufferView": 1,
      "componentType": 5126,
      "count": 2811,
      "max": [
        0.999999940395355,
        0.194840595126152,
        0.681247591972351
      ],
      "min": [
        -0.999999940395355,
        -0.194840624928474,
        -0.681247591972351
      ],
      "type": "VEC3"
    },
    {
      "bufferView": 2,
      "componentType": 5126,
      "count": 2811,
      "type": "VEC3"
    },
    {
      "bufferView": 3,
      "componentType": 5126,
      "count": 2811,
      "type": "VEC2"
    }
  ],
  "asset": {
    "generator": "Substance Painter 2018.2.3",
    "version": "2.0"
  },
  "bufferViews": [
    {
      "buffer": 0,
      "byteLength": 17664,
      "target": 34963
    },
    {
      "buffer": 0,
      "byteLength": 33732,
      "byteOffset": 17664,
      "target": 34962
    },
    {
      "buffer": 0,
      "byteLength": 33732,
      "byteOffset": 51396,
      "target": 34962
    },
    {
      "buffer": 0,
      "byteLength": 22488,
      "byteOffset": 85128,
      "target": 34962
    }
  ],
  "buffers": [
    {
      "byteLength": 107616,
      "uri": "Untitled.bin"
    }
  ],
  "images": [
    {
      "uri": "Butterfly_baseColor.png"
    },
    {
      "uri": "Butterfly_occlusionRoughnessMetallic.png"
    },
    {
      "uri": "Butterfly_normal.png"
    }
  ],
  "materials": [
    {
      "alphaMode": "OPAQUE",
      "name": "Butterfly",
      "normalTexture": {
        "index": 2
      },
      "occlusionTexture": {
        "index": 1
      },
      "pbrMetallicRoughness": {
        "baseColorTexture": {
          "index": 0
        },
        "metallicRoughnessTexture": {
          "index": 1
        }
      }
    }
  ],
  "meshes": [
    {
      "name": "ButterFly",
      "primitives": [
        {
          "attributes": {
            "NORMAL": 2,
            "POSITION": 1,
            "TEXCOORD_0": 3
          },
          "indices": 0,
          "material": 0,
          "mode": 4
        }
      ]
    }
  ],
  "nodes": [
    {
      "children": [
        1
      ],
      "name": "root",
      "scale": [
        1.88606262207031,
        1.88606262207031,
        1.88606262207031
      ],
      "translation": [
        -0.00196075439453125,
        0.24093209207058,
        0.0
      ]
    },
    {
      "children": [
        2
      ],
      "name": "ButterFly"
    },
    {
      "mesh": 0,
      "name": "ButterFly"
    }
  ],
  "samplers": [
    {
      "magFilter": 9729,
      "minFilter": 9985,
      "wrapS": 10497,
      "wrapT": 10497
    }
  ],
  "scene": 0,
  "scenes": [
    {
      "name": "Scene",
      "nodes": [
        0
      ]
    }
  ],
  "textures": [
    {
      "sampler": 0,
      "source": 0
    },
    {
      "sampler": 0,
      "source": 1
    },
    {
      "sampler": 0,
      "source": 2
    }
  ]
}