{"asset":{"version":"2.0","generator":"babylon.js glTF exporter for maya 2018 v1.3.0"},"scene":0,"scenes":[{"nodes":[0],"extensions":{}}],"nodes":[{"children":[1],"translation":[0.0,0.0,0.0],"rotation":[0.0,0.0,0.0,1.0],"scale":[1.0,1.0,1.0],"name":"Brain_Full"},{"children":[2],"translation":[0.0,0.0,0.0],"rotation":[0.0,0.0,0.0,1.0],"scale":[1.0,1.0,1.0],"name":"Temporal_Lobe"},{"mesh":0,"translation":[0.0,0.0,0.0],"rotation":[0.0,0.0,0.0,1.0],"scale":[1.0,1.0,1.0],"name":"Temporal_Lobe_Left"}],"meshes":[{"primitives":[{"attributes":{"POSITION":1,"NORMAL":2,"TANGENT":3,"TEXCOORD_0":4},"indices":0,"mode":4,"material":0}],"name":"Temporal_Lobe_Left"}],"accessors":[{"bufferView":0,"componentType":5123,"count":14298,"type":"SCALAR","name":"accessorIndices"},{"bufferView":1,"componentType":5126,"count":2498,"max":[6.370789,3.25428772,3.70793533],"min":[-0.127470419,-3.43640137,-6.812471],"type":"VEC3","name":"accessorPositions"},{"bufferView":1,"byteOffset":29976,"componentType":5126,"count":2498,"type":"VEC3","name":"accessorNormals"},{"bufferView":2,"componentType":5126,"count":2498,"type":"VEC4","name":"accessorTangents"},{"bufferView":3,"componentType":5126,"count":2498,"type":"VEC2","name":"accessorUVs"}],"bufferViews":[{"buffer":0,"byteLength":28596,"name":"bufferViewScalar"},{"buffer":0,"byteOffset":28596,"byteLength":59952,"byteStride":12,"name":"bufferViewFloatVec3"},{"buffer":0,"byteOffset":88548,"byteLength":39968,"byteStride":16,"name":"bufferViewFloatVec4"},{"buffer":0,"byteOffset":128516,"byteLength":19984,"byteStride":8,"name":"bufferViewFloatVec2"}],"buffers":[{"uri":"Transperent Temporal_Lobe.bin","byteLength":148500}],"materials":[{"pbrMetallicRoughness":{"baseColorFactor":[0.0,0.0551948063,0.0551948063,0.357142866],"metallicFactor":0.0,"roughnessFactor":0.450053632},"emissiveFactor":[0.0,0.0,0.0],"alphaMode":"BLEND","name":"lambert2"}]}