{"asset":{"version":"2.0","generator":"babylon.js glTF exporter for maya 2018 v1.3.0"},"scene":0,"scenes":[{"nodes":[0],"extensions":{}}],"nodes":[{"mesh":0,"translation":[0.0209487677,-9.556152,-3.851704],"rotation":[0.0,0.0,0.0,1.0],"scale":[1.0,1.0,1.0],"name":"Big_Pin"}],"meshes":[{"primitives":[{"attributes":{"POSITION":1,"NORMAL":2,"TANGENT":3,"TEXCOORD_0":4},"indices":0,"mode":4,"material":0}],"name":"Big_Pin"}],"accessors":[{"bufferView":0,"componentType":5123,"count":3012,"type":"SCALAR","name":"accessorIndices"},{"bufferView":1,"componentType":5126,"count":839,"max":[0.5062263,16.8184757,3.97717929],"min":[-0.548123837,2.293828,3.72622848],"type":"VEC3","name":"accessorPositions"},{"bufferView":1,"byteOffset":10068,"componentType":5126,"count":839,"type":"VEC3","name":"accessorNormals"},{"bufferView":2,"componentType":5126,"count":839,"type":"VEC4","name":"accessorTangents"},{"bufferView":3,"componentType":5126,"count":839,"type":"VEC2","name":"accessorUVs"}],"bufferViews":[{"buffer":0,"byteLength":6024,"name":"bufferViewScalar"},{"buffer":0,"byteOffset":6024,"byteLength":20136,"byteStride":12,"name":"bufferViewFloatVec3"},{"buffer":0,"byteOffset":26160,"byteLength":13424,"byteStride":16,"name":"bufferViewFloatVec4"},{"buffer":0,"byteOffset":39584,"byteLength":6712,"byteStride":8,"name":"bufferViewFloatVec2"}],"buffers":[{"uri":"Needle.bin","byteLength":46296}],"materials":[{"pbrMetallicRoughness":{"baseColorFactor":[0.04878049,0.04878049,0.04878049,1.0],"metallicFactor":0.0,"roughnessFactor":0.3207082},"emissiveFactor":[0.0,0.0,0.0],"alphaMode":"OPAQUE","name":"Metal_blck"}]}