{"asset":{"version":"2.0","generator":"babylon.js glTF exporter for maya 2018 v1.3.0"},"scene":0,"scenes":[{"nodes":[0],"extensions":{}}],"nodes":[{"children":[1],"translation":[0.0,0.0,0.0],"rotation":[0.0,0.0,0.0,1.0],"scale":[1.0,1.0,1.0],"name":"Series"},{"mesh":0,"translation":[0.0,0.0,0.0],"rotation":[0.0,0.0,0.0,1.0],"scale":[1.0,1.0,1.0],"name":"Wire_03"}],"meshes":[{"primitives":[{"attributes":{"POSITION":1,"NORMAL":2,"TANGENT":3,"TEXCOORD_0":4},"indices":0,"mode":4,"material":0},{"attributes":{"POSITION":6,"NORMAL":7,"TANGENT":8,"TEXCOORD_0":9},"indices":5,"mode":4,"material":1}],"name":"Wire_03"}],"accessors":[{"bufferView":0,"componentType":5123,"count":1932,"type":"SCALAR","name":"accessorIndices"},{"bufferView":1,"componentType":5126,"count":594,"max":[0.599516332,1.57644558,0.199975967],"min":[0.05788383,1.43945122,0.03110981],"type":"VEC3","name":"accessorPositions"},{"bufferView":1,"byteOffset":7128,"componentType":5126,"count":594,"type":"VEC3","name":"accessorNormals"},{"bufferView":2,"componentType":5126,"count":594,"type":"VEC4","name":"accessorTangents"},{"bufferView":3,"componentType":5126,"count":594,"type":"VEC2","name":"accessorUVs"},{"bufferView":0,"byteOffset":3864,"componentType":5123,"count":2604,"type":"SCALAR","name":"accessorIndices"},{"bufferView":1,"byteOffset":14256,"componentType":5126,"count":630,"max":[0.6024999,2.25625134,0.202876091],"min":[0.0548971,1.52845526,0.02214408],"type":"VEC3","name":"accessorPositions"},{"bufferView":1,"byteOffset":21816,"componentType":5126,"count":630,"type":"VEC3","name":"accessorNormals"},{"bufferView":2,"byteOffset":9504,"componentType":5126,"count":630,"type":"VEC4","name":"accessorTangents"},{"bufferView":3,"byteOffset":4752,"componentType":5126,"count":630,"type":"VEC2","name":"accessorUVs"}],"bufferViews":[{"buffer":0,"byteLength":9072,"name":"bufferViewScalar"},{"buffer":0,"byteOffset":9072,"byteLength":29376,"byteStride":12,"name":"bufferViewFloatVec3"},{"buffer":0,"byteOffset":38448,"byteLength":19584,"byteStride":16,"name":"bufferViewFloatVec4"},{"buffer":0,"byteOffset":58032,"byteLength":9792,"byteStride":8,"name":"bufferViewFloatVec2"}],"buffers":[{"uri":"Red_wire.bin","byteLength":67824}],"materials":[{"pbrMetallicRoughness":{"baseColorFactor":[0.39,0.39,0.39,1.0],"metallicFactor":0.0,"roughnessFactor":0.450053632},"emissiveFactor":[0.0,0.0,0.0],"alphaMode":"OPAQUE","name":"Silver_Metal1"},{"pbrMetallicRoughness":{"baseColorFactor":[1.0,1.0,1.0,1.0],"baseColorTexture":{"index":0,"texCoord":0},"metallicFactor":0.0,"roughnessFactor":0.450053632},"emissiveFactor":[0.0,0.0,0.0],"alphaMode":"OPAQUE","name":"Battary_Resistance_Wire_Diff1"}],"textures":[{"sampler":0,"source":0,"name":"Battary_Resistance_Wire_Diff1_baseColor.jpg"}],"images":[{"uri":"Battary_Resistance_Wire_Diff1_baseColor.jpg"}],"samplers":[{"magFilter":9729,"minFilter":9987,"wrapS":10497,"wrapT":10497}]}