{"asset":{"version":"2.0","generator":"babylon.js glTF exporter for maya 2018 v1.3.0"},"scene":0,"scenes":[{"nodes":[0],"extensions":{}}],"nodes":[{"mesh":0,"translation":[-14.8844824,-5.337127,4.32822371],"rotation":[0.0,0.151580051,0.0,0.988445],"scale":[1.0,1.0,1.0],"name":"Atom_Box_11"}],"meshes":[{"primitives":[{"attributes":{"POSITION":1,"NORMAL":2,"TANGENT":3,"TEXCOORD_0":4},"indices":0,"mode":4,"material":0},{"attributes":{"POSITION":6,"NORMAL":7,"TANGENT":8,"TEXCOORD_0":9},"indices":5,"mode":4,"material":1}],"name":"Atom_Box_11"}],"accessors":[{"bufferView":0,"componentType":5123,"count":468,"type":"SCALAR","name":"accessorIndices"},{"bufferView":1,"componentType":5126,"count":152,"max":[16.7914352,6.348608,1.6398325],"min":[14.2035217,4.3256464,-0.9780092],"type":"VEC3","name":"accessorPositions"},{"bufferView":1,"byteOffset":1824,"componentType":5126,"count":152,"type":"VEC3","name":"accessorNormals"},{"bufferView":2,"componentType":5126,"count":152,"type":"VEC4","name":"accessorTangents"},{"bufferView":3,"componentType":5126,"count":152,"type":"VEC2","name":"accessorUVs"},{"bufferView":0,"byteOffset":936,"componentType":5123,"count":102,"type":"SCALAR","name":"accessorIndices"},{"bufferView":1,"byteOffset":3648,"componentType":5126,"count":44,"max":[16.7699356,6.348608,1.461276],"min":[14.2600479,4.3256464,-0.972156048],"type":"VEC3","name":"accessorPositions"},{"bufferView":1,"byteOffset":4176,"componentType":5126,"count":44,"type":"VEC3","name":"accessorNormals"},{"bufferView":2,"byteOffset":2432,"componentType":5126,"count":44,"type":"VEC4","name":"accessorTangents"},{"bufferView":3,"byteOffset":1216,"componentType":5126,"count":44,"type":"VEC2","name":"accessorUVs"}],"bufferViews":[{"buffer":0,"byteLength":1140,"name":"bufferViewScalar"},{"buffer":0,"byteOffset":1140,"byteLength":4704,"byteStride":12,"name":"bufferViewFloatVec3"},{"buffer":0,"byteOffset":5844,"byteLength":3136,"byteStride":16,"name":"bufferViewFloatVec4"},{"buffer":0,"byteOffset":8980,"byteLength":1568,"byteStride":8,"name":"bufferViewFloatVec2"}],"buffers":[{"uri":"BOX.bin","byteLength":10548}],"materials":[{"pbrMetallicRoughness":{"baseColorFactor":[1.0,1.0,1.0,1.0],"baseColorTexture":{"index":0,"texCoord":0},"metallicFactor":0.0,"roughnessFactor":0.19348453},"emissiveFactor":[0.0,0.0,0.0],"alphaMode":"OPAQUE","name":"NonMetals_Box_Diffuse"},{"pbrMetallicRoughness":{"baseColorFactor":[0.5,0.5,0.5,0.471544743],"metallicFactor":0.0,"roughnessFactor":0.3207082},"emissiveFactor":[0.0,0.0,0.0],"alphaMode":"BLEND","name":"Atom_Box_Glass_Diff"}],"textures":[{"sampler":0,"source":0,"name":"NonMetals_Box_Diffuse_baseColor.jpg"}],"images":[{"uri":"NonMetals_Box_Diffuse_baseColor.jpg"}],"samplers":[{"magFilter":9729,"minFilter":9987,"wrapS":10497,"wrapT":10497}]}