{"asset":{"version":"2.0","generator":"babylon.js glTF exporter for maya 2018 v1.3.0"},"scene":0,"scenes":[{"nodes":[0],"extensions":{}}],"nodes":[{"children":[1],"translation":[0.0,-168.866745,0.0],"rotation":[0.0,0.0,0.0,1.0],"scale":[1.0,1.0,1.0],"name":"Half_Section_Brain"},{"mesh":0,"translation":[0.0,0.0,0.0],"rotation":[0.0,0.0,0.0,1.0],"scale":[1.0,1.0,1.0],"name":"Corpus_Callosum"}],"meshes":[{"primitives":[{"attributes":{"POSITION":1,"NORMAL":2,"TANGENT":3,"TEXCOORD_0":4,"TEXCOORD_1":5},"indices":0,"mode":4,"material":0}],"name":"Corpus_Callosum"}],"accessors":[{"bufferView":0,"componentType":5123,"count":978,"type":"SCALAR","name":"accessorIndices"},{"bufferView":1,"componentType":5126,"count":210,"max":[0.5655459,174.442688,7.354778],"min":[-0.0301864482,170.703766,-0.920103431],"type":"VEC3","name":"accessorPositions"},{"bufferView":1,"byteOffset":2520,"componentType":5126,"count":210,"type":"VEC3","name":"accessorNormals"},{"bufferView":2,"componentType":5126,"count":210,"type":"VEC4","name":"accessorTangents"},{"bufferView":3,"componentType":5126,"count":210,"type":"VEC2","name":"accessorUVs"},{"bufferView":3,"byteOffset":1680,"componentType":5126,"count":210,"type":"VEC2","name":"accessorUV2s"}],"bufferViews":[{"buffer":0,"byteLength":1956,"name":"bufferViewScalar"},{"buffer":0,"byteOffset":1956,"byteLength":5040,"byteStride":12,"name":"bufferViewFloatVec3"},{"buffer":0,"byteOffset":6996,"byteLength":3360,"byteStride":16,"name":"bufferViewFloatVec4"},{"buffer":0,"byteOffset":10356,"byteLength":3360,"byteStride":8,"name":"bufferViewFloatVec2"}],"buffers":[{"uri":"Transperent Corpus_Callosum.bin","byteLength":13716}],"materials":[{"pbrMetallicRoughness":{"baseColorFactor":[0.0,0.0551948063,0.0551948063,0.357142866],"metallicFactor":0.0,"roughnessFactor":0.450053632},"emissiveFactor":[0.0,0.0,0.0],"alphaMode":"BLEND","name":"lambert2"}]}