{
  "accessors": [
    {
      "bufferView": 0,
      "componentType": 5125,
      "count": 36,
      "type": "SCALAR"
    },
    {
      "bufferView": 1,
      "componentType": 5126,
      "count": 24,
      "max": [
        0.00916523486375809,
        1.0,
        0.00878448691219091
      ],
      "min": [
        -0.00916523486375809,
        -1.0,
        -0.00878448691219091
      ],
      "type": "VEC3"
    },
    {
      "bufferView": 2,
      "componentType": 5126,
      "count": 24,
      "type": "VEC3"
    },
    {
      "bufferView": 3,
      "componentType": 5126,
      "count": 24,
      "type": "VEC2"
    }
  ],
  "asset": {
    "generator": "Substance Painter 2018.2.3",
    "version": "2.0"
  },
  "bufferViews": [
    {
      "buffer": 0,
      "byteLength": 144,
      "target": 34963
    },
    {
      "buffer": 0,
      "byteLength": 288,
      "byteOffset": 144,
      "target": 34962
    },
    {
      "buffer": 0,
      "byteLength": 288,
      "byteOffset": 432,
      "target": 34962
    },
    {
      "buffer": 0,
      "byteLength": 192,
      "byteOffset": 720,
      "target": 34962
    }
  ],
  "buffers": [
    {
      "byteLength": 912,
      "uri": "Untitled.bin"
    }
  ],
  "images": [
    {
      "uri": "Symmetry_Line_baseColor.png"
    },
    {
      "uri": "Symmetry_Line_occlusionRoughnessMetallic.png"
    },
    {
      "uri": "Symmetry_Line_normal.png"
    }
  ],
  "materials": [
    {
      "alphaMode": "OPAQUE",
      "name": "Symmetry_Line",
      "normalTexture": {
        "index": 2
      },
      "occlusionTexture": {
        "index": 1
      },
      "pbrMetallicRoughness": {
        "baseColorTexture": {
          "index": 0
        },
        "metallicRoughnessTexture": {
          "index": 1
        }
      }
    }
  ],
  "meshes": [
    {
      "name": "Symmetry_Line1",
      "primitives": [
        {
          "attributes": {
            "NORMAL": 2,
            "POSITION": 1,
            "TEXCOORD_0": 3
          },
          "indices": 0,
          "material": 0,
          "mode": 4
        }
      ]
    }
  ],
  "nodes": [
    {
      "children": [
        1
      ],
      "name": "root",
      "scale": [
        13.6120128631592,
        13.6120128631592,
        13.6120128631592
      ],
      "translation": [
        -0.0184664726257324,
        13.622766494751,
        -0.00355625152587891
      ]
    },
    {
      "children": [
        2
      ],
      "name": "Symmetry_Line1"
    },
    {
      "mesh": 0,
      "name": "Symmetry_Line1"
    }
  ],
  "samplers": [
    {
      "magFilter": 9729,
      "minFilter": 9985,
      "wrapS": 10497,
      "wrapT": 10497
    }
  ],
  "scene": 0,
  "scenes": [
    {
      "name": "Scene",
      "nodes": [
        0
      ]
    }
  ],
  "textures": [
    {
      "sampler": 0,
      "source": 0
    },
    {
      "sampler": 0,
      "source": 1
    },
    {
      "sampler": 0,
      "source": 2
    }
  ]
}