{"asset":{"version":"2.0","generator":"babylon.js glTF exporter for maya 2018 v1.3.0"},"scene":0,"scenes":[{"nodes":[0],"extensions":{}}],"nodes":[{"children":[1],"translation":[0.0,0.0,6.78899765],"rotation":[0.0,0.0,0.0,1.0],"scale":[1.0,1.0,1.0],"name":"cntrl_galvometer_grp"},{"children":[2],"translation":[0.0,0.0,0.0],"rotation":[0.0,0.0,0.0,1.0],"scale":[1.0,1.0,1.0],"name":"cntrl_galvometer"},{"children":[3],"translation":[0.0,0.0,-6.78899765],"rotation":[0.0,0.0,0.0,1.0],"scale":[1.0,1.0,1.0],"name":"galvometer"},{"children":[4],"translation":[0.0,0.0,0.0],"rotation":[0.0,0.0,0.0,1.0],"scale":[1.0,1.0,1.0],"name":"Galvanometer_Grp"},{"children":[5,6,7,8,9],"translation":[0.0676384,-8.900775,-1.66348648],"rotation":[0.0,0.0,0.0,1.0],"scale":[1.0,1.0,1.0],"name":"group1"},{"mesh":0,"translation":[0.0,0.0,0.0],"rotation":[0.0,0.0,0.0,1.0],"scale":[1.0,1.0,1.0],"name":"Glass"},{"mesh":1,"translation":[0.0,0.0,0.0],"rotation":[0.0,0.0,0.0,1.0],"scale":[1.0,1.0,1.0],"name":"Number_Reading_Case"},{"mesh":2,"translation":[0.0,0.0,0.0],"rotation":[0.0,0.0,0.0,1.0],"scale":[1.0,1.0,1.0],"name":"Meter_Holder_01"},{"mesh":3,"translation":[0.0,0.0,0.0],"rotation":[0.0,0.0,0.0,1.0],"scale":[1.0,1.0,1.0],"name":"Meter_Holder_02"},{"mesh":4,"translation":[0.0,0.0,0.0],"rotation":[0.0,0.0,0.0,1.0],"scale":[1.0,1.0,1.0],"name":"Reading_Numbers_Pin_Grp2"}],"meshes":[{"primitives":[{"attributes":{"POSITION":1,"NORMAL":2,"TANGENT":3,"TEXCOORD_0":4},"indices":0,"mode":4,"material":0}],"name":"Glass"},{"primitives":[{"attributes":{"POSITION":6,"NORMAL":7,"TANGENT":8,"TEXCOORD_0":9},"indices":5,"mode":4,"material":1},{"attributes":{"POSITION":11,"NORMAL":12,"TANGENT":13,"TEXCOORD_0":14},"indices":10,"mode":4,"material":2}],"name":"Number_Reading_Case"},{"primitives":[{"attributes":{"POSITION":16,"NORMAL":17,"TANGENT":18,"TEXCOORD_0":19},"indices":15,"mode":4,"material":2}],"name":"Meter_Holder_01"},{"primitives":[{"attributes":{"POSITION":21,"NORMAL":22,"TANGENT":23,"TEXCOORD_0":24},"indices":20,"mode":4,"material":2}],"name":"Meter_Holder_02"},{"primitives":[{"attributes":{"POSITION":26,"NORMAL":27,"TANGENT":28,"TEXCOORD_0":29},"indices":25,"mode":4,"material":3}],"name":"Reading_Numbers_Pin_Grp2"}],"accessors":[{"bufferView":0,"componentType":5123,"count":96,"type":"SCALAR","name":"accessorIndices"},{"bufferView":1,"componentType":5126,"count":34,"max":[12.14213,17.5675774,3.24459982],"min":[-12.2792435,9.372861,3.24459982],"type":"VEC3","name":"accessorPositions"},{"bufferView":1,"byteOffset":408,"componentType":5126,"count":34,"type":"VEC3","name":"accessorNormals"},{"bufferView":2,"componentType":5126,"count":34,"type":"VEC4","name":"accessorTangents"},{"bufferView":3,"componentType":5126,"count":34,"type":"VEC2","name":"accessorUVs"},{"bufferView":0,"byteOffset":192,"componentType":5123,"count":96,"type":"SCALAR","name":"accessorIndices"},{"bufferView":1,"byteOffset":816,"componentType":5126,"count":34,"max":[12.1439667,17.5490074,2.99351],"min":[-12.2792435,9.359005,2.99351],"type":"VEC3","name":"accessorPositions"},{"bufferView":1,"byteOffset":1224,"componentType":5126,"count":34,"type":"VEC3","name":"accessorNormals"},{"bufferView":2,"byteOffset":544,"componentType":5126,"count":34,"type":"VEC4","name":"accessorTangents"},{"bufferView":3,"byteOffset":272,"componentType":5126,"count":34,"type":"VEC2","name":"accessorUVs"},{"bufferView":0,"byteOffset":384,"componentType":5123,"count":1716,"type":"SCALAR","name":"accessorIndices"},{"bufferView":1,"byteOffset":1632,"componentType":5126,"count":466,"max":[12.4194632,17.80155,3.30926085],"min":[-12.55474,9.095421,2.70317554],"type":"VEC3","name":"accessorPositions"},{"bufferView":1,"byteOffset":7224,"componentType":5126,"count":466,"type":"VEC3","name":"accessorNormals"},{"bufferView":2,"byteOffset":1088,"componentType":5126,"count":466,"type":"VEC4","name":"accessorTangents"},{"bufferView":3,"byteOffset":544,"componentType":5126,"count":466,"type":"VEC2","name":"accessorUVs"},{"bufferView":0,"byteOffset":3816,"componentType":5123,"count":978,"type":"SCALAR","name":"accessorIndices"},{"bufferView":1,"byteOffset":12816,"componentType":5126,"count":276,"max":[-4.314049,13.1686106,3.326973],"min":[-8.364069,8.80174,2.996141],"type":"VEC3","name":"accessorPositions"},{"bufferView":1,"byteOffset":16128,"componentType":5126,"count":276,"type":"VEC3","name":"accessorNormals"},{"bufferView":2,"byteOffset":8544,"componentType":5126,"count":276,"type":"VEC4","name":"accessorTangents"},{"bufferView":3,"byteOffset":4272,"componentType":5126,"count":276,"type":"VEC2","name":"accessorUVs"},{"bufferView":0,"byteOffset":5772,"componentType":5123,"count":978,"type":"SCALAR","name":"accessorIndices"},{"bufferView":1,"byteOffset":19440,"componentType":5126,"count":276,"max":[8.32854748,13.1686106,3.32697272],"min":[4.278527,8.80174,2.996141],"type":"VEC3","name":"accessorPositions"},{"bufferView":1,"byteOffset":22752,"componentType":5126,"count":276,"type":"VEC3","name":"accessorNormals"},{"bufferView":2,"byteOffset":12960,"componentType":5126,"count":276,"type":"VEC4","name":"accessorTangents"},{"bufferView":3,"byteOffset":6480,"componentType":5126,"count":276,"type":"VEC2","name":"accessorUVs"},{"bufferView":0,"byteOffset":7728,"componentType":5123,"count":4254,"type":"SCALAR","name":"accessorIndices"},{"bufferView":1,"byteOffset":26064,"componentType":5126,"count":2280,"max":[11.3965435,17.25673,3.294956],"min":[-11.499938,10.466815,2.91952872],"type":"VEC3","name":"accessorPositions"},{"bufferView":1,"byteOffset":53424,"componentType":5126,"count":2280,"type":"VEC3","name":"accessorNormals"},{"bufferView":2,"byteOffset":17376,"componentType":5126,"count":2280,"type":"VEC4","name":"accessorTangents"},{"bufferView":3,"byteOffset":8688,"componentType":5126,"count":2280,"type":"VEC2","name":"accessorUVs"}],"bufferViews":[{"buffer":0,"byteLength":16236,"name":"bufferViewScalar"},{"buffer":0,"byteOffset":16236,"byteLength":80784,"byteStride":12,"name":"bufferViewFloatVec3"},{"buffer":0,"byteOffset":97020,"byteLength":53856,"byteStride":16,"name":"bufferViewFloatVec4"},{"buffer":0,"byteOffset":150876,"byteLength":26928,"byteStride":8,"name":"bufferViewFloatVec2"}],"buffers":[{"uri":"Scale.bin","byteLength":177804}],"materials":[{"pbrMetallicRoughness":{"baseColorFactor":[0.129312,0.263599068,0.288,0.398373961],"metallicFactor":0.0,"roughnessFactor":0.450053632},"emissiveFactor":[0.0,0.0,0.0],"alphaMode":"BLEND","name":"Glass1"},{"pbrMetallicRoughness":{"baseColorFactor":[0.25,0.25,0.25,1.0],"metallicFactor":0.0,"roughnessFactor":0.3207082},"emissiveFactor":[0.0,0.0,0.0],"alphaMode":"OPAQUE","name":"Steel"},{"pbrMetallicRoughness":{"baseColorFactor":[0.04878049,0.04878049,0.04878049,1.0],"metallicFactor":0.0,"roughnessFactor":0.3207082},"emissiveFactor":[0.0,0.0,0.0],"alphaMode":"OPAQUE","name":"Metal_blck"},{"pbrMetallicRoughness":{"baseColorFactor":[0.0,0.0,0.0,1.0],"metallicFactor":0.0,"roughnessFactor":0.450053632},"emissiveFactor":[0.0,0.0,0.0],"alphaMode":"OPAQUE","name":"Black"}]}