{"asset":{"version":"2.0","generator":"babylon.js glTF exporter for maya 2018 v1.3.0"},"scene":0,"scenes":[{"nodes":[0],"extensions":{}}],"nodes":[{"mesh":0,"translation":[0.0,0.0,0.0],"rotation":[0.0,0.0,0.0,1.0],"scale":[1.0,1.0,1.0],"name":"pSphere1"}],"meshes":[{"primitives":[{"attributes":{"POSITION":1,"NORMAL":2,"TANGENT":3,"TEXCOORD_0":4},"indices":0,"mode":4,"material":0}],"name":"pSphere1"}],"accessors":[{"bufferView":0,"componentType":5123,"count":2280,"type":"SCALAR","name":"accessorIndices"},{"bufferView":1,"componentType":5126,"count":437,"max":[4.65325642,4.63441563,4.647404],"min":[-4.65325737,-4.63441563,-4.64740467],"type":"VEC3","name":"accessorPositions"},{"bufferView":1,"byteOffset":5244,"componentType":5126,"count":437,"type":"VEC3","name":"accessorNormals"},{"bufferView":2,"componentType":5126,"count":437,"type":"VEC4","name":"accessorTangents"},{"bufferView":3,"componentType":5126,"count":437,"type":"VEC2","name":"accessorUVs"}],"bufferViews":[{"buffer":0,"byteLength":4560,"name":"bufferViewScalar"},{"buffer":0,"byteOffset":4560,"byteLength":10488,"byteStride":12,"name":"bufferViewFloatVec3"},{"buffer":0,"byteOffset":15048,"byteLength":6992,"byteStride":16,"name":"bufferViewFloatVec4"},{"buffer":0,"byteOffset":22040,"byteLength":3496,"byteStride":8,"name":"bufferViewFloatVec2"}],"buffers":[{"uri":"Sphere.bin","byteLength":25536}],"materials":[{"pbrMetallicRoughness":{"baseColorFactor":[0.0,0.5,0.0576916933,0.837662339],"metallicFactor":0.0,"roughnessFactor":0.2581639},"emissiveFactor":[0.0,0.324675322,0.0374621376],"alphaMode":"BLEND","name":"phong1"}]}